<svg id="svg" version="1.1" xmlns="http://www.w3.org/2000/svg" xmlns:xlink="http://www.w3.org/1999/xlink" width="400" height="400" viewBox="0, 0, 400,400"><g id="svgg"><path id="path0" d="M318.800 107.736 C 318.800 109.979,320.744 113.916,322.697 115.632 C 325.863 118.411,327.521 118.800,336.211 118.800 L 344.000 118.800 344.000 112.400 L 344.000 106.000 331.400 106.000 L 318.800 106.000 318.800 107.736 M124.894 143.536 L 125.000 156.200 200.000 156.200 L 275.000 156.200 275.106 143.536 L 275.211 130.871 200.000 130.871 L 124.789 130.871 124.894 143.536 M174.984 212.900 C 174.879 213.175,174.840 227.260,174.897 244.200 L 175.000 275.000 184.323 275.107 L 193.647 275.215 193.427 276.907 C 193.021 280.035,192.015 288.962,191.569 293.400 C 191.325 295.820,190.974 299.150,190.788 300.800 C 190.355 304.641,189.652 310.859,189.160 315.200 C 187.137 333.028,187.071 332.366,190.282 326.400 C 192.180 322.873,194.272 318.983,196.144 315.500 C 196.882 314.125,198.528 311.020,199.800 308.600 C 201.072 306.180,202.508 303.480,202.991 302.600 C 203.474 301.720,204.735 299.380,205.794 297.400 C 206.852 295.420,208.749 291.910,210.008 289.600 C 211.267 287.290,213.152 283.780,214.196 281.800 C 215.241 279.820,216.614 277.255,217.248 276.100 C 219.262 272.429,220.624 269.907,222.811 265.800 C 223.982 263.600,226.349 259.203,228.070 256.030 C 229.792 252.856,231.200 250.201,231.200 250.130 C 231.200 250.058,225.620 250.000,218.800 250.000 C 208.231 250.000,206.400 249.914,206.400 249.420 C 206.400 249.101,206.566 247.976,206.768 246.920 C 207.583 242.665,208.101 239.642,210.204 226.837 C 211.412 219.487,212.400 213.232,212.400 212.937 C 212.400 212.173,175.276 212.136,174.984 212.900 M295.200 232.015 C 290.536 232.998,289.246 233.329,287.200 234.068 C 284.282 235.122,279.646 237.559,278.404 238.692 C 277.856 239.191,277.270 239.600,277.101 239.600 C 274.530 239.600,264.400 255.059,264.400 258.983 C 264.400 259.516,264.245 260.048,264.057 260.165 C 263.741 260.360,263.587 261.368,262.925 267.528 C 262.704 269.586,263.219 274.107,264.050 277.400 C 267.565 291.324,277.476 301.235,291.400 304.750 C 296.756 306.101,300.138 306.204,306.400 305.206 C 327.193 301.891,341.847 279.234,335.899 259.600 C 334.617 255.369,331.724 248.795,330.795 248.000 C 330.667 247.890,330.122 247.170,329.585 246.400 C 328.327 244.597,324.203 240.473,322.400 239.215 C 321.630 238.678,320.910 238.118,320.800 237.971 C 320.385 237.415,312.125 233.612,310.400 233.182 C 305.253 231.900,298.287 231.365,295.200 232.015 M97.235 250.719 C 94.724 251.972,94.224 253.116,94.000 258.127 L 93.800 262.600 89.379 262.800 C 84.253 263.032,83.159 263.524,81.975 266.131 C 79.637 271.281,82.703 274.715,89.800 274.897 L 93.800 275.000 93.903 279.000 C 94.085 286.097,97.519 289.163,102.669 286.825 C 105.276 285.641,105.768 284.547,106.000 279.421 L 106.200 275.000 110.400 274.800 C 115.702 274.548,117.239 273.690,118.424 270.324 C 120.003 265.837,116.012 262.400,109.223 262.400 L 106.400 262.400 106.390 259.700 C 106.363 252.213,102.277 248.204,97.235 250.719 " stroke="none" fill="#f8c30c" fill-rule="evenodd"></path><path id="path1" d="M306.000 118.400 L 306.000 130.800 325.000 130.800 L 344.000 130.800 344.000 124.800 L 344.000 118.800 336.211 118.800 C 327.521 118.800,325.863 118.411,322.697 115.632 C 320.744 113.916,318.800 109.979,318.800 107.736 L 318.800 106.000 312.400 106.000 L 306.000 106.000 306.000 118.400 M37.200 268.800 L 37.200 356.000 200.000 356.000 L 362.800 356.000 362.800 334.199 L 362.800 312.398 280.341 312.499 L 197.882 312.600 196.111 315.800 C 195.136 317.560,193.392 320.800,192.234 323.000 C 189.513 328.169,188.417 330.106,187.932 330.600 C 187.498 331.043,187.685 327.397,188.405 321.400 C 188.642 319.420,188.873 316.630,188.918 315.200 L 189.000 312.600 185.600 312.506 C 166.561 311.981,147.175 305.445,132.457 294.589 L 129.653 292.520 126.689 295.427 C 123.777 298.284,118.027 302.400,116.949 302.400 C 116.647 302.400,116.400 302.580,116.400 302.800 C 116.400 303.020,116.128 303.200,115.795 303.200 C 115.462 303.200,114.832 303.380,114.395 303.600 C 113.958 303.820,113.242 304.180,112.805 304.400 C 112.368 304.620,111.659 304.800,111.229 304.800 C 110.799 304.800,110.348 304.961,110.226 305.158 C 109.639 306.108,95.751 306.782,93.000 305.993 C 92.120 305.740,90.680 305.348,89.800 305.121 C 85.945 304.127,80.834 301.563,76.835 298.617 C 76.088 298.066,70.715 292.689,70.189 291.965 C 67.879 288.786,66.299 286.074,65.200 283.400 C 64.929 282.740,64.548 281.887,64.353 281.505 C 64.159 281.123,64.000 280.459,64.000 280.029 C 64.000 279.599,63.839 279.148,63.642 279.026 C 62.322 278.210,62.322 259.390,63.642 258.574 C 63.839 258.452,64.000 258.001,64.000 257.571 C 64.000 257.141,64.159 256.477,64.353 256.095 C 64.548 255.713,64.931 254.860,65.206 254.200 C 67.883 247.766,72.946 241.541,78.600 237.731 C 82.725 234.952,89.653 232.000,92.052 232.000 C 94.434 232.000,94.508 231.692,94.006 223.783 C 93.756 219.832,93.607 212.910,93.675 208.400 L 93.800 200.200 228.300 200.099 L 362.800 199.999 362.800 190.799 L 362.800 181.600 200.000 181.600 L 37.200 181.600 37.200 268.800 " stroke="none" fill="#646c74" fill-rule="evenodd"></path><path id="path2" d="M56.000 118.600 L 56.000 131.200 75.000 131.200 L 94.000 131.200 94.000 118.600 L 94.000 106.000 75.000 106.000 L 56.000 106.000 56.000 118.600 M93.800 231.806 C 91.261 232.278,90.226 232.535,87.245 233.434 C 77.858 236.265,67.617 246.783,64.346 256.953 C 52.448 293.938,97.139 322.485,125.636 296.103 C 128.781 293.190,130.407 291.001,133.625 285.341 C 137.999 277.647,138.603 266.825,135.259 256.093 C 130.222 239.929,110.926 228.625,93.800 231.806 M104.213 251.206 C 106.058 252.930,106.400 254.053,106.400 258.380 L 106.400 262.400 110.420 262.400 C 116.552 262.400,118.474 263.770,118.723 268.319 C 118.997 273.334,116.847 275.126,110.500 275.171 L 106.400 275.200 106.400 279.611 L 106.400 284.021 104.611 285.811 C 102.830 287.592,102.808 287.600,100.000 287.600 C 97.192 287.600,97.170 287.592,95.389 285.811 L 93.600 284.021 93.600 279.611 L 93.600 275.200 89.189 275.200 L 84.779 275.200 82.989 273.411 C 81.202 271.623,81.200 271.618,81.200 268.742 L 81.200 265.863 83.007 264.131 L 84.814 262.400 89.207 262.400 L 93.600 262.400 93.600 258.007 L 93.600 253.614 95.375 251.762 L 97.149 249.910 100.149 250.061 C 102.672 250.189,103.319 250.371,104.213 251.206 " stroke="none" fill="#61b8ea" fill-rule="evenodd"></path><path id="path3" d="M306.220 131.135 C 306.429 131.319,315.060 131.352,325.400 131.208 L 344.200 130.946 325.020 130.873 C 314.471 130.833,306.011 130.951,306.220 131.135 M118.500 181.500 C 163.325 181.556,236.675 181.556,281.500 181.500 C 326.325 181.444,289.650 181.398,200.000 181.398 C 110.350 181.398,73.675 181.444,118.500 181.500 M93.729 200.642 C 93.593 200.995,93.622 207.070,93.793 214.142 C 93.963 221.214,94.125 228.022,94.152 229.272 L 94.200 231.544 98.200 231.335 C 112.930 230.564,127.328 239.134,133.750 252.493 C 138.661 262.711,138.609 276.574,133.625 285.341 C 131.814 288.525,130.976 289.889,130.131 291.024 L 129.221 292.248 132.220 294.424 C 147.629 305.602,166.828 312.116,185.313 312.439 C 190.024 312.521,189.537 312.983,190.038 307.955 C 190.265 305.670,190.603 302.450,190.789 300.800 C 190.974 299.150,191.325 295.820,191.569 293.400 C 192.015 288.962,193.021 280.035,193.427 276.907 L 193.647 275.215 184.323 275.107 L 175.000 275.000 175.000 243.800 L 175.000 212.600 193.700 212.496 C 209.198 212.410,212.400 212.485,212.400 212.933 C 212.400 213.230,211.412 219.487,210.204 226.837 C 208.101 239.642,207.583 242.665,206.768 246.920 C 206.566 247.976,206.400 249.101,206.400 249.420 C 206.400 249.914,208.231 250.000,218.800 250.000 C 225.620 250.000,231.200 250.058,231.200 250.130 C 231.200 250.201,229.792 252.856,228.070 256.030 C 226.349 259.203,223.982 263.600,222.811 265.800 C 220.700 269.765,219.307 272.343,217.192 276.200 C 216.589 277.300,215.241 279.820,214.196 281.800 C 213.152 283.780,211.267 287.290,210.008 289.600 C 208.749 291.910,206.852 295.420,205.794 297.400 C 204.735 299.380,203.474 301.720,202.991 302.600 C 202.508 303.480,201.110 306.090,199.884 308.400 L 197.655 312.600 280.227 312.498 L 362.800 312.396 362.800 256.198 L 362.800 200.000 228.387 200.000 C 105.381 200.000,93.954 200.054,93.729 200.642 M306.600 232.363 C 310.609 233.106,312.280 233.669,316.400 235.667 C 318.710 236.787,320.690 237.823,320.800 237.971 C 320.910 238.118,321.630 238.678,322.400 239.215 C 324.203 240.473,328.327 244.597,329.585 246.400 C 330.122 247.170,330.667 247.890,330.795 248.000 C 331.724 248.795,334.617 255.369,335.899 259.600 C 341.847 279.234,327.193 301.891,306.400 305.206 C 300.138 306.204,296.756 306.101,291.400 304.750 C 277.476 301.235,267.565 291.324,264.050 277.400 C 263.219 274.107,262.704 269.586,262.925 267.528 C 263.587 261.368,263.741 260.360,264.057 260.165 C 264.245 260.048,264.400 259.516,264.400 258.983 C 264.400 255.059,274.530 239.600,277.101 239.600 C 277.270 239.600,277.856 239.191,278.404 238.692 C 279.646 237.559,284.282 235.122,287.200 234.068 C 289.246 233.329,290.536 232.998,295.200 232.015 C 297.194 231.595,303.496 231.788,306.600 232.363 M73.373 242.100 C 71.205 244.355,68.547 247.463,70.038 246.000 C 71.706 244.363,76.109 239.600,75.954 239.600 C 75.857 239.600,74.695 240.725,73.373 242.100 M95.331 251.807 L 93.600 253.614 93.600 258.007 L 93.600 262.400 89.207 262.400 L 84.814 262.400 83.007 264.131 C 81.825 265.264,81.203 266.198,81.209 266.831 C 81.216 267.617,81.361 267.484,81.975 266.131 C 83.159 263.524,84.253 263.032,89.379 262.800 L 93.800 262.600 94.000 258.127 C 94.224 253.116,94.724 251.972,97.235 250.719 C 98.197 250.240,98.373 250.033,97.831 250.019 C 97.409 250.009,96.284 250.813,95.331 251.807 M102.200 250.563 C 104.004 251.416,105.530 253.226,105.947 255.009 C 106.261 256.351,106.326 256.424,106.360 255.480 C 106.439 253.273,104.357 250.644,102.200 250.228 L 101.000 249.996 102.200 250.563 M62.649 262.215 C 62.512 262.573,62.418 263.256,62.441 263.733 C 62.467 264.281,62.603 264.086,62.810 263.203 C 63.160 261.716,63.065 261.133,62.649 262.215 M114.020 262.931 C 116.055 263.603,117.100 264.467,118.027 266.242 C 118.771 267.667,118.819 267.698,118.591 266.600 C 118.158 264.524,115.530 262.364,113.520 262.431 C 112.809 262.454,112.923 262.568,114.020 262.931 M81.216 270.711 C 81.206 271.269,81.892 272.313,82.989 273.411 L 84.779 275.200 89.189 275.200 L 93.600 275.200 93.600 279.611 L 93.600 284.021 95.389 285.811 C 96.487 286.908,97.531 287.594,98.089 287.584 C 98.900 287.570,98.868 287.510,97.800 287.035 C 94.803 285.701,94.034 284.115,93.903 279.000 L 93.800 275.000 89.800 274.897 C 84.685 274.766,83.099 273.997,81.765 271.000 C 81.290 269.932,81.230 269.900,81.216 270.711 M118.217 270.800 C 117.351 273.604,115.487 274.558,110.400 274.800 L 106.200 275.000 106.000 279.421 C 105.768 284.547,105.276 285.641,102.669 286.825 C 101.407 287.398,101.222 287.585,101.911 287.591 C 102.463 287.597,103.524 286.897,104.611 285.811 L 106.400 284.021 106.400 279.611 L 106.400 275.200 110.405 275.200 C 114.332 275.200,115.237 274.978,116.941 273.601 C 117.877 272.844,118.900 270.895,118.687 270.273 C 118.598 270.013,118.386 270.250,118.217 270.800 M62.406 274.033 C 62.409 274.565,62.589 275.270,62.806 275.600 C 63.082 276.022,63.123 275.785,62.942 274.800 C 62.625 273.075,62.398 272.749,62.406 274.033 M126.587 295.300 L 124.200 297.800 126.700 295.413 C 129.022 293.195,129.383 292.800,129.087 292.800 C 129.026 292.800,127.901 293.925,126.587 295.300 M93.200 305.994 C 93.530 306.211,94.235 306.391,94.767 306.394 C 96.051 306.402,95.725 306.175,94.000 305.858 C 93.015 305.677,92.778 305.718,93.200 305.994 M105.400 306.000 C 104.293 306.282,104.277 306.309,105.200 306.347 C 105.750 306.369,106.470 306.213,106.800 306.000 C 107.481 305.560,107.129 305.560,105.400 306.000 M118.533 356.300 C 163.376 356.356,236.636 356.356,281.333 356.300 C 326.030 356.244,289.340 356.198,199.800 356.198 C 110.260 356.198,73.690 356.244,118.533 356.300 " stroke="none" fill="#939b9c" fill-rule="evenodd"></path><path id="path4" d="M150.733 93.597 C 150.660 93.815,150.105 94.034,149.500 94.084 C 148.895 94.134,148.400 94.279,148.400 94.407 C 148.400 94.535,147.760 94.871,146.977 95.154 C 145.521 95.680,140.400 100.386,140.400 101.197 C 140.400 101.445,140.220 101.536,140.000 101.400 C 139.780 101.264,139.600 101.398,139.600 101.697 C 139.600 102.451,138.665 104.393,138.300 104.397 C 138.135 104.399,138.000 104.940,138.000 105.600 C 138.000 106.260,137.820 106.800,137.600 106.800 C 137.342 106.800,137.200 111.133,137.200 119.000 L 137.200 131.200 143.800 131.200 L 150.400 131.200 150.400 122.024 C 150.400 116.337,150.552 112.753,150.800 112.600 C 151.020 112.464,151.200 112.012,151.200 111.595 C 151.200 109.751,152.883 108.056,155.535 107.229 C 156.604 106.896,243.676 107.024,245.018 107.361 C 247.022 107.864,248.752 109.652,248.865 111.338 C 248.919 112.142,249.107 112.800,249.282 112.800 C 249.457 112.800,249.600 116.940,249.600 122.000 L 249.600 131.200 256.200 131.200 L 262.800 131.200 262.800 119.000 C 262.800 111.133,262.658 106.800,262.400 106.800 C 262.180 106.800,262.000 106.451,262.000 106.025 C 262.000 104.729,259.419 100.279,257.851 98.872 C 257.440 98.502,256.720 97.810,256.251 97.333 C 255.783 96.856,254.634 96.073,253.698 95.592 C 252.762 95.111,251.896 94.556,251.774 94.359 C 251.653 94.161,251.023 94.000,250.376 94.000 C 249.729 94.000,249.200 93.820,249.200 93.600 C 249.200 93.049,150.918 93.046,150.733 93.597 M49.600 143.500 L 49.600 156.000 34.000 156.000 L 18.400 156.000 18.400 168.700 L 18.400 181.400 200.000 181.400 L 381.600 181.400 381.600 168.700 L 381.600 156.000 366.000 156.000 L 350.400 156.000 350.400 143.423 L 350.400 130.847 338.900 131.026 C 332.575 131.124,322.679 131.283,316.910 131.380 C 310.565 131.485,306.327 131.406,306.186 131.177 C 306.058 130.970,304.523 130.800,302.776 130.800 L 299.600 130.800 299.600 143.335 L 299.600 155.869 280.934 156.135 C 256.762 156.478,143.238 156.478,119.066 156.135 L 100.400 155.869 100.400 143.435 L 100.400 131.000 75.000 131.000 L 49.600 131.000 49.600 143.500 M18.400 368.900 L 18.400 381.600 200.000 381.600 L 381.600 381.600 381.600 368.900 L 381.600 356.200 200.000 356.200 L 18.400 356.200 18.400 368.900 " stroke="none" fill="#dde5e5" fill-rule="evenodd"></path></g></svg>