<svg id="svg" version="1.1" xmlns="http://www.w3.org/2000/svg" xmlns:xlink="http://www.w3.org/1999/xlink" width="400" height="400" viewBox="0, 0, 400,400"><g id="svgg"><path id="path0" d="M174.800 31.200 C 174.800 31.420,174.260 31.600,173.600 31.600 C 172.940 31.600,172.400 31.780,172.400 32.000 C 172.400 32.220,171.860 32.400,171.200 32.400 C 170.540 32.400,170.000 32.580,170.000 32.800 C 170.000 33.020,169.640 33.200,169.200 33.200 C 168.760 33.200,168.400 33.380,168.400 33.600 C 168.400 33.820,168.157 34.000,167.859 34.000 C 167.562 34.000,166.754 34.540,166.063 35.200 C 165.372 35.860,164.652 36.400,164.463 36.400 C 163.986 36.400,161.600 38.721,161.600 39.185 C 161.600 39.393,161.187 39.977,160.681 40.482 C 159.873 41.291,159.136 42.479,157.943 44.895 C 157.754 45.277,157.600 45.952,157.600 46.395 C 157.600 46.838,157.420 47.200,157.200 47.200 C 156.980 47.200,156.800 47.740,156.800 48.400 C 156.800 49.060,156.620 49.600,156.400 49.600 C 156.163 49.600,156.000 51.059,156.000 53.177 L 156.000 56.754 209.400 56.704 C 238.770 56.676,262.800 56.506,262.800 56.327 C 262.800 56.147,263.340 56.000,264.000 56.000 C 264.660 56.000,265.200 55.859,265.200 55.687 C 265.200 55.515,266.052 55.123,267.094 54.815 C 268.135 54.508,269.339 53.929,269.769 53.528 C 270.199 53.128,270.694 52.800,270.869 52.800 C 271.556 52.800,276.000 48.495,276.000 47.829 C 276.000 47.580,276.360 47.117,276.800 46.800 C 277.240 46.483,277.600 45.943,277.600 45.600 C 277.600 45.257,277.960 44.717,278.400 44.400 C 278.840 44.083,279.200 43.503,279.200 43.112 C 279.200 42.720,279.380 42.400,279.600 42.400 C 279.820 42.400,280.000 41.950,280.000 41.400 C 280.000 40.850,280.180 40.400,280.400 40.400 C 280.620 40.400,280.800 39.860,280.800 39.200 C 280.800 38.540,280.980 38.000,281.200 38.000 C 281.437 38.000,281.600 36.533,281.600 34.400 L 281.600 30.800 228.200 30.800 C 192.867 30.800,174.800 30.935,174.800 31.200 M18.400 190.600 C 18.400 230.200,18.535 250.400,18.800 250.400 C 19.020 250.400,19.200 250.940,19.200 251.600 C 19.200 252.260,19.380 252.800,19.600 252.800 C 19.820 252.800,20.000 253.340,20.000 254.000 C 20.000 254.660,20.180 255.200,20.400 255.200 C 20.620 255.200,20.800 255.468,20.800 255.795 C 20.800 256.400,21.476 257.351,23.100 259.032 C 23.595 259.544,24.000 260.125,24.000 260.322 C 24.000 261.012,27.974 264.660,29.712 265.568 C 30.311 265.880,30.800 266.285,30.800 266.468 C 30.800 266.650,31.149 266.800,31.576 266.800 C 32.003 266.800,32.464 266.980,32.600 267.200 C 32.736 267.420,33.287 267.600,33.824 267.600 C 34.361 267.600,34.800 267.780,34.800 268.000 C 34.800 268.220,35.340 268.400,36.000 268.400 C 36.660 268.400,37.200 268.580,37.200 268.800 C 37.200 269.035,38.593 269.200,40.578 269.200 L 43.956 269.200 43.917 209.400 C 43.895 176.510,43.725 149.600,43.539 149.600 C 43.352 149.600,43.200 149.060,43.200 148.400 C 43.200 147.740,43.020 147.200,42.800 147.200 C 42.580 147.200,42.400 146.649,42.400 145.976 C 42.400 145.263,42.233 144.856,42.000 145.000 C 41.780 145.136,41.600 144.949,41.600 144.585 C 41.600 142.510,36.049 136.186,32.688 134.432 C 32.089 134.120,31.600 133.715,31.600 133.532 C 31.600 133.350,31.240 133.200,30.800 133.200 C 30.360 133.200,30.000 133.020,30.000 132.800 C 30.000 132.580,29.460 132.400,28.800 132.400 C 28.140 132.400,27.600 132.220,27.600 132.000 C 27.600 131.780,27.060 131.600,26.400 131.600 C 25.740 131.600,25.200 131.420,25.200 131.200 C 25.200 130.965,23.800 130.800,21.800 130.800 L 18.400 130.800 18.400 190.600 M343.400 200.000 L 343.400 269.200 353.100 269.200 C 359.300 269.200,362.800 269.056,362.800 268.800 C 362.800 268.580,363.340 268.400,364.000 268.400 C 364.660 268.400,365.200 268.220,365.200 268.000 C 365.200 267.780,365.740 267.600,366.400 267.600 C 367.060 267.600,367.600 267.420,367.600 267.200 C 367.600 266.980,367.960 266.800,368.400 266.800 C 368.840 266.800,369.200 266.650,369.200 266.468 C 369.200 266.285,369.695 265.880,370.300 265.568 C 370.905 265.255,371.784 264.640,372.254 264.200 C 372.724 263.760,373.755 262.860,374.545 262.200 C 375.336 261.540,375.987 260.773,375.991 260.496 C 375.996 260.219,376.534 259.434,377.186 258.751 C 377.839 258.068,378.603 256.990,378.884 256.355 C 379.165 255.720,379.531 255.200,379.698 255.200 C 379.864 255.200,380.000 254.660,380.000 254.000 C 380.000 253.340,380.180 252.800,380.400 252.800 C 380.620 252.800,380.800 252.260,380.800 251.600 C 380.800 250.940,380.980 250.400,381.200 250.400 C 381.465 250.400,381.600 233.333,381.600 200.000 C 381.600 166.667,381.465 149.600,381.200 149.600 C 380.980 149.600,380.800 149.060,380.800 148.400 C 380.800 147.740,380.620 147.200,380.400 147.200 C 380.180 147.200,380.000 146.750,380.000 146.200 C 380.000 145.650,379.820 145.200,379.600 145.200 C 379.380 145.200,379.200 144.842,379.200 144.403 C 379.200 143.965,378.840 143.382,378.400 143.107 C 377.960 142.832,377.600 142.331,377.600 141.992 C 377.600 141.654,377.240 141.117,376.800 140.800 C 376.360 140.483,376.000 140.023,376.000 139.779 C 376.000 139.194,371.693 135.160,370.293 134.432 C 369.692 134.120,369.200 133.715,369.200 133.532 C 369.200 133.350,368.840 133.200,368.400 133.200 C 367.960 133.200,367.600 133.020,367.600 132.800 C 367.600 132.580,367.060 132.400,366.400 132.400 C 365.740 132.400,365.200 132.220,365.200 132.000 C 365.200 131.780,364.660 131.600,364.000 131.600 C 363.340 131.600,362.800 131.420,362.800 131.200 C 362.800 130.944,359.300 130.800,353.100 130.800 L 343.400 130.800 343.400 200.000 " stroke="none" fill="#67b4dc" fill-rule="evenodd"></path><path id="path1" d="M187.200 122.907 L 187.200 127.025 184.100 128.497 C 180.479 130.216,179.129 130.995,177.162 132.500 C 175.666 133.645,174.825 133.853,174.180 133.238 C 173.795 132.871,171.504 131.533,169.505 130.508 C 168.166 129.821,167.922 129.960,166.687 132.104 C 162.878 138.718,159.411 144.718,157.654 147.735 C 155.453 151.516,155.437 151.653,157.108 152.509 C 158.896 153.426,161.366 154.858,161.880 155.275 C 162.226 155.556,162.337 157.628,162.280 162.699 L 162.200 169.733 160.400 170.708 C 159.410 171.244,157.930 172.113,157.112 172.639 L 155.624 173.595 156.878 175.898 C 157.568 177.164,159.632 180.768,161.466 183.907 C 163.300 187.046,164.800 189.713,164.800 189.835 C 164.800 189.956,165.340 190.841,166.000 191.800 C 166.660 192.759,167.200 193.715,167.200 193.923 C 167.200 195.443,168.470 195.259,171.831 193.250 C 175.931 190.800,175.048 190.825,178.296 193.063 C 179.783 194.087,182.350 195.551,184.000 196.316 C 187.723 198.042,187.587 197.807,187.594 202.500 L 187.600 206.400 199.367 206.400 C 213.760 206.400,212.398 206.875,212.407 201.857 L 212.414 197.800 214.707 196.830 C 215.968 196.297,218.613 194.794,220.584 193.491 L 224.168 191.122 225.784 191.946 C 226.673 192.399,228.261 193.272,229.314 193.885 L 231.228 195.000 231.996 194.000 C 232.418 193.450,232.997 192.552,233.282 192.005 C 233.567 191.458,234.492 189.859,235.337 188.452 C 236.182 187.045,237.234 185.242,237.675 184.447 C 238.116 183.651,239.629 181.006,241.038 178.569 C 243.920 173.584,243.944 173.502,242.700 172.874 C 242.205 172.624,240.900 171.871,239.800 171.201 C 238.700 170.530,237.620 169.894,237.400 169.786 C 237.155 169.667,237.005 166.850,237.014 162.515 L 237.028 155.440 239.214 154.111 C 240.416 153.380,241.810 152.609,242.310 152.397 C 243.858 151.743,243.713 151.097,240.959 146.376 C 239.492 143.859,237.937 141.170,237.503 140.400 C 237.069 139.630,236.580 138.820,236.415 138.600 C 236.146 138.242,235.180 136.513,232.668 131.900 C 231.632 129.996,231.030 130.009,227.752 132.000 C 224.527 133.959,223.882 133.976,221.600 132.159 C 220.610 131.370,218.141 129.917,216.114 128.929 L 212.427 127.134 212.314 123.067 L 212.200 119.000 199.700 118.894 L 187.200 118.789 187.200 122.907 M203.081 150.451 C 211.017 153.646,214.386 160.822,211.134 167.600 C 205.318 179.721,187.524 175.962,187.470 162.600 C 187.436 154.343,196.067 147.626,203.081 150.451 M248.994 195.300 C 248.894 195.575,248.765 197.573,248.706 199.740 L 248.600 203.680 247.000 204.582 C 246.120 205.077,244.793 205.854,244.051 206.307 C 242.538 207.231,243.006 207.376,238.082 204.456 C 234.920 202.580,235.195 202.378,231.096 209.600 C 230.659 210.370,228.603 213.951,226.528 217.557 C 224.452 221.163,222.899 224.258,223.077 224.435 C 223.255 224.611,224.930 225.634,226.800 226.708 L 230.200 228.661 230.200 232.219 L 230.200 235.777 226.709 237.813 C 224.789 238.933,223.103 239.963,222.963 240.103 C 222.824 240.243,224.826 244.012,227.412 248.479 C 229.999 252.945,232.473 257.257,232.910 258.059 C 233.347 258.862,234.086 259.991,234.552 260.568 L 235.400 261.618 238.800 259.618 C 242.590 257.389,243.080 257.278,244.446 258.343 C 244.971 258.752,246.030 259.407,246.800 259.799 C 248.711 260.772,248.711 260.771,248.488 265.025 C 248.206 270.419,247.151 270.000,261.016 270.000 C 275.362 270.000,274.000 270.480,274.000 265.419 C 274.000 261.400,274.454 260.000,275.759 260.000 C 275.922 260.000,276.840 259.461,277.798 258.801 C 279.789 257.432,279.757 257.426,283.912 259.880 C 287.398 261.940,287.590 261.957,288.551 260.297 C 288.964 259.584,289.619 258.460,290.006 257.800 C 290.393 257.140,291.742 254.800,293.005 252.600 C 294.268 250.400,295.638 248.015,296.050 247.300 C 296.463 246.585,297.136 245.415,297.546 244.700 C 297.956 243.985,298.690 242.731,299.177 241.913 C 300.279 240.064,300.244 240.011,296.703 238.212 C 292.289 235.970,292.467 236.205,292.369 232.488 C 292.266 228.619,292.229 228.675,296.378 226.377 C 299.652 224.564,300.042 224.011,299.048 222.589 C 298.745 222.155,298.140 221.170,297.705 220.400 C 297.269 219.630,296.483 218.255,295.957 217.345 C 295.430 216.435,293.380 212.882,291.400 209.449 C 287.307 202.354,287.736 202.590,283.442 205.067 C 279.547 207.314,279.933 207.296,276.768 205.370 C 273.461 203.358,273.613 203.669,273.606 198.900 L 273.600 194.800 261.387 194.800 C 251.981 194.800,249.133 194.915,248.994 195.300 M264.218 220.147 C 278.396 223.923,275.831 244.685,261.200 244.578 C 249.892 244.494,244.634 231.154,252.781 223.218 C 255.868 220.211,260.146 219.063,264.218 220.147 " stroke="none" fill="#fbdd0b" fill-rule="evenodd"></path><path id="path2" d="M148.827 94.362 C 148.372 95.001,148.000 95.890,148.000 96.338 C 148.000 96.786,147.820 97.264,147.600 97.400 C 147.380 97.536,147.200 97.997,147.200 98.424 C 147.200 98.851,147.065 99.201,146.900 99.203 C 146.494 99.207,145.600 101.186,145.600 102.080 C 145.600 102.476,145.420 102.800,145.200 102.800 C 144.980 102.800,144.800 103.160,144.800 103.600 C 144.800 104.040,144.664 104.400,144.497 104.400 C 144.331 104.400,143.964 105.165,143.681 106.100 C 143.094 108.045,141.132 112.901,140.813 113.200 C 140.696 113.310,140.539 113.760,140.463 114.200 C 140.388 114.640,140.163 115.060,139.963 115.133 C 139.764 115.207,139.600 115.524,139.600 115.839 C 139.600 116.153,139.420 116.768,139.200 117.205 C 138.980 117.642,138.620 118.358,138.400 118.795 C 138.180 119.232,138.000 119.862,138.000 120.195 C 138.000 120.528,137.820 120.800,137.600 120.800 C 137.380 120.800,137.200 121.160,137.200 121.600 C 137.200 122.040,137.020 122.400,136.800 122.400 C 136.580 122.400,136.400 122.749,136.400 123.176 C 136.400 123.603,136.220 124.064,136.000 124.200 C 135.780 124.336,135.600 124.887,135.600 125.424 C 135.600 125.961,135.420 126.400,135.200 126.400 C 134.980 126.400,134.800 126.760,134.800 127.200 C 134.800 127.640,134.659 128.000,134.487 128.000 C 134.315 128.000,133.935 128.810,133.643 129.800 C 133.351 130.790,132.952 131.600,132.756 131.600 C 132.560 131.600,132.400 131.960,132.400 132.400 C 132.400 132.840,132.220 133.200,132.000 133.200 C 131.780 133.200,131.644 133.335,131.699 133.500 C 132.123 134.792,130.600 137.200,129.360 137.200 C 128.638 137.200,127.936 137.380,127.800 137.600 C 127.664 137.820,126.933 138.000,126.176 138.000 C 125.419 138.000,124.800 138.180,124.800 138.400 C 124.800 138.620,124.170 138.800,123.400 138.800 C 122.630 138.800,122.000 138.980,122.000 139.200 C 122.000 139.420,121.190 139.600,120.200 139.600 C 119.210 139.600,118.400 139.780,118.400 140.000 C 118.400 140.220,117.695 140.400,116.833 140.400 C 115.972 140.400,115.207 140.572,115.133 140.782 C 115.060 140.993,114.325 141.210,113.500 141.264 C 112.675 141.319,112.000 141.484,112.000 141.631 C 112.000 141.941,108.877 142.562,108.021 142.423 C 107.702 142.371,107.207 142.649,106.921 143.041 C 106.634 143.432,106.400 143.551,106.400 143.304 C 106.400 142.983,106.031 142.969,105.100 143.254 C 104.385 143.473,103.350 143.730,102.800 143.824 C 100.586 144.204,100.176 144.288,99.600 144.483 C 97.135 145.320,96.005 145.600,95.095 145.600 C 94.519 145.600,93.936 145.780,93.800 146.000 C 93.664 146.220,93.034 146.400,92.400 146.400 C 91.766 146.400,91.136 146.580,91.000 146.800 C 90.864 147.020,90.169 147.200,89.456 147.200 C 88.743 147.200,87.979 147.381,87.757 147.603 C 87.535 147.825,86.600 148.050,85.677 148.103 C 84.755 148.156,84.000 148.335,84.000 148.500 C 84.000 148.665,83.565 148.800,83.033 148.800 C 80.724 148.800,80.800 148.452,80.800 159.043 L 80.800 168.800 94.500 168.829 C 106.797 168.855,108.323 168.930,109.400 169.559 C 113.397 171.893,113.456 177.993,109.504 180.402 C 108.270 181.154,107.465 181.197,94.500 181.199 L 80.800 181.200 80.800 184.176 C 80.800 185.813,80.980 187.264,81.200 187.400 C 81.420 187.536,81.600 188.987,81.600 190.624 L 81.600 193.600 94.351 193.600 C 104.432 193.600,107.385 193.718,108.451 194.165 C 113.732 196.377,113.732 203.623,108.451 205.835 C 107.385 206.282,104.432 206.400,94.351 206.400 L 81.600 206.400 81.600 209.376 C 81.600 211.013,81.420 212.464,81.200 212.600 C 80.980 212.736,80.800 214.187,80.800 215.824 L 80.800 218.800 94.500 218.829 C 106.797 218.855,108.323 218.930,109.400 219.559 C 113.397 221.893,113.456 227.993,109.504 230.402 C 108.270 231.154,107.465 231.197,94.500 231.199 L 80.800 231.200 80.800 240.957 C 80.800 251.871,80.603 251.200,83.809 251.200 C 84.768 251.200,85.664 251.380,85.800 251.600 C 85.936 251.820,87.027 252.000,88.224 252.000 C 89.421 252.000,90.400 252.150,90.400 252.334 C 90.400 252.518,91.525 252.708,92.900 252.757 C 94.275 252.805,95.460 253.015,95.533 253.222 C 95.607 253.430,96.631 253.600,97.810 253.600 C 98.988 253.600,100.051 253.758,100.170 253.951 C 100.289 254.145,101.425 254.397,102.694 254.512 C 103.962 254.627,105.428 254.823,105.951 254.947 C 106.473 255.072,107.598 255.215,108.451 255.265 C 109.303 255.315,110.000 255.501,110.000 255.678 C 110.000 255.855,110.864 256.000,111.920 256.000 C 112.976 256.000,114.011 256.169,114.220 256.376 C 114.429 256.583,115.458 256.808,116.506 256.876 C 117.554 256.944,118.398 257.149,118.380 257.330 C 118.362 257.512,118.719 257.983,119.174 258.377 C 119.628 258.771,120.000 259.388,120.000 259.747 C 120.000 260.106,120.180 260.400,120.400 260.400 C 120.620 260.400,120.800 260.636,120.800 260.925 C 120.800 261.213,121.160 261.836,121.600 262.308 C 122.040 262.780,122.400 263.444,122.400 263.783 C 122.400 264.122,122.580 264.400,122.800 264.400 C 123.020 264.400,123.200 264.681,123.200 265.024 C 123.200 265.367,123.380 265.536,123.600 265.400 C 123.820 265.264,124.000 265.523,124.000 265.976 C 124.000 266.429,124.180 266.800,124.400 266.800 C 124.620 266.800,124.800 267.160,124.800 267.600 C 124.800 268.040,124.950 268.400,125.132 268.400 C 125.315 268.400,125.720 268.895,126.032 269.500 C 126.344 270.105,126.689 270.690,126.799 270.800 C 126.910 270.910,127.325 271.641,127.722 272.424 C 128.119 273.208,128.881 274.356,129.414 274.976 C 129.947 275.597,130.269 276.289,130.130 276.514 C 129.984 276.749,130.073 276.802,130.338 276.638 C 130.612 276.469,130.800 276.607,130.800 276.976 C 130.800 277.319,130.980 277.600,131.200 277.600 C 131.420 277.600,131.600 277.960,131.600 278.400 C 131.600 278.840,131.780 279.200,132.000 279.200 C 132.220 279.200,132.400 279.436,132.400 279.725 C 132.400 280.013,132.760 280.636,133.200 281.108 C 133.640 281.580,134.000 282.255,134.000 282.607 C 134.000 282.959,134.180 283.136,134.400 283.000 C 134.620 282.864,134.800 283.033,134.800 283.376 C 134.800 283.719,134.980 284.000,135.200 284.000 C 135.420 284.000,135.600 284.360,135.600 284.800 C 135.600 285.240,135.780 285.600,136.000 285.600 C 136.220 285.600,136.400 285.870,136.400 286.200 C 136.400 286.530,136.580 286.800,136.800 286.800 C 137.020 286.800,137.200 287.070,137.200 287.400 C 137.200 287.730,137.358 288.000,137.551 288.000 C 137.745 288.000,138.127 288.540,138.400 289.200 C 138.673 289.860,139.055 290.400,139.249 290.400 C 139.442 290.400,139.600 290.593,139.600 290.829 C 139.600 291.064,139.872 291.529,140.204 291.861 C 140.536 292.193,140.688 292.658,140.542 292.894 C 140.385 293.149,140.464 293.207,140.738 293.038 C 141.012 292.869,141.200 293.007,141.200 293.376 C 141.200 293.719,141.380 294.000,141.600 294.000 C 141.820 294.000,142.000 294.320,142.000 294.712 C 142.000 295.103,142.350 295.676,142.779 295.985 C 143.207 296.293,143.449 296.720,143.317 296.934 C 143.186 297.147,143.348 297.519,143.679 297.761 C 144.306 298.220,144.339 298.278,144.682 299.591 C 144.798 300.036,145.052 300.400,145.247 300.400 C 145.441 300.400,145.600 300.668,145.600 300.997 C 145.600 301.325,145.960 301.818,146.400 302.093 C 146.840 302.368,147.200 302.822,147.200 303.102 C 147.200 303.740,147.983 305.105,148.901 306.067 C 149.577 306.776,152.560 306.798,234.301 306.701 L 319.000 306.600 319.000 265.832 L 319.000 225.063 321.200 224.610 C 324.042 224.025,325.534 223.212,327.558 221.148 C 329.736 218.925,329.672 218.800,326.354 218.800 C 321.603 218.800,318.762 216.363,318.829 212.346 C 318.898 208.239,320.984 206.669,326.727 206.400 L 331.000 206.200 331.000 200.000 L 331.000 193.800 326.727 193.600 C 321.935 193.376,320.766 192.853,319.501 190.372 C 316.948 185.366,320.473 181.200,327.259 181.200 L 331.200 181.200 331.200 171.600 L 331.200 162.000 325.224 162.000 C 321.880 162.000,319.144 162.167,319.012 162.380 C 318.883 162.589,318.763 172.084,318.744 183.480 C 318.714 202.931,318.664 204.327,317.939 206.269 C 316.616 209.811,312.978 212.400,309.326 212.400 C 304.619 212.400,300.000 216.833,300.000 221.350 C 300.000 223.163,299.807 223.023,298.086 219.955 C 297.640 219.160,297.033 218.080,296.738 217.555 C 296.442 217.030,296.110 216.510,296.000 216.400 C 295.813 216.213,295.278 215.302,294.238 213.400 C 293.997 212.960,293.710 212.510,293.600 212.400 C 293.490 212.290,293.026 211.480,292.570 210.600 C 291.480 208.499,290.649 207.048,290.395 206.800 C 290.282 206.690,289.764 205.755,289.244 204.723 C 288.035 202.324,287.556 202.172,285.273 203.464 C 284.243 204.046,282.579 204.970,281.575 205.515 L 279.750 206.508 277.101 204.954 L 274.451 203.400 274.326 199.000 L 274.200 194.600 261.300 194.494 L 248.400 194.389 248.400 198.579 C 248.400 202.851,247.815 204.400,246.200 204.400 C 245.953 204.400,245.393 204.715,244.955 205.100 C 243.787 206.127,242.400 206.860,242.400 206.450 C 242.400 206.254,242.085 205.990,241.700 205.864 C 241.315 205.738,240.100 205.083,239.000 204.408 C 235.581 202.310,235.240 202.187,234.612 202.829 C 233.839 203.619,231.140 208.473,231.354 208.687 C 231.450 208.783,232.273 207.588,233.182 206.031 C 235.070 202.798,235.211 202.753,238.082 204.456 C 243.006 207.376,242.538 207.231,244.051 206.307 C 244.793 205.854,246.120 205.077,247.000 204.582 L 248.600 203.681 248.800 199.341 L 249.000 195.000 261.300 194.894 L 273.600 194.788 273.606 198.894 C 273.613 203.669,273.461 203.357,276.768 205.370 C 279.933 207.296,279.547 207.314,283.442 205.067 C 287.736 202.590,287.307 202.354,291.400 209.449 C 293.380 212.882,295.430 216.435,295.957 217.345 C 296.483 218.255,297.269 219.630,297.705 220.400 C 298.140 221.170,298.745 222.155,299.048 222.589 C 300.042 224.010,299.652 224.564,296.393 226.369 C 293.377 228.039,290.813 230.030,292.522 229.374 C 292.895 229.231,293.200 228.975,293.200 228.804 C 293.200 228.633,293.515 228.387,293.900 228.258 C 294.628 228.012,296.393 227.021,298.150 225.870 C 299.631 224.899,299.685 224.970,299.384 227.500 C 299.032 230.451,298.319 233.277,297.110 236.509 L 296.696 237.618 294.548 236.405 C 293.367 235.739,292.400 235.331,292.400 235.500 C 292.400 235.896,293.468 236.555,296.886 238.270 C 300.371 240.020,300.380 240.055,298.274 243.626 C 295.855 247.726,290.273 257.416,289.071 259.600 C 287.772 261.961,287.415 261.976,283.685 259.825 C 279.858 257.617,279.907 257.619,276.740 259.543 L 274.200 261.087 274.085 265.229 C 274.010 267.926,273.801 269.479,273.485 269.680 C 272.809 270.109,249.527 270.068,248.844 269.636 C 248.409 269.360,248.331 268.419,248.483 265.265 C 248.701 260.733,248.713 260.773,246.800 259.799 C 246.030 259.407,244.971 258.752,244.446 258.343 C 243.080 257.278,242.590 257.389,238.800 259.618 L 235.400 261.618 234.552 260.568 C 234.086 259.991,233.347 258.862,232.910 258.059 C 232.473 257.257,229.999 252.945,227.412 248.479 C 224.826 244.012,222.824 240.243,222.963 240.103 C 223.103 239.963,224.789 238.933,226.709 237.813 L 230.200 235.777 230.200 232.219 L 230.200 228.661 226.800 226.708 C 224.930 225.634,223.255 224.611,223.077 224.435 C 222.802 224.162,229.817 211.332,230.848 210.220 C 231.318 209.712,231.294 209.200,230.800 209.200 C 230.580 209.200,230.400 209.370,230.400 209.579 C 230.400 209.909,229.418 211.665,226.698 216.200 C 226.302 216.860,225.872 217.715,225.742 218.100 C 225.613 218.485,225.381 218.800,225.228 218.800 C 225.075 218.800,224.702 219.430,224.400 220.200 C 224.098 220.970,223.748 221.600,223.623 221.600 C 223.189 221.600,222.324 224.025,222.549 224.611 C 222.673 224.935,223.051 225.200,223.387 225.200 C 223.724 225.200,224.000 225.359,224.000 225.553 C 224.000 225.748,224.315 226.007,224.700 226.129 C 225.442 226.364,227.663 227.643,228.000 228.029 C 228.110 228.155,228.522 228.377,228.916 228.523 C 230.315 229.039,229.724 235.551,228.200 236.410 C 221.522 240.175,221.852 239.800,223.162 242.133 C 223.582 242.880,224.167 243.920,224.462 244.445 C 224.758 244.970,225.090 245.490,225.201 245.600 C 225.311 245.710,225.671 246.340,226.000 247.000 C 226.329 247.660,226.689 248.290,226.799 248.400 C 226.910 248.510,227.242 249.030,227.538 249.555 C 227.833 250.080,228.446 251.160,228.898 251.955 C 229.351 252.750,230.279 254.395,230.961 255.611 C 234.368 261.691,234.588 261.999,235.500 262.000 C 235.995 262.000,236.400 261.864,236.400 261.698 C 236.400 261.531,236.985 261.141,237.700 260.830 C 238.415 260.519,239.090 260.155,239.200 260.022 C 239.820 259.273,243.253 257.845,243.511 258.229 C 243.670 258.465,244.070 258.776,244.400 258.921 C 251.196 261.892,250.207 262.183,232.800 262.330 C 214.028 262.488,209.612 261.970,202.438 258.762 L 199.681 257.529 199.890 254.264 C 200.054 251.696,199.994 251.098,199.608 251.461 C 199.304 251.747,199.171 252.697,199.259 253.961 C 199.384 255.769,199.309 256.006,198.600 256.047 C 197.866 256.089,197.862 256.109,198.545 256.284 C 201.301 256.993,195.546 266.508,189.999 270.415 C 189.230 270.957,188.510 271.492,188.400 271.605 C 188.290 271.718,187.300 272.233,186.200 272.749 C 185.100 273.265,183.887 273.848,183.505 274.044 C 181.201 275.226,181.200 275.222,181.200 265.209 L 181.200 256.017 188.820 255.909 L 196.441 255.800 193.447 253.659 C 190.773 251.747,187.031 248.162,184.503 245.090 C 183.888 244.344,183.226 244.000,182.403 244.000 L 181.200 244.000 181.200 234.950 L 181.200 225.900 182.400 226.140 C 183.077 226.275,183.600 226.210,183.600 225.990 C 183.600 225.776,182.981 225.600,182.224 225.600 C 181.467 225.600,180.726 225.404,180.578 225.165 C 180.418 224.906,179.395 224.784,178.062 224.865 C 175.849 224.998,175.811 224.982,175.555 223.800 C 175.162 221.988,175.149 191.600,175.541 191.600 C 175.728 191.600,176.416 192.095,177.070 192.700 C 178.224 193.767,178.674 194.069,181.400 195.600 C 183.770 196.931,184.192 197.145,185.500 197.671 L 186.800 198.195 186.800 202.298 C 186.800 204.766,186.959 206.400,187.200 206.400 C 187.663 206.400,187.749 198.845,187.294 198.153 C 187.132 197.908,185.650 197.081,184.000 196.316 C 182.350 195.551,179.766 194.075,178.257 193.036 C 176.749 191.997,175.309 191.256,175.057 191.389 C 174.806 191.522,174.240 191.849,173.800 192.116 C 170.291 194.240,168.355 195.219,168.043 195.027 C 167.709 194.820,165.216 190.749,164.843 189.800 C 164.757 189.580,164.379 188.950,164.004 188.400 C 163.629 187.850,162.780 186.410,162.118 185.200 C 161.456 183.990,159.701 180.936,158.219 178.412 L 155.525 173.825 156.640 172.935 C 157.254 172.446,158.486 171.666,159.378 171.202 C 162.512 169.572,162.329 170.130,162.261 162.420 L 162.200 155.471 160.600 154.533 C 159.720 154.018,158.337 153.239,157.527 152.803 C 155.565 151.748,155.454 151.479,156.343 149.926 C 157.122 148.564,159.514 144.411,160.849 142.100 C 161.262 141.385,161.960 140.170,162.400 139.400 C 162.840 138.630,163.560 137.370,164.000 136.600 C 164.440 135.830,165.178 134.525,165.640 133.700 C 166.939 131.380,168.476 129.483,168.751 129.859 C 168.888 130.047,169.720 130.584,170.600 131.052 C 171.480 131.521,172.944 132.324,173.853 132.836 L 175.505 133.767 177.046 132.584 C 178.735 131.287,178.886 131.191,182.238 129.300 C 183.505 128.585,184.746 128.000,184.996 128.000 C 186.562 128.000,187.200 126.430,187.200 122.579 L 187.200 118.789 199.700 118.894 L 212.200 119.000 212.314 123.067 L 212.427 127.134 216.114 128.929 C 218.141 129.917,220.610 131.370,221.600 132.159 C 223.882 133.976,224.527 133.959,227.752 132.000 C 231.030 130.009,231.632 129.996,232.668 131.900 C 235.180 136.513,236.146 138.242,236.415 138.600 C 236.580 138.820,237.069 139.630,237.503 140.400 C 237.937 141.170,239.492 143.859,240.959 146.376 C 243.713 151.097,243.858 151.743,242.310 152.397 C 241.810 152.609,240.416 153.380,239.214 154.111 L 237.028 155.440 237.014 162.515 C 237.005 166.850,237.155 169.667,237.400 169.786 C 237.620 169.894,238.700 170.530,239.800 171.201 C 240.900 171.871,242.205 172.624,242.700 172.874 C 243.944 173.502,243.920 173.584,241.038 178.569 C 239.629 181.006,238.116 183.651,237.675 184.447 C 237.234 185.242,236.182 187.045,235.337 188.452 C 234.492 189.859,233.567 191.458,233.282 192.005 C 232.997 192.552,232.418 193.450,231.996 194.000 L 231.228 195.000 229.314 193.885 C 228.261 193.272,226.673 192.399,225.784 191.946 L 224.168 191.122 220.584 193.491 C 218.613 194.794,215.968 196.297,214.707 196.830 L 212.414 197.800 212.407 201.867 C 212.402 204.740,212.253 205.993,211.900 206.135 C 211.601 206.256,211.682 206.350,212.100 206.368 C 212.723 206.397,212.800 205.950,212.800 202.298 L 212.800 198.195 214.100 197.665 C 217.028 196.471,223.020 192.831,223.674 191.849 C 223.917 191.484,225.714 192.111,226.400 192.799 C 226.794 193.195,229.013 194.454,229.700 194.671 C 230.085 194.793,230.400 195.052,230.400 195.247 C 230.400 195.441,230.715 195.600,231.100 195.600 C 231.765 195.599,232.163 195.020,235.316 189.467 C 235.930 188.386,237.415 185.799,238.616 183.719 C 239.817 181.639,240.800 179.771,240.800 179.568 C 240.800 179.366,240.935 179.199,241.100 179.197 C 241.265 179.195,241.598 178.790,241.840 178.297 C 242.083 177.804,242.706 176.626,243.225 175.680 C 244.292 173.738,244.126 173.154,242.200 172.073 C 241.540 171.703,240.940 171.265,240.867 171.100 C 240.793 170.935,240.566 170.800,240.361 170.800 C 240.156 170.800,239.406 170.418,238.694 169.952 L 237.400 169.103 237.400 162.352 C 237.400 158.638,237.512 155.600,237.649 155.600 C 238.814 155.600,244.000 151.816,244.000 150.966 C 244.000 150.435,243.865 149.999,243.700 149.997 C 243.535 149.995,243.202 149.590,242.960 149.097 C 241.778 146.689,240.570 144.587,240.300 144.467 C 240.135 144.393,240.000 144.179,240.000 143.990 C 240.000 143.801,238.470 141.010,236.600 137.788 C 234.730 134.567,233.200 131.766,233.200 131.565 C 233.200 131.364,233.041 131.200,232.847 131.200 C 232.652 131.200,232.399 130.840,232.284 130.400 C 232.024 129.406,231.049 129.378,229.662 130.325 C 229.078 130.724,227.608 131.557,226.395 132.178 L 224.190 133.306 221.595 131.507 C 218.940 129.665,214.203 127.200,213.319 127.200 C 212.967 127.200,212.795 125.977,212.714 122.900 L 212.600 118.600 202.500 118.493 C 196.572 118.430,192.400 118.232,192.400 118.012 C 192.400 117.806,192.572 117.224,192.781 116.719 C 192.991 116.213,194.713 111.750,196.607 106.800 C 198.502 101.850,200.401 96.921,200.826 95.847 C 201.252 94.772,201.600 93.737,201.600 93.547 C 201.600 93.355,190.011 93.200,175.627 93.200 L 149.654 93.200 148.827 94.362 M221.720 93.898 C 223.655 93.972,226.715 93.971,228.520 93.897 C 230.324 93.823,228.740 93.763,225.000 93.764 C 221.260 93.764,219.784 93.825,221.720 93.898 M259.478 113.325 C 255.442 115.769,255.437 117.705,259.435 129.800 C 261.107 134.860,262.632 139.360,262.824 139.800 C 263.016 140.240,263.552 141.860,264.016 143.400 C 264.480 144.940,265.016 146.560,265.209 147.000 C 265.401 147.440,266.389 150.320,267.404 153.400 C 270.487 162.753,270.017 162.459,281.679 162.311 L 290.357 162.200 291.737 160.861 C 294.298 158.378,294.521 154.565,292.251 152.062 C 290.648 150.295,289.533 150.000,284.446 150.000 L 279.653 150.000 277.809 144.300 C 276.794 141.165,275.801 138.240,275.601 137.800 C 275.401 137.360,275.017 136.190,274.748 135.200 C 274.480 134.210,274.144 133.220,274.002 133.000 C 273.860 132.780,273.505 131.790,273.213 130.800 C 272.338 127.831,269.588 119.459,269.206 118.600 C 269.010 118.160,268.737 117.394,268.598 116.898 C 267.550 113.158,262.817 111.304,259.478 113.325 M195.343 150.833 C 191.629 152.261,187.156 157.590,187.711 159.925 C 187.819 160.378,187.973 160.206,188.180 159.400 C 190.863 148.934,205.943 147.540,210.548 157.332 C 210.944 158.175,211.356 158.778,211.462 158.671 C 211.770 158.364,210.107 155.350,208.823 153.887 C 207.750 152.666,206.040 151.642,203.081 150.451 C 201.376 149.764,197.643 149.948,195.343 150.833 M211.636 162.305 C 211.616 164.123,211.441 165.923,211.247 166.305 C 211.052 166.687,210.653 167.511,210.360 168.136 C 209.479 170.011,206.101 173.200,204.995 173.200 C 204.668 173.200,204.400 173.380,204.400 173.600 C 204.400 173.820,203.905 174.003,203.300 174.006 C 202.695 174.009,201.930 174.203,201.600 174.436 C 200.371 175.304,204.192 174.345,205.890 173.359 C 210.448 170.713,213.319 164.699,212.077 160.400 C 211.720 159.164,211.668 159.388,211.636 162.305 M187.293 162.400 C 187.293 163.170,187.375 163.485,187.476 163.100 C 187.576 162.715,187.576 162.085,187.476 161.700 C 187.375 161.315,187.293 161.630,187.293 162.400 M187.628 165.113 C 187.518 168.683,194.407 175.264,197.669 174.704 C 198.528 174.557,198.508 174.520,197.400 174.234 C 192.716 173.024,189.957 170.450,188.186 165.638 C 187.771 164.512,187.650 164.398,187.628 165.113 M257.255 220.502 C 248.464 223.395,245.957 235.171,252.814 241.365 C 255.012 243.351,259.447 245.371,258.600 244.000 C 258.464 243.780,258.001 243.600,257.571 243.600 C 257.141 243.600,256.400 243.375,255.925 243.100 C 242.808 235.513,251.573 215.857,265.695 221.188 C 268.043 222.074,271.600 225.112,271.600 226.232 C 271.600 226.544,271.736 226.800,271.903 226.800 C 273.017 226.800,273.588 233.452,272.694 236.018 C 271.766 238.681,268.277 242.800,266.951 242.800 C 266.648 242.800,266.400 242.985,266.400 243.210 C 266.400 243.875,268.634 242.529,270.237 240.899 C 279.297 231.683,269.596 216.441,257.255 220.502 M168.800 234.800 L 168.800 244.000 159.824 244.000 C 149.646 244.000,150.011 244.142,151.400 240.720 C 153.727 234.986,161.086 227.200,164.178 227.200 C 164.520 227.200,164.800 227.020,164.800 226.800 C 164.800 226.580,165.239 226.400,165.776 226.400 C 166.313 226.400,166.864 226.220,167.000 226.000 C 167.136 225.780,167.597 225.600,168.024 225.600 C 168.770 225.600,168.800 225.960,168.800 234.800 M180.798 232.500 C 180.799 236.185,180.731 239.200,180.647 239.200 C 180.054 239.200,176.000 227.758,176.000 226.082 C 176.000 225.899,177.079 225.761,178.398 225.775 L 180.795 225.800 180.798 232.500 M184.400 226.800 C 185.176 227.301,185.600 227.301,185.600 226.800 C 185.600 226.580,185.195 226.403,184.700 226.406 C 183.972 226.411,183.915 226.486,184.400 226.800 M186.000 227.410 C 186.000 227.525,186.405 227.774,186.900 227.963 C 191.845 229.849,201.415 242.640,198.700 243.735 C 198.401 243.856,198.482 243.950,198.900 243.968 C 199.345 243.989,199.600 243.707,199.600 243.195 C 199.600 242.417,199.458 242.031,198.462 240.105 C 198.208 239.613,198.000 238.938,198.000 238.605 C 198.000 238.272,197.820 238.000,197.600 238.000 C 197.380 238.000,197.200 237.810,197.200 237.579 C 197.200 236.897,195.345 234.364,193.301 232.256 C 190.609 229.479,186.000 226.420,186.000 227.410 M292.482 232.400 C 292.482 234.769,292.519 234.884,292.899 233.700 C 293.188 232.798,293.188 232.002,292.899 231.100 C 292.519 229.916,292.482 230.031,292.482 232.400 M264.000 244.000 C 263.205 244.514,264.204 244.514,265.400 244.000 L 266.200 243.656 265.400 243.634 C 264.960 243.622,264.330 243.787,264.000 244.000 M199.200 246.376 C 199.200 247.463,199.380 248.464,199.600 248.600 C 199.848 248.753,200.000 248.004,200.000 246.624 C 200.000 245.401,199.820 244.400,199.600 244.400 C 199.380 244.400,199.200 245.289,199.200 246.376 M260.505 244.687 C 261.114 244.779,262.014 244.777,262.505 244.682 C 262.997 244.587,262.500 244.511,261.400 244.514 C 260.300 244.517,259.897 244.595,260.505 244.687 M168.800 265.200 C 168.800 275.224,168.801 275.220,166.495 274.047 C 166.113 273.852,165.260 273.452,164.600 273.157 C 158.730 270.536,153.917 265.470,151.392 259.257 C 150.012 255.861,149.652 256.000,159.824 256.000 L 168.800 256.000 168.800 265.200 M227.612 275.700 C 232.225 278.030,232.442 284.255,227.998 286.753 C 225.730 288.028,211.888 288.043,209.654 286.773 C 205.100 284.183,205.284 278.076,209.988 275.700 C 211.634 274.868,212.304 274.800,218.800 274.800 C 225.296 274.800,225.966 274.868,227.612 275.700 " stroke="none" fill="#d4dcdb" fill-rule="evenodd"></path><path id="path3" d="M206.000 74.976 C 206.000 87.700,206.134 93.636,206.427 93.816 C 206.661 93.961,212.421 93.948,219.227 93.787 L 231.600 93.493 231.600 74.947 L 231.600 56.400 218.800 56.400 L 206.000 56.400 206.000 74.976 M331.200 171.600 L 331.200 181.200 327.259 181.200 C 320.473 181.200,316.948 185.366,319.501 190.372 C 320.766 192.853,321.935 193.376,326.727 193.600 L 331.000 193.800 331.000 200.000 L 331.000 206.200 326.727 206.400 C 320.984 206.669,318.898 208.239,318.829 212.346 C 318.762 216.363,321.603 218.800,326.354 218.800 C 329.672 218.800,329.736 218.925,327.558 221.148 C 325.534 223.212,324.042 224.025,321.200 224.610 L 319.000 225.063 319.000 231.432 L 319.000 237.800 331.300 237.906 L 343.600 238.012 343.600 200.006 L 343.600 162.000 337.400 162.000 L 331.200 162.000 331.200 171.600 M80.800 175.000 L 80.800 181.200 94.500 181.199 C 107.465 181.197,108.270 181.154,109.504 180.402 C 113.456 177.993,113.397 171.893,109.400 169.559 C 108.323 168.930,106.797 168.855,94.500 168.829 L 80.800 168.800 80.800 175.000 M43.783 187.700 C 43.676 187.980,43.636 193.696,43.694 200.404 L 43.800 212.600 62.600 212.600 L 81.400 212.600 81.517 209.500 L 81.634 206.400 94.368 206.400 C 104.434 206.400,107.385 206.282,108.451 205.835 C 113.732 203.623,113.732 196.377,108.451 194.165 C 107.385 193.718,104.434 193.600,94.368 193.600 L 81.634 193.600 81.517 190.500 L 81.400 187.400 62.689 187.296 C 47.854 187.214,43.938 187.297,43.783 187.700 M80.800 225.000 L 80.800 231.200 94.500 231.199 C 107.465 231.197,108.270 231.154,109.504 230.402 C 113.456 227.993,113.397 221.893,109.400 219.559 C 108.323 218.930,106.797 218.855,94.500 218.829 L 80.800 218.800 80.800 225.000 M167.000 226.000 C 166.864 226.220,166.313 226.400,165.776 226.400 C 165.239 226.400,164.800 226.580,164.800 226.800 C 164.800 227.020,164.520 227.200,164.178 227.200 C 161.086 227.200,153.727 234.986,151.400 240.720 C 150.011 244.142,149.646 244.000,159.824 244.000 L 168.800 244.000 168.800 234.800 C 168.800 225.960,168.770 225.600,168.024 225.600 C 167.597 225.600,167.136 225.780,167.000 226.000 M181.200 234.950 L 181.200 244.000 189.567 244.000 C 200.482 244.000,199.915 244.282,197.861 239.874 C 194.704 233.102,188.140 227.288,182.340 226.128 L 181.200 225.900 181.200 234.950 M150.612 256.380 C 150.256 256.956,152.203 261.442,154.016 264.225 C 156.354 267.813,160.536 271.342,164.600 273.157 C 165.260 273.452,166.113 273.852,166.495 274.047 C 168.801 275.220,168.800 275.224,168.800 265.200 L 168.800 256.000 159.824 256.000 C 154.584 256.000,150.749 256.158,150.612 256.380 M181.200 265.200 C 181.200 275.223,181.201 275.226,183.505 274.044 C 183.887 273.848,185.100 273.265,186.200 272.749 C 187.300 272.233,188.290 271.718,188.400 271.605 C 188.510 271.492,189.230 270.957,189.999 270.415 C 194.259 267.415,198.460 261.669,199.038 258.050 C 199.362 256.023,199.310 256.012,189.300 256.005 L 181.200 256.000 181.200 265.200 M209.988 275.700 C 205.284 278.076,205.100 284.183,209.654 286.773 C 211.888 288.043,225.730 288.028,227.998 286.753 C 232.442 284.255,232.225 278.030,227.612 275.700 C 225.966 274.868,225.296 274.800,218.800 274.800 C 212.304 274.800,211.634 274.868,209.988 275.700 " stroke="none" fill="#969e9b" fill-rule="evenodd"></path><path id="path4" d="M200.855 95.700 C 199.345 99.710,193.199 115.713,192.781 116.719 C 192.572 117.224,192.400 117.806,192.400 118.012 C 192.400 118.232,196.572 118.430,202.500 118.493 L 212.600 118.600 212.714 122.900 C 212.795 125.977,212.967 127.200,213.319 127.200 C 214.203 127.200,218.940 129.665,221.595 131.507 L 224.190 133.306 226.395 132.178 C 227.608 131.557,229.078 130.724,229.662 130.325 C 231.049 129.378,232.024 129.406,232.284 130.400 C 232.399 130.840,232.652 131.200,232.847 131.200 C 233.041 131.200,233.200 131.364,233.200 131.565 C 233.200 131.766,234.730 134.567,236.600 137.788 C 238.470 141.010,240.000 143.801,240.000 143.990 C 240.000 144.179,240.135 144.393,240.300 144.467 C 240.570 144.587,241.778 146.689,242.960 149.097 C 243.202 149.590,243.535 149.995,243.700 149.997 C 243.865 149.999,244.000 150.435,244.000 150.966 C 244.000 151.816,238.814 155.600,237.649 155.600 C 237.512 155.600,237.400 158.638,237.400 162.352 L 237.400 169.103 238.694 169.952 C 239.406 170.418,240.156 170.800,240.361 170.800 C 240.566 170.800,240.793 170.935,240.867 171.100 C 240.940 171.265,241.540 171.703,242.200 172.073 C 244.126 173.154,244.292 173.738,243.225 175.680 C 242.706 176.626,242.083 177.804,241.840 178.297 C 241.598 178.790,241.265 179.195,241.100 179.197 C 240.935 179.199,240.800 179.366,240.800 179.568 C 240.800 179.771,239.817 181.639,238.616 183.719 C 237.415 185.799,235.930 188.386,235.316 189.467 C 232.163 195.020,231.765 195.599,231.100 195.600 C 230.715 195.600,230.400 195.441,230.400 195.247 C 230.400 195.052,230.085 194.793,229.700 194.671 C 229.013 194.454,226.794 193.195,226.400 192.799 C 225.714 192.111,223.917 191.484,223.674 191.849 C 223.020 192.831,217.028 196.471,214.100 197.665 L 212.800 198.195 212.800 202.298 L 212.800 206.400 199.800 206.400 L 186.800 206.400 186.800 202.298 L 186.800 198.195 185.500 197.671 C 184.192 197.145,183.770 196.931,181.400 195.600 C 178.674 194.069,178.224 193.767,177.070 192.700 C 176.416 192.095,175.728 191.600,175.541 191.600 C 175.149 191.600,175.162 221.988,175.555 223.800 C 175.811 224.982,175.849 224.998,178.062 224.865 C 179.395 224.784,180.418 224.906,180.578 225.165 C 180.726 225.404,181.467 225.600,182.224 225.600 C 182.981 225.600,183.600 225.780,183.600 226.000 C 183.600 226.220,184.050 226.400,184.600 226.400 C 185.150 226.400,185.600 226.580,185.600 226.800 C 185.600 227.020,185.880 227.200,186.222 227.200 C 188.407 227.200,197.200 235.513,197.200 237.579 C 197.200 237.810,197.380 238.000,197.600 238.000 C 197.820 238.000,198.000 238.272,198.000 238.605 C 198.000 239.193,198.167 239.618,199.138 241.495 C 200.427 243.990,200.396 244.000,191.603 244.000 L 183.605 244.000 184.503 245.090 C 189.114 250.694,195.700 256.000,198.045 256.000 L 199.400 256.000 199.259 253.961 C 199.171 252.697,199.304 251.747,199.608 251.461 C 199.994 251.098,200.054 251.696,199.890 254.264 L 199.681 257.529 202.438 258.762 C 209.612 261.970,214.028 262.488,232.800 262.330 C 250.207 262.183,251.196 261.892,244.400 258.921 C 244.070 258.776,243.670 258.465,243.511 258.229 C 243.253 257.845,239.820 259.273,239.200 260.022 C 239.090 260.155,238.415 260.519,237.700 260.830 C 236.985 261.141,236.400 261.531,236.400 261.698 C 236.400 261.864,235.995 262.000,235.500 262.000 C 234.588 261.999,234.368 261.691,230.961 255.611 C 230.279 254.395,229.351 252.750,228.898 251.955 C 228.446 251.160,227.833 250.080,227.538 249.555 C 227.242 249.030,226.910 248.510,226.799 248.400 C 226.689 248.290,226.329 247.660,226.000 247.000 C 225.671 246.340,225.311 245.710,225.201 245.600 C 225.090 245.490,224.758 244.970,224.462 244.445 C 221.617 239.391,221.156 240.381,228.200 236.410 C 229.724 235.551,230.315 229.039,228.916 228.523 C 228.522 228.377,228.110 228.155,228.000 228.029 C 227.663 227.643,225.442 226.364,224.700 226.129 C 224.315 226.007,224.000 225.748,224.000 225.553 C 224.000 225.359,223.724 225.200,223.387 225.200 C 223.051 225.200,222.673 224.935,222.549 224.611 C 222.324 224.025,223.189 221.600,223.623 221.600 C 223.748 221.600,224.098 220.970,224.400 220.200 C 224.702 219.430,225.075 218.800,225.228 218.800 C 225.381 218.800,225.613 218.485,225.742 218.100 C 225.872 217.715,226.302 216.860,226.698 216.200 C 229.418 211.665,230.400 209.909,230.400 209.579 C 230.400 209.370,230.535 209.197,230.700 209.193 C 230.865 209.190,231.535 208.108,232.189 206.789 C 234.675 201.773,234.695 201.766,239.000 204.408 C 240.100 205.083,241.315 205.738,241.700 205.864 C 242.085 205.990,242.400 206.254,242.400 206.450 C 242.400 206.860,243.787 206.127,244.955 205.100 C 245.393 204.715,245.953 204.400,246.200 204.400 C 247.815 204.400,248.400 202.851,248.400 198.579 L 248.400 194.389 261.300 194.494 L 274.200 194.600 274.326 199.000 L 274.451 203.400 277.101 204.954 L 279.750 206.508 281.575 205.515 C 282.579 204.970,284.243 204.046,285.273 203.464 C 287.556 202.172,288.035 202.324,289.244 204.723 C 289.764 205.755,290.282 206.690,290.395 206.800 C 290.649 207.048,291.480 208.499,292.570 210.600 C 293.026 211.480,293.490 212.290,293.600 212.400 C 293.710 212.510,294.025 213.005,294.300 213.500 C 294.575 213.995,295.025 214.805,295.300 215.300 C 295.575 215.795,295.890 216.290,296.000 216.400 C 296.110 216.510,296.442 217.030,296.738 217.555 C 297.033 218.080,297.640 219.160,298.086 219.955 C 299.807 223.023,300.000 223.163,300.000 221.350 C 300.000 216.833,304.619 212.400,309.326 212.400 C 312.978 212.400,316.615 209.811,317.939 206.269 C 318.664 204.328,318.714 202.940,318.743 183.872 C 318.760 172.691,318.889 162.935,319.028 162.191 C 319.219 161.171,319.075 160.548,318.441 159.657 C 317.978 159.008,317.600 158.099,317.600 157.638 C 317.600 157.177,317.420 156.800,317.200 156.800 C 316.980 156.800,316.800 156.440,316.800 156.000 C 316.800 155.560,316.620 155.200,316.400 155.200 C 316.180 155.200,316.000 154.840,316.000 154.400 C 316.000 153.960,315.820 153.600,315.600 153.600 C 315.380 153.600,315.200 153.184,315.200 152.675 C 315.200 152.167,314.845 151.370,314.412 150.905 C 313.857 150.310,313.768 150.000,314.112 149.861 C 314.488 149.709,314.485 149.656,314.100 149.632 C 313.825 149.614,313.600 149.317,313.600 148.971 C 313.600 148.626,313.328 148.071,312.996 147.739 C 312.664 147.407,312.495 146.970,312.620 146.768 C 312.745 146.565,312.657 146.400,312.424 146.400 C 312.191 146.400,312.000 146.040,312.000 145.600 C 312.000 145.160,311.820 144.800,311.600 144.800 C 311.380 144.800,311.200 144.427,311.200 143.971 C 311.200 143.516,310.928 142.871,310.596 142.539 C 310.264 142.207,310.095 141.770,310.220 141.568 C 310.345 141.365,310.301 141.200,310.121 141.200 C 309.707 141.200,308.896 139.382,308.559 137.697 C 308.417 136.984,308.143 136.400,307.950 136.400 C 307.757 136.400,307.600 136.099,307.600 135.731 C 307.600 135.364,307.322 134.756,306.982 134.381 C 306.643 134.005,306.277 133.213,306.169 132.621 C 306.062 132.029,305.513 130.847,304.949 129.995 C 304.385 129.143,304.042 128.256,304.186 128.023 C 304.330 127.790,304.257 127.600,304.024 127.600 C 303.791 127.600,303.600 127.251,303.600 126.824 C 303.600 126.397,303.420 125.936,303.200 125.800 C 302.980 125.664,302.800 125.193,302.800 124.753 C 302.800 124.313,302.620 124.064,302.400 124.200 C 302.180 124.336,302.000 124.087,302.000 123.647 C 302.000 123.207,301.820 122.736,301.600 122.600 C 301.380 122.464,301.200 122.003,301.200 121.576 C 301.200 121.149,301.064 120.800,300.898 120.800 C 300.573 120.800,299.582 118.763,299.442 117.805 C 299.395 117.485,299.231 117.098,299.078 116.945 C 298.925 116.792,298.800 116.352,298.800 115.967 C 298.800 115.582,298.665 115.207,298.500 115.133 C 298.025 114.922,296.400 111.759,296.400 111.046 C 296.400 110.690,296.220 110.400,296.000 110.400 C 295.780 110.400,295.600 109.950,295.600 109.400 C 295.600 108.850,295.420 108.400,295.200 108.400 C 294.980 108.400,294.800 108.119,294.800 107.776 C 294.800 107.433,294.620 107.264,294.400 107.400 C 294.168 107.544,294.000 107.149,294.000 106.457 C 294.000 105.802,293.865 105.207,293.700 105.133 C 293.228 104.924,291.675 101.536,291.392 100.100 C 291.252 99.385,291.001 98.800,290.835 98.800 C 290.669 98.800,290.533 98.545,290.533 98.234 C 290.533 97.922,290.008 96.663,289.367 95.435 L 288.200 93.202 259.900 93.201 C 241.299 93.200,231.600 93.337,231.600 93.600 C 231.600 93.858,227.067 94.000,218.800 94.000 C 210.533 94.000,206.000 93.858,206.000 93.600 C 206.000 93.380,205.054 93.200,203.898 93.200 L 201.796 93.200 200.855 95.700 M265.172 112.986 C 266.530 113.688,268.248 115.650,268.598 116.898 C 268.737 117.394,269.010 118.160,269.206 118.600 C 269.588 119.459,272.338 127.831,273.213 130.800 C 273.505 131.790,273.860 132.780,274.002 133.000 C 274.144 133.220,274.480 134.210,274.748 135.200 C 275.017 136.190,275.401 137.360,275.601 137.800 C 275.801 138.240,276.794 141.165,277.809 144.300 L 279.653 150.000 284.446 150.000 C 289.533 150.000,290.648 150.295,292.251 152.062 C 294.521 154.565,294.298 158.378,291.737 160.861 L 290.357 162.200 281.679 162.311 C 270.017 162.459,270.487 162.753,267.404 153.400 C 266.389 150.320,265.401 147.440,265.209 147.000 C 265.016 146.560,264.480 144.940,264.016 143.400 C 263.552 141.860,263.016 140.240,262.824 139.800 C 261.113 135.874,256.395 120.303,256.399 118.600 C 256.412 114.126,261.312 110.990,265.172 112.986 M196.650 151.007 C 187.756 153.450,184.828 164.455,191.341 170.968 C 193.519 173.146,198.600 175.138,200.667 174.624 C 201.290 174.470,202.385 174.246,203.100 174.128 C 203.815 174.009,204.400 173.752,204.400 173.556 C 204.400 173.360,204.668 173.200,204.995 173.200 C 206.101 173.200,209.479 170.011,210.360 168.136 C 210.653 167.511,211.052 166.687,211.247 166.305 C 211.996 164.832,211.657 159.385,210.700 157.538 C 207.862 152.057,202.278 149.461,196.650 151.007 M257.648 220.861 C 248.509 223.489,246.511 236.027,254.280 242.000 C 255.633 243.040,256.764 243.600,257.515 243.600 C 257.914 243.600,258.437 243.797,258.678 244.038 C 259.382 244.742,266.400 243.940,266.400 243.155 C 266.400 242.960,266.648 242.800,266.951 242.800 C 268.277 242.800,271.766 238.681,272.694 236.018 C 273.588 233.452,273.017 226.800,271.903 226.800 C 271.736 226.800,271.600 226.544,271.600 226.232 C 271.600 222.814,262.730 219.400,257.648 220.861 M298.580 225.562 C 298.371 225.762,297.550 226.285,296.755 226.725 C 292.275 229.205,292.334 229.140,292.889 230.949 C 293.211 231.999,293.214 232.790,292.901 233.811 L 292.468 235.223 294.526 236.398 C 296.791 237.692,296.870 237.659,297.661 235.071 C 299.645 228.575,300.074 224.138,298.580 225.562 M176.000 226.082 C 176.000 227.758,180.054 239.200,180.647 239.200 C 180.731 239.200,180.799 236.185,180.798 232.500 L 180.795 225.800 178.398 225.775 C 177.079 225.761,176.000 225.899,176.000 226.082 M200.000 246.624 C 200.000 248.004,199.848 248.753,199.600 248.600 C 199.380 248.464,199.200 247.463,199.200 246.376 C 199.200 245.289,199.380 244.400,199.600 244.400 C 199.820 244.400,200.000 245.401,200.000 246.624 " stroke="none" fill="#ecf3f3" fill-rule="evenodd"></path></g></svg>