<svg id="svg" version="1.1" xmlns="http://www.w3.org/2000/svg" xmlns:xlink="http://www.w3.org/1999/xlink" width="400" height="400" viewBox="0, 0, 400,400"><g id="svgg"><path id="path0" d="M112.000 21.600 C 112.000 23.360,111.850 24.800,111.666 24.800 C 111.482 24.800,111.304 25.480,111.272 26.312 C 111.082 31.146,105.890 36.400,101.301 36.400 C 100.237 36.400,99.650 36.557,99.800 36.800 C 99.955 37.051,99.071 37.200,97.424 37.200 C 95.941 37.200,94.800 37.374,94.800 37.600 C 94.800 37.820,94.440 38.000,94.000 38.000 C 93.560 38.000,93.200 38.180,93.200 38.400 C 93.200 38.620,93.015 38.800,92.789 38.800 C 92.255 38.800,88.800 42.255,88.800 42.789 C 88.800 43.015,88.620 43.200,88.400 43.200 C 88.180 43.200,88.000 43.545,88.000 43.967 C 88.000 44.388,87.847 44.793,87.661 44.867 C 87.474 44.940,87.408 50.265,87.514 56.700 L 87.707 68.400 168.802 68.400 L 249.897 68.400 250.075 56.900 C 250.245 45.875,250.218 45.334,249.426 43.807 C 248.519 42.056,246.279 39.600,245.590 39.600 C 245.349 39.600,245.264 39.420,245.400 39.200 C 245.536 38.980,245.277 38.800,244.824 38.800 C 244.371 38.800,244.000 38.620,244.000 38.400 C 244.000 38.180,243.651 38.000,243.224 38.000 C 242.797 38.000,242.336 37.820,242.200 37.600 C 242.064 37.380,240.973 37.200,239.776 37.200 C 238.579 37.200,237.600 37.020,237.600 36.800 C 237.600 36.580,236.790 36.400,235.800 36.400 C 234.810 36.400,234.000 36.220,234.000 36.000 C 234.000 35.780,233.640 35.600,233.200 35.600 C 232.760 35.600,232.400 35.420,232.400 35.200 C 232.400 34.980,232.125 34.800,231.789 34.800 C 230.002 34.800,226.090 29.146,225.926 26.326 C 225.879 25.515,225.696 24.941,225.520 25.049 C 225.344 25.158,225.200 23.707,225.200 21.824 L 225.200 18.400 168.600 18.400 L 112.000 18.400 112.000 21.600 M352.800 18.800 C 352.800 19.020,352.372 19.200,351.848 19.200 C 351.279 19.200,350.233 19.843,349.248 20.800 C 348.342 21.679,347.599 22.264,347.597 22.100 C 347.589 21.109,344.373 27.097,344.115 28.583 C 344.041 29.013,343.789 29.483,343.556 29.627 C 343.323 29.772,343.156 30.049,343.186 30.245 C 343.216 30.440,343.122 30.960,342.977 31.400 C 342.832 31.840,342.738 32.411,342.767 32.670 C 342.797 32.928,342.636 33.254,342.411 33.393 C 342.185 33.533,342.000 34.166,342.000 34.800 C 342.000 35.434,341.820 36.064,341.600 36.200 C 341.380 36.336,341.200 36.797,341.200 37.224 C 341.200 37.651,341.020 38.000,340.800 38.000 C 340.580 38.000,340.400 38.540,340.400 39.200 C 340.400 39.860,340.220 40.400,340.000 40.400 C 338.841 40.400,339.903 41.152,342.153 41.924 C 350.673 44.848,355.994 41.298,360.025 30.000 C 360.927 27.470,361.819 25.040,362.006 24.600 C 362.194 24.160,362.577 23.080,362.857 22.200 C 363.137 21.320,363.508 20.403,363.680 20.163 C 364.078 19.608,363.676 19.200,362.733 19.200 C 362.330 19.200,362.000 19.020,362.000 18.800 C 362.000 18.557,360.200 18.400,357.400 18.400 C 354.600 18.400,352.800 18.557,352.800 18.800 M370.000 29.153 C 370.000 29.593,370.180 30.064,370.400 30.200 C 370.620 30.336,370.800 30.087,370.800 29.647 C 370.800 29.207,370.620 28.736,370.400 28.600 C 370.180 28.464,370.000 28.713,370.000 29.153 M370.267 32.267 C 369.847 32.686,369.956 34.875,370.383 34.611 C 370.659 34.440,370.830 32.007,370.567 32.001 C 370.548 32.000,370.413 32.120,370.267 32.267 M330.461 47.699 C 330.208 47.952,330.000 48.484,330.000 48.880 C 330.000 49.276,329.859 49.600,329.687 49.600 C 329.515 49.600,329.334 50.085,329.285 50.678 C 329.236 51.270,329.062 51.855,328.898 51.978 C 328.734 52.100,328.536 52.650,328.459 53.200 C 328.381 53.750,328.192 54.290,328.039 54.400 C 327.886 54.510,327.526 55.410,327.239 56.400 C 326.952 57.390,326.588 58.380,326.429 58.600 C 326.270 58.820,325.802 60.170,325.389 61.600 C 324.976 63.030,324.523 64.290,324.381 64.400 C 322.891 65.558,324.225 68.800,326.191 68.800 C 326.532 68.800,327.123 68.959,327.505 69.153 C 329.154 69.992,330.767 70.584,343.600 75.066 C 347.670 76.487,351.450 77.803,352.000 77.989 C 352.550 78.175,354.259 78.794,355.798 79.364 C 358.990 80.546,360.400 80.679,360.400 79.800 C 360.400 79.470,360.580 79.200,360.800 79.200 C 361.020 79.200,361.200 78.660,361.200 78.000 C 361.200 77.340,361.380 76.800,361.600 76.800 C 361.820 76.800,362.000 76.361,362.000 75.824 C 362.000 75.287,362.180 74.736,362.400 74.600 C 362.620 74.464,362.800 73.913,362.800 73.376 C 362.800 72.839,362.980 72.400,363.200 72.400 C 363.420 72.400,363.600 71.950,363.600 71.400 C 363.600 70.850,363.780 70.400,364.000 70.400 C 364.220 70.400,364.400 69.950,364.400 69.400 C 364.400 68.850,364.580 68.400,364.800 68.400 C 365.020 68.400,365.200 67.860,365.200 67.200 C 365.200 66.540,365.380 66.000,365.600 66.000 C 365.820 66.000,366.000 65.460,366.000 64.800 C 366.000 64.140,366.180 63.600,366.400 63.600 C 366.966 63.600,366.899 60.659,366.320 60.080 C 366.056 59.816,365.514 59.600,365.115 59.600 C 364.716 59.600,363.987 59.392,363.495 59.138 C 361.452 58.081,361.200 58.000,361.200 58.397 C 361.200 58.899,359.544 58.922,358.319 58.435 C 357.813 58.234,356.320 57.677,355.000 57.196 C 353.680 56.715,352.240 56.161,351.800 55.965 C 351.360 55.769,349.200 54.962,347.000 54.173 C 344.800 53.384,341.672 52.261,340.050 51.678 C 337.988 50.937,336.975 50.343,336.685 49.708 C 336.397 49.074,335.929 48.800,335.136 48.800 C 334.511 48.800,334.000 48.620,334.000 48.400 C 334.000 48.180,333.628 48.000,333.174 48.000 C 332.719 48.000,332.027 47.828,331.635 47.619 C 331.157 47.363,330.771 47.389,330.461 47.699 M318.400 80.800 C 318.400 81.240,318.220 81.600,318.000 81.600 C 317.780 81.600,317.600 82.140,317.600 82.800 C 317.600 83.460,317.420 84.000,317.200 84.000 C 316.980 84.000,316.800 84.540,316.800 85.200 C 316.800 85.860,316.653 86.400,316.472 86.400 C 316.292 86.400,315.900 87.300,315.600 88.400 C 315.300 89.500,314.947 90.400,314.815 90.400 C 314.683 90.400,314.534 90.895,314.484 91.500 C 314.434 92.105,314.215 92.660,313.997 92.733 C 313.778 92.807,313.600 93.302,313.600 93.833 C 313.600 94.365,313.420 94.800,313.200 94.800 C 312.980 94.800,312.800 95.239,312.800 95.776 C 312.800 96.313,312.620 96.864,312.400 97.000 C 312.180 97.136,312.000 97.687,312.000 98.224 C 312.000 98.761,311.820 99.200,311.600 99.200 C 311.380 99.200,311.200 99.502,311.200 99.872 C 311.200 100.764,310.292 103.336,309.868 103.645 C 309.683 103.779,309.586 103.959,309.652 104.045 C 309.810 104.249,308.460 108.803,307.977 109.695 C 307.769 110.077,307.600 110.752,307.600 111.195 C 307.600 111.638,307.441 112.000,307.246 112.000 C 307.051 112.000,306.766 113.012,306.611 114.249 C 306.457 115.485,305.697 118.230,304.922 120.349 C 304.147 122.467,303.369 124.650,303.193 125.200 C 303.016 125.750,302.301 127.730,301.603 129.600 C 300.906 131.470,299.794 134.620,299.131 136.600 C 297.265 142.180,294.814 148.920,294.350 149.750 C 294.119 150.163,293.149 152.683,292.194 155.350 C 291.240 158.018,289.889 161.730,289.194 163.600 C 288.498 165.470,287.781 167.450,287.600 168.000 C 287.419 168.550,286.699 170.530,286.000 172.400 C 285.301 174.270,284.581 176.250,284.400 176.800 C 284.219 177.350,283.499 179.330,282.800 181.200 C 282.101 183.070,281.381 185.050,281.200 185.600 C 281.019 186.150,280.301 188.130,279.603 190.000 C 278.906 191.870,277.782 195.020,277.105 197.000 C 274.470 204.714,273.473 207.453,271.045 213.654 C 270.042 216.214,268.938 219.184,268.591 220.254 C 268.244 221.324,267.807 222.560,267.620 223.000 C 267.434 223.440,267.064 224.430,266.800 225.200 C 266.536 225.970,266.175 226.960,265.999 227.400 C 265.698 228.151,265.130 229.691,263.200 235.000 C 262.760 236.210,262.029 238.167,261.575 239.348 C 260.716 241.584,260.783 263.200,261.649 263.200 C 262.046 263.200,264.556 261.812,266.200 260.682 C 268.219 259.296,273.310 253.470,275.760 249.744 C 276.880 248.040,277.294 247.932,279.400 248.794 C 279.840 248.975,281.280 249.517,282.600 250.000 C 283.920 250.483,285.360 251.031,285.800 251.219 C 286.240 251.406,287.410 251.827,288.400 252.153 C 289.390 252.479,291.449 253.204,292.975 253.765 C 294.501 254.325,295.775 254.742,295.806 254.692 C 295.837 254.641,296.091 253.970,296.371 253.200 C 296.652 252.430,297.024 251.440,297.200 251.000 C 297.376 250.560,297.736 249.570,298.000 248.800 C 298.264 248.030,298.626 247.040,298.804 246.600 C 299.243 245.514,300.657 241.577,304.333 231.211 C 304.994 229.347,305.771 227.743,306.060 227.647 C 306.942 227.353,307.600 226.500,307.600 225.652 C 307.600 225.209,307.759 224.749,307.954 224.629 C 308.148 224.508,308.429 223.598,308.578 222.605 C 308.727 221.612,309.018 220.800,309.225 220.800 C 309.431 220.800,309.600 220.260,309.600 219.600 C 309.600 218.940,309.780 218.400,310.000 218.400 C 310.220 218.400,310.400 218.051,310.400 217.624 C 310.400 217.197,310.580 216.736,310.800 216.600 C 311.020 216.464,311.200 215.913,311.200 215.376 C 311.200 214.839,311.380 214.400,311.600 214.400 C 311.820 214.400,312.000 213.860,312.000 213.200 C 312.000 212.540,312.180 212.000,312.400 212.000 C 312.620 212.000,312.800 211.460,312.800 210.800 C 312.800 210.140,312.947 209.600,313.128 209.600 C 313.308 209.600,313.700 208.700,314.000 207.600 C 314.300 206.500,314.692 205.600,314.872 205.600 C 315.053 205.600,315.200 205.150,315.200 204.600 C 315.200 204.050,315.380 203.600,315.600 203.600 C 315.820 203.600,316.000 203.060,316.000 202.400 C 316.000 201.740,316.136 201.200,316.303 201.200 C 316.634 201.200,317.600 198.376,317.600 197.406 C 317.600 197.073,317.780 196.800,318.000 196.800 C 318.220 196.800,318.400 196.350,318.400 195.800 C 318.400 195.250,318.580 194.800,318.800 194.800 C 319.020 194.800,319.200 194.260,319.200 193.600 C 319.200 192.940,319.380 192.400,319.600 192.400 C 319.820 192.400,320.000 192.128,320.000 191.795 C 320.000 191.462,320.167 190.877,320.371 190.495 C 320.914 189.477,321.301 188.333,321.486 187.200 C 321.576 186.650,321.818 186.029,322.025 185.820 C 322.231 185.611,322.400 185.116,322.400 184.720 C 322.400 184.324,322.580 184.000,322.800 184.000 C 323.020 184.000,323.200 183.638,323.200 183.195 C 323.200 182.752,323.374 182.077,323.587 181.695 C 324.233 180.536,325.200 177.234,325.200 176.186 C 325.200 175.644,325.380 175.200,325.600 175.200 C 325.820 175.200,326.000 174.840,326.000 174.400 C 326.000 173.960,326.180 173.600,326.400 173.600 C 326.620 173.600,326.800 173.161,326.800 172.624 C 326.800 172.087,326.980 171.536,327.200 171.400 C 327.420 171.264,327.600 170.713,327.600 170.176 C 327.600 169.639,327.780 169.200,328.000 169.200 C 328.220 169.200,328.400 168.660,328.400 168.000 C 328.400 167.340,328.580 166.800,328.800 166.800 C 329.020 166.800,329.200 166.451,329.200 166.024 C 329.200 165.597,329.380 165.136,329.600 165.000 C 329.820 164.864,330.000 164.313,330.000 163.776 C 330.000 163.239,330.180 162.800,330.400 162.800 C 330.620 162.800,330.800 162.260,330.800 161.600 C 330.800 160.940,330.980 160.400,331.200 160.400 C 331.420 160.400,331.600 159.950,331.600 159.400 C 331.600 158.850,331.780 158.400,332.000 158.400 C 332.220 158.400,332.400 158.038,332.400 157.595 C 332.400 157.152,332.608 156.387,332.862 155.895 C 333.856 153.974,334.000 153.584,334.000 152.829 C 334.000 152.399,334.180 151.936,334.400 151.800 C 334.620 151.664,334.800 151.113,334.800 150.576 C 334.800 150.039,334.935 149.599,335.100 149.598 C 335.265 149.597,335.835 148.202,336.367 146.498 C 336.899 144.794,337.682 142.590,338.107 141.600 C 339.400 138.587,339.527 138.257,340.024 136.600 C 340.288 135.720,340.640 134.820,340.807 134.600 C 340.973 134.380,341.236 133.435,341.390 132.500 C 341.544 131.565,341.834 130.800,342.035 130.800 C 342.236 130.800,342.400 130.271,342.400 129.624 C 342.400 128.977,342.580 128.336,342.800 128.200 C 343.020 128.064,343.200 127.513,343.200 126.976 C 343.200 126.439,343.380 126.000,343.600 126.000 C 343.820 126.000,344.000 125.550,344.000 125.000 C 344.000 124.450,344.180 124.000,344.400 124.000 C 344.620 124.000,344.800 123.550,344.800 123.000 C 344.800 122.450,344.980 122.000,345.200 122.000 C 345.420 122.000,345.600 121.550,345.600 121.000 C 345.600 120.450,345.780 120.000,346.000 120.000 C 346.220 120.000,346.400 119.460,346.400 118.800 C 346.400 118.140,346.580 117.600,346.800 117.600 C 347.020 117.600,347.200 117.060,347.200 116.400 C 347.200 115.740,347.380 115.200,347.600 115.200 C 347.820 115.200,348.000 114.851,348.000 114.424 C 348.000 113.997,348.180 113.536,348.400 113.400 C 348.620 113.264,348.800 112.724,348.800 112.200 C 348.800 111.676,348.980 111.136,349.200 111.000 C 349.420 110.864,349.600 110.313,349.600 109.776 C 349.600 109.239,349.780 108.800,350.000 108.800 C 350.220 108.800,350.400 108.438,350.400 107.995 C 350.400 107.552,350.559 106.877,350.753 106.495 C 350.948 106.113,351.329 105.260,351.600 104.600 C 351.871 103.940,352.252 103.087,352.447 102.705 C 352.641 102.323,352.800 101.648,352.800 101.205 C 352.800 100.762,352.980 100.400,353.200 100.400 C 353.420 100.400,353.600 99.984,353.600 99.475 C 353.600 98.966,353.960 97.805,354.400 96.894 C 354.840 95.984,355.200 94.960,355.200 94.619 C 355.200 94.279,355.414 94.000,355.675 94.000 C 356.333 94.000,354.767 92.595,353.793 92.310 C 353.357 92.183,351.470 91.505,349.600 90.804 C 347.730 90.102,345.750 89.381,345.200 89.200 C 344.650 89.019,342.670 88.305,340.800 87.613 C 338.930 86.921,336.500 86.028,335.400 85.629 C 334.300 85.230,330.373 83.800,326.672 82.452 C 319.293 79.763,318.400 79.584,318.400 80.800 M147.800 256.800 C 147.664 257.020,147.203 257.200,146.776 257.200 C 145.313 257.200,145.606 257.946,149.928 265.200 C 155.235 274.108,163.344 284.086,170.835 290.923 L 173.769 293.600 202.527 293.600 C 225.367 293.600,231.247 293.497,231.099 293.100 C 230.996 292.825,228.894 286.480,226.429 279.000 C 220.364 260.599,220.027 259.966,215.000 257.553 L 212.600 256.401 180.324 256.400 C 159.237 256.400,147.962 256.539,147.800 256.800 " stroke="none" fill="#dfe7e7" fill-rule="evenodd"></path><path id="path1" d="M128.200 88.351 C 127.540 88.763,124.030 91.657,120.400 94.782 C 116.770 97.908,112.284 101.755,110.432 103.333 C 108.580 104.910,106.128 107.010,104.985 108.000 C 103.842 108.990,101.757 110.795,100.353 112.010 C 98.949 113.226,96.092 115.656,94.005 117.410 C 91.918 119.165,89.687 121.075,89.047 121.655 L 87.884 122.711 80.442 115.311 C 70.225 105.154,67.612 104.099,64.010 108.679 C 60.777 112.788,61.359 113.852,73.547 126.117 C 86.770 139.421,87.387 139.715,92.624 135.200 C 93.517 134.430,94.777 133.363,95.424 132.828 C 97.306 131.273,101.382 127.819,101.600 127.594 C 101.710 127.481,103.060 126.316,104.600 125.005 C 106.140 123.694,108.218 121.897,109.218 121.011 C 110.218 120.125,111.568 118.950,112.218 118.400 C 117.503 113.930,118.625 112.973,118.800 112.784 C 118.910 112.665,121.070 110.794,123.600 108.626 C 137.805 96.454,137.601 96.674,137.599 93.520 C 137.595 88.938,132.102 85.918,128.200 88.351 M118.800 295.463 C 115.390 296.452,111.970 297.437,111.200 297.653 C 110.430 297.869,109.170 298.227,108.400 298.449 C 107.630 298.671,106.370 299.009,105.600 299.200 C 104.830 299.391,103.570 299.729,102.800 299.951 C 102.030 300.173,100.680 300.555,99.800 300.800 C 98.042 301.289,96.100 301.842,94.100 302.423 C 93.385 302.630,92.215 302.953,91.500 303.140 C 87.380 304.216,84.033 306.873,82.225 310.501 L 81.200 312.557 81.200 328.079 L 81.200 343.600 97.000 343.600 C 111.779 343.600,112.800 343.555,112.806 342.900 C 112.867 335.569,121.875 329.789,129.085 332.456 C 133.138 333.956,137.200 339.141,137.200 342.815 C 137.200 343.589,137.687 343.600,171.748 343.600 L 206.296 343.600 206.786 341.700 C 210.284 328.133,227.218 328.274,230.787 341.900 L 231.232 343.600 246.816 343.600 L 262.400 343.600 262.400 330.233 C 262.400 315.585,262.328 315.078,259.753 311.703 C 258.873 310.550,254.441 307.200,253.794 307.200 C 253.657 307.200,252.759 306.660,251.800 306.000 C 250.841 305.340,249.943 304.800,249.806 304.800 C 249.669 304.800,248.496 304.080,247.200 303.200 C 245.904 302.320,244.731 301.600,244.594 301.600 C 244.457 301.600,243.589 301.105,242.665 300.500 C 240.209 298.890,239.629 298.548,237.200 297.269 C 235.990 296.633,234.110 295.547,233.022 294.856 L 231.043 293.600 178.022 293.633 L 125.000 293.666 118.800 295.463 " stroke="none" fill="#d05e3e" fill-rule="evenodd"></path><path id="path2" d="M363.350 20.700 C 362.811 22.379,362.296 23.857,361.992 24.600 C 361.813 25.040,360.927 27.470,360.025 30.000 C 356.048 41.148,350.466 44.948,342.400 42.000 C 341.196 41.560,340.119 41.201,340.006 41.203 C 339.719 41.207,338.800 43.248,338.800 43.880 C 338.800 44.166,338.620 44.400,338.400 44.400 C 338.180 44.400,338.000 44.839,338.000 45.376 C 338.000 45.913,337.820 46.464,337.600 46.600 C 337.380 46.736,337.200 47.272,337.200 47.790 C 337.200 48.309,336.994 48.802,336.743 48.886 C 335.600 49.267,337.283 50.683,340.069 51.684 C 341.681 52.264,344.800 53.384,347.000 54.173 C 349.200 54.962,351.360 55.769,351.800 55.965 C 352.240 56.161,353.680 56.715,355.000 57.196 C 356.320 57.677,357.813 58.234,358.319 58.435 C 359.564 58.930,361.200 58.896,361.200 58.376 C 361.200 58.143,361.353 58.047,361.540 58.163 C 361.726 58.278,361.895 57.811,361.914 57.125 C 361.934 56.439,362.140 55.760,362.373 55.617 C 362.606 55.473,362.836 54.870,362.885 54.278 C 362.934 53.685,363.115 53.200,363.287 53.200 C 363.459 53.200,363.600 52.750,363.600 52.200 C 363.600 51.650,363.780 51.200,364.000 51.200 C 364.220 51.200,364.400 50.840,364.400 50.400 C 364.400 49.960,364.580 49.600,364.800 49.600 C 365.020 49.600,365.200 49.060,365.200 48.400 C 365.200 47.740,365.380 47.200,365.600 47.200 C 365.820 47.200,366.000 46.739,366.000 46.176 C 366.000 45.613,366.142 45.240,366.315 45.348 C 366.488 45.455,366.670 45.060,366.719 44.471 C 366.767 43.882,366.985 43.340,367.203 43.267 C 367.422 43.193,367.600 42.734,367.600 42.247 C 367.600 41.759,367.791 41.169,368.025 40.935 C 368.259 40.701,368.466 39.951,368.486 39.269 C 368.505 38.586,368.632 38.096,368.767 38.180 C 368.902 38.263,369.218 37.897,369.469 37.365 C 369.720 36.834,369.762 36.500,369.563 36.623 C 369.363 36.746,369.200 36.657,369.200 36.424 C 369.200 36.191,369.380 36.000,369.600 36.000 C 369.820 36.000,370.000 35.278,370.000 34.395 C 370.000 33.512,370.223 32.432,370.496 31.995 C 370.868 31.400,370.880 31.020,370.545 30.483 C 370.298 30.088,370.087 29.047,370.075 28.170 C 370.052 26.551,368.369 22.964,367.868 23.466 C 367.720 23.613,367.600 23.506,367.600 23.227 C 367.600 22.539,365.208 20.348,364.759 20.625 C 364.562 20.747,364.400 20.657,364.400 20.424 C 364.400 19.731,363.593 19.943,363.350 20.700 M366.058 23.700 C 366.560 24.415,367.113 25.060,367.286 25.133 C 367.458 25.207,367.600 25.612,367.600 26.033 C 367.600 26.455,367.780 26.800,368.000 26.800 C 368.220 26.800,368.400 27.340,368.400 28.000 C 368.400 28.660,368.580 29.200,368.800 29.200 C 369.020 29.200,369.200 30.100,369.200 31.200 C 369.200 32.300,369.020 33.200,368.800 33.200 C 368.580 33.200,368.400 33.729,368.400 34.376 C 368.400 35.023,368.220 35.664,368.000 35.800 C 367.780 35.936,367.600 36.487,367.600 37.024 C 367.600 37.561,367.420 38.000,367.200 38.000 C 366.980 38.000,366.800 38.540,366.800 39.200 C 366.800 39.860,366.653 40.400,366.472 40.400 C 366.292 40.400,365.896 41.311,365.593 42.425 C 365.290 43.539,364.897 44.540,364.721 44.649 C 364.544 44.758,364.400 45.197,364.400 45.624 C 364.400 46.051,364.220 46.400,364.000 46.400 C 363.780 46.400,363.600 46.940,363.600 47.600 C 363.600 48.260,363.420 48.800,363.200 48.800 C 362.980 48.800,362.800 49.239,362.800 49.776 C 362.800 50.313,362.620 50.864,362.400 51.000 C 362.180 51.136,362.000 51.676,362.000 52.200 C 362.000 52.724,361.820 53.264,361.600 53.400 C 361.380 53.536,361.200 53.997,361.200 54.424 C 361.200 54.851,361.020 55.200,360.800 55.200 C 360.580 55.200,360.397 55.695,360.394 56.300 C 360.388 57.381,359.619 59.138,359.606 58.100 C 359.603 57.825,359.150 57.600,358.600 57.600 C 358.050 57.600,357.600 57.420,357.600 57.200 C 357.600 56.980,357.161 56.800,356.624 56.800 C 356.087 56.800,355.536 56.620,355.400 56.400 C 355.264 56.180,354.803 56.000,354.376 56.000 C 353.949 56.000,353.600 55.820,353.600 55.600 C 353.600 55.380,353.060 55.200,352.400 55.200 C 351.740 55.200,351.200 55.020,351.200 54.800 C 351.200 54.580,350.660 54.400,350.000 54.400 C 349.340 54.400,348.800 54.220,348.800 54.000 C 348.800 53.780,348.361 53.600,347.824 53.600 C 347.287 53.600,346.736 53.420,346.600 53.200 C 346.464 52.980,346.003 52.800,345.576 52.800 C 345.149 52.800,344.800 52.620,344.800 52.400 C 344.800 52.180,344.260 52.000,343.600 52.000 C 342.940 52.000,342.400 51.820,342.400 51.600 C 342.400 51.380,341.950 51.200,341.400 51.200 C 340.850 51.200,340.400 51.020,340.400 50.800 C 340.400 50.580,339.860 50.400,339.200 50.400 C 338.540 50.400,338.000 50.220,338.000 50.000 C 338.000 49.780,338.180 49.600,338.400 49.600 C 338.620 49.600,338.800 49.060,338.800 48.400 C 338.800 47.740,338.980 47.200,339.200 47.200 C 339.420 47.200,339.600 46.738,339.600 46.174 C 339.600 44.489,341.527 41.582,341.901 42.704 C 342.109 43.328,351.600 43.422,351.600 42.800 C 351.600 42.580,351.883 42.400,352.228 42.400 C 354.133 42.400,358.800 37.516,358.800 35.522 C 358.800 35.125,358.980 34.800,359.200 34.800 C 359.420 34.800,359.600 34.260,359.600 33.600 C 359.600 32.940,359.780 32.400,360.000 32.400 C 360.220 32.400,360.400 32.051,360.400 31.624 C 360.400 31.197,360.580 30.736,360.800 30.600 C 361.020 30.464,361.200 29.913,361.200 29.376 C 361.200 28.839,361.380 28.400,361.600 28.400 C 361.820 28.400,362.000 27.860,362.000 27.200 C 362.000 26.540,362.180 26.000,362.400 26.000 C 362.620 26.000,362.800 25.676,362.800 25.280 C 362.800 22.579,364.644 21.685,366.058 23.700 M87.292 59.101 L 87.200 68.802 168.700 68.701 L 250.200 68.600 250.211 59.100 L 250.222 49.600 250.104 59.000 L 249.986 68.400 168.800 68.400 L 87.614 68.400 87.500 58.900 L 87.385 49.400 87.292 59.101 M322.700 67.065 C 322.975 67.176,323.200 67.702,323.200 68.233 C 323.200 68.936,323.420 69.200,324.006 69.200 C 325.133 69.200,328.000 70.131,328.000 70.497 C 328.000 70.664,328.439 70.800,328.976 70.800 C 329.513 70.800,330.064 70.980,330.200 71.200 C 330.336 71.420,330.857 71.600,331.357 71.600 C 331.857 71.600,332.386 71.719,332.532 71.865 C 333.025 72.359,341.307 75.200,342.252 75.200 C 342.553 75.200,342.800 75.380,342.800 75.600 C 342.800 75.820,343.340 76.000,344.000 76.000 C 344.660 76.000,345.200 76.180,345.200 76.400 C 345.200 76.620,345.562 76.800,346.005 76.800 C 346.448 76.800,347.168 76.980,347.605 77.200 C 348.042 77.420,348.758 77.780,349.195 78.000 C 349.632 78.220,350.352 78.400,350.795 78.400 C 351.238 78.400,351.600 78.580,351.600 78.800 C 351.600 79.020,352.039 79.200,352.576 79.200 C 353.113 79.200,353.664 79.380,353.800 79.600 C 353.936 79.820,354.487 80.000,355.024 80.000 C 355.561 80.000,356.000 80.180,356.000 80.400 C 356.000 80.620,356.362 80.800,356.805 80.800 C 357.248 80.800,357.974 81.025,358.418 81.300 C 358.995 81.658,359.306 81.675,359.512 81.360 C 359.670 81.118,360.070 80.817,360.400 80.692 C 360.730 80.566,360.459 80.449,359.798 80.432 C 359.137 80.414,357.337 79.934,355.798 79.364 C 354.259 78.794,352.550 78.175,352.000 77.989 C 351.450 77.803,347.670 76.487,343.600 75.066 C 330.767 70.584,329.154 69.992,327.505 69.153 C 327.123 68.959,326.475 68.800,326.064 68.800 C 325.653 68.800,324.831 68.350,324.238 67.800 C 323.644 67.250,322.943 66.814,322.679 66.832 C 322.329 66.855,322.334 66.917,322.700 67.065 M318.600 79.600 C 318.464 79.820,318.711 80.000,319.149 80.000 C 319.922 80.000,323.863 81.389,342.000 88.054 C 343.210 88.499,344.650 89.012,345.200 89.196 C 345.750 89.379,347.730 90.105,349.600 90.810 C 351.470 91.515,353.405 92.182,353.900 92.292 C 354.395 92.403,354.800 92.633,354.800 92.804 C 354.800 92.975,355.070 93.218,355.400 93.345 C 355.808 93.501,356.000 93.323,356.000 92.787 C 356.000 92.275,355.729 92.000,355.224 92.000 C 354.797 92.000,354.336 91.820,354.200 91.600 C 354.064 91.380,353.513 91.200,352.976 91.200 C 352.439 91.200,352.000 91.020,352.000 90.800 C 352.000 90.580,351.550 90.400,351.000 90.400 C 350.450 90.400,350.000 90.220,350.000 90.000 C 350.000 89.780,349.550 89.600,349.000 89.600 C 348.450 89.600,348.000 89.420,348.000 89.200 C 348.000 88.980,347.460 88.800,346.800 88.800 C 346.140 88.800,345.600 88.620,345.600 88.400 C 345.600 88.180,345.060 88.000,344.400 88.000 C 343.740 88.000,343.200 87.820,343.200 87.600 C 343.200 87.380,342.851 87.200,342.424 87.200 C 341.997 87.200,341.536 87.020,341.400 86.800 C 341.264 86.580,340.713 86.400,340.176 86.400 C 339.639 86.400,339.200 86.220,339.200 86.000 C 339.200 85.780,338.761 85.600,338.224 85.600 C 337.687 85.600,337.136 85.420,337.000 85.200 C 336.864 84.980,336.313 84.800,335.776 84.800 C 335.239 84.800,334.800 84.620,334.800 84.400 C 334.800 84.180,334.451 84.000,334.024 84.000 C 333.597 84.000,333.136 83.820,333.000 83.600 C 332.864 83.380,332.324 83.200,331.800 83.200 C 331.276 83.200,330.736 83.020,330.600 82.800 C 330.464 82.580,329.913 82.400,329.376 82.400 C 328.839 82.400,328.400 82.220,328.400 82.000 C 328.400 81.780,327.860 81.600,327.200 81.600 C 326.540 81.600,326.000 81.453,326.000 81.272 C 326.000 81.092,325.089 80.696,323.975 80.393 C 322.861 80.090,321.860 79.697,321.751 79.521 C 321.466 79.060,318.894 79.125,318.600 79.600 M365.800 82.800 C 365.936 83.020,366.442 83.187,366.924 83.172 C 367.769 83.145,367.771 83.131,367.000 82.800 C 365.899 82.327,365.508 82.327,365.800 82.800 M132.466 87.544 C 138.779 88.918,139.431 94.871,133.809 99.807 L 131.192 102.105 131.296 119.752 L 131.400 137.400 154.200 137.600 C 179.790 137.824,178.597 137.678,180.362 140.818 C 181.803 143.381,181.311 146.347,179.138 148.200 C 176.980 150.041,177.555 150.000,153.805 150.000 L 131.200 150.000 131.200 175.000 L 131.200 200.000 153.551 200.000 C 171.902 200.000,176.144 200.101,177.251 200.565 C 182.049 202.575,182.488 209.029,177.998 211.553 C 176.514 212.387,176.159 212.400,154.433 212.400 C 129.078 212.400,131.597 211.880,132.365 216.954 C 133.252 222.810,133.565 224.443,134.846 229.900 C 136.409 236.558,141.133 249.540,144.196 255.594 C 145.143 257.468,145.038 257.921,143.516 258.501 C 142.285 258.972,140.457 261.999,136.114 270.766 C 133.761 275.515,131.693 279.460,131.518 279.533 C 131.343 279.607,131.200 280.012,131.200 280.433 C 131.200 280.855,131.020 281.200,130.800 281.200 C 130.580 281.200,130.400 281.560,130.400 282.000 C 130.400 282.440,130.220 282.800,130.000 282.800 C 129.780 282.800,129.600 283.034,129.600 283.320 C 129.600 284.056,128.659 285.993,128.300 285.997 C 128.135 285.999,128.000 286.360,128.000 286.800 C 128.000 287.240,127.820 287.600,127.600 287.600 C 127.380 287.600,127.200 287.945,127.200 288.367 C 127.200 288.788,127.065 289.193,126.900 289.267 C 125.845 289.736,124.507 293.600,125.400 293.600 C 125.730 293.600,126.000 293.345,126.000 293.033 C 126.000 292.722,126.136 292.407,126.302 292.333 C 126.468 292.260,127.232 290.940,128.000 289.400 C 128.768 287.860,129.532 286.540,129.698 286.467 C 129.864 286.393,130.000 285.988,130.000 285.567 C 130.000 285.145,130.180 284.800,130.400 284.800 C 130.620 284.800,130.800 284.440,130.800 284.000 C 130.800 283.560,130.980 283.200,131.200 283.200 C 131.420 283.200,131.600 282.840,131.600 282.400 C 131.600 281.960,131.780 281.600,132.000 281.600 C 132.220 281.600,132.400 281.240,132.400 280.800 C 132.400 280.360,132.580 280.000,132.800 280.000 C 133.020 280.000,133.200 279.640,133.200 279.200 C 133.200 278.760,133.380 278.400,133.600 278.400 C 133.820 278.400,134.000 278.040,134.000 277.600 C 134.000 277.160,134.180 276.800,134.400 276.800 C 134.620 276.800,134.800 276.440,134.800 276.000 C 134.800 275.560,134.980 275.200,135.200 275.200 C 135.420 275.200,135.600 274.855,135.600 274.433 C 135.600 274.012,135.741 273.607,135.912 273.533 C 136.084 273.460,137.475 270.880,139.003 267.800 C 140.870 264.037,142.331 261.649,143.459 260.521 L 145.136 258.843 145.768 259.807 C 146.116 260.338,146.400 261.048,146.400 261.386 C 146.400 261.724,146.535 262.003,146.700 262.006 C 146.865 262.010,147.440 262.910,147.979 264.006 C 148.517 265.103,149.102 266.000,149.279 266.000 C 149.455 266.000,149.600 266.188,149.600 266.418 C 149.600 266.648,150.545 268.202,151.700 269.871 C 152.855 271.541,153.980 273.192,154.200 273.541 C 154.420 273.890,155.095 274.658,155.700 275.248 C 156.305 275.838,156.800 276.533,156.800 276.792 C 156.800 277.051,157.520 277.954,158.400 278.800 C 159.280 279.646,160.000 280.490,160.000 280.676 C 160.000 281.958,171.837 293.600,173.139 293.600 C 173.485 293.600,172.449 292.395,170.835 290.923 C 163.344 284.086,155.235 274.108,149.928 265.200 C 145.606 257.946,145.313 257.200,146.776 257.200 C 147.203 257.200,147.664 257.020,147.800 256.800 C 147.962 256.539,159.237 256.400,180.324 256.400 L 212.600 256.401 215.000 257.553 C 220.052 259.978,220.340 260.524,226.637 279.621 L 231.327 293.841 234.473 295.721 C 236.203 296.754,237.807 297.600,238.037 297.600 C 238.267 297.600,239.211 298.095,240.135 298.700 C 241.058 299.305,242.170 300.014,242.607 300.275 C 262.056 311.925,262.400 312.279,262.400 320.679 L 262.400 325.200 284.600 325.200 L 306.800 325.200 306.800 291.624 C 306.800 269.500,306.663 257.962,306.397 257.798 C 305.912 257.498,306.802 256.575,296.593 267.959 C 284.776 281.137,285.753 279.776,283.633 286.000 C 282.722 288.675,282.607 288.975,281.365 291.949 C 279.480 296.460,274.046 297.161,270.804 293.310 C 269.597 291.877,269.508 291.840,269.066 292.588 C 267.674 294.941,264.230 296.764,262.282 296.177 C 256.080 294.308,255.390 290.470,259.520 280.800 C 259.755 280.250,260.176 279.080,260.456 278.200 C 260.736 277.320,261.198 276.316,261.483 275.969 C 261.854 275.516,262.000 273.675,262.000 269.469 C 262.000 264.919,262.117 263.600,262.520 263.600 C 263.256 263.600,265.193 262.659,265.197 262.300 C 265.199 262.135,265.471 262.000,265.803 262.000 C 266.887 262.000,276.000 252.231,276.000 251.069 C 276.000 250.386,277.653 249.246,278.332 249.461 C 279.211 249.739,280.826 250.405,281.695 250.847 C 282.077 251.041,282.752 251.200,283.195 251.200 C 283.638 251.200,284.000 251.380,284.000 251.600 C 284.000 251.820,284.439 252.000,284.976 252.000 C 285.513 252.000,286.042 252.144,286.151 252.321 C 286.260 252.497,287.272 252.893,288.400 253.200 C 289.528 253.507,290.540 253.903,290.649 254.079 C 290.758 254.256,291.287 254.400,291.824 254.400 C 292.361 254.400,292.800 254.567,292.800 254.772 C 292.800 254.977,293.171 255.202,293.625 255.272 C 294.495 255.407,293.875 256.221,288.849 261.545 C 287.887 262.565,286.177 264.471,285.049 265.781 C 283.922 267.090,282.280 268.913,281.400 269.832 C 278.948 272.394,277.452 274.122,276.384 275.628 C 275.849 276.382,274.914 277.421,274.306 277.936 C 273.258 278.822,272.815 280.000,273.530 280.000 C 273.808 280.000,278.193 275.340,278.800 274.399 C 279.020 274.057,283.834 268.682,287.032 265.208 C 288.149 263.993,289.679 262.284,290.432 261.410 C 291.184 260.535,292.796 258.735,294.014 257.410 C 296.402 254.811,296.938 253.857,298.400 249.600 C 298.664 248.830,299.024 247.840,299.200 247.400 C 299.376 246.960,299.736 245.970,300.000 245.200 C 300.264 244.430,300.632 243.440,300.818 243.000 C 301.003 242.560,301.802 240.310,302.593 238.000 C 303.384 235.690,304.204 233.487,304.415 233.105 C 304.627 232.723,304.800 232.059,304.800 231.629 C 304.800 231.199,304.980 230.736,305.200 230.600 C 305.420 230.464,305.600 229.998,305.600 229.564 C 305.600 229.130,305.870 228.671,306.200 228.545 C 306.998 228.238,306.973 227.506,306.169 227.671 C 305.782 227.750,305.074 229.112,304.335 231.200 C 302.979 235.030,299.861 243.781,299.418 245.000 C 299.258 245.440,298.982 246.160,298.804 246.600 C 298.626 247.040,298.264 248.030,298.000 248.800 C 297.736 249.570,297.376 250.560,297.200 251.000 C 297.024 251.440,296.652 252.430,296.371 253.200 C 296.091 253.970,295.837 254.641,295.806 254.692 C 295.775 254.742,294.501 254.325,292.975 253.765 C 291.449 253.204,289.390 252.479,288.400 252.153 C 287.410 251.827,286.240 251.406,285.800 251.219 C 285.360 251.031,283.920 250.483,282.600 250.000 C 281.280 249.517,279.840 248.975,279.400 248.794 C 277.294 247.932,276.880 248.040,275.760 249.744 C 273.310 253.470,268.219 259.296,266.200 260.682 C 264.556 261.812,262.046 263.200,261.649 263.200 C 260.783 263.200,260.716 241.584,261.575 239.348 C 262.029 238.167,262.760 236.210,263.200 235.000 C 265.130 229.691,265.698 228.151,265.999 227.400 C 266.175 226.960,266.536 225.970,266.800 225.200 C 267.064 224.430,267.434 223.440,267.620 223.000 C 267.807 222.560,268.244 221.324,268.591 220.254 C 268.938 219.184,270.042 216.214,271.045 213.654 C 273.473 207.453,274.470 204.714,277.105 197.000 C 277.782 195.020,278.906 191.870,279.603 190.000 C 280.301 188.130,281.019 186.150,281.200 185.600 C 281.381 185.050,282.101 183.070,282.800 181.200 C 283.499 179.330,284.219 177.350,284.400 176.800 C 284.581 176.250,285.301 174.270,286.000 172.400 C 286.699 170.530,287.419 168.550,287.600 168.000 C 287.781 167.450,288.498 165.470,289.194 163.600 C 289.889 161.730,291.240 158.018,292.194 155.350 C 293.149 152.683,294.119 150.163,294.350 149.750 C 294.814 148.920,297.265 142.180,299.131 136.600 C 299.794 134.620,300.906 131.470,301.603 129.600 C 302.301 127.730,303.016 125.750,303.193 125.200 C 303.369 124.650,304.201 122.400,305.041 120.200 L 306.569 116.200 306.711 101.900 L 306.854 87.600 221.127 87.597 C 173.977 87.595,134.410 87.510,133.200 87.409 C 131.447 87.262,131.298 87.290,132.466 87.544 M365.232 101.924 C 365.214 102.212,365.022 102.337,364.805 102.203 C 364.574 102.061,364.513 102.229,364.658 102.606 C 364.820 103.029,365.042 103.118,365.298 102.862 C 365.514 102.646,365.594 102.229,365.477 101.935 C 365.305 101.506,365.257 101.504,365.232 101.924 M237.400 125.000 L 237.400 143.800 218.800 143.800 L 200.200 143.800 200.096 125.400 C 200.038 115.280,200.078 106.773,200.185 106.496 C 200.337 106.099,204.294 106.014,218.889 106.096 L 237.400 106.200 237.400 125.000 M361.721 109.117 C 361.405 109.317,361.369 109.622,361.615 110.011 C 361.890 110.445,361.989 110.462,361.994 110.076 C 361.997 109.788,362.178 109.663,362.395 109.797 C 362.622 109.937,362.689 109.777,362.553 109.421 C 362.277 108.703,362.337 108.725,361.721 109.117 M359.400 116.000 C 359.264 116.220,359.298 116.403,359.476 116.406 C 359.654 116.409,359.589 116.546,359.332 116.710 C 359.074 116.874,358.785 117.456,358.690 118.004 C 358.595 118.552,358.594 118.773,358.689 118.495 C 358.783 118.217,358.997 118.074,359.164 118.178 C 359.330 118.281,359.482 118.148,359.501 117.882 C 359.520 117.617,359.630 116.995,359.745 116.500 C 359.966 115.551,359.814 115.331,359.400 116.000 M356.293 124.834 C 356.452 125.442,356.597 125.528,356.829 125.153 C 357.173 124.596,356.959 124.000,356.414 124.000 C 356.227 124.000,356.173 124.375,356.293 124.834 M297.786 138.900 C 297.633 139.615,297.381 140.380,297.226 140.600 C 297.071 140.820,296.699 141.810,296.400 142.800 C 296.101 143.790,295.741 144.780,295.600 145.000 C 295.459 145.220,295.099 146.210,294.800 147.200 C 293.891 150.206,295.172 150.000,277.389 150.000 C 261.727 150.000,261.231 149.976,259.683 149.150 C 255.470 146.901,255.391 140.871,259.543 138.463 C 260.968 137.637,261.409 137.618,279.532 137.609 L 298.064 137.600 297.786 138.900 M357.333 159.038 C 357.333 159.347,357.573 159.600,357.867 159.600 C 358.160 159.600,358.400 159.439,358.400 159.243 C 358.400 159.046,358.160 158.793,357.867 158.681 C 357.573 158.568,357.333 158.729,357.333 159.038 M237.600 187.600 L 237.600 206.400 218.800 206.400 L 200.000 206.400 200.000 187.600 L 200.000 168.800 218.800 168.800 L 237.600 168.800 237.600 187.600 M275.600 200.376 C 275.600 200.583,275.420 200.864,275.200 201.000 C 274.980 201.136,274.800 201.599,274.800 202.029 C 274.800 202.459,274.641 203.123,274.447 203.505 C 273.971 204.440,273.382 205.907,272.800 207.600 C 272.255 209.186,271.647 210.716,271.211 211.600 C 270.686 212.663,261.568 212.658,259.677 211.594 C 255.037 208.983,255.410 202.727,260.336 200.538 C 261.641 199.958,275.600 199.810,275.600 200.376 M99.800 300.409 C 97.506 301.034,96.203 301.531,96.772 301.566 C 97.330 301.599,99.404 301.015,101.000 300.375 C 102.020 299.966,101.358 299.984,99.800 300.409 M94.200 302.015 C 93.540 302.198,92.370 302.513,91.600 302.714 C 88.311 303.572,85.351 305.477,83.388 308.000 C 82.959 308.550,83.486 308.138,84.558 307.085 C 86.443 305.234,88.909 303.820,91.400 303.162 C 92.060 302.988,93.289 302.671,94.132 302.458 C 94.974 302.244,95.769 301.964,95.898 301.835 C 96.193 301.541,95.733 301.589,94.200 302.015 M303.260 377.442 C 302.962 377.778,302.799 378.132,302.895 378.229 C 302.992 378.326,303.398 378.044,303.798 377.602 C 304.197 377.161,304.361 376.807,304.162 376.815 C 303.963 376.824,303.557 377.105,303.260 377.442 " stroke="none" fill="#86cce8" fill-rule="evenodd"></path><path id="path3" d="M38.502 50.175 C 38.009 50.448,37.724 50.790,37.869 50.936 C 38.014 51.081,37.668 51.200,37.098 51.200 C 35.786 51.200,32.400 54.475,32.400 55.743 C 32.400 56.227,32.044 56.880,31.609 57.194 C 31.027 57.613,30.948 57.846,31.309 58.076 C 31.694 58.321,31.692 58.389,31.300 58.394 C 30.901 58.399,30.800 90.190,30.800 216.000 C 30.800 320.800,30.934 373.600,31.200 373.600 C 31.420 373.600,31.600 373.900,31.600 374.267 C 31.600 374.633,31.717 374.816,31.861 374.673 C 32.160 374.373,33.200 376.216,33.200 377.046 C 33.200 377.352,33.603 377.603,34.100 377.606 C 34.828 377.611,34.885 377.686,34.400 378.000 C 33.915 378.314,33.972 378.389,34.700 378.394 C 35.331 378.398,35.600 378.639,35.600 379.200 C 35.600 379.733,35.867 380.000,36.400 380.000 C 36.840 380.000,37.200 380.180,37.200 380.400 C 37.200 380.620,37.931 380.800,38.824 380.800 C 39.804 380.800,40.349 380.958,40.200 381.200 C 40.035 381.466,83.121 381.600,169.153 381.600 C 254.855 381.600,298.436 381.465,298.600 381.200 C 298.736 380.980,299.119 380.800,299.452 380.800 C 300.241 380.800,301.242 379.791,300.881 379.361 C 300.726 379.177,300.915 379.267,301.300 379.562 C 301.920 380.037,302.001 379.990,302.006 379.149 C 302.011 378.390,302.090 378.320,302.400 378.800 C 302.728 379.308,302.789 379.288,302.794 378.671 C 302.801 377.882,303.697 376.800,304.344 376.800 C 304.565 376.800,304.860 376.440,305.000 376.000 C 305.140 375.560,305.422 375.200,305.627 375.200 C 305.832 375.200,306.000 374.559,306.000 373.776 C 306.000 372.929,306.162 372.453,306.400 372.600 C 306.665 372.764,306.800 364.804,306.800 349.024 L 306.800 325.200 284.807 325.200 L 262.815 325.200 262.707 334.500 L 262.600 343.800 246.900 343.905 L 231.200 344.009 231.200 345.133 C 231.200 352.051,221.946 358.274,215.200 355.894 C 210.513 354.240,206.432 349.415,206.409 345.500 L 206.400 344.000 172.000 344.000 L 137.600 344.000 137.600 344.985 C 137.600 356.772,118.591 360.394,113.878 349.506 C 112.628 346.618,112.400 345.922,112.400 344.986 L 112.400 344.009 96.900 343.905 L 81.400 343.800 81.295 327.905 C 81.193 312.365,81.210 311.970,82.051 310.182 C 83.643 306.794,87.457 303.773,91.400 302.776 C 92.060 302.609,93.950 302.089,95.600 301.621 C 97.250 301.153,101.030 300.131,104.000 299.348 C 106.970 298.566,109.940 297.773,110.600 297.586 C 111.260 297.398,112.520 297.045,113.400 296.800 C 114.280 296.555,115.585 296.185,116.300 295.977 C 117.015 295.770,118.185 295.430,118.900 295.223 C 119.615 295.015,120.830 294.667,121.600 294.450 C 122.370 294.232,123.363 293.942,123.806 293.805 C 124.277 293.659,125.024 292.653,125.606 291.379 C 126.153 290.182,126.735 289.202,126.900 289.201 C 127.065 289.201,127.200 288.840,127.200 288.400 C 127.200 287.960,127.380 287.600,127.600 287.600 C 127.820 287.600,128.000 287.240,128.000 286.800 C 128.000 286.360,128.135 285.999,128.300 285.997 C 128.659 285.993,129.600 284.056,129.600 283.320 C 129.600 283.034,129.780 282.800,130.000 282.800 C 130.220 282.800,130.400 282.440,130.400 282.000 C 130.400 281.560,130.580 281.200,130.800 281.200 C 131.020 281.200,131.200 280.855,131.200 280.433 C 131.200 280.012,131.343 279.607,131.518 279.533 C 131.693 279.460,133.761 275.515,136.114 270.766 C 140.457 261.999,142.285 258.972,143.516 258.501 C 145.038 257.921,145.143 257.468,144.196 255.594 C 141.117 249.508,136.440 236.645,134.818 229.800 C 133.631 224.791,133.250 222.798,132.365 216.954 C 131.597 211.880,129.078 212.400,154.433 212.400 C 176.159 212.400,176.514 212.387,177.998 211.553 C 182.488 209.029,182.049 202.575,177.251 200.565 C 176.144 200.101,171.902 200.000,153.551 200.000 L 131.200 200.000 131.200 175.000 L 131.200 150.000 153.805 150.000 C 177.555 150.000,176.980 150.041,179.138 148.200 C 181.311 146.347,181.803 143.381,180.362 140.818 C 178.597 137.678,179.790 137.824,154.200 137.600 L 131.400 137.400 131.200 119.800 C 131.090 110.120,130.910 102.381,130.800 102.603 C 130.690 102.824,129.430 103.994,128.000 105.203 C 126.570 106.411,125.310 107.503,125.200 107.629 C 125.090 107.755,123.728 108.925,122.174 110.229 C 119.720 112.287,115.288 116.083,108.300 122.108 L 106.400 123.747 106.400 133.673 L 106.400 143.600 87.600 143.600 L 68.800 143.600 68.800 132.688 L 68.800 121.777 66.170 119.188 C 61.641 114.731,61.105 111.703,64.200 108.058 C 65.662 106.335,66.157 106.299,86.721 106.381 L 106.442 106.461 108.921 104.298 C 110.284 103.108,112.660 101.080,114.200 99.791 C 115.740 98.501,117.090 97.346,117.200 97.223 C 117.310 97.100,118.570 96.013,120.000 94.806 C 121.430 93.599,122.795 92.429,123.034 92.206 C 124.889 90.471,127.851 88.144,128.538 87.881 C 128.997 87.706,169.293 87.575,218.086 87.590 L 306.800 87.618 306.764 72.909 L 306.728 58.200 305.625 56.200 C 305.019 55.100,304.316 54.245,304.062 54.300 C 303.808 54.355,303.621 54.265,303.647 54.100 C 303.787 53.216,303.516 52.800,302.800 52.800 C 302.084 52.800,301.813 52.384,301.953 51.500 C 301.979 51.335,301.640 51.200,301.200 51.200 C 300.760 51.200,300.400 51.020,300.400 50.800 C 300.400 50.580,300.051 50.400,299.624 50.400 C 299.197 50.400,298.736 50.220,298.600 50.000 C 298.440 49.741,289.932 49.600,274.384 49.600 L 250.414 49.600 250.307 59.100 L 250.200 68.600 168.700 68.701 L 87.200 68.802 87.200 59.201 L 87.200 49.600 63.600 49.600 C 48.133 49.600,40.000 49.738,40.000 50.000 C 40.000 50.220,39.809 50.400,39.576 50.400 C 39.343 50.400,39.264 50.220,39.400 50.000 C 39.692 49.527,39.664 49.532,38.502 50.175 M200.185 106.496 C 200.078 106.773,200.038 115.280,200.096 125.400 L 200.200 143.800 218.800 143.800 L 237.400 143.800 237.400 125.000 L 237.400 106.200 218.889 106.096 C 204.294 106.014,200.337 106.099,200.185 106.496 M259.543 138.463 C 255.391 140.871,255.470 146.901,259.683 149.150 C 261.231 149.976,261.727 150.000,277.389 150.000 C 295.172 150.000,293.891 150.206,294.800 147.200 C 295.099 146.210,295.459 145.220,295.600 145.000 C 295.741 144.780,296.101 143.790,296.400 142.800 C 296.699 141.810,297.071 140.820,297.226 140.600 C 297.381 140.380,297.633 139.615,297.786 138.900 L 298.064 137.600 279.532 137.609 C 261.409 137.618,260.968 137.637,259.543 138.463 M106.200 187.600 L 106.200 206.200 87.600 206.200 L 69.000 206.200 68.896 187.496 L 68.792 168.792 87.496 168.896 L 106.200 169.000 106.200 187.600 M200.000 187.600 L 200.000 206.400 218.800 206.400 L 237.600 206.400 237.600 187.600 L 237.600 168.800 218.800 168.800 L 200.000 168.800 200.000 187.600 M260.336 200.538 C 255.410 202.727,255.037 208.983,259.677 211.594 C 261.568 212.658,270.686 212.663,271.211 211.600 C 271.647 210.716,272.255 209.186,272.800 207.600 C 273.382 205.907,273.971 204.440,274.447 203.505 C 274.641 203.123,274.800 202.459,274.800 202.029 C 274.800 201.599,274.980 201.136,275.200 201.000 C 276.470 200.215,274.998 200.003,268.500 200.032 C 263.974 200.053,261.014 200.236,260.336 200.538 M305.758 229.100 C 305.639 229.485,305.375 230.113,305.171 230.495 C 304.967 230.877,304.800 231.464,304.800 231.800 C 304.800 232.136,304.627 232.723,304.415 233.105 C 304.204 233.487,303.384 235.690,302.593 238.000 C 301.802 240.310,301.003 242.560,300.818 243.000 C 300.632 243.440,300.264 244.430,300.000 245.200 C 299.736 245.970,299.376 246.960,299.200 247.400 C 299.024 247.840,298.664 248.830,298.400 249.600 C 297.925 250.984,297.503 252.052,296.661 254.000 C 296.423 254.550,295.232 256.084,294.014 257.410 C 292.796 258.735,291.184 260.535,290.432 261.410 C 289.679 262.284,288.149 263.993,287.032 265.208 C 284.349 268.123,279.650 273.399,277.955 275.400 C 277.210 276.280,275.849 277.765,274.932 278.700 C 274.014 279.635,273.136 280.979,272.981 281.687 C 272.825 282.395,272.550 283.250,272.368 283.587 C 272.186 283.924,271.646 285.370,271.168 286.800 C 270.690 288.230,269.977 290.076,269.585 290.902 C 269.192 291.728,269.052 292.292,269.272 292.155 C 269.493 292.019,270.214 292.563,270.875 293.364 C 274.009 297.166,279.494 296.426,281.365 291.949 C 282.607 288.975,282.722 288.675,283.633 286.000 C 285.753 279.776,284.776 281.137,296.593 267.959 C 306.802 256.575,305.912 257.498,306.397 257.798 C 306.665 257.964,306.800 253.079,306.800 243.224 C 306.800 229.397,306.582 226.439,305.758 229.100 M106.200 250.000 L 106.200 268.600 87.500 268.704 L 68.800 268.808 68.800 250.271 C 68.800 240.075,68.922 231.612,69.071 231.463 C 69.219 231.314,77.634 231.239,87.771 231.296 L 106.200 231.400 106.200 250.000 " stroke="none" fill="#53b1ea" fill-rule="evenodd"></path><path id="path4" d="M363.300 23.483 C 363.025 24.075,362.800 24.884,362.800 25.280 C 362.800 25.676,362.620 26.000,362.400 26.000 C 362.180 26.000,362.000 26.540,362.000 27.200 C 362.000 27.860,361.820 28.400,361.600 28.400 C 361.380 28.400,361.200 28.839,361.200 29.376 C 361.200 29.913,361.020 30.464,360.800 30.600 C 360.580 30.736,360.400 31.197,360.400 31.624 C 360.400 32.051,360.220 32.400,360.000 32.400 C 359.780 32.400,359.600 32.940,359.600 33.600 C 359.600 34.260,359.420 34.800,359.200 34.800 C 358.980 34.800,358.800 35.125,358.800 35.522 C 358.800 37.516,354.133 42.400,352.228 42.400 C 351.883 42.400,351.600 42.580,351.600 42.800 C 351.600 43.422,342.109 43.328,341.901 42.704 C 341.527 41.582,339.600 44.489,339.600 46.174 C 339.600 46.738,339.420 47.200,339.200 47.200 C 338.980 47.200,338.800 47.740,338.800 48.400 C 338.800 49.060,338.620 49.600,338.400 49.600 C 338.180 49.600,338.000 49.780,338.000 50.000 C 338.000 50.220,338.540 50.400,339.200 50.400 C 339.860 50.400,340.400 50.580,340.400 50.800 C 340.400 51.020,340.850 51.200,341.400 51.200 C 341.950 51.200,342.400 51.380,342.400 51.600 C 342.400 51.820,342.940 52.000,343.600 52.000 C 344.260 52.000,344.800 52.180,344.800 52.400 C 344.800 52.620,345.149 52.800,345.576 52.800 C 346.003 52.800,346.464 52.980,346.600 53.200 C 346.736 53.420,347.287 53.600,347.824 53.600 C 348.361 53.600,348.800 53.780,348.800 54.000 C 348.800 54.220,349.340 54.400,350.000 54.400 C 350.660 54.400,351.200 54.580,351.200 54.800 C 351.200 55.020,351.740 55.200,352.400 55.200 C 353.060 55.200,353.600 55.380,353.600 55.600 C 353.600 55.820,353.949 56.000,354.376 56.000 C 354.803 56.000,355.264 56.180,355.400 56.400 C 355.536 56.620,356.087 56.800,356.624 56.800 C 357.161 56.800,357.600 56.980,357.600 57.200 C 357.600 57.420,358.050 57.600,358.600 57.600 C 359.150 57.600,359.603 57.825,359.606 58.100 C 359.619 59.138,360.388 57.381,360.394 56.300 C 360.397 55.695,360.580 55.200,360.800 55.200 C 361.020 55.200,361.200 54.851,361.200 54.424 C 361.200 53.997,361.380 53.536,361.600 53.400 C 361.820 53.264,362.000 52.724,362.000 52.200 C 362.000 51.676,362.180 51.136,362.400 51.000 C 362.620 50.864,362.800 50.313,362.800 49.776 C 362.800 49.239,362.980 48.800,363.200 48.800 C 363.420 48.800,363.600 48.260,363.600 47.600 C 363.600 46.940,363.780 46.400,364.000 46.400 C 364.220 46.400,364.400 46.051,364.400 45.624 C 364.400 45.197,364.544 44.758,364.721 44.649 C 364.897 44.540,365.290 43.539,365.593 42.425 C 365.896 41.311,366.292 40.400,366.472 40.400 C 366.653 40.400,366.800 39.860,366.800 39.200 C 366.800 38.540,366.980 38.000,367.200 38.000 C 367.420 38.000,367.600 37.561,367.600 37.024 C 367.600 36.487,367.780 35.936,368.000 35.800 C 368.220 35.664,368.400 35.023,368.400 34.376 C 368.400 33.729,368.580 33.200,368.800 33.200 C 369.020 33.200,369.200 32.300,369.200 31.200 C 369.200 30.100,369.020 29.200,368.800 29.200 C 368.580 29.200,368.400 28.660,368.400 28.000 C 368.400 27.340,368.220 26.800,368.000 26.800 C 367.780 26.800,367.600 26.455,367.600 26.033 C 367.600 25.612,367.458 25.207,367.286 25.133 C 367.113 25.060,366.560 24.415,366.058 23.700 C 364.949 22.120,363.969 22.043,363.300 23.483 M315.422 64.765 C 315.274 65.004,314.631 65.200,313.993 65.200 C 312.667 65.200,309.337 68.050,309.795 68.793 C 309.946 69.036,309.893 69.452,309.679 69.718 C 309.465 69.983,309.335 71.010,309.390 72.000 C 309.554 74.930,310.590 77.375,311.237 76.354 C 311.499 75.941,311.589 76.029,311.594 76.700 C 311.598 77.340,311.838 77.600,312.424 77.600 C 312.951 77.600,313.143 77.769,312.958 78.068 C 312.765 78.381,312.885 78.453,313.323 78.285 C 313.683 78.147,314.211 78.251,314.498 78.517 C 314.785 78.783,315.285 79.050,315.610 79.111 C 315.934 79.173,316.609 79.430,317.108 79.683 C 317.797 80.033,318.130 80.030,318.488 79.672 C 319.020 79.140,321.446 79.028,321.751 79.521 C 321.860 79.697,322.861 80.090,323.975 80.393 C 325.089 80.696,326.000 81.092,326.000 81.272 C 326.000 81.453,326.540 81.600,327.200 81.600 C 327.860 81.600,328.400 81.780,328.400 82.000 C 328.400 82.220,328.839 82.400,329.376 82.400 C 329.913 82.400,330.464 82.580,330.600 82.800 C 330.736 83.020,331.276 83.200,331.800 83.200 C 332.324 83.200,332.864 83.380,333.000 83.600 C 333.136 83.820,333.597 84.000,334.024 84.000 C 334.451 84.000,334.800 84.180,334.800 84.400 C 334.800 84.620,335.239 84.800,335.776 84.800 C 336.313 84.800,336.864 84.980,337.000 85.200 C 337.136 85.420,337.687 85.600,338.224 85.600 C 338.761 85.600,339.200 85.780,339.200 86.000 C 339.200 86.220,339.639 86.400,340.176 86.400 C 340.713 86.400,341.264 86.580,341.400 86.800 C 341.536 87.020,341.997 87.200,342.424 87.200 C 342.851 87.200,343.200 87.380,343.200 87.600 C 343.200 87.820,343.740 88.000,344.400 88.000 C 345.060 88.000,345.600 88.180,345.600 88.400 C 345.600 88.620,346.140 88.800,346.800 88.800 C 347.460 88.800,348.000 88.980,348.000 89.200 C 348.000 89.420,348.450 89.600,349.000 89.600 C 349.550 89.600,350.000 89.780,350.000 90.000 C 350.000 90.220,350.450 90.400,351.000 90.400 C 351.550 90.400,352.000 90.580,352.000 90.800 C 352.000 91.020,352.439 91.200,352.976 91.200 C 353.513 91.200,354.064 91.380,354.200 91.600 C 354.336 91.820,354.797 92.000,355.224 92.000 C 355.785 92.000,356.000 92.277,356.000 93.000 C 356.000 93.733,356.213 94.000,356.800 94.000 C 357.240 94.000,357.600 94.180,357.600 94.400 C 357.600 94.620,358.140 94.800,358.800 94.800 C 359.460 94.800,360.000 94.980,360.000 95.200 C 360.000 95.420,360.450 95.600,361.000 95.600 C 361.550 95.600,362.000 95.758,362.000 95.950 C 362.000 96.142,362.470 96.300,363.045 96.300 C 363.621 96.300,364.206 96.458,364.345 96.650 C 364.485 96.843,364.870 97.058,365.200 97.130 C 365.530 97.201,365.860 97.428,365.934 97.632 C 366.008 97.837,366.278 97.879,366.534 97.726 C 366.790 97.572,366.753 97.751,366.451 98.123 C 365.829 98.890,365.405 99.039,365.838 98.338 C 366.015 98.052,365.948 97.985,365.662 98.162 C 365.083 98.520,365.052 100.000,365.624 100.000 C 365.857 100.000,365.941 100.172,365.811 100.383 C 365.681 100.593,365.310 100.664,364.987 100.540 C 364.589 100.387,364.400 100.578,364.400 101.134 C 364.400 102.098,365.042 102.627,365.334 101.902 C 365.460 101.590,365.549 101.656,365.568 102.076 C 365.586 102.448,365.420 102.864,365.200 103.000 C 364.980 103.136,364.800 103.057,364.800 102.824 C 364.800 102.130,363.993 102.343,363.751 103.100 C 363.628 103.485,363.340 104.193,363.110 104.674 C 362.881 105.154,362.794 105.933,362.917 106.405 C 363.083 107.038,362.991 107.206,362.571 107.044 C 361.874 106.777,361.798 108.075,362.440 109.275 C 362.760 109.872,362.760 110.022,362.440 109.825 C 362.198 109.675,361.997 109.788,361.994 110.076 C 361.989 110.478,361.915 110.486,361.677 110.111 C 361.469 109.783,361.220 110.013,360.918 110.811 C 360.605 111.641,360.599 112.000,360.897 112.000 C 361.132 112.000,361.008 112.349,360.623 112.775 C 360.237 113.201,360.031 113.726,360.164 113.943 C 360.298 114.159,360.136 114.607,359.804 114.939 C 359.134 115.609,358.988 116.179,359.579 115.813 C 359.796 115.679,359.868 115.968,359.747 116.489 C 359.631 116.990,359.520 117.622,359.501 117.894 C 359.475 118.264,359.331 118.274,358.924 117.937 C 358.493 117.579,358.437 117.632,358.653 118.193 C 358.827 118.648,358.688 119.031,358.262 119.269 C 357.898 119.473,357.600 120.081,357.600 120.620 C 357.600 121.159,357.406 121.600,357.169 121.600 C 356.926 121.600,356.769 122.253,356.808 123.100 C 356.917 125.445,356.804 125.927,356.364 125.000 C 356.062 124.363,356.024 124.462,356.179 125.482 C 356.332 126.492,356.248 126.717,355.786 126.539 C 355.362 126.376,355.200 126.608,355.200 127.381 C 355.200 127.990,355.028 128.341,354.800 128.200 C 354.574 128.060,354.400 128.388,354.400 128.953 C 354.400 129.503,354.220 130.064,354.000 130.200 C 353.780 130.336,353.600 130.807,353.600 131.247 C 353.600 131.750,353.772 131.941,354.062 131.762 C 354.348 131.585,354.415 131.652,354.238 131.938 C 354.081 132.192,353.670 132.400,353.324 132.400 C 352.818 132.400,352.735 132.733,352.903 134.100 C 353.017 135.035,353.026 135.575,352.922 135.300 C 352.638 134.547,352.000 134.700,352.000 135.520 C 352.000 135.916,351.803 136.437,351.563 136.677 C 351.247 136.993,351.251 137.347,351.577 137.957 C 352.015 138.776,351.777 139.017,350.700 138.847 C 350.535 138.821,350.403 139.295,350.406 139.900 C 350.411 140.757,350.498 140.868,350.800 140.400 C 351.094 139.944,351.189 139.929,351.194 140.337 C 351.197 140.633,350.851 140.966,350.424 141.078 C 349.833 141.232,349.683 141.557,349.795 142.440 C 349.902 143.282,349.773 143.600,349.324 143.600 C 348.910 143.600,348.774 143.855,348.909 144.374 C 349.026 144.822,348.877 145.238,348.556 145.362 C 348.250 145.479,348.000 145.930,348.000 146.364 C 348.000 146.798,347.820 147.264,347.600 147.400 C 347.380 147.536,347.200 147.929,347.200 148.273 C 347.200 148.805,347.304 148.818,347.900 148.364 C 348.285 148.071,348.083 148.397,347.450 149.089 C 346.570 150.053,346.360 150.586,346.555 151.363 C 346.764 152.197,346.691 152.333,346.146 152.124 C 345.603 151.915,345.519 152.065,345.687 152.945 C 345.818 153.626,345.689 154.134,345.337 154.332 C 345.030 154.503,344.740 155.201,344.690 155.882 C 344.641 156.564,344.465 157.039,344.300 156.937 C 344.135 156.836,344.000 157.113,344.000 157.553 C 344.000 157.993,343.836 158.454,343.635 158.578 C 343.435 158.702,343.352 159.388,343.452 160.102 C 343.571 160.954,343.509 161.217,343.272 160.866 C 342.980 160.435,342.865 160.454,342.668 160.966 C 342.535 161.315,342.627 161.600,342.875 161.600 C 343.130 161.600,343.038 161.916,342.662 162.331 C 341.942 163.127,341.762 165.948,342.357 167.105 C 342.553 167.487,342.910 168.295,343.149 168.901 C 344.034 171.143,348.479 172.442,350.875 171.160 C 351.472 170.840,351.622 170.840,351.425 171.160 C 351.079 171.719,351.312 171.714,352.581 171.136 C 353.142 170.880,353.600 170.510,353.600 170.312 C 353.600 170.115,353.432 170.056,353.228 170.183 C 353.023 170.309,352.749 170.241,352.619 170.032 C 352.483 169.811,352.822 169.730,353.424 169.839 C 354.008 169.945,354.363 169.864,354.234 169.656 C 354.108 169.451,354.292 169.173,354.644 169.039 C 354.995 168.904,355.186 168.540,355.067 168.230 C 354.948 167.920,355.109 167.567,355.425 167.446 C 355.777 167.311,356.000 166.668,356.000 165.789 C 356.000 164.803,356.145 164.443,356.463 164.639 C 356.778 164.834,356.856 164.658,356.707 164.088 C 356.574 163.578,356.705 163.169,357.044 163.038 C 357.350 162.921,357.600 162.495,357.600 162.093 C 357.600 161.690,357.825 161.118,358.100 160.821 C 358.500 160.390,358.500 160.339,358.100 160.565 C 357.825 160.720,357.600 160.672,357.600 160.457 C 357.600 160.242,357.825 159.976,358.100 159.865 C 358.426 159.733,358.380 159.652,357.967 159.632 C 357.618 159.614,357.333 159.355,357.333 159.055 C 357.333 158.723,357.620 158.585,358.067 158.702 C 358.607 158.843,358.800 158.671,358.800 158.047 C 358.800 157.581,358.980 157.200,359.200 157.200 C 359.420 157.200,359.600 156.761,359.600 156.224 C 359.600 155.687,359.780 155.136,360.000 155.000 C 360.220 154.864,360.400 154.328,360.400 153.810 C 360.400 153.291,360.625 152.785,360.900 152.686 C 361.295 152.542,361.289 152.317,360.870 151.610 C 360.579 151.119,360.489 150.806,360.670 150.916 C 360.852 151.026,361.232 150.865,361.516 150.558 C 361.836 150.211,361.868 150.000,361.600 150.000 C 361.363 150.000,361.545 149.596,362.005 149.102 C 362.470 148.603,362.758 147.881,362.652 147.478 C 362.546 147.073,362.714 146.654,363.031 146.533 C 363.344 146.413,363.600 145.794,363.600 145.157 C 363.600 144.521,363.780 144.000,364.000 144.000 C 364.220 144.000,364.400 143.730,364.400 143.400 C 364.400 143.070,364.192 142.800,363.939 142.800 C 363.685 142.800,363.865 142.464,364.339 142.053 C 365.150 141.350,365.586 140.114,364.867 140.559 C 364.683 140.672,364.533 140.520,364.533 140.221 C 364.533 139.921,364.772 139.768,365.063 139.880 C 365.355 139.991,365.698 139.749,365.826 139.342 C 365.954 138.934,366.225 138.287,366.429 137.905 C 366.633 137.523,366.800 136.848,366.800 136.405 C 366.800 135.962,367.000 135.600,367.245 135.600 C 367.511 135.600,367.621 135.124,367.518 134.421 C 367.423 133.773,367.493 133.334,367.675 133.446 C 367.857 133.559,368.108 133.324,368.232 132.925 C 368.357 132.526,368.625 131.887,368.829 131.505 C 369.033 131.123,369.200 130.459,369.200 130.029 C 369.200 129.599,369.364 129.146,369.565 129.022 C 369.765 128.898,369.880 128.347,369.820 127.798 C 369.746 127.131,369.908 126.800,370.307 126.800 C 370.774 126.800,370.852 126.471,370.664 125.300 C 370.505 124.315,370.549 124.002,370.790 124.389 C 371.096 124.880,371.200 124.847,371.415 124.189 C 371.557 123.755,371.818 123.040,371.996 122.600 C 372.174 122.160,372.536 121.170,372.800 120.400 C 373.064 119.630,373.467 118.607,373.694 118.126 C 373.921 117.646,374.010 116.880,373.891 116.426 C 373.772 115.971,373.817 115.687,373.991 115.794 C 374.407 116.051,375.348 113.763,375.035 113.256 C 374.902 113.041,375.064 112.593,375.396 112.261 C 375.728 111.929,376.000 111.194,376.000 110.629 C 376.000 110.063,376.180 109.600,376.400 109.600 C 376.620 109.600,376.800 109.251,376.800 108.824 C 376.800 108.397,376.980 107.936,377.200 107.800 C 377.420 107.664,377.597 107.248,377.594 106.876 C 377.589 106.293,377.534 106.283,377.200 106.800 C 376.967 107.161,376.810 107.210,376.806 106.924 C 376.803 106.662,376.983 106.334,377.207 106.196 C 377.430 106.058,377.491 105.747,377.341 105.504 C 377.166 105.221,377.306 105.155,377.734 105.319 C 378.100 105.460,378.400 105.401,378.400 105.187 C 378.400 104.974,378.192 104.800,377.939 104.800 C 377.685 104.800,377.865 104.464,378.339 104.053 C 378.813 103.642,379.200 102.833,379.200 102.253 C 379.200 101.674,379.380 101.200,379.600 101.200 C 379.820 101.200,380.000 100.660,380.000 100.000 C 380.000 99.340,380.180 98.800,380.400 98.800 C 380.620 98.800,380.800 98.440,380.800 98.000 C 380.800 97.560,380.980 97.200,381.200 97.200 C 381.437 97.200,381.600 95.729,381.600 93.587 C 381.600 89.820,380.211 87.200,378.213 87.200 C 377.876 87.200,377.600 87.020,377.600 86.800 C 377.600 86.580,377.240 86.400,376.800 86.400 C 376.360 86.400,376.000 86.220,376.000 86.000 C 376.000 85.780,375.730 85.600,375.400 85.600 C 375.070 85.600,374.800 85.791,374.800 86.024 C 374.800 86.257,375.008 86.319,375.262 86.162 C 375.562 85.976,375.614 86.053,375.412 86.381 C 375.182 86.752,374.862 86.609,374.203 85.843 C 373.146 84.613,372.910 84.577,371.902 85.489 C 371.168 86.153,371.150 86.139,371.413 85.089 C 371.659 84.112,371.579 84.000,370.643 84.000 C 370.070 84.000,369.600 83.841,369.600 83.647 C 369.600 83.453,368.867 83.284,367.971 83.272 C 367.075 83.259,366.113 83.060,365.834 82.828 C 365.555 82.596,365.198 82.535,365.042 82.691 C 364.886 82.848,364.876 82.666,365.022 82.288 C 365.220 81.772,365.075 81.600,364.443 81.600 C 363.979 81.600,363.600 81.787,363.600 82.016 C 363.600 82.256,363.364 82.213,363.042 81.916 C 362.735 81.632,362.566 81.265,362.666 81.100 C 362.765 80.935,362.432 80.779,361.924 80.753 C 360.487 80.679,359.825 80.840,359.512 81.340 C 359.298 81.683,359.019 81.673,358.418 81.300 C 357.974 81.025,357.248 80.800,356.805 80.800 C 356.362 80.800,356.000 80.620,356.000 80.400 C 356.000 80.180,355.561 80.000,355.024 80.000 C 354.487 80.000,353.936 79.820,353.800 79.600 C 353.664 79.380,353.113 79.200,352.576 79.200 C 352.039 79.200,351.600 79.020,351.600 78.800 C 351.600 78.580,351.238 78.400,350.795 78.400 C 350.352 78.400,349.632 78.220,349.195 78.000 C 348.758 77.780,348.042 77.420,347.605 77.200 C 347.168 76.980,346.448 76.800,346.005 76.800 C 345.562 76.800,345.200 76.620,345.200 76.400 C 345.200 76.180,344.660 76.000,344.000 76.000 C 343.340 76.000,342.800 75.820,342.800 75.600 C 342.800 75.380,342.553 75.200,342.252 75.200 C 341.307 75.200,333.025 72.359,332.532 71.865 C 332.386 71.719,331.857 71.600,331.357 71.600 C 330.857 71.600,330.336 71.420,330.200 71.200 C 330.064 70.980,329.513 70.800,328.976 70.800 C 328.439 70.800,328.000 70.664,328.000 70.497 C 328.000 70.131,325.133 69.200,324.006 69.200 C 323.461 69.200,323.200 68.935,323.200 68.383 C 323.200 67.241,321.918 65.985,320.944 66.172 C 320.497 66.258,319.877 66.167,319.566 65.970 C 319.086 65.667,319.091 65.604,319.600 65.560 C 319.930 65.531,319.570 65.364,318.800 65.189 C 318.030 65.013,317.015 64.748,316.545 64.600 C 316.067 64.449,315.572 64.522,315.422 64.765 M126.678 89.013 C 125.206 90.307,125.733 90.296,127.273 89.000 C 127.927 88.450,128.313 88.006,128.131 88.013 C 127.949 88.020,127.295 88.470,126.678 89.013 M123.878 91.413 C 123.260 91.956,122.914 92.400,123.108 92.400 C 123.302 92.400,123.883 91.950,124.400 91.400 C 125.595 90.128,125.331 90.134,123.878 91.413 M120.975 94.100 L 119.800 95.400 121.100 94.225 C 122.312 93.130,122.584 92.800,122.275 92.800 C 122.206 92.800,121.621 93.385,120.975 94.100 M118.278 96.213 C 117.660 96.756,117.314 97.200,117.508 97.200 C 117.702 97.200,118.283 96.750,118.800 96.200 C 119.995 94.928,119.731 94.934,118.278 96.213 M115.375 98.900 L 114.200 100.200 115.500 99.025 C 116.712 97.930,116.984 97.600,116.675 97.600 C 116.606 97.600,116.021 98.185,115.375 98.900 M109.200 104.071 C 107.169 105.973,107.038 106.154,108.600 104.898 C 110.466 103.396,112.330 101.578,111.962 101.617 C 111.873 101.627,110.630 102.731,109.200 104.071 M127.600 105.257 L 125.400 107.289 127.499 105.608 C 129.339 104.134,130.313 103.173,129.924 103.213 C 129.856 103.220,128.810 104.140,127.600 105.257 M69.024 106.327 C 71.735 106.703,71.901 106.834,80.432 115.308 L 87.864 122.691 89.281 121.445 C 91.022 119.915,99.680 112.534,102.978 109.769 C 107.401 106.060,108.757 106.400,89.549 106.397 C 80.227 106.396,71.340 106.316,69.800 106.220 C 67.586 106.082,67.423 106.105,69.024 106.327 M66.000 106.681 C 65.209 106.969,63.200 108.852,63.200 109.306 C 63.200 109.501,63.666 109.108,64.236 108.431 C 64.805 107.754,65.514 107.200,65.812 107.200 C 66.109 107.200,66.464 107.020,66.600 106.800 C 66.870 106.364,66.872 106.364,66.000 106.681 M122.400 109.694 C 120.970 111.020,120.430 111.608,121.200 111.000 C 123.526 109.164,125.292 107.559,125.142 107.417 C 125.064 107.343,123.830 108.368,122.400 109.694 M116.000 115.240 L 113.800 117.270 116.100 115.387 C 118.119 113.733,118.668 113.188,118.300 113.204 C 118.245 113.207,117.210 114.123,116.000 115.240 M62.409 113.920 C 62.391 114.966,63.600 116.659,66.170 119.188 L 68.800 121.777 68.800 132.688 L 68.800 143.600 87.600 143.600 L 106.400 143.600 106.400 133.680 C 106.400 126.310,106.529 123.616,106.900 123.198 C 107.317 122.730,102.214 126.962,101.600 127.594 C 101.382 127.819,97.306 131.273,95.424 132.828 C 94.777 133.363,93.517 134.430,92.624 135.200 C 89.751 137.677,87.265 138.306,85.095 137.105 C 83.233 136.076,63.920 116.606,63.167 115.000 C 62.755 114.120,62.414 113.634,62.409 113.920 M110.800 119.654 L 109.000 121.285 110.694 120.013 C 112.168 118.907,113.114 117.974,112.724 118.012 C 112.656 118.019,111.790 118.758,110.800 119.654 M68.896 187.496 L 69.000 206.200 87.600 206.200 L 106.200 206.200 106.200 187.600 L 106.200 169.000 87.496 168.896 L 68.792 168.792 68.896 187.496 M69.071 231.463 C 68.922 231.612,68.800 240.075,68.800 250.271 L 68.800 268.808 87.500 268.704 L 106.200 268.600 106.200 250.000 L 106.200 231.400 87.771 231.296 C 77.634 231.239,69.219 231.314,69.071 231.463 M276.832 249.972 C 276.375 250.369,276.000 250.863,276.000 251.069 C 276.000 252.231,266.887 262.000,265.803 262.000 C 265.471 262.000,265.199 262.135,265.197 262.300 C 265.193 262.659,263.256 263.600,262.520 263.600 C 262.117 263.600,262.000 264.913,262.000 269.438 C 262.000 273.819,261.854 275.542,261.414 276.338 C 260.484 278.021,256.799 288.718,256.809 289.706 C 256.834 292.315,259.360 295.332,261.952 295.850 C 266.216 296.703,268.625 294.336,271.162 286.800 C 271.644 285.370,272.219 283.871,272.441 283.469 C 272.663 283.068,272.951 281.847,273.080 280.757 C 273.254 279.288,273.586 278.545,274.363 277.887 C 274.939 277.399,275.849 276.382,276.384 275.628 C 277.452 274.122,278.948 272.394,281.400 269.832 C 282.280 268.913,283.922 267.090,285.049 265.781 C 286.177 264.471,287.887 262.565,288.849 261.545 C 293.875 256.221,294.495 255.407,293.625 255.272 C 293.171 255.202,292.800 254.977,292.800 254.772 C 292.800 254.567,292.361 254.400,291.824 254.400 C 291.287 254.400,290.758 254.256,290.649 254.079 C 290.540 253.903,289.528 253.507,288.400 253.200 C 287.272 252.893,286.260 252.497,286.151 252.321 C 286.042 252.144,285.513 252.000,284.976 252.000 C 284.439 252.000,284.000 251.820,284.000 251.600 C 284.000 251.380,283.638 251.200,283.195 251.200 C 282.752 251.200,282.077 251.041,281.695 250.847 C 280.826 250.405,279.211 249.739,278.332 249.461 C 277.965 249.345,277.290 249.575,276.832 249.972 M143.391 260.551 C 142.372 261.595,140.762 264.255,139.003 267.800 C 137.475 270.880,136.084 273.460,135.912 273.533 C 135.741 273.607,135.600 274.012,135.600 274.433 C 135.600 274.855,135.420 275.200,135.200 275.200 C 134.980 275.200,134.800 275.560,134.800 276.000 C 134.800 276.440,134.620 276.800,134.400 276.800 C 134.180 276.800,134.000 277.160,134.000 277.600 C 134.000 278.040,133.820 278.400,133.600 278.400 C 133.380 278.400,133.200 278.760,133.200 279.200 C 133.200 279.640,133.020 280.000,132.800 280.000 C 132.580 280.000,132.400 280.360,132.400 280.800 C 132.400 281.240,132.220 281.600,132.000 281.600 C 131.780 281.600,131.600 281.960,131.600 282.400 C 131.600 282.840,131.420 283.200,131.200 283.200 C 130.980 283.200,130.800 283.560,130.800 284.000 C 130.800 284.440,130.620 284.800,130.400 284.800 C 130.180 284.800,130.000 285.145,130.000 285.567 C 130.000 285.988,129.864 286.393,129.698 286.467 C 129.532 286.540,128.768 287.860,128.000 289.400 C 127.232 290.940,126.468 292.260,126.302 292.333 C 126.136 292.407,126.000 292.722,126.000 293.033 C 126.000 293.516,129.459 293.600,149.255 293.600 L 172.510 293.600 170.388 291.700 C 165.814 287.605,160.000 281.436,160.000 280.676 C 160.000 280.490,159.280 279.646,158.400 278.800 C 157.520 277.954,156.800 277.051,156.800 276.792 C 156.800 276.533,156.305 275.838,155.700 275.248 C 155.095 274.658,154.420 273.890,154.200 273.541 C 153.980 273.192,152.855 271.541,151.700 269.871 C 150.545 268.202,149.600 266.648,149.600 266.418 C 149.600 266.188,149.455 266.000,149.279 266.000 C 149.102 266.000,148.517 265.103,147.979 264.006 C 147.440 262.910,146.865 262.010,146.700 262.006 C 146.535 262.003,146.396 261.685,146.391 261.300 C 146.386 260.915,146.071 260.218,145.691 259.751 L 145.000 258.903 143.391 260.551 M262.492 334.300 L 262.400 343.600 246.816 343.600 L 231.232 343.600 230.787 341.900 C 227.218 328.274,210.284 328.133,206.786 341.700 L 206.296 343.600 171.748 343.600 C 137.687 343.600,137.200 343.589,137.200 342.815 C 137.200 340.854,135.433 337.346,133.444 335.356 C 126.822 328.735,116.595 331.337,113.420 340.452 C 113.086 341.413,112.809 342.515,112.806 342.900 C 112.800 343.553,111.747 343.606,97.100 343.695 L 81.400 343.790 96.900 343.900 L 112.400 344.009 112.400 344.986 C 112.400 345.922,112.628 346.618,113.878 349.506 C 118.591 360.394,137.600 356.772,137.600 344.985 L 137.600 344.000 172.000 344.000 L 206.400 344.000 206.409 345.500 C 206.432 349.415,210.513 354.240,215.200 355.894 C 221.949 358.275,231.200 352.051,231.200 345.129 L 231.200 344.000 246.813 344.000 C 259.082 344.000,262.467 343.891,262.620 343.491 C 262.728 343.211,262.764 338.936,262.700 333.991 L 262.584 325.000 262.492 334.300 " stroke="none" fill="#3572af" fill-rule="evenodd"></path></g></svg>