<svg id="svg" version="1.1" xmlns="http://www.w3.org/2000/svg" xmlns:xlink="http://www.w3.org/1999/xlink" width="400" height="400" viewBox="0, 0, 400,400"><g id="svgg"><path id="path0" d="M62.716 20.583 C 51.432 31.903,42.020 41.346,41.800 41.568 C 41.580 41.790,39.015 44.313,36.100 47.175 C 31.097 52.087,29.528 54.400,31.200 54.400 C 31.420 54.400,31.600 54.636,31.600 54.925 C 31.600 55.213,31.960 55.836,32.400 56.308 C 32.840 56.780,33.200 57.314,33.200 57.495 C 33.200 57.676,33.560 58.083,34.000 58.400 C 34.440 58.717,34.800 59.257,34.800 59.600 C 34.800 59.943,35.160 60.483,35.600 60.800 C 36.040 61.117,36.400 61.657,36.400 62.000 C 36.400 62.343,36.760 62.883,37.200 63.200 C 37.640 63.517,38.000 64.057,38.000 64.400 C 38.000 64.743,38.360 65.283,38.800 65.600 C 39.240 65.917,39.600 66.457,39.600 66.800 C 39.600 67.143,39.960 67.683,40.400 68.000 C 40.840 68.317,41.200 68.882,41.200 69.255 C 41.200 69.628,41.341 69.993,41.513 70.067 C 41.685 70.140,42.211 70.860,42.680 71.667 L 43.535 73.135 42.667 74.755 C 42.190 75.646,41.530 76.698,41.200 77.093 C 40.870 77.488,40.345 78.304,40.032 78.906 C 39.720 79.508,39.315 80.000,39.132 80.000 C 38.950 80.000,38.800 80.236,38.800 80.525 C 38.800 80.813,38.485 81.398,38.100 81.825 C 37.715 82.251,37.145 83.095,36.832 83.700 C 36.520 84.305,36.115 84.800,35.932 84.800 C 35.750 84.800,35.600 85.025,35.600 85.300 C 35.599 85.575,35.154 86.317,34.611 86.949 C 34.067 87.581,33.516 88.436,33.384 88.849 C 33.253 89.262,33.007 89.600,32.837 89.600 C 32.343 89.600,31.600 91.533,31.600 92.819 C 31.600 93.468,31.768 94.000,31.973 94.000 C 32.178 94.000,32.453 94.338,32.584 94.751 C 32.716 95.164,33.267 96.019,33.811 96.651 C 34.354 97.283,34.799 98.025,34.800 98.300 C 34.800 98.575,34.950 98.800,35.132 98.800 C 35.315 98.800,35.720 99.295,36.032 99.900 C 36.345 100.505,36.915 101.349,37.300 101.775 C 37.685 102.202,38.000 102.787,38.000 103.075 C 38.000 103.364,38.150 103.600,38.332 103.600 C 38.515 103.600,38.919 104.095,39.230 104.700 C 39.540 105.305,40.066 106.073,40.397 106.406 C 42.517 108.536,43.738 111.612,42.922 112.765 C 42.518 113.334,41.936 114.295,41.627 114.900 C 41.318 115.505,40.915 116.000,40.732 116.000 C 40.550 116.000,40.400 116.320,40.400 116.712 C 40.400 117.103,40.040 117.683,39.600 118.000 C 39.160 118.317,38.800 118.857,38.800 119.200 C 38.800 119.543,38.440 120.083,38.000 120.400 C 37.560 120.717,37.200 121.257,37.200 121.600 C 37.200 121.943,36.840 122.483,36.400 122.800 C 35.960 123.117,35.600 123.657,35.600 124.000 C 35.600 124.343,35.240 124.883,34.800 125.200 C 34.360 125.517,34.000 125.924,34.000 126.105 C 34.000 126.286,33.640 126.820,33.200 127.292 C 32.760 127.764,32.400 128.387,32.400 128.675 C 32.400 128.964,32.220 129.200,32.000 129.200 C 31.780 129.200,31.600 129.740,31.600 130.400 C 31.600 131.060,31.780 131.600,32.000 131.600 C 32.220 131.600,32.400 131.960,32.400 132.400 C 32.400 132.840,32.580 133.200,32.800 133.200 C 33.020 133.200,33.200 133.560,33.200 134.000 C 33.200 134.440,33.380 134.800,33.600 134.800 C 33.820 134.800,34.000 135.160,34.000 135.600 C 34.000 136.040,34.180 136.400,34.400 136.400 C 34.620 136.400,34.800 136.760,34.800 137.200 C 34.800 137.640,34.980 138.000,35.200 138.000 C 35.420 138.000,35.600 138.360,35.600 138.800 C 35.600 139.240,35.780 139.600,36.000 139.600 C 36.220 139.600,36.400 139.960,36.400 140.400 C 36.400 140.840,36.580 141.200,36.800 141.200 C 37.020 141.200,37.200 141.470,37.200 141.800 C 37.200 142.130,37.380 142.400,37.600 142.400 C 37.820 142.400,38.000 142.760,38.000 143.200 C 38.000 143.640,38.180 144.000,38.400 144.000 C 38.664 144.000,38.800 159.133,38.800 188.600 C 38.800 232.933,38.795 233.200,38.000 233.200 C 37.560 233.200,37.200 233.380,37.200 233.600 C 37.200 233.820,36.480 234.000,35.600 234.000 C 34.720 234.000,34.000 234.180,34.000 234.400 C 34.000 234.620,33.280 234.800,32.400 234.800 C 31.520 234.800,30.800 234.980,30.800 235.200 C 30.800 235.420,30.440 235.600,30.000 235.600 C 29.560 235.600,29.200 235.780,29.200 236.000 C 29.200 236.220,28.750 236.400,28.200 236.400 C 27.650 236.400,27.200 236.580,27.200 236.800 C 27.200 237.020,26.840 237.200,26.400 237.200 C 25.960 237.200,25.600 237.380,25.600 237.600 C 25.600 237.820,25.240 238.000,24.800 238.000 C 24.360 238.000,24.000 238.180,24.000 238.400 C 24.000 238.620,23.764 238.800,23.475 238.800 C 23.187 238.800,22.564 239.160,22.092 239.600 C 21.620 240.040,21.080 240.400,20.892 240.400 C 20.704 240.400,20.202 240.715,19.775 241.100 C 19.349 241.485,18.505 242.055,17.901 242.367 C 16.589 243.044,10.400 249.030,10.400 249.622 C 10.400 249.849,9.950 250.520,9.400 251.113 C 8.850 251.707,8.400 252.469,8.400 252.808 C 8.400 253.146,8.040 253.683,7.600 254.000 C 7.160 254.317,6.800 254.897,6.800 255.288 C 6.800 255.680,6.620 256.000,6.400 256.000 C 6.180 256.000,6.000 256.360,6.000 256.800 C 6.000 257.240,5.820 257.600,5.600 257.600 C 5.380 257.600,5.200 257.960,5.200 258.400 C 5.200 258.840,5.065 259.201,4.900 259.203 C 4.494 259.207,3.600 261.186,3.600 262.080 C 3.600 262.476,3.420 262.800,3.200 262.800 C 2.980 262.800,2.800 263.520,2.800 264.400 C 2.800 265.280,2.620 266.000,2.400 266.000 C 2.180 266.000,2.000 266.540,2.000 267.200 C 2.000 267.860,1.820 268.400,1.600 268.400 C 1.363 268.400,1.200 269.867,1.200 272.000 C 1.200 274.133,1.037 275.600,0.800 275.600 C 0.247 275.600,0.247 359.458,0.800 359.800 C 1.020 359.936,1.200 361.207,1.200 362.624 C 1.200 364.075,1.375 365.200,1.600 365.200 C 1.820 365.200,2.000 365.920,2.000 366.800 C 2.000 367.680,2.180 368.400,2.400 368.400 C 2.620 368.400,2.800 368.940,2.800 369.600 C 2.800 370.260,2.980 370.800,3.200 370.800 C 3.420 370.800,3.600 371.250,3.600 371.800 C 3.600 372.350,3.780 372.800,4.000 372.800 C 4.220 372.800,4.400 373.160,4.400 373.600 C 4.400 374.040,4.580 374.400,4.800 374.400 C 5.020 374.400,5.200 374.760,5.200 375.200 C 5.200 375.640,5.380 376.000,5.600 376.000 C 5.820 376.000,6.000 376.360,6.000 376.800 C 6.000 377.240,6.180 377.600,6.400 377.600 C 6.620 377.600,6.800 377.836,6.800 378.125 C 6.800 378.413,7.160 379.036,7.600 379.508 C 8.040 379.980,8.403 380.599,8.406 380.883 C 8.410 381.167,8.950 382.009,9.606 382.754 C 10.263 383.499,10.801 384.219,10.802 384.354 C 10.808 385.011,16.480 390.389,18.037 391.215 C 18.566 391.496,19.291 392.057,19.647 392.463 C 20.003 392.868,20.588 393.200,20.947 393.200 C 21.306 393.200,21.600 393.380,21.600 393.600 C 21.600 393.820,21.920 394.000,22.312 394.000 C 22.703 394.000,23.283 394.360,23.600 394.800 C 23.917 395.240,24.497 395.600,24.888 395.600 C 25.280 395.600,25.600 395.780,25.600 396.000 C 25.600 396.220,25.949 396.400,26.376 396.400 C 26.803 396.400,27.264 396.580,27.400 396.800 C 27.536 397.020,27.997 397.200,28.424 397.200 C 28.851 397.200,29.200 397.380,29.200 397.600 C 29.200 397.820,29.740 398.000,30.400 398.000 C 31.060 398.000,31.600 398.180,31.600 398.400 C 31.600 398.620,32.125 398.800,32.767 398.800 C 33.408 398.800,34.008 399.025,34.100 399.300 C 34.232 399.696,44.672 399.800,84.513 399.800 C 124.177 399.800,134.865 399.695,135.260 399.300 C 135.535 399.025,136.163 398.800,136.656 398.800 C 137.149 398.800,137.664 398.620,137.800 398.400 C 137.936 398.180,138.487 398.000,139.024 398.000 C 139.561 398.000,140.000 397.820,140.000 397.600 C 140.000 397.380,140.360 397.200,140.800 397.200 C 141.240 397.200,141.600 397.020,141.600 396.800 C 141.600 396.580,141.960 396.400,142.400 396.400 C 142.840 396.400,143.200 396.220,143.200 396.000 C 143.200 395.780,143.560 395.600,144.000 395.600 C 144.440 395.600,144.800 395.420,144.800 395.200 C 144.800 394.980,145.160 394.800,145.600 394.800 C 146.040 394.800,146.400 394.620,146.400 394.400 C 146.400 394.180,146.643 394.000,146.941 394.000 C 147.238 394.000,148.046 393.460,148.737 392.800 C 149.428 392.140,150.250 391.600,150.564 391.600 C 151.204 391.600,158.552 384.537,158.886 383.600 C 159.058 383.118,159.204 383.098,159.630 383.500 C 159.922 383.775,160.563 384.000,161.056 384.000 C 161.549 384.000,162.064 384.180,162.200 384.400 C 162.336 384.620,163.067 384.800,163.824 384.800 C 164.581 384.800,165.200 384.980,165.200 385.200 C 165.200 385.420,165.729 385.600,166.376 385.600 C 167.023 385.600,167.664 385.780,167.800 386.000 C 167.936 386.220,168.667 386.400,169.424 386.400 C 170.181 386.400,170.800 386.580,170.800 386.800 C 170.800 387.020,171.329 387.200,171.976 387.200 C 172.623 387.200,173.264 387.380,173.400 387.600 C 173.536 387.820,174.166 388.000,174.800 388.000 C 175.434 388.000,176.064 388.180,176.200 388.400 C 176.336 388.620,176.966 388.800,177.600 388.800 C 178.234 388.800,178.864 388.980,179.000 389.200 C 179.136 389.420,179.766 389.600,180.400 389.600 C 181.034 389.600,181.652 389.761,181.774 389.958 C 181.895 390.155,182.671 390.421,183.497 390.550 C 184.324 390.678,186.395 391.003,188.100 391.271 C 189.805 391.539,191.200 391.903,191.200 392.079 C 191.200 392.256,191.920 392.400,192.800 392.400 C 193.680 392.400,194.400 392.580,194.400 392.800 C 194.400 393.020,195.120 393.200,196.000 393.200 C 196.880 393.200,197.600 393.380,197.600 393.600 C 197.600 393.820,198.410 394.000,199.400 394.000 C 200.390 394.000,201.200 394.180,201.200 394.400 C 201.200 394.620,201.920 394.800,202.800 394.800 C 203.680 394.800,204.400 394.980,204.400 395.200 C 204.400 395.420,205.300 395.600,206.400 395.600 C 207.500 395.600,208.400 395.780,208.400 396.000 C 208.400 396.220,209.210 396.400,210.200 396.400 C 211.190 396.400,212.000 396.580,212.000 396.800 C 212.000 397.020,212.900 397.200,214.000 397.200 C 215.100 397.200,216.000 397.380,216.000 397.600 C 216.000 397.822,217.067 398.000,218.400 398.000 C 219.733 398.000,220.800 398.178,220.800 398.400 C 220.800 398.622,221.856 398.800,223.167 398.800 C 224.704 398.800,225.592 398.975,225.700 399.300 C 225.830 399.690,229.729 399.800,243.400 399.800 C 257.071 399.800,260.970 399.690,261.100 399.300 C 261.195 399.015,261.931 398.800,262.810 398.800 C 263.658 398.800,264.464 398.620,264.600 398.400 C 264.736 398.180,265.467 398.000,266.224 398.000 C 266.981 398.000,267.600 397.820,267.600 397.600 C 267.600 397.380,268.140 397.200,268.800 397.200 C 269.460 397.200,270.000 397.020,270.000 396.800 C 270.000 396.580,270.540 396.400,271.200 396.400 C 271.860 396.400,272.400 396.220,272.400 396.000 C 272.400 395.780,272.724 395.600,273.120 395.600 C 274.014 395.600,275.993 394.706,275.997 394.300 C 275.999 394.135,276.540 394.000,277.200 394.000 C 277.860 394.000,278.400 393.820,278.400 393.600 C 278.400 393.380,278.745 393.200,279.167 393.200 C 279.588 393.200,279.993 393.063,280.067 392.896 C 280.183 392.632,282.702 391.214,285.497 389.841 C 285.990 389.598,286.395 389.265,286.397 389.100 C 286.399 388.935,286.626 388.800,286.902 388.800 C 287.178 388.800,288.169 388.080,289.103 387.200 C 290.037 386.320,290.894 385.600,291.007 385.600 C 291.423 385.600,297.200 379.598,297.200 379.167 C 297.200 378.922,297.740 378.217,298.400 377.600 C 299.060 376.983,299.600 376.309,299.600 376.102 C 299.600 375.894,299.960 375.398,300.400 375.000 C 300.840 374.602,301.200 374.034,301.200 373.738 C 301.200 373.442,301.352 373.200,301.537 373.200 C 301.723 373.200,302.308 372.345,302.837 371.300 C 303.367 370.255,303.935 369.340,304.100 369.267 C 304.265 369.193,304.400 368.788,304.400 368.367 C 304.400 367.945,304.580 367.600,304.800 367.600 C 305.020 367.600,305.200 367.238,305.200 366.795 C 305.200 366.352,305.380 365.632,305.600 365.195 C 305.820 364.758,306.180 364.042,306.400 363.605 C 306.620 363.168,306.800 362.459,306.800 362.029 C 306.800 361.599,306.980 361.136,307.200 361.000 C 307.420 360.864,307.600 360.169,307.600 359.456 C 307.600 358.743,307.783 357.977,308.006 357.754 C 308.229 357.531,308.526 355.605,308.666 353.474 L 308.921 349.600 333.860 349.600 C 350.220 349.600,358.800 349.462,358.800 349.200 C 358.800 348.978,359.859 348.800,361.176 348.800 C 362.483 348.800,363.664 348.620,363.800 348.400 C 363.936 348.180,364.667 348.000,365.424 348.000 C 366.181 348.000,366.800 347.820,366.800 347.600 C 366.800 347.380,367.340 347.200,368.000 347.200 C 368.660 347.200,369.200 347.020,369.200 346.800 C 369.200 346.580,369.740 346.400,370.400 346.400 C 371.060 346.400,371.600 346.220,371.600 346.000 C 371.600 345.780,371.960 345.600,372.400 345.600 C 372.840 345.600,373.200 345.420,373.200 345.200 C 373.200 344.980,373.560 344.800,374.000 344.800 C 374.440 344.800,374.800 344.620,374.800 344.400 C 374.800 344.180,375.070 344.000,375.400 344.000 C 375.730 344.000,376.000 343.820,376.000 343.600 C 376.000 343.380,376.360 343.200,376.800 343.200 C 377.240 343.200,377.600 343.020,377.600 342.800 C 377.600 342.580,377.878 342.400,378.217 342.400 C 378.556 342.400,379.051 342.217,379.317 341.993 C 381.158 340.440,381.763 340.000,382.056 340.000 C 382.630 340.000,389.912 332.508,390.190 331.632 C 390.335 331.174,390.593 330.800,390.763 330.800 C 390.932 330.800,391.415 330.082,391.836 329.205 C 392.256 328.327,392.735 327.607,392.900 327.605 C 393.065 327.602,393.200 327.240,393.200 326.800 C 393.200 326.360,393.380 326.000,393.600 326.000 C 393.820 326.000,394.000 325.730,394.000 325.400 C 394.000 325.070,394.180 324.800,394.400 324.800 C 394.620 324.800,394.800 324.440,394.800 324.000 C 394.800 323.560,394.980 323.200,395.200 323.200 C 395.420 323.200,395.600 322.840,395.600 322.400 C 395.600 321.960,395.780 321.600,396.000 321.600 C 396.220 321.600,396.400 321.060,396.400 320.400 C 396.400 319.740,396.580 319.200,396.800 319.200 C 397.020 319.200,397.200 318.660,397.200 318.000 C 397.200 317.340,397.380 316.800,397.600 316.800 C 397.820 316.800,398.000 316.080,398.000 315.200 C 398.000 314.320,398.180 313.600,398.400 313.600 C 398.622 313.600,398.800 312.541,398.800 311.224 C 398.800 309.917,398.980 308.736,399.200 308.600 C 399.755 308.257,399.755 42.800,399.200 42.800 C 398.978 42.800,398.800 41.741,398.800 40.424 C 398.800 39.117,398.620 37.936,398.400 37.800 C 398.180 37.664,398.000 36.933,398.000 36.176 C 398.000 35.419,397.820 34.800,397.600 34.800 C 397.380 34.800,397.200 34.271,397.200 33.624 C 397.200 32.977,397.020 32.336,396.800 32.200 C 396.580 32.064,396.400 31.513,396.400 30.976 C 396.400 30.439,396.220 30.000,396.000 30.000 C 395.780 30.000,395.600 29.640,395.600 29.200 C 395.600 28.760,395.420 28.400,395.200 28.400 C 394.980 28.400,394.800 27.950,394.800 27.400 C 394.800 26.850,394.620 26.400,394.400 26.400 C 394.180 26.400,394.000 26.130,394.000 25.800 C 394.000 25.470,393.820 25.200,393.600 25.200 C 393.380 25.200,393.200 24.930,393.200 24.600 C 393.200 24.270,393.020 24.000,392.800 24.000 C 392.580 24.000,392.400 23.640,392.400 23.200 C 392.400 22.760,392.242 22.400,392.049 22.400 C 391.855 22.400,391.460 21.829,391.171 21.130 C 390.541 19.609,381.475 10.400,380.608 10.400 C 380.274 10.400,380.000 10.247,380.000 10.061 C 380.000 9.874,379.280 9.397,378.400 9.000 C 377.520 8.603,376.800 8.126,376.800 7.939 C 376.800 7.753,376.440 7.600,376.000 7.600 C 375.560 7.600,375.200 7.420,375.200 7.200 C 375.200 6.980,374.840 6.800,374.400 6.800 C 373.960 6.800,373.599 6.665,373.597 6.500 C 373.593 6.094,371.614 5.200,370.720 5.200 C 370.324 5.200,370.000 5.020,370.000 4.800 C 370.000 4.580,369.460 4.400,368.800 4.400 C 368.140 4.400,367.600 4.220,367.600 4.000 C 367.600 3.780,366.880 3.600,366.000 3.600 C 365.120 3.600,364.400 3.420,364.400 3.200 C 364.400 2.980,363.500 2.800,362.400 2.800 C 361.300 2.800,360.400 2.620,360.400 2.400 C 360.400 2.135,340.867 2.000,302.600 2.000 C 264.333 2.000,244.800 2.135,244.800 2.400 C 244.800 2.620,243.810 2.800,242.600 2.800 C 241.390 2.800,240.400 2.980,240.400 3.200 C 240.400 3.420,239.680 3.600,238.800 3.600 C 237.920 3.600,237.200 3.780,237.200 4.000 C 237.200 4.220,236.750 4.400,236.200 4.400 C 235.650 4.400,235.200 4.580,235.200 4.800 C 235.200 5.020,234.750 5.200,234.200 5.200 C 233.650 5.200,233.200 5.380,233.200 5.600 C 233.200 5.820,232.840 6.000,232.400 6.000 C 231.960 6.000,231.600 6.180,231.600 6.400 C 231.600 6.620,231.240 6.800,230.800 6.800 C 230.360 6.800,230.000 6.980,230.000 7.200 C 230.000 7.420,229.655 7.600,229.233 7.600 C 228.812 7.600,228.407 7.735,228.333 7.900 C 228.260 8.065,227.482 8.560,226.604 9.000 C 225.727 9.440,224.485 10.295,223.845 10.900 C 223.205 11.505,222.517 12.000,222.316 12.000 C 221.833 12.000,215.200 18.763,215.200 19.255 C 215.200 19.465,214.764 20.072,214.231 20.605 C 213.698 21.138,213.146 21.940,213.004 22.387 C 212.862 22.834,212.578 23.200,212.373 23.200 C 212.168 23.200,212.000 23.545,212.000 23.967 C 212.000 24.388,211.841 24.793,211.647 24.867 C 211.055 25.090,208.400 31.054,208.400 32.162 C 208.400 32.733,208.220 33.200,208.000 33.200 C 207.780 33.200,207.600 33.819,207.600 34.576 C 207.600 35.333,207.420 36.064,207.200 36.200 C 206.980 36.336,206.800 37.236,206.800 38.200 C 206.800 39.164,206.620 40.064,206.400 40.200 C 206.135 40.364,206.000 86.004,206.000 175.824 C 206.000 265.808,206.134 311.200,206.400 311.200 C 206.620 311.200,206.800 312.100,206.800 313.200 C 206.800 314.300,206.980 315.200,207.200 315.200 C 207.420 315.200,207.600 315.920,207.600 316.800 C 207.600 317.680,207.756 318.400,207.948 318.400 C 208.139 318.400,208.392 318.996,208.510 319.725 C 208.749 321.197,210.383 324.925,210.881 325.133 C 211.057 325.207,211.200 325.612,211.200 326.033 C 211.200 326.455,211.380 326.800,211.600 326.800 C 211.820 326.800,212.000 327.036,212.000 327.325 C 212.000 327.613,212.360 328.236,212.800 328.708 C 213.240 329.180,213.600 329.727,213.600 329.924 C 213.600 330.121,214.097 330.803,214.704 331.441 C 215.312 332.078,216.254 333.230,216.798 334.000 C 218.063 335.790,219.825 337.550,221.600 338.795 C 222.370 339.335,223.448 340.187,223.996 340.689 C 224.544 341.190,225.219 341.600,225.496 341.600 C 225.773 341.600,226.000 341.780,226.000 342.000 C 226.000 342.220,226.320 342.400,226.712 342.400 C 227.103 342.400,227.683 342.760,228.000 343.200 C 228.317 343.640,228.897 344.000,229.288 344.000 C 229.680 344.000,230.000 344.180,230.000 344.400 C 230.000 344.620,230.360 344.800,230.800 344.800 C 231.240 344.800,231.600 344.980,231.600 345.200 C 231.600 345.420,231.949 345.600,232.376 345.600 C 232.803 345.600,233.264 345.780,233.400 346.000 C 233.536 346.220,234.087 346.400,234.624 346.400 C 235.161 346.400,235.600 346.580,235.600 346.800 C 235.600 347.020,236.140 347.200,236.800 347.200 C 237.460 347.200,238.000 347.380,238.000 347.600 C 238.000 347.820,238.720 348.000,239.600 348.000 C 240.480 348.000,241.200 348.180,241.200 348.400 C 241.200 348.620,242.179 348.800,243.376 348.800 C 244.573 348.800,245.664 348.980,245.800 349.200 C 245.960 349.460,254.604 349.600,270.424 349.600 C 293.063 349.600,295.831 349.715,294.400 350.600 C 294.180 350.736,294.000 351.499,294.000 352.295 C 294.000 353.712,293.451 355.909,292.751 357.295 C 292.558 357.677,292.399 358.307,292.398 358.695 C 292.396 359.083,292.126 359.916,291.798 360.546 C 291.469 361.176,291.200 361.941,291.200 362.246 C 291.200 362.551,291.020 362.800,290.800 362.800 C 290.580 362.800,290.400 363.160,290.400 363.600 C 290.400 364.040,290.220 364.400,290.000 364.400 C 289.780 364.400,289.600 364.672,289.600 365.004 C 289.600 365.336,289.060 366.172,288.400 366.863 C 287.740 367.554,287.200 368.275,287.200 368.466 C 287.200 369.506,278.017 377.600,276.837 377.600 C 276.634 377.600,276.407 377.746,276.333 377.925 C 276.120 378.446,271.530 380.800,270.729 380.800 C 270.328 380.800,270.000 380.980,270.000 381.200 C 270.000 381.420,269.561 381.600,269.024 381.600 C 268.487 381.600,267.936 381.780,267.800 382.000 C 267.664 382.220,267.203 382.400,266.776 382.400 C 266.349 382.400,266.000 382.580,266.000 382.800 C 266.000 383.020,265.460 383.200,264.800 383.200 C 264.140 383.200,263.600 383.380,263.600 383.600 C 263.600 383.820,262.981 384.000,262.224 384.000 C 261.467 384.000,260.736 384.180,260.600 384.400 C 260.464 384.620,259.553 384.800,258.576 384.800 C 257.599 384.800,256.800 384.980,256.800 385.200 C 256.800 385.425,255.675 385.600,254.224 385.600 C 252.807 385.600,251.536 385.780,251.400 386.000 C 251.065 386.542,236.400 386.542,236.400 386.000 C 236.400 385.763,234.933 385.600,232.800 385.600 C 230.667 385.600,229.200 385.437,229.200 385.200 C 229.200 384.980,228.221 384.800,227.024 384.800 C 225.827 384.800,224.736 384.620,224.600 384.400 C 224.464 384.180,223.564 384.000,222.600 384.000 C 221.636 384.000,220.736 383.820,220.600 383.600 C 220.464 383.380,219.474 383.200,218.400 383.200 C 217.326 383.200,216.336 383.020,216.200 382.800 C 216.064 382.580,215.063 382.400,213.976 382.400 C 212.889 382.400,212.000 382.220,212.000 382.000 C 212.000 381.780,211.100 381.600,210.000 381.600 C 208.900 381.600,208.000 381.420,208.000 381.200 C 208.000 380.980,207.280 380.800,206.400 380.800 C 205.520 380.800,204.800 380.620,204.800 380.400 C 204.800 380.180,204.091 380.000,203.224 380.000 C 202.357 380.000,201.536 379.820,201.400 379.600 C 201.264 379.380,200.544 379.200,199.800 379.200 C 199.056 379.200,198.336 379.020,198.200 378.800 C 198.064 378.580,197.243 378.400,196.376 378.400 C 195.509 378.400,194.800 378.220,194.800 378.000 C 194.800 377.780,194.080 377.600,193.200 377.600 C 192.320 377.600,191.600 377.420,191.600 377.200 C 191.600 376.980,191.118 376.800,190.528 376.800 C 189.939 376.800,188.904 376.631,188.228 376.425 C 184.078 375.159,182.559 374.800,181.354 374.800 C 180.609 374.800,180.000 374.620,180.000 374.400 C 180.000 374.180,179.460 374.000,178.800 374.000 C 178.140 374.000,177.600 373.820,177.600 373.600 C 177.600 373.380,176.981 373.200,176.224 373.200 C 175.467 373.200,174.736 373.020,174.600 372.800 C 174.464 372.580,173.834 372.400,173.200 372.400 C 172.566 372.400,171.936 372.220,171.800 372.000 C 171.664 371.780,171.023 371.600,170.376 371.600 C 169.729 371.600,169.200 371.420,169.200 371.200 C 169.200 370.980,168.480 370.800,167.600 370.800 C 166.267 370.800,166.000 370.667,166.000 370.000 C 166.000 369.560,166.180 369.200,166.400 369.200 C 166.620 369.200,166.800 368.671,166.800 368.024 C 166.800 367.377,166.980 366.736,167.200 366.600 C 167.420 366.464,167.600 365.733,167.600 364.976 C 167.600 364.219,167.780 363.600,168.000 363.600 C 168.264 363.600,168.400 347.741,168.400 316.824 C 168.400 286.071,168.263 269.963,168.000 269.800 C 167.780 269.664,167.600 268.933,167.600 268.176 C 167.600 267.419,167.420 266.800,167.200 266.800 C 166.980 266.800,166.800 266.181,166.800 265.424 C 166.800 264.667,166.620 263.936,166.400 263.800 C 166.180 263.664,166.000 263.023,166.000 262.376 C 166.000 261.729,165.854 261.200,165.675 261.200 C 165.496 261.200,165.102 260.570,164.800 259.800 C 164.498 259.030,164.104 258.400,163.925 258.400 C 163.746 258.400,163.600 258.040,163.600 257.600 C 163.600 257.160,163.420 256.800,163.200 256.800 C 162.980 256.800,162.800 256.440,162.800 256.000 C 162.800 255.560,162.620 255.200,162.400 255.200 C 162.180 255.200,162.000 254.880,162.000 254.488 C 162.000 254.097,161.640 253.517,161.200 253.200 C 160.760 252.883,160.400 252.438,160.400 252.212 C 160.399 251.985,159.949 251.277,159.400 250.638 C 158.850 249.999,158.400 249.328,158.400 249.148 C 158.400 248.757,155.714 246.058,152.975 243.698 C 150.066 241.191,150.078 241.200,149.505 241.200 C 149.214 241.200,148.717 240.840,148.400 240.400 C 148.083 239.960,147.543 239.600,147.200 239.600 C 146.857 239.600,146.317 239.240,146.000 238.800 C 145.683 238.360,145.114 238.000,144.735 238.000 C 144.357 238.000,143.936 237.820,143.800 237.600 C 143.664 237.380,143.113 237.200,142.576 237.200 C 142.039 237.200,141.599 237.065,141.597 236.900 C 141.593 236.541,139.656 235.600,138.920 235.600 C 138.634 235.600,138.400 235.420,138.400 235.200 C 138.400 234.980,137.781 234.800,137.024 234.800 C 136.267 234.800,135.536 234.620,135.400 234.400 C 135.264 234.180,134.544 234.000,133.800 234.000 C 133.056 234.000,132.336 233.820,132.200 233.600 C 132.064 233.380,131.513 233.200,130.976 233.200 L 130.000 233.200 130.000 138.594 L 130.000 43.989 126.700 40.656 C 124.885 38.823,122.111 35.990,120.536 34.362 C 118.961 32.733,115.271 29.049,112.336 26.175 C 109.401 23.301,105.710 19.611,104.134 17.975 C 102.557 16.339,98.687 12.472,95.534 9.382 C 92.380 6.292,89.025 2.917,88.078 1.882 C 84.651 -1.863,86.308 -3.086,62.716 20.583 M355.200 16.400 C 355.200 16.625,356.325 16.800,357.776 16.800 C 359.193 16.800,360.464 16.980,360.600 17.200 C 360.736 17.420,361.276 17.600,361.800 17.600 C 362.324 17.600,362.864 17.780,363.000 18.000 C 363.136 18.220,363.617 18.400,364.069 18.400 C 364.916 18.400,368.096 19.966,368.333 20.500 C 368.407 20.665,368.812 20.800,369.233 20.800 C 369.655 20.800,370.000 20.980,370.000 21.200 C 370.000 21.420,370.272 21.600,370.604 21.600 C 370.936 21.600,371.788 22.155,372.497 22.833 C 373.206 23.510,374.285 24.359,374.894 24.719 C 375.503 25.079,376.094 25.665,376.207 26.022 C 376.320 26.378,377.220 27.513,378.206 28.542 C 379.193 29.572,380.000 30.681,380.000 31.007 C 380.000 31.333,380.180 31.600,380.400 31.600 C 380.620 31.600,380.800 31.960,380.800 32.400 C 380.800 32.840,380.980 33.200,381.200 33.200 C 381.420 33.200,381.600 33.560,381.600 34.000 C 381.600 34.440,381.780 34.800,382.000 34.800 C 382.220 34.800,382.400 35.160,382.400 35.600 C 382.400 36.040,382.580 36.400,382.800 36.400 C 383.020 36.400,383.200 36.940,383.200 37.600 C 383.200 38.260,383.380 38.800,383.600 38.800 C 383.820 38.800,384.000 39.430,384.000 40.200 C 384.000 40.970,384.180 41.600,384.400 41.600 C 384.666 41.600,384.800 86.600,384.800 175.800 C 384.800 265.000,384.666 310.000,384.400 310.000 C 384.180 310.000,384.000 310.540,384.000 311.200 C 384.000 311.860,383.820 312.400,383.600 312.400 C 383.380 312.400,383.200 313.030,383.200 313.800 C 383.200 314.570,383.020 315.200,382.800 315.200 C 382.580 315.200,382.400 315.560,382.400 316.000 C 382.400 316.440,382.220 316.800,382.000 316.800 C 381.780 316.800,381.600 317.160,381.600 317.600 C 381.600 318.040,381.441 318.400,381.247 318.400 C 381.052 318.400,380.793 318.715,380.671 319.100 C 380.003 321.208,373.483 328.338,371.100 329.568 C 370.495 329.880,370.000 330.285,370.000 330.468 C 370.000 330.650,369.640 330.800,369.200 330.800 C 368.760 330.800,368.400 330.980,368.400 331.200 C 368.400 331.420,368.040 331.600,367.600 331.600 C 367.160 331.600,366.800 331.780,366.800 332.000 C 366.800 332.220,366.440 332.400,366.000 332.400 C 365.560 332.400,365.200 332.580,365.200 332.800 C 365.200 333.020,364.671 333.200,364.024 333.200 C 363.377 333.200,362.736 333.380,362.600 333.600 C 362.464 333.820,361.823 334.000,361.176 334.000 C 360.529 334.000,360.000 334.180,360.000 334.400 C 360.000 334.665,340.533 334.800,302.400 334.800 C 264.267 334.800,244.800 334.665,244.800 334.400 C 244.800 334.180,244.260 334.000,243.600 334.000 C 242.940 334.000,242.400 333.820,242.400 333.600 C 242.400 333.380,241.860 333.200,241.200 333.200 C 240.540 333.200,240.000 333.020,240.000 332.800 C 240.000 332.580,239.640 332.400,239.200 332.400 C 238.760 332.400,238.400 332.254,238.400 332.075 C 238.400 331.896,237.770 331.502,237.000 331.200 C 236.230 330.898,235.600 330.504,235.600 330.325 C 235.600 330.146,235.328 330.000,234.996 330.000 C 234.664 330.000,233.828 329.460,233.137 328.800 C 232.446 328.140,231.728 327.600,231.542 327.600 C 231.355 327.600,230.534 326.970,229.718 326.200 C 228.901 325.430,228.091 324.800,227.917 324.800 C 227.742 324.800,227.600 324.512,227.600 324.160 C 227.600 323.809,227.090 323.044,226.467 322.460 C 225.844 321.877,225.211 320.905,225.060 320.300 C 224.908 319.695,224.608 319.200,224.392 319.200 C 224.177 319.200,224.000 318.840,224.000 318.400 C 224.000 317.960,223.820 317.600,223.600 317.600 C 223.380 317.600,223.200 317.240,223.200 316.800 C 223.200 316.360,223.020 316.000,222.800 316.000 C 222.580 316.000,222.400 315.561,222.400 315.024 C 222.400 314.487,222.220 313.936,222.000 313.800 C 221.780 313.664,221.600 313.124,221.600 312.600 C 221.600 312.076,221.420 311.536,221.200 311.400 C 220.980 311.264,220.800 310.173,220.800 308.976 C 220.800 307.779,220.620 306.800,220.400 306.800 C 220.134 306.800,220.000 262.875,220.000 175.824 C 220.000 88.937,220.135 44.764,220.400 44.600 C 220.620 44.464,220.800 43.474,220.800 42.400 C 220.800 41.326,220.980 40.336,221.200 40.200 C 221.420 40.064,221.600 39.524,221.600 39.000 C 221.600 38.476,221.780 37.936,222.000 37.800 C 222.220 37.664,222.400 37.220,222.400 36.814 C 222.400 36.016,224.009 32.685,224.500 32.467 C 224.665 32.393,224.800 31.997,224.800 31.585 C 224.800 31.173,225.250 30.386,225.800 29.836 C 226.350 29.286,226.800 28.634,226.800 28.387 C 226.800 27.993,228.404 26.363,231.013 24.104 C 232.497 22.819,235.524 20.800,235.965 20.800 C 236.204 20.800,236.400 20.620,236.400 20.400 C 236.400 20.180,236.760 20.000,237.200 20.000 C 237.640 20.000,238.001 19.865,238.003 19.700 C 238.007 19.294,239.986 18.400,240.880 18.400 C 241.276 18.400,241.600 18.220,241.600 18.000 C 241.600 17.780,242.129 17.600,242.776 17.600 C 243.423 17.600,244.064 17.420,244.200 17.200 C 244.336 16.980,245.686 16.800,247.200 16.800 C 248.714 16.800,250.064 16.620,250.200 16.400 C 250.363 16.137,268.337 16.000,302.824 16.000 C 337.475 16.000,355.200 16.135,355.200 16.400 M87.854 22.554 C 89.305 23.958,90.852 25.468,91.291 25.909 C 92.103 26.723,106.336 40.957,107.800 42.418 C 108.240 42.858,110.265 44.921,112.300 47.003 L 116.000 50.790 116.000 141.595 L 116.000 232.400 103.800 232.400 L 91.600 232.400 91.600 152.400 L 91.600 72.400 84.600 72.400 L 77.600 72.400 77.600 152.400 L 77.600 232.400 65.600 232.400 L 53.600 232.400 53.600 186.800 C 53.600 156.667,53.464 141.200,53.200 141.200 C 52.980 141.200,52.800 140.840,52.800 140.400 C 52.800 139.960,52.620 139.600,52.400 139.600 C 52.180 139.600,52.000 139.240,52.000 138.800 C 52.000 138.360,51.820 138.000,51.600 138.000 C 51.380 138.000,51.200 137.640,51.200 137.200 C 51.200 136.760,51.020 136.400,50.800 136.400 C 50.580 136.400,50.400 136.040,50.400 135.600 C 50.400 135.160,50.220 134.800,50.000 134.800 C 49.780 134.800,49.600 134.440,49.600 134.000 C 49.600 133.560,49.420 133.200,49.200 133.200 C 48.980 133.200,48.800 132.855,48.800 132.433 C 48.800 132.012,48.612 131.604,48.383 131.528 C 48.153 131.451,48.333 130.994,48.783 130.511 C 49.232 130.028,49.600 129.480,49.600 129.292 C 49.600 129.104,49.915 128.602,50.300 128.175 C 50.685 127.749,51.255 126.905,51.568 126.300 C 51.880 125.695,52.285 125.200,52.468 125.200 C 52.650 125.200,52.800 124.930,52.800 124.600 C 52.800 124.270,52.950 124.000,53.132 124.000 C 53.315 124.000,53.720 123.505,54.032 122.900 C 54.345 122.295,54.915 121.451,55.300 121.025 C 55.685 120.598,56.000 120.013,56.000 119.725 C 56.000 119.436,56.150 119.200,56.332 119.200 C 56.515 119.200,56.920 118.705,57.232 118.100 C 57.545 117.495,58.025 116.762,58.300 116.471 C 58.575 116.181,58.800 115.720,58.800 115.447 C 58.800 115.174,59.115 114.593,59.500 114.155 C 61.241 112.176,61.485 109.600,59.932 109.600 C 59.750 109.600,59.600 109.330,59.600 109.000 C 59.600 108.670,59.447 108.400,59.261 108.400 C 59.074 108.400,58.597 107.680,58.200 106.800 C 57.803 105.920,57.326 105.200,57.139 105.200 C 56.953 105.200,56.800 104.964,56.800 104.675 C 56.800 104.387,56.440 103.764,56.000 103.292 C 55.560 102.820,55.200 102.280,55.200 102.092 C 55.200 101.904,54.885 101.402,54.500 100.975 C 54.115 100.549,53.545 99.705,53.232 99.100 C 52.920 98.495,52.515 98.000,52.332 98.000 C 52.150 98.000,52.000 97.764,52.000 97.475 C 52.000 97.187,51.685 96.602,51.300 96.175 C 50.915 95.749,50.345 94.905,50.032 94.300 C 49.720 93.695,49.315 93.200,49.132 93.200 C 48.950 93.200,48.800 92.840,48.800 92.400 C 48.800 91.960,48.980 91.600,49.200 91.600 C 49.420 91.600,49.600 91.330,49.600 91.000 C 49.600 90.670,49.750 90.400,49.932 90.400 C 50.115 90.400,50.520 89.905,50.832 89.300 C 51.145 88.695,51.715 87.851,52.100 87.425 C 52.485 86.998,52.800 86.413,52.800 86.125 C 52.800 85.836,52.950 85.600,53.132 85.600 C 53.315 85.600,53.720 85.105,54.032 84.500 C 54.345 83.895,54.915 83.051,55.300 82.625 C 55.685 82.198,56.000 81.613,56.000 81.325 C 56.000 81.036,56.168 80.800,56.373 80.800 C 56.578 80.800,56.854 80.461,56.985 80.048 C 57.116 79.634,57.578 78.886,58.012 78.386 C 58.445 77.887,58.800 77.185,58.800 76.827 C 58.800 76.469,59.160 75.917,59.600 75.600 C 60.040 75.283,60.400 74.703,60.400 74.312 C 60.400 73.920,60.580 73.600,60.800 73.600 C 61.020 73.600,61.200 73.330,61.200 73.000 C 61.200 72.670,61.020 72.400,60.800 72.400 C 60.580 72.400,60.400 72.164,60.400 71.875 C 60.400 71.587,60.085 70.997,59.700 70.565 C 59.315 70.132,58.657 69.108,58.237 68.289 C 57.817 67.470,57.322 66.800,57.137 66.800 C 56.952 66.800,56.800 66.564,56.800 66.275 C 56.800 65.987,56.440 65.364,56.000 64.892 C 55.560 64.420,55.200 63.880,55.200 63.692 C 55.200 63.504,54.885 63.002,54.500 62.575 C 54.115 62.149,53.545 61.305,53.232 60.700 C 52.920 60.095,52.515 59.600,52.332 59.600 C 52.150 59.600,52.000 59.412,52.000 59.183 C 52.000 58.954,51.640 58.380,51.200 57.908 C 50.760 57.436,50.400 56.813,50.400 56.525 C 50.400 56.236,50.220 56.000,50.000 56.000 C 48.580 56.000,52.427 51.527,61.130 43.061 C 65.217 39.085,73.175 31.122,76.238 27.944 C 84.857 19.000,84.401 19.212,87.854 22.554 M238.000 34.600 L 238.000 41.600 245.000 41.600 L 252.000 41.600 252.000 34.600 L 252.000 27.600 245.000 27.600 L 238.000 27.600 238.000 34.600 M277.800 40.800 C 277.664 41.020,276.584 41.200,275.400 41.200 C 274.216 41.200,273.136 41.380,273.000 41.600 C 272.864 41.820,272.247 42.000,271.629 42.000 C 269.266 42.000,259.600 45.895,259.600 46.848 C 259.600 47.041,259.330 47.200,259.000 47.200 C 258.670 47.200,258.400 47.380,258.400 47.600 C 258.400 47.820,258.165 48.000,257.878 48.000 C 257.591 48.000,256.669 48.630,255.828 49.400 C 254.987 50.170,254.141 50.800,253.947 50.800 C 253.456 50.800,248.000 56.369,248.000 56.870 C 248.000 57.095,247.460 57.783,246.800 58.400 C 246.140 59.017,245.600 59.719,245.600 59.960 C 245.600 60.202,245.465 60.401,245.300 60.403 C 245.135 60.405,244.802 60.810,244.560 61.303 C 244.317 61.796,243.743 62.920,243.283 63.800 C 242.824 64.680,242.152 66.120,241.790 67.000 C 241.429 67.880,240.968 68.913,240.766 69.295 C 240.565 69.677,240.400 70.352,240.400 70.795 C 240.400 71.238,240.220 71.600,240.000 71.600 C 239.780 71.600,239.600 72.320,239.600 73.200 C 239.600 74.080,239.420 74.800,239.200 74.800 C 238.980 74.800,238.800 75.610,238.800 76.600 C 238.800 77.590,238.620 78.400,238.400 78.400 C 238.134 78.400,238.000 111.067,238.000 175.600 C 238.000 240.133,238.134 272.800,238.400 272.800 C 238.620 272.800,238.800 273.700,238.800 274.800 C 238.800 275.900,238.980 276.800,239.200 276.800 C 239.420 276.800,239.600 277.520,239.600 278.400 C 239.600 279.280,239.780 280.000,240.000 280.000 C 240.220 280.000,240.400 280.360,240.400 280.800 C 240.400 281.240,240.580 281.600,240.800 281.600 C 241.020 281.600,241.200 282.140,241.200 282.800 C 241.200 283.460,241.357 284.000,241.550 284.000 C 241.743 284.000,242.011 284.557,242.148 285.239 C 242.284 285.920,242.936 287.279,243.598 288.259 C 244.259 289.238,244.800 290.183,244.800 290.358 C 244.800 290.533,245.160 291.002,245.600 291.400 C 246.040 291.798,246.400 292.273,246.400 292.456 C 246.400 292.759,248.623 295.276,251.242 297.940 C 253.209 299.940,256.557 302.800,256.931 302.800 C 257.138 302.800,257.597 303.129,257.953 303.530 C 258.309 303.932,259.185 304.516,259.900 304.828 C 260.615 305.140,261.200 305.531,261.200 305.698 C 261.200 305.864,261.430 306.000,261.710 306.000 C 261.991 306.000,263.296 306.534,264.610 307.187 C 265.925 307.840,267.855 308.493,268.900 308.639 C 269.945 308.784,270.800 309.060,270.800 309.252 C 270.800 309.443,271.520 309.600,272.400 309.600 C 273.280 309.600,274.000 309.780,274.000 310.000 C 274.000 310.235,275.400 310.400,277.400 310.400 C 279.400 310.400,280.800 310.565,280.800 310.800 C 280.800 311.062,288.333 311.200,302.600 311.200 C 316.867 311.200,324.400 311.062,324.400 310.800 C 324.400 310.565,325.792 310.400,327.776 310.400 C 329.633 310.400,331.264 310.220,331.400 310.000 C 331.536 309.780,332.166 309.600,332.800 309.600 C 333.434 309.600,334.064 309.420,334.200 309.200 C 334.336 308.980,334.994 308.800,335.663 308.800 C 336.851 308.800,338.222 308.308,341.338 306.763 C 342.184 306.343,343.129 306.000,343.438 306.000 C 343.747 306.000,344.000 305.842,344.000 305.649 C 344.000 305.455,344.540 305.073,345.200 304.800 C 345.860 304.527,346.400 304.145,346.400 303.951 C 346.400 303.758,346.688 303.600,347.040 303.600 C 347.391 303.600,348.183 303.060,348.800 302.400 C 349.417 301.740,350.130 301.200,350.385 301.200 C 350.942 301.200,357.600 294.496,357.600 293.935 C 357.600 293.719,357.825 293.292,358.100 292.985 C 359.287 291.662,359.600 291.209,359.600 290.817 C 359.600 290.588,359.780 290.400,360.000 290.400 C 360.220 290.400,360.400 290.130,360.400 289.800 C 360.400 289.470,360.580 289.200,360.800 289.200 C 361.020 289.200,361.200 288.930,361.200 288.600 C 361.200 288.270,361.380 288.000,361.600 288.000 C 361.820 288.000,362.000 287.640,362.000 287.200 C 362.000 286.760,362.180 286.400,362.400 286.400 C 362.620 286.400,362.800 286.040,362.800 285.600 C 362.800 285.160,362.980 284.800,363.200 284.800 C 363.420 284.800,363.600 284.451,363.600 284.024 C 363.600 283.597,363.780 283.136,364.000 283.000 C 364.220 282.864,364.400 282.313,364.400 281.776 C 364.400 281.239,364.580 280.800,364.800 280.800 C 365.020 280.800,365.200 280.260,365.200 279.600 C 365.200 278.940,365.380 278.400,365.600 278.400 C 365.820 278.400,366.000 277.680,366.000 276.800 C 366.000 275.920,366.180 275.200,366.400 275.200 C 366.622 275.200,366.800 274.141,366.800 272.824 C 366.800 271.517,366.980 270.336,367.200 270.200 C 367.465 270.036,367.600 238.063,367.600 175.576 C 367.600 112.925,367.466 81.200,367.200 81.200 C 366.978 81.200,366.800 80.141,366.800 78.824 C 366.800 77.517,366.620 76.336,366.400 76.200 C 366.180 76.064,366.000 75.333,366.000 74.576 C 366.000 73.819,365.820 73.200,365.600 73.200 C 365.380 73.200,365.200 72.660,365.200 72.000 C 365.200 71.340,365.020 70.800,364.800 70.800 C 364.580 70.800,364.400 70.260,364.400 69.600 C 364.400 68.940,364.220 68.400,364.000 68.400 C 363.780 68.400,363.600 68.040,363.600 67.600 C 363.600 67.160,363.420 66.800,363.200 66.800 C 362.980 66.800,362.800 66.440,362.800 66.000 C 362.800 65.560,362.620 65.200,362.400 65.200 C 362.180 65.200,362.000 64.840,362.000 64.400 C 362.000 63.960,361.820 63.600,361.600 63.600 C 361.380 63.600,361.200 63.280,361.200 62.888 C 361.200 62.497,360.840 61.917,360.400 61.600 C 359.960 61.283,359.600 60.703,359.600 60.312 C 359.600 59.920,359.459 59.600,359.286 59.600 C 359.114 59.600,358.635 59.029,358.224 58.332 C 357.328 56.816,350.191 49.600,349.587 49.600 C 349.354 49.600,348.728 49.164,348.195 48.631 C 347.662 48.098,346.860 47.546,346.413 47.404 C 345.966 47.262,345.600 46.978,345.600 46.773 C 345.600 46.568,345.240 46.400,344.800 46.400 C 344.360 46.400,344.000 46.220,344.000 46.000 C 344.000 45.780,343.655 45.600,343.233 45.600 C 342.812 45.600,342.407 45.465,342.333 45.300 C 342.140 44.866,338.827 43.200,338.157 43.200 C 337.845 43.200,337.277 43.027,336.895 42.816 C 335.897 42.265,332.558 41.540,330.000 41.319 C 328.790 41.215,327.629 40.965,327.420 40.765 C 326.881 40.248,278.120 40.282,277.800 40.800 M328.200 55.600 C 328.336 55.820,328.966 56.000,329.600 56.000 C 330.234 56.000,330.864 56.180,331.000 56.400 C 331.136 56.620,331.566 56.800,331.956 56.800 C 332.346 56.800,333.550 57.249,334.632 57.798 C 335.714 58.347,336.875 58.797,337.212 58.798 C 337.548 58.799,338.083 59.160,338.400 59.600 C 338.717 60.040,339.219 60.400,339.514 60.400 C 340.023 60.400,341.768 62.092,345.400 66.107 C 347.103 67.990,348.308 69.756,348.671 70.900 C 348.793 71.285,349.052 71.600,349.247 71.600 C 349.441 71.600,349.600 71.960,349.600 72.400 C 349.600 72.840,349.780 73.200,350.000 73.200 C 350.220 73.200,350.400 73.560,350.400 74.000 C 350.400 74.440,350.580 74.800,350.800 74.800 C 351.020 74.800,351.200 75.430,351.200 76.200 C 351.200 76.970,351.380 77.600,351.600 77.600 C 351.820 77.600,352.000 78.140,352.000 78.800 C 352.000 79.460,352.180 80.000,352.400 80.000 C 352.664 80.000,352.800 95.000,352.800 124.200 L 352.800 168.400 302.400 168.400 L 252.000 168.400 252.000 125.800 C 252.000 97.667,252.136 83.200,252.400 83.200 C 252.622 83.200,252.800 82.133,252.800 80.800 C 252.800 79.467,252.978 78.400,253.200 78.400 C 253.420 78.400,253.600 77.860,253.600 77.200 C 253.600 76.540,253.780 76.000,254.000 76.000 C 254.220 76.000,254.400 75.676,254.400 75.280 C 254.400 74.386,255.294 72.407,255.700 72.403 C 255.865 72.401,256.000 72.040,256.000 71.600 C 256.000 71.160,256.136 70.800,256.302 70.800 C 256.469 70.800,256.825 70.305,257.094 69.700 C 257.364 69.095,258.038 68.113,258.592 67.517 C 259.146 66.922,259.600 66.241,259.600 66.004 C 259.600 65.481,262.226 62.800,262.738 62.800 C 262.939 62.800,263.845 62.080,264.752 61.200 C 265.659 60.320,266.671 59.600,267.000 59.600 C 267.330 59.600,267.600 59.420,267.600 59.200 C 267.600 58.980,267.880 58.800,268.223 58.800 C 268.566 58.800,269.652 58.350,270.637 57.800 C 271.622 57.250,272.771 56.800,273.191 56.800 C 273.610 56.800,274.064 56.620,274.200 56.400 C 274.336 56.180,274.977 56.000,275.624 56.000 C 276.271 56.000,276.800 55.820,276.800 55.600 C 276.800 55.338,285.592 55.200,302.376 55.200 C 318.996 55.200,328.039 55.340,328.200 55.600 M286.600 72.800 C 286.464 73.020,285.744 73.200,285.000 73.200 C 284.256 73.200,283.536 73.380,283.400 73.600 C 283.264 73.820,282.803 74.000,282.376 74.000 C 281.949 74.000,281.600 74.180,281.600 74.400 C 281.600 74.620,281.326 74.800,280.992 74.800 C 279.411 74.800,273.200 80.381,273.200 81.802 C 273.200 82.131,273.065 82.401,272.900 82.403 C 272.541 82.407,271.600 84.344,271.600 85.080 C 271.600 85.366,271.420 85.600,271.200 85.600 C 270.980 85.600,270.800 86.140,270.800 86.800 C 270.800 87.460,270.620 88.000,270.400 88.000 C 270.174 88.000,270.000 89.133,270.000 90.600 L 270.000 93.200 277.000 93.200 C 283.733 93.200,284.000 93.170,284.000 92.400 C 284.000 91.960,284.180 91.600,284.400 91.600 C 284.620 91.600,284.800 91.364,284.800 91.075 C 284.800 90.519,285.608 89.575,287.346 88.100 C 288.573 87.058,315.435 86.656,317.296 87.651 C 318.407 88.246,320.000 89.854,320.000 90.382 C 320.000 90.612,320.180 90.800,320.400 90.800 C 320.651 90.800,320.800 93.333,320.800 97.600 L 320.800 104.400 295.400 104.400 L 270.000 104.400 270.000 127.800 L 270.000 151.200 302.557 151.200 C 331.876 151.200,335.139 151.137,335.357 150.567 C 335.791 149.438,335.636 90.400,335.200 90.400 C 334.980 90.400,334.800 89.500,334.800 88.400 C 334.800 87.300,334.620 86.400,334.400 86.400 C 334.180 86.400,334.000 85.984,334.000 85.475 C 334.000 84.967,333.640 84.164,333.200 83.692 C 332.760 83.220,332.400 82.596,332.400 82.305 C 332.400 82.014,332.040 81.517,331.600 81.200 C 331.160 80.883,330.800 80.420,330.800 80.171 C 330.800 79.641,328.548 77.200,328.059 77.200 C 327.875 77.200,327.201 76.745,326.562 76.190 C 325.923 75.634,324.995 75.074,324.500 74.946 C 324.005 74.818,323.600 74.553,323.600 74.357 C 323.600 74.160,323.150 74.000,322.600 74.000 C 322.050 74.000,321.600 73.820,321.600 73.600 C 321.600 73.380,320.880 73.200,320.000 73.200 C 319.120 73.200,318.400 73.020,318.400 72.800 C 318.400 72.540,312.875 72.400,302.624 72.400 C 292.537 72.400,286.758 72.544,286.600 72.800 M320.800 127.800 L 320.800 136.400 302.400 136.400 L 284.000 136.400 284.000 127.800 L 284.000 119.200 302.400 119.200 L 320.800 119.200 320.800 127.800 M352.800 227.400 C 352.800 256.600,352.664 271.600,352.400 271.600 C 352.180 271.600,352.000 272.140,352.000 272.800 C 352.000 273.460,351.820 274.000,351.600 274.000 C 351.380 274.000,351.200 274.540,351.200 275.200 C 351.200 275.860,351.020 276.400,350.800 276.400 C 350.580 276.400,350.400 276.850,350.400 277.400 C 350.400 277.950,350.220 278.400,350.000 278.400 C 349.780 278.400,349.600 278.670,349.600 279.000 C 349.600 279.330,349.464 279.600,349.298 279.600 C 349.131 279.600,348.736 280.185,348.420 280.900 C 348.103 281.615,347.520 282.549,347.122 282.975 C 346.725 283.402,346.400 283.901,346.400 284.084 C 346.400 284.369,345.406 285.471,341.334 289.700 C 340.963 290.085,340.422 290.400,340.130 290.400 C 339.839 290.400,339.600 290.548,339.600 290.729 C 339.600 290.910,338.205 291.732,336.500 292.556 C 334.795 293.380,333.087 294.222,332.705 294.427 C 332.323 294.632,331.659 294.800,331.229 294.800 C 330.799 294.800,330.336 294.980,330.200 295.200 C 330.064 295.420,329.333 295.600,328.576 295.600 C 327.819 295.600,327.200 295.780,327.200 296.000 C 327.200 296.262,318.741 296.400,302.624 296.400 C 286.671 296.400,277.960 296.260,277.800 296.000 C 277.664 295.780,277.034 295.600,276.400 295.600 C 275.766 295.600,275.136 295.420,275.000 295.200 C 274.864 294.980,274.358 294.801,273.876 294.802 C 272.409 294.805,265.501 291.132,263.931 289.514 C 263.124 288.681,262.256 288.000,262.003 288.000 C 261.415 288.000,260.400 286.993,260.400 286.410 C 260.400 286.165,259.995 285.530,259.500 285.001 C 258.023 283.422,257.810 283.108,256.379 280.398 C 255.624 278.969,254.870 277.740,254.703 277.667 C 254.537 277.593,254.400 277.098,254.400 276.567 C 254.400 276.035,254.240 275.600,254.044 275.600 C 253.848 275.600,253.572 274.925,253.430 274.100 C 253.289 273.275,252.973 271.520,252.728 270.200 C 252.424 268.566,252.236 254.304,252.137 225.500 L 251.993 183.200 302.396 183.200 L 352.800 183.200 352.800 227.400 M287.200 200.800 C 287.200 201.020,286.480 201.200,285.600 201.200 C 284.720 201.200,284.000 201.380,284.000 201.600 C 284.000 201.820,283.460 202.000,282.800 202.000 C 282.140 202.000,281.600 202.180,281.600 202.400 C 281.600 202.620,281.240 202.800,280.800 202.800 C 280.360 202.800,280.000 202.980,280.000 203.200 C 280.000 203.420,279.730 203.600,279.400 203.600 C 279.070 203.600,278.800 203.780,278.800 204.000 C 278.800 204.220,278.575 204.404,278.300 204.409 C 278.025 204.414,277.170 205.159,276.400 206.065 C 275.630 206.972,274.595 208.129,274.100 208.638 C 273.605 209.147,273.200 209.752,273.200 209.982 C 273.200 210.212,273.020 210.400,272.800 210.400 C 272.580 210.400,272.400 210.760,272.400 211.200 C 272.400 211.640,272.220 212.000,272.000 212.000 C 271.780 212.000,271.600 212.360,271.600 212.800 C 271.600 213.240,271.420 213.600,271.200 213.600 C 270.980 213.600,270.800 214.140,270.800 214.800 C 270.800 215.460,270.620 216.000,270.400 216.000 C 270.137 216.000,270.000 226.800,270.000 247.600 L 270.000 279.200 302.800 279.200 L 335.600 279.200 335.600 248.800 C 335.600 228.800,335.463 218.400,335.200 218.400 C 334.980 218.400,334.800 217.678,334.800 216.795 C 334.800 215.912,334.632 214.877,334.426 214.495 C 334.221 214.113,333.817 213.215,333.529 212.500 C 333.240 211.785,332.869 211.200,332.702 211.200 C 332.536 211.200,332.400 210.964,332.400 210.675 C 332.400 210.387,332.040 209.764,331.600 209.292 C 331.160 208.820,330.800 208.330,330.800 208.203 C 330.800 207.740,328.011 205.200,327.502 205.200 C 327.213 205.200,326.717 204.840,326.400 204.400 C 326.083 203.960,325.593 203.600,325.312 203.600 C 325.030 203.600,324.800 203.420,324.800 203.200 C 324.800 202.980,324.530 202.800,324.200 202.800 C 323.870 202.800,323.600 202.620,323.600 202.400 C 323.600 202.180,323.161 202.000,322.624 202.000 C 322.087 202.000,321.536 201.820,321.400 201.600 C 321.264 201.380,320.454 201.200,319.600 201.200 C 318.746 201.200,317.936 201.020,317.800 200.800 C 317.642 200.545,312.063 200.400,302.376 200.400 C 292.525 200.400,287.200 200.540,287.200 200.800 M316.800 215.600 C 316.800 215.820,317.078 216.000,317.418 216.000 C 318.218 216.000,320.000 217.782,320.000 218.582 C 320.000 218.922,320.180 219.200,320.400 219.200 C 320.651 219.200,320.800 221.667,320.800 225.800 L 320.800 232.400 302.400 232.400 L 284.000 232.400 284.000 226.200 C 284.000 222.333,284.151 220.000,284.400 220.000 C 284.620 220.000,284.800 219.711,284.800 219.358 C 284.800 219.005,285.565 217.936,286.500 216.983 L 288.200 215.251 302.500 215.225 C 311.784 215.209,316.800 215.340,316.800 215.600 M129.200 247.600 C 129.200 247.820,129.740 248.000,130.400 248.000 C 131.060 248.000,131.600 248.180,131.600 248.400 C 131.600 248.620,132.140 248.800,132.800 248.800 C 133.460 248.800,134.000 248.980,134.000 249.200 C 134.000 249.420,134.234 249.600,134.520 249.600 C 135.256 249.600,137.193 250.541,137.197 250.900 C 137.199 251.065,137.560 251.200,138.000 251.200 C 138.440 251.200,138.800 251.380,138.800 251.600 C 138.800 251.820,139.067 252.000,139.393 252.000 C 139.719 252.000,140.559 252.495,141.260 253.100 C 143.923 255.400,147.189 258.614,147.195 258.940 C 147.198 259.126,147.740 259.783,148.400 260.400 C 149.060 261.017,149.600 261.809,149.600 262.160 C 149.600 262.512,149.780 262.800,150.000 262.800 C 150.220 262.800,150.400 263.160,150.400 263.600 C 150.400 264.040,150.580 264.400,150.800 264.400 C 151.020 264.400,151.200 264.760,151.200 265.200 C 151.200 265.640,151.380 266.000,151.600 266.000 C 151.820 266.000,152.000 266.450,152.000 267.000 C 152.000 267.550,152.180 268.000,152.400 268.000 C 152.620 268.000,152.800 268.529,152.800 269.176 C 152.800 269.823,152.980 270.464,153.200 270.600 C 153.420 270.736,153.600 271.546,153.600 272.400 C 153.600 273.254,153.780 274.064,154.000 274.200 C 154.263 274.362,154.400 289.004,154.400 316.824 C 154.400 344.808,154.264 359.200,154.000 359.200 C 153.780 359.200,153.600 360.010,153.600 361.000 C 153.600 361.990,153.420 362.800,153.200 362.800 C 152.980 362.800,152.800 363.263,152.800 363.829 C 152.800 364.995,151.574 366.521,151.299 365.696 C 151.208 365.423,150.608 365.200,149.967 365.200 C 149.325 365.200,148.800 365.020,148.800 364.800 C 148.800 364.580,148.260 364.400,147.600 364.400 C 146.940 364.400,146.400 364.220,146.400 364.000 C 146.400 363.780,145.860 363.600,145.200 363.600 C 144.540 363.600,144.000 363.420,144.000 363.200 C 144.000 362.980,143.471 362.800,142.824 362.800 C 142.177 362.800,141.536 362.620,141.400 362.400 C 141.264 362.180,140.724 362.000,140.200 362.000 C 139.676 362.000,139.136 361.820,139.000 361.600 C 138.864 361.380,138.324 361.200,137.800 361.200 C 137.276 361.200,136.736 361.020,136.600 360.800 C 136.464 360.580,136.001 360.400,135.571 360.400 C 135.141 360.400,134.477 360.242,134.095 360.049 C 132.896 359.443,130.634 358.817,128.681 358.549 C 127.647 358.407,126.800 358.136,126.800 357.946 C 126.800 357.756,126.427 357.600,125.971 357.600 C 124.553 357.600,124.000 356.634,124.000 354.157 C 124.000 351.992,123.551 349.889,122.751 348.305 C 122.558 347.923,122.400 347.338,122.400 347.005 C 122.400 346.672,122.220 346.400,122.000 346.400 C 121.780 346.400,121.600 346.040,121.600 345.600 C 121.600 345.160,121.420 344.800,121.200 344.800 C 120.980 344.800,120.800 344.573,120.800 344.295 C 120.800 343.600,114.920 338.000,114.190 338.000 C 113.866 338.000,113.600 337.820,113.600 337.600 C 113.600 337.380,113.240 337.200,112.800 337.200 C 112.360 337.200,112.000 337.020,112.000 336.800 C 112.000 336.580,111.460 336.400,110.800 336.400 C 110.140 336.400,109.600 336.220,109.600 336.000 C 109.600 335.775,108.475 335.600,107.024 335.600 C 105.607 335.600,104.336 335.420,104.200 335.200 C 104.041 334.942,96.996 334.800,84.376 334.800 C 71.592 334.800,64.800 334.939,64.800 335.200 C 64.800 335.422,63.741 335.600,62.424 335.600 C 61.117 335.600,59.936 335.780,59.800 336.000 C 59.664 336.220,59.113 336.400,58.576 336.400 C 58.039 336.400,57.600 336.580,57.600 336.800 C 57.600 337.020,57.240 337.200,56.800 337.200 C 56.360 337.200,56.000 337.380,56.000 337.600 C 56.000 337.820,55.680 338.000,55.288 338.000 C 54.897 338.000,54.317 338.360,54.000 338.800 C 53.683 339.240,53.148 339.604,52.812 339.609 C 52.475 339.613,51.710 340.198,51.112 340.909 C 50.513 341.619,49.569 342.740,49.012 343.400 C 48.456 344.060,48.001 344.825,48.000 345.100 C 48.000 345.375,47.820 345.600,47.600 345.600 C 47.380 345.600,47.200 345.960,47.200 346.400 C 47.200 346.840,47.020 347.200,46.800 347.200 C 46.580 347.200,46.400 347.729,46.400 348.376 C 46.400 349.023,46.220 349.664,46.000 349.800 C 45.767 349.944,45.600 352.204,45.600 355.224 C 45.600 358.408,45.754 360.400,46.000 360.400 C 46.220 360.400,46.400 360.940,46.400 361.600 C 46.400 362.260,46.580 362.800,46.800 362.800 C 47.020 362.800,47.200 363.160,47.200 363.600 C 47.200 364.040,47.380 364.400,47.600 364.400 C 47.820 364.400,48.000 364.720,48.000 365.112 C 48.000 365.503,48.360 366.083,48.800 366.400 C 49.240 366.717,49.600 367.221,49.600 367.520 C 49.600 368.207,52.552 371.067,53.607 371.402 C 54.043 371.541,54.400 371.822,54.400 372.027 C 54.400 372.232,54.683 372.400,55.029 372.400 C 55.374 372.400,55.909 372.651,56.216 372.959 C 58.133 374.876,59.904 375.000,85.367 375.000 C 104.185 375.000,109.369 374.893,109.500 374.500 C 109.592 374.225,110.192 374.000,110.833 374.000 C 111.475 374.000,112.000 373.820,112.000 373.600 C 112.000 373.380,112.360 373.200,112.800 373.200 C 113.240 373.200,113.600 373.020,113.600 372.800 C 113.600 372.580,113.888 372.400,114.240 372.400 C 114.591 372.400,115.383 371.860,116.000 371.200 C 117.092 370.031,118.400 369.595,118.400 370.400 C 118.400 370.620,118.940 370.800,119.600 370.800 C 120.260 370.800,120.800 370.980,120.800 371.200 C 120.800 371.420,121.340 371.600,122.000 371.600 C 122.660 371.600,123.200 371.780,123.200 372.000 C 123.200 372.220,123.740 372.400,124.400 372.400 C 125.060 372.400,125.600 372.580,125.600 372.800 C 125.600 373.020,126.039 373.200,126.576 373.200 C 127.113 373.200,127.664 373.380,127.800 373.600 C 127.936 373.820,128.476 374.000,129.000 374.000 C 129.524 374.000,130.056 374.167,130.183 374.372 C 130.309 374.577,131.400 374.867,132.606 375.018 C 133.813 375.169,134.800 375.451,134.800 375.646 C 134.800 375.841,135.340 376.000,136.000 376.000 C 136.660 376.000,137.200 376.180,137.200 376.400 C 137.200 376.620,137.740 376.800,138.400 376.800 C 139.060 376.800,139.600 376.980,139.600 377.200 C 139.600 377.420,140.063 377.600,140.629 377.600 C 142.462 377.600,143.022 378.614,141.842 379.795 C 141.289 380.348,140.558 380.800,140.218 380.800 C 139.878 380.800,139.600 380.958,139.600 381.151 C 139.600 381.345,139.060 381.727,138.400 382.000 C 137.740 382.273,137.200 382.655,137.200 382.849 C 137.200 383.042,136.840 383.200,136.400 383.200 C 135.960 383.200,135.600 383.380,135.600 383.600 C 135.600 383.820,135.060 384.000,134.400 384.000 C 133.740 384.000,133.200 384.180,133.200 384.400 C 133.200 384.620,132.660 384.800,132.000 384.800 C 131.340 384.800,130.800 384.980,130.800 385.200 C 130.800 385.420,130.080 385.600,129.200 385.600 C 128.320 385.600,127.600 385.780,127.600 386.000 C 127.600 386.264,113.075 386.400,84.824 386.400 C 56.737 386.400,41.962 386.263,41.800 386.000 C 41.664 385.780,40.843 385.600,39.976 385.600 C 39.109 385.600,38.400 385.420,38.400 385.200 C 38.400 384.980,37.770 384.800,37.000 384.800 C 36.230 384.800,35.600 384.620,35.600 384.400 C 35.600 384.180,35.240 384.000,34.800 384.000 C 34.360 384.000,34.000 383.820,34.000 383.600 C 34.000 383.380,33.640 383.200,33.200 383.200 C 32.760 383.200,32.400 383.020,32.400 382.800 C 32.400 382.580,32.040 382.400,31.600 382.400 C 31.160 382.400,30.800 382.220,30.800 382.000 C 30.800 381.780,30.528 381.600,30.196 381.600 C 29.864 381.600,29.028 381.060,28.337 380.400 C 27.646 379.740,26.919 379.200,26.720 379.200 C 26.320 379.200,22.413 375.087,21.832 374.054 C 21.630 373.694,21.135 373.109,20.732 372.753 C 20.329 372.397,20.000 371.812,20.000 371.453 C 20.000 371.094,19.820 370.800,19.600 370.800 C 19.380 370.800,19.200 370.440,19.200 370.000 C 19.200 369.560,19.065 369.199,18.900 369.197 C 18.541 369.193,17.600 367.256,17.600 366.520 C 17.600 366.234,17.420 366.000,17.200 366.000 C 16.980 366.000,16.800 365.460,16.800 364.800 C 16.800 364.140,16.620 363.600,16.400 363.600 C 16.180 363.600,16.000 363.060,16.000 362.400 C 16.000 361.740,15.820 361.200,15.600 361.200 C 15.336 361.200,15.200 346.141,15.200 316.824 C 15.200 287.671,15.337 272.362,15.600 272.200 C 15.820 272.064,16.000 271.524,16.000 271.000 C 16.000 270.476,16.180 269.936,16.400 269.800 C 16.620 269.664,16.800 269.034,16.800 268.400 C 16.800 267.766,16.980 267.136,17.200 267.000 C 17.420 266.864,17.600 266.403,17.600 265.976 C 17.600 265.549,17.759 265.200,17.953 265.200 C 18.148 265.200,18.407 264.885,18.529 264.500 C 18.825 263.564,20.124 261.434,20.500 261.267 C 20.665 261.193,20.800 260.888,20.800 260.588 C 20.800 259.842,27.853 252.800,28.601 252.800 C 28.930 252.800,29.200 252.620,29.200 252.400 C 29.200 252.180,29.436 252.000,29.725 252.000 C 30.013 252.000,30.636 251.640,31.108 251.200 C 31.580 250.760,32.244 250.400,32.583 250.400 C 32.922 250.400,33.200 250.220,33.200 250.000 C 33.200 249.780,33.549 249.600,33.976 249.600 C 34.403 249.600,34.864 249.420,35.000 249.200 C 35.136 248.980,35.766 248.800,36.400 248.800 C 37.034 248.800,37.664 248.620,37.800 248.400 C 37.936 248.180,38.476 248.000,39.000 248.000 C 39.524 248.000,40.064 247.820,40.200 247.600 C 40.362 247.337,55.671 247.200,84.824 247.200 C 114.141 247.200,129.200 247.336,129.200 247.600 M320.800 255.800 L 320.800 264.400 302.400 264.400 L 284.000 264.400 284.000 255.800 L 284.000 247.200 302.400 247.200 L 320.800 247.200 320.800 255.800 M38.800 265.400 L 38.800 272.400 46.200 272.400 L 53.600 272.400 53.600 265.400 L 53.600 258.400 46.200 258.400 L 38.800 258.400 38.800 265.400 M64.400 265.386 L 64.400 272.400 93.800 272.400 C 113.133 272.400,123.200 272.537,123.200 272.800 C 123.200 273.020,123.658 273.200,124.217 273.200 C 125.383 273.200,125.918 273.575,127.900 275.785 C 128.280 276.209,128.400 279.713,128.400 290.371 L 128.400 304.400 135.800 304.400 L 143.200 304.400 143.200 290.624 C 143.200 281.871,143.054 276.757,142.800 276.600 C 142.580 276.464,142.400 275.463,142.400 274.376 C 142.400 273.289,142.220 272.400,142.000 272.400 C 141.780 272.400,141.600 271.940,141.600 271.378 C 141.600 268.853,135.758 261.200,133.830 261.200 C 133.484 261.200,133.200 261.020,133.200 260.800 C 133.200 260.580,132.840 260.400,132.400 260.400 C 131.960 260.400,131.600 260.264,131.600 260.098 C 131.600 258.769,128.945 258.648,96.500 258.510 L 64.400 258.373 64.400 265.386 M314.400 323.000 L 314.400 330.000 321.800 330.000 L 329.200 330.000 329.200 323.000 L 329.200 316.000 321.800 316.000 L 314.400 316.000 314.400 323.000 M340.400 323.000 L 340.400 330.000 347.400 330.000 L 354.400 330.000 354.400 323.000 L 354.400 316.000 347.400 316.000 L 340.400 316.000 340.400 323.000 M98.085 350.800 C 97.988 351.460,97.750 352.000,97.555 352.000 C 97.360 352.000,97.200 352.540,97.200 353.200 C 97.200 353.860,97.020 354.400,96.800 354.400 C 96.580 354.400,96.400 354.749,96.400 355.176 C 96.400 355.603,96.220 356.064,96.000 356.200 C 95.780 356.336,95.600 356.887,95.600 357.424 C 95.600 357.961,95.420 358.400,95.200 358.400 C 94.980 358.400,94.800 358.850,94.800 359.400 L 94.800 360.400 79.280 360.400 L 63.760 360.400 62.080 359.311 C 61.146 358.705,60.400 357.906,60.400 357.511 C 60.400 357.120,60.220 356.800,60.000 356.800 C 59.780 356.800,59.600 356.170,59.600 355.400 C 59.600 354.630,59.780 354.000,60.000 354.000 C 60.220 354.000,60.400 353.640,60.400 353.200 C 60.400 352.760,60.580 352.400,60.800 352.400 C 61.020 352.400,61.200 352.207,61.200 351.971 C 61.200 351.334,62.253 350.400,62.971 350.400 C 63.317 350.400,63.600 350.220,63.600 350.000 C 63.600 349.739,69.644 349.600,80.931 349.600 L 98.261 349.600 98.085 350.800 " stroke="none" fill="#040404" fill-rule="evenodd"></path><path id="path1" d="" stroke="none" fill="#080404" fill-rule="evenodd"></path><path id="path2" d="" stroke="none" fill="#080404" fill-rule="evenodd"></path><path id="path3" d="" stroke="none" fill="#080404" fill-rule="evenodd"></path><path id="path4" d="" stroke="none" fill="#080404" fill-rule="evenodd"></path></g></svg>