<svg id="svg" version="1.1" xmlns="http://www.w3.org/2000/svg" xmlns:xlink="http://www.w3.org/1999/xlink" width="400" height="400" viewBox="0, 0, 400,400"><g id="svgg"><path id="path0" d="M327.100 27.227 C 322.315 32.046,318.400 36.156,318.400 36.360 C 318.400 36.708,321.119 39.500,324.767 42.900 C 325.652 43.725,326.297 44.400,326.200 44.400 C 326.102 44.400,328.190 46.571,330.840 49.224 C 336.004 54.394,335.966 54.310,333.861 56.000 C 332.069 57.438,328.000 61.655,328.000 62.074 C 328.000 62.327,327.893 62.426,327.762 62.295 C 327.553 62.086,323.076 66.366,322.722 67.113 C 322.648 67.271,321.844 68.092,320.937 68.939 L 319.287 70.477 310.848 62.039 C 305.342 56.533,302.124 53.600,301.588 53.600 C 300.667 53.600,283.200 70.895,283.200 71.807 C 283.200 72.102,285.585 74.743,288.500 77.674 C 291.415 80.606,295.207 84.469,296.926 86.258 L 300.052 89.511 299.050 90.513 C 298.499 91.064,298.158 91.624,298.291 91.758 C 298.424 91.891,298.317 92.000,298.053 92.000 C 297.426 92.000,292.000 97.426,292.000 98.053 C 292.000 98.317,291.886 98.420,291.747 98.281 C 291.608 98.142,290.970 98.607,290.328 99.314 C 288.361 101.481,284.301 105.600,284.131 105.600 C 284.043 105.600,280.200 101.820,275.591 97.200 C 270.063 91.659,266.928 88.800,266.380 88.800 C 265.360 88.800,244.399 109.705,244.401 110.721 C 244.402 111.473,288.242 155.450,289.201 155.662 C 289.564 155.742,308.017 137.584,335.701 109.905 L 381.600 64.014 381.600 41.207 L 381.600 18.400 358.700 18.432 L 335.800 18.464 327.100 27.227 M352.050 70.268 C 353.360 70.529,362.265 78.665,363.255 80.507 C 363.567 81.087,363.042 81.784,360.318 84.400 C 358.493 86.153,356.634 87.950,356.186 88.394 C 354.969 89.599,354.932 89.576,349.679 84.348 C 345.920 80.608,344.707 79.140,344.384 77.942 C 343.106 73.193,347.024 69.270,352.050 70.268 M330.929 92.945 C 331.646 93.244,334.362 95.597,336.966 98.174 L 341.699 102.860 340.350 104.279 C 335.686 109.185,333.506 111.200,332.863 111.200 C 331.455 111.200,322.937 101.993,322.622 100.132 C 321.721 94.797,326.163 90.953,330.929 92.945 M307.777 114.442 C 309.465 114.911,319.200 123.977,319.200 125.081 C 319.200 125.634,311.420 133.600,310.880 133.600 C 310.421 133.600,300.938 123.902,300.443 122.926 C 298.165 118.437,302.811 113.063,307.777 114.442 M130.583 145.945 C 127.156 148.035,126.680 152.680,129.594 155.594 C 134.483 160.483,142.578 154.545,139.400 148.401 C 137.848 145.398,133.476 144.181,130.583 145.945 M222.130 155.355 C 221.212 155.603,220.327 155.940,220.164 156.103 C 220.000 156.266,219.614 156.400,219.305 156.400 C 218.157 156.400,214.854 159.050,209.900 163.947 L 204.801 168.988 209.088 173.288 L 213.374 177.588 218.387 172.633 C 224.596 166.497,227.001 165.627,230.522 168.248 C 234.855 171.473,234.019 174.988,227.316 181.732 L 222.433 186.646 226.737 190.937 L 231.042 195.229 236.202 190.014 C 243.432 182.707,245.200 179.442,245.200 173.400 C 245.200 161.389,233.547 152.274,222.130 155.355 M108.359 168.114 C 103.551 171.348,105.497 178.836,111.315 179.492 C 117.557 180.195,120.474 171.664,115.211 168.100 C 113.369 166.853,110.225 166.859,108.359 168.114 M86.808 189.901 C 82.628 192.001,82.447 198.333,86.496 200.802 C 89.400 202.572,93.447 201.428,95.181 198.346 C 98.124 193.116,92.233 187.175,86.808 189.901 M141.428 235.259 C 138.000 236.417,136.025 237.889,130.300 243.547 L 125.201 248.588 129.482 252.882 L 133.764 257.177 138.982 252.054 C 145.522 245.632,148.090 244.890,151.608 248.408 C 154.189 250.989,154.170 253.814,151.547 257.678 C 146.885 264.545,154.537 271.340,160.521 265.647 C 174.034 252.789,159.239 229.239,141.428 235.259 M244.800 262.000 C 241.578 265.222,243.109 271.021,247.394 271.825 C 253.536 272.978,257.217 265.760,252.558 261.700 C 250.212 259.655,247.021 259.779,244.800 262.000 M223.600 283.300 C 219.350 286.201,220.252 292.371,225.149 293.891 C 227.759 294.702,230.692 293.363,232.023 290.755 C 234.653 285.601,228.372 280.042,223.600 283.300 M203.000 304.673 C 197.954 306.063,197.280 313.192,201.968 315.584 C 207.978 318.650,213.506 310.755,208.647 306.046 C 207.347 304.785,204.821 304.171,203.000 304.673 " stroke="none" fill="#dfe7e8" fill-rule="evenodd"></path><path id="path1" d="M346.453 71.904 C 342.789 75.390,343.472 77.879,349.856 84.296 L 354.865 89.330 359.128 85.067 L 363.391 80.804 358.796 76.174 C 352.275 69.605,349.778 68.741,346.453 71.904 M224.013 89.882 C 224.031 90.297,225.200 91.641,226.205 92.400 C 226.961 92.970,226.970 92.961,226.400 92.207 C 225.441 90.940,223.999 89.535,224.013 89.882 M326.875 92.898 C 324.183 93.776,322.800 95.736,322.800 98.674 L 322.800 101.267 327.466 106.034 C 330.032 108.655,332.417 110.800,332.766 110.800 C 333.400 110.799,341.200 103.455,341.200 102.858 C 341.200 102.257,332.085 93.613,331.027 93.210 C 329.218 92.522,328.250 92.450,326.875 92.898 M241.206 107.071 C 241.215 107.536,241.673 108.105,242.600 108.800 C 243.362 109.371,243.371 109.362,242.800 108.602 C 241.853 107.342,241.199 106.714,241.206 107.071 M303.800 114.965 C 298.197 117.455,298.782 121.513,305.757 128.548 L 310.690 133.524 314.745 129.455 C 316.975 127.217,318.800 125.200,318.800 124.972 C 318.800 124.278,309.450 115.275,308.260 114.823 C 306.789 114.263,305.269 114.312,303.800 114.965 M206.441 119.306 C 199.892 120.137,201.517 118.735,165.802 154.356 C 148.201 171.911,131.775 188.251,129.300 190.669 C 126.825 193.087,124.800 195.147,124.800 195.246 C 124.800 195.377,64.698 255.584,63.376 256.777 C 63.268 256.874,57.016 250.799,49.482 243.277 C 36.910 230.723,34.800 228.818,34.800 230.018 C 34.800 230.247,34.504 230.382,34.141 230.318 C 33.779 230.253,33.406 230.470,33.311 230.800 C 33.158 231.333,33.186 231.333,33.563 230.800 C 33.912 230.307,33.989 230.368,33.994 231.147 C 33.999 231.898,33.835 232.050,33.200 231.884 C 32.516 231.705,32.400 231.872,32.400 233.037 C 32.400 233.787,32.220 234.400,32.000 234.400 C 31.780 234.400,31.597 234.715,31.594 235.100 C 31.589 235.636,31.509 235.675,31.249 235.266 C 30.990 234.857,30.862 234.920,30.702 235.532 C 30.587 235.973,30.688 236.528,30.926 236.766 C 31.362 237.202,30.883 237.383,29.700 237.230 C 29.425 237.194,29.200 237.363,29.200 237.606 C 29.200 237.849,29.361 237.948,29.558 237.826 C 29.755 237.704,30.019 237.874,30.146 238.202 C 30.302 238.610,30.120 238.800,29.575 238.800 C 28.618 238.800,27.896 240.357,28.503 241.110 C 28.729 241.390,28.789 241.745,28.635 241.898 C 28.482 242.051,28.211 241.942,28.034 241.655 C 27.777 241.240,27.664 241.258,27.478 241.741 C 27.350 242.075,27.460 242.436,27.722 242.543 C 28.003 242.657,27.934 242.750,27.555 242.768 C 27.077 242.792,26.964 243.075,27.115 243.865 C 27.280 244.729,27.195 244.883,26.665 244.680 C 25.897 244.385,25.272 245.372,25.388 246.700 C 25.431 247.195,25.316 247.600,25.133 247.600 C 24.950 247.600,24.800 247.960,24.800 248.400 C 24.800 248.840,24.620 249.200,24.400 249.200 C 24.180 249.200,24.000 249.541,24.000 249.957 C 24.000 250.374,23.733 250.817,23.407 250.942 C 23.069 251.072,22.915 251.435,23.050 251.785 C 23.179 252.123,23.086 252.400,22.843 252.400 C 22.599 252.400,22.400 252.749,22.400 253.176 C 22.400 253.603,22.220 254.064,22.000 254.200 C 21.780 254.336,21.600 254.776,21.600 255.177 C 21.600 255.578,21.240 256.001,20.800 256.116 C 20.360 256.231,20.003 256.567,20.006 256.863 C 20.011 257.271,20.106 257.256,20.400 256.800 C 20.731 256.287,20.789 256.302,20.794 256.900 C 20.797 257.285,20.555 257.600,20.255 257.600 C 19.880 257.600,19.773 257.941,19.910 258.700 C 20.020 259.305,19.973 259.674,19.807 259.519 C 19.641 259.365,19.256 259.487,18.952 259.790 C 18.313 260.430,18.212 260.963,18.800 260.600 C 19.028 260.459,19.200 260.804,19.200 261.400 C 19.200 261.976,19.044 262.351,18.852 262.232 C 18.661 262.114,18.472 263.618,18.433 265.573 C 18.390 267.701,18.529 269.233,18.780 269.388 C 19.011 269.531,19.197 270.222,19.194 270.924 C 19.189 271.895,19.095 272.057,18.800 271.600 C 18.545 271.205,18.410 271.170,18.406 271.497 C 18.403 271.770,18.760 272.218,19.200 272.493 C 19.640 272.768,20.000 273.320,20.000 273.720 C 20.000 274.168,19.823 274.338,19.538 274.162 C 19.252 273.985,19.185 274.052,19.362 274.338 C 19.519 274.592,19.907 274.800,20.224 274.800 C 20.733 274.800,21.005 275.565,20.837 276.530 C 20.806 276.711,20.965 276.745,21.190 276.606 C 21.416 276.467,21.600 276.618,21.600 276.943 C 21.600 277.268,21.825 277.625,22.100 277.736 C 22.476 277.889,22.452 278.045,22.000 278.370 C 21.494 278.733,21.546 278.840,22.334 279.056 C 23.032 279.246,23.133 279.396,22.734 279.649 C 22.343 279.897,22.421 279.989,23.028 279.994 C 23.483 279.997,24.248 280.451,24.728 281.003 C 25.685 282.104,25.862 282.609,25.132 282.158 C 24.874 281.999,25.009 282.328,25.432 282.891 C 25.926 283.549,26.299 283.754,26.479 283.467 C 26.664 283.171,27.100 283.342,27.777 283.979 C 28.848 284.985,28.868 285.686,27.800 284.800 C 26.322 283.573,27.143 284.776,29.082 286.676 C 30.247 287.818,31.200 288.581,31.200 288.371 C 31.200 288.161,30.615 287.457,29.900 286.806 C 29.185 286.156,28.787 285.618,29.015 285.612 C 29.243 285.605,30.323 286.520,31.415 287.643 C 32.964 289.238,33.194 289.625,32.463 289.405 C 31.628 289.153,31.667 289.257,32.823 290.361 C 34.271 291.745,34.919 292.036,33.800 290.800 C 33.402 290.360,33.213 290.000,33.380 290.000 C 33.737 290.000,42.800 299.051,42.800 299.407 C 42.800 299.539,42.622 299.537,42.405 299.403 C 42.173 299.260,42.114 299.430,42.260 299.813 C 42.454 300.318,42.584 300.350,42.829 299.953 C 43.174 299.395,50.442 306.179,50.353 306.976 C 50.249 307.904,50.422 308.400,50.849 308.400 C 51.159 308.400,51.144 308.215,50.800 307.800 C 50.526 307.470,50.435 307.200,50.598 307.200 C 50.760 307.200,52.942 309.272,55.447 311.804 C 59.589 315.993,60.707 317.284,59.600 316.600 C 58.983 316.219,59.123 316.589,59.961 317.555 C 60.494 318.169,60.775 318.278,60.896 317.916 C 61.035 317.504,61.208 317.514,61.753 317.964 C 62.129 318.274,62.352 318.748,62.249 319.016 C 61.965 319.756,65.494 323.215,66.241 322.929 C 66.630 322.780,66.831 322.897,66.783 323.246 C 66.599 324.562,67.148 325.184,68.503 325.192 C 68.669 325.193,70.334 326.723,72.203 328.591 C 75.356 331.745,76.276 332.865,75.132 332.158 C 74.874 331.999,75.009 332.342,75.432 332.922 C 75.854 333.501,76.445 333.981,76.744 333.987 C 77.061 333.995,76.893 333.671,76.344 333.213 C 75.825 332.781,75.543 332.421,75.717 332.413 C 75.892 332.406,76.520 332.850,77.113 333.400 C 77.972 334.197,78.052 334.400,77.502 334.400 C 77.021 334.400,77.373 334.945,78.664 336.200 C 79.683 337.190,80.673 338.000,80.864 338.000 C 81.056 338.000,80.625 337.465,79.906 336.812 C 79.188 336.158,78.787 335.618,79.015 335.612 C 79.243 335.605,80.323 336.520,81.415 337.643 C 82.964 339.238,83.194 339.625,82.463 339.405 C 81.637 339.156,81.683 339.272,82.853 340.391 C 83.583 341.088,84.243 341.470,84.321 341.238 C 84.398 341.007,86.337 342.701,88.630 345.003 C 92.400 348.785,93.521 350.093,92.405 349.403 C 92.173 349.260,92.114 349.430,92.260 349.813 C 92.448 350.303,92.588 350.342,92.819 349.969 C 93.056 349.587,93.283 349.625,93.792 350.135 C 94.365 350.708,94.372 350.800,93.846 350.800 C 93.510 350.800,94.589 352.140,96.243 353.778 C 98.213 355.729,99.458 356.676,99.855 356.524 C 100.230 356.380,100.431 356.502,100.383 356.846 C 100.218 358.022,100.426 358.454,101.093 358.325 C 101.537 358.240,103.257 359.651,105.893 362.264 C 109.563 365.903,110.784 367.332,109.600 366.600 C 108.983 366.219,109.123 366.589,109.961 367.555 C 110.494 368.169,110.775 368.278,110.896 367.916 C 111.035 367.504,111.208 367.514,111.753 367.964 C 112.129 368.274,112.358 368.733,112.262 368.984 C 112.018 369.618,114.679 372.522,115.206 372.196 C 115.848 371.800,116.800 372.770,116.800 373.822 C 116.800 374.439,117.099 374.830,117.700 374.998 C 119.542 375.514,120.373 376.148,120.795 377.357 C 121.151 378.378,121.303 378.493,121.645 378.000 C 121.958 377.549,122.111 377.524,122.264 377.900 C 122.375 378.175,122.822 378.400,123.257 378.400 C 123.692 378.400,123.936 378.580,123.800 378.800 C 123.660 379.027,123.996 379.200,124.576 379.200 C 125.139 379.200,125.600 379.380,125.600 379.600 C 125.600 379.820,125.948 380.000,126.373 380.000 C 126.798 380.000,127.260 380.360,127.400 380.800 C 127.540 381.240,127.832 381.600,128.051 381.600 C 128.269 381.600,128.336 381.420,128.200 381.200 C 128.056 380.967,128.463 380.800,129.176 380.800 C 129.849 380.800,130.400 380.980,130.400 381.200 C 130.400 381.437,131.875 381.600,134.024 381.600 C 136.337 381.600,137.558 381.455,137.400 381.200 C 137.256 380.967,137.663 380.800,138.376 380.800 C 139.049 380.800,139.600 381.008,139.600 381.261 C 139.600 381.515,139.936 381.335,140.347 380.861 C 140.758 380.388,141.388 380.000,141.747 380.000 C 142.106 380.000,142.400 379.820,142.400 379.600 C 142.400 379.380,142.861 379.200,143.424 379.200 C 144.004 379.200,144.340 379.027,144.200 378.800 C 144.059 378.572,144.404 378.400,145.000 378.400 C 145.596 378.400,145.941 378.228,145.800 378.000 C 145.660 377.773,145.996 377.600,146.576 377.600 C 147.139 377.600,147.600 377.420,147.600 377.200 C 147.600 376.980,147.960 376.800,148.400 376.800 C 148.840 376.800,149.200 376.620,149.200 376.400 C 149.200 376.180,149.560 376.000,150.000 376.000 C 150.440 376.000,150.800 375.820,150.800 375.600 C 150.800 375.380,151.261 375.200,151.824 375.200 C 152.404 375.200,152.740 375.027,152.600 374.800 C 152.464 374.580,152.528 374.400,152.743 374.400 C 152.958 374.400,153.226 374.625,153.340 374.900 C 153.465 375.203,153.654 375.045,153.820 374.500 C 153.970 374.005,154.272 373.600,154.489 373.600 C 154.707 373.600,154.792 373.843,154.678 374.141 C 154.534 374.516,154.998 374.425,156.197 373.841 C 157.146 373.378,157.762 372.941,157.565 372.868 C 156.758 372.570,158.446 371.600,159.771 371.600 C 161.037 371.600,161.200 371.483,161.200 370.576 C 161.200 369.985,161.372 369.659,161.607 369.804 C 161.830 369.942,161.895 370.246,161.751 370.480 C 161.600 370.723,161.725 370.826,162.044 370.721 C 162.350 370.620,162.658 370.144,162.729 369.663 C 162.799 369.182,163.027 368.893,163.235 369.022 C 163.443 369.150,163.511 369.421,163.386 369.623 C 163.261 369.825,163.426 369.888,163.754 369.762 C 164.082 369.637,164.252 369.279,164.132 368.967 C 163.988 368.591,164.191 368.400,164.734 368.400 C 165.184 368.400,165.664 368.220,165.800 368.000 C 165.936 367.780,166.622 367.597,167.324 367.594 C 168.026 367.591,168.395 367.456,168.144 367.294 C 167.811 367.079,167.830 366.868,168.215 366.512 C 168.602 366.152,168.782 366.145,168.894 366.483 C 168.980 366.741,169.267 366.806,169.551 366.630 C 169.828 366.459,169.958 366.067,169.840 365.760 C 169.691 365.371,169.934 365.200,170.636 365.200 C 171.208 365.200,171.540 365.026,171.400 364.800 C 171.264 364.580,171.328 364.400,171.543 364.400 C 171.758 364.400,172.024 364.625,172.135 364.900 C 172.246 365.175,172.351 364.995,172.368 364.500 C 172.387 363.965,172.653 363.600,173.024 363.600 C 173.393 363.600,173.531 363.788,173.362 364.062 C 173.189 364.341,173.252 364.415,173.521 364.249 C 173.765 364.098,173.864 363.710,173.740 363.387 C 173.616 363.064,173.714 362.800,173.957 362.800 C 174.201 362.800,174.400 363.010,174.400 363.267 C 174.400 363.523,174.535 363.598,174.700 363.433 C 174.865 363.268,175.000 362.923,175.000 362.667 C 175.000 362.410,175.408 362.142,175.906 362.071 C 176.404 362.001,176.709 361.776,176.582 361.571 C 176.456 361.367,176.618 361.200,176.943 361.200 C 177.268 361.200,177.625 360.975,177.736 360.700 C 177.889 360.324,178.044 360.348,178.363 360.800 C 178.752 361.349,178.981 361.090,178.836 360.266 C 178.804 360.082,179.142 359.836,179.589 359.719 C 180.035 359.602,180.400 359.348,180.400 359.153 C 180.400 358.959,180.670 358.800,181.000 358.800 C 181.330 358.800,181.600 358.645,181.600 358.455 C 181.600 358.266,182.005 358.179,182.500 358.263 C 183.022 358.351,183.820 358.056,184.400 357.560 L 185.400 356.705 184.314 357.353 C 182.854 358.223,182.524 358.168,183.400 357.200 C 183.798 356.760,184.344 356.400,184.613 356.400 C 184.882 356.400,185.326 356.130,185.600 355.800 C 185.874 355.470,186.269 355.200,186.478 355.200 C 186.686 355.200,186.574 355.483,186.229 355.829 C 185.217 356.840,185.503 356.923,186.805 355.997 C 187.467 355.525,187.907 354.973,187.781 354.769 C 187.656 354.566,187.728 354.400,187.943 354.400 C 188.158 354.400,188.424 354.625,188.535 354.900 C 188.646 355.175,188.751 354.973,188.768 354.451 C 188.795 353.654,188.896 353.582,189.400 354.000 C 189.815 354.344,190.000 354.359,190.000 354.049 C 190.000 353.802,190.315 353.587,190.700 353.572 C 191.298 353.548,191.285 353.499,190.609 353.235 C 189.836 352.933,189.837 352.915,190.683 352.463 C 191.727 351.904,192.444 351.855,191.600 352.400 C 191.087 352.731,191.102 352.789,191.700 352.794 C 192.085 352.797,192.400 352.517,192.400 352.171 C 192.400 351.295,193.681 350.043,193.901 350.704 C 193.992 350.977,194.251 351.200,194.476 351.200 C 194.701 351.200,194.792 350.956,194.678 350.659 C 194.564 350.361,194.814 349.823,195.235 349.463 C 195.656 349.103,196.000 348.986,196.000 349.204 C 196.000 349.870,196.808 349.644,197.090 348.900 C 197.383 348.126,198.203 347.200,198.595 347.200 C 198.734 347.200,198.712 347.425,198.547 347.700 C 198.340 348.044,198.456 348.030,198.919 347.655 C 199.289 347.355,199.509 346.977,199.409 346.815 C 199.201 346.479,200.611 345.707,201.800 345.506 C 202.298 345.422,202.556 345.113,202.482 344.685 C 202.397 344.187,202.643 344.000,203.382 344.000 C 204.290 344.000,204.594 343.629,204.447 342.700 C 204.421 342.535,204.655 342.400,204.967 342.400 C 205.278 342.400,205.625 342.175,205.736 341.900 C 205.889 341.523,206.051 341.547,206.396 342.000 C 206.774 342.496,206.812 342.456,206.620 341.767 C 206.397 340.962,208.156 339.623,208.710 340.176 C 208.823 340.290,208.485 340.555,207.958 340.766 C 207.409 340.986,207.265 341.160,207.620 341.175 C 208.487 341.210,209.182 340.418,208.908 339.705 C 208.731 339.242,208.896 339.162,209.639 339.350 C 210.168 339.484,210.375 339.489,210.100 339.363 C 209.247 338.971,209.551 338.375,210.514 338.550 C 211.518 338.732,213.009 337.862,212.661 337.298 C 212.540 337.103,212.792 336.642,213.220 336.275 C 213.751 335.821,214.002 335.766,214.006 336.104 C 214.010 336.438,214.108 336.460,214.306 336.171 C 214.468 335.935,214.915 335.625,215.300 335.483 C 215.685 335.341,216.000 334.939,216.000 334.589 C 216.000 334.239,216.180 334.064,216.400 334.200 C 216.620 334.336,216.800 334.167,216.800 333.824 C 216.800 333.467,217.142 333.200,217.600 333.200 C 218.133 333.200,218.400 332.933,218.400 332.400 C 218.400 331.960,218.580 331.600,218.800 331.600 C 219.020 331.600,219.200 331.782,219.200 332.003 C 219.200 332.242,219.534 332.201,220.017 331.903 C 220.501 331.605,220.761 331.115,220.655 330.700 C 220.450 329.902,221.015 329.742,221.363 330.500 C 221.489 330.775,221.492 330.595,221.369 330.100 C 221.209 329.455,221.323 329.200,221.773 329.200 C 222.118 329.200,222.403 328.975,222.406 328.700 C 222.410 328.366,222.543 328.399,222.806 328.800 C 223.264 329.497,224.153 328.571,223.712 327.857 C 223.582 327.648,223.684 327.605,223.938 327.762 C 224.192 327.919,224.400 327.848,224.400 327.605 C 224.400 327.032,226.232 325.200,226.805 325.200 C 227.048 325.200,227.117 324.989,226.958 324.732 C 226.764 324.418,226.886 324.347,227.330 324.518 C 227.711 324.664,227.950 324.587,227.895 324.336 C 227.843 324.096,228.050 323.809,228.356 323.698 C 228.696 323.574,228.803 323.671,228.632 323.948 C 228.107 324.797,228.797 324.401,230.282 323.000 C 231.099 322.230,231.909 321.600,232.083 321.600 C 232.258 321.600,232.403 321.195,232.406 320.700 C 232.410 320.168,232.533 319.986,232.706 320.256 C 232.921 320.589,233.132 320.570,233.488 320.185 C 233.822 319.826,233.839 319.613,233.544 319.515 C 233.297 319.432,233.420 319.121,233.833 318.785 C 234.468 318.269,234.512 318.271,234.200 318.800 C 233.896 319.316,233.940 319.324,234.519 318.855 C 234.889 318.555,235.075 318.122,234.934 317.893 C 234.791 317.662,234.868 317.595,235.106 317.742 C 235.342 317.888,235.807 317.736,236.139 317.404 C 236.471 317.072,236.824 316.800,236.924 316.800 C 237.024 316.800,237.982 315.970,239.053 314.956 C 240.124 313.942,240.775 313.233,240.500 313.380 C 240.225 313.527,240.000 313.457,240.000 313.224 C 240.000 312.991,240.360 312.800,240.800 312.800 C 241.240 312.800,241.579 312.665,241.553 312.500 C 241.412 311.610,241.687 311.200,242.424 311.200 C 242.877 311.200,243.136 311.020,243.000 310.800 C 242.864 310.580,242.954 310.400,243.200 310.400 C 243.446 310.400,243.565 310.265,243.466 310.100 C 243.366 309.935,243.522 309.580,243.813 309.312 C 244.229 308.927,244.383 308.927,244.539 309.312 C 244.648 309.580,244.751 309.383,244.768 308.873 C 244.794 308.118,244.966 307.987,245.700 308.169 C 246.195 308.292,246.375 308.289,246.100 308.163 C 245.238 307.767,245.556 307.135,246.500 307.369 C 246.995 307.492,247.175 307.489,246.900 307.363 C 246.216 307.049,246.272 306.535,247.021 306.247 C 247.377 306.111,247.537 306.178,247.397 306.405 C 247.031 306.996,247.576 306.881,248.229 306.229 C 248.543 305.914,248.800 305.374,248.800 305.029 C 248.800 304.683,249.062 304.400,249.381 304.400 C 249.701 304.400,250.264 303.765,250.632 302.989 C 251.124 301.953,251.488 301.637,252.003 301.801 C 252.418 301.933,252.798 301.782,252.932 301.432 C 253.095 301.009,252.966 300.908,252.480 301.078 C 252.106 301.208,252.427 300.879,253.194 300.346 C 253.961 299.812,254.787 298.977,255.030 298.490 C 255.273 298.003,255.590 297.724,255.736 297.869 C 255.881 298.014,256.003 297.788,256.006 297.367 C 256.017 296.055,256.712 295.276,257.226 296.000 C 257.557 296.465,257.591 296.385,257.380 295.639 C 257.157 294.852,257.228 294.725,257.775 294.935 C 258.170 295.087,258.341 295.028,258.195 294.792 C 257.909 294.330,258.983 293.117,259.352 293.486 C 259.489 293.622,259.600 293.510,259.600 293.238 C 259.600 292.749,260.822 291.306,261.071 291.500 C 261.531 291.858,261.939 291.396,262.402 289.994 C 262.838 288.672,263.080 288.424,263.766 288.590 C 264.225 288.702,264.375 288.689,264.100 288.563 C 263.238 288.167,263.556 287.535,264.500 287.769 C 264.995 287.892,265.175 287.889,264.900 287.763 C 264.052 287.374,264.348 286.863,265.300 287.072 C 266.023 287.231,266.082 287.185,265.600 286.841 C 265.107 286.489,265.179 286.406,266.000 286.375 C 266.550 286.354,266.762 286.242,266.472 286.126 C 266.087 285.972,266.169 285.757,266.772 285.335 C 267.227 285.016,267.597 284.540,267.594 284.277 C 267.590 283.989,267.434 284.038,267.200 284.400 C 266.987 284.730,266.809 284.810,266.806 284.578 C 266.798 284.034,269.304 281.600,269.873 281.600 C 270.539 281.600,271.691 279.614,271.426 278.923 C 271.264 278.502,271.373 278.381,271.775 278.535 C 272.188 278.693,272.286 278.569,272.110 278.110 C 271.927 277.633,272.031 277.526,272.501 277.707 C 272.870 277.848,273.366 277.665,273.671 277.276 C 274.146 276.669,274.129 276.656,273.500 277.149 C 273.022 277.524,272.800 277.552,272.800 277.236 C 272.800 276.983,273.059 276.676,273.375 276.554 C 273.691 276.433,273.852 276.079,273.732 275.767 C 273.464 275.069,274.244 275.006,274.563 275.700 C 274.689 275.975,274.684 275.768,274.550 275.239 C 274.358 274.480,274.438 274.329,274.933 274.519 C 275.367 274.686,275.491 274.581,275.337 274.180 C 275.186 273.786,275.386 273.600,275.957 273.600 C 276.596 273.600,276.800 273.351,276.800 272.571 C 276.800 271.315,277.717 270.316,278.570 270.644 C 278.921 270.779,279.200 270.679,279.200 270.419 C 279.200 270.163,279.020 270.064,278.800 270.200 C 277.770 270.837,279.467 268.025,280.881 266.753 C 281.276 266.397,281.600 265.924,281.600 265.702 C 281.600 265.480,281.905 265.051,282.277 264.749 C 282.808 264.318,282.885 264.314,282.635 264.730 C 282.371 265.168,282.461 265.169,283.158 264.733 C 283.621 264.444,284.000 264.060,284.000 263.880 C 284.000 263.700,283.820 263.664,283.600 263.800 C 282.789 264.301,283.232 263.132,284.251 262.083 C 284.828 261.487,285.178 261.225,285.027 261.500 C 284.876 261.775,284.915 262.000,285.112 262.000 C 285.310 262.000,285.690 261.520,285.958 260.933 C 286.408 259.945,286.393 259.908,285.757 260.433 C 285.131 260.949,285.109 260.925,285.513 260.167 C 286.166 258.940,287.094 258.288,287.682 258.642 C 288.102 258.895,288.104 258.835,287.693 258.327 C 287.172 257.684,287.405 256.400,288.043 256.400 C 288.239 256.400,288.400 256.111,288.400 255.757 C 288.400 255.372,288.623 255.200,288.957 255.328 C 289.903 255.691,291.282 253.865,290.977 252.652 C 290.811 251.990,290.878 251.600,291.157 251.600 C 291.400 251.600,291.600 251.330,291.600 251.000 C 291.600 250.670,291.780 250.400,292.000 250.400 C 292.220 250.400,292.400 250.111,292.400 249.757 C 292.400 249.356,292.621 249.199,292.987 249.340 C 293.310 249.464,293.698 249.365,293.849 249.121 C 294.015 248.852,293.941 248.789,293.662 248.962 C 293.385 249.133,293.200 248.987,293.200 248.600 C 293.200 248.244,293.380 248.064,293.600 248.200 C 293.820 248.336,294.003 248.122,294.006 247.724 C 294.011 247.110,294.071 247.091,294.400 247.600 C 294.694 248.055,294.789 247.886,294.794 246.900 C 294.797 246.185,294.980 245.600,295.200 245.600 C 295.420 245.600,295.600 245.311,295.600 244.957 C 295.600 244.556,295.821 244.399,296.187 244.540 C 296.904 244.815,297.410 244.151,296.702 243.865 C 296.377 243.733,296.341 243.545,296.601 243.330 C 296.821 243.149,297.255 242.508,297.565 241.907 C 297.875 241.305,298.483 240.701,298.917 240.563 C 299.370 240.419,299.528 240.202,299.287 240.054 C 299.006 239.880,299.041 239.559,299.394 239.076 C 299.786 238.539,299.972 238.489,300.128 238.879 C 300.263 239.215,300.348 239.152,300.368 238.700 C 300.386 238.315,300.580 238.000,300.800 238.000 C 301.020 238.000,301.200 237.809,301.200 237.576 C 301.200 237.343,301.020 237.264,300.800 237.400 C 300.580 237.536,300.400 237.457,300.400 237.224 C 300.400 236.835,300.953 236.635,301.700 236.753 C 302.199 236.831,302.036 236.084,301.500 235.833 C 301.100 235.647,301.100 235.553,301.500 235.367 C 301.775 235.238,302.000 234.868,302.000 234.543 C 302.000 234.218,302.160 234.051,302.355 234.172 C 302.550 234.293,302.685 234.083,302.655 233.706 C 302.621 233.281,302.891 233.016,303.366 233.010 C 303.787 233.005,304.207 232.775,304.299 232.500 C 304.406 232.182,304.236 232.088,303.833 232.243 C 303.485 232.376,303.200 232.286,303.200 232.043 C 303.200 231.799,303.368 231.600,303.573 231.600 C 303.778 231.600,304.061 231.237,304.202 230.794 C 304.343 230.351,304.608 230.081,304.791 230.195 C 304.975 230.308,305.031 230.041,304.916 229.601 C 304.775 229.062,304.903 228.800,305.309 228.800 C 305.640 228.800,305.886 228.504,305.856 228.143 C 305.825 227.782,306.050 227.398,306.356 227.291 C 306.695 227.172,306.802 227.272,306.632 227.548 C 306.478 227.797,306.450 228.000,306.568 228.000 C 306.687 228.000,307.173 227.237,307.649 226.303 C 308.316 224.997,308.364 224.732,307.857 225.152 C 307.293 225.620,307.200 225.606,307.200 225.049 C 307.200 224.692,307.380 224.400,307.600 224.400 C 307.820 224.400,308.000 224.028,308.000 223.573 C 308.000 222.916,308.185 222.792,308.900 222.969 C 309.395 223.092,309.575 223.089,309.300 222.963 C 308.462 222.578,308.742 221.602,309.700 221.568 C 310.195 221.551,310.375 221.446,310.100 221.335 C 309.550 221.113,309.405 220.000,309.925 220.000 C 310.104 220.000,310.495 219.378,310.793 218.618 C 311.091 217.858,311.485 217.329,311.668 217.442 C 311.850 217.555,312.000 217.187,312.000 216.624 C 312.000 216.061,312.180 215.600,312.400 215.600 C 312.620 215.600,312.800 215.229,312.800 214.776 C 312.800 214.323,312.980 214.064,313.200 214.200 C 313.428 214.341,313.600 213.990,313.600 213.381 C 313.600 212.593,313.758 212.375,314.205 212.547 C 314.679 212.729,314.756 212.565,314.562 211.789 C 314.409 211.183,314.485 210.800,314.757 210.800 C 315.000 210.800,315.200 210.429,315.200 209.976 C 315.200 209.523,315.380 209.264,315.600 209.400 C 315.827 209.540,316.000 209.204,316.000 208.624 C 316.000 208.061,316.135 207.621,316.300 207.647 C 317.279 207.802,317.786 207.579,317.242 207.234 C 316.575 206.812,316.947 205.558,317.685 205.741 C 317.968 205.811,318.065 205.793,317.900 205.701 C 317.383 205.412,317.573 204.400,318.145 204.400 C 318.504 204.400,318.627 204.073,318.505 203.439 C 318.368 202.723,318.535 202.411,319.161 202.212 C 320.017 201.941,320.368 201.118,319.550 201.300 C 318.746 201.479,318.762 200.566,319.579 199.624 C 320.124 198.996,320.269 198.498,320.037 198.052 C 319.851 197.693,319.744 196.500,319.800 195.400 C 319.938 192.712,319.938 192.714,320.440 193.025 C 321.086 193.424,319.996 191.494,319.276 190.962 C 318.871 190.664,318.767 190.186,318.949 189.462 C 319.107 188.833,319.049 188.400,318.808 188.400 C 318.583 188.400,318.400 188.032,318.400 187.583 C 318.400 187.134,318.028 186.369,317.574 185.883 C 317.063 185.337,316.815 184.648,316.923 184.077 C 317.054 183.386,316.949 183.211,316.504 183.381 C 316.089 183.541,315.983 183.422,316.151 182.984 C 316.285 182.633,316.222 182.463,316.005 182.597 C 315.559 182.872,312.794 180.161,312.812 179.466 C 312.819 179.210,313.008 179.315,313.232 179.700 C 313.456 180.085,313.844 180.400,314.095 180.400 C 314.345 180.400,314.045 179.874,313.429 179.230 C 312.812 178.587,312.104 178.135,311.854 178.226 C 311.234 178.452,310.148 177.718,310.533 177.333 C 310.704 177.163,310.991 177.262,311.172 177.554 C 311.352 177.846,311.579 177.931,311.676 177.743 C 311.772 177.554,311.420 176.986,310.893 176.481 C 309.948 175.575,309.938 175.574,310.206 176.420 C 310.433 177.135,310.351 177.238,309.715 177.036 C 309.135 176.852,308.791 177.108,308.285 178.097 C 307.352 179.920,305.646 182.802,304.753 184.062 C 304.339 184.646,304.000 185.239,304.000 185.381 C 304.000 185.682,291.635 204.505,291.243 204.800 C 291.097 204.910,289.680 206.800,288.094 209.000 C 284.893 213.440,280.786 218.864,279.462 220.400 C 278.988 220.950,277.975 222.210,277.210 223.200 C 276.446 224.190,275.726 225.090,275.610 225.200 C 275.493 225.310,274.049 227.020,272.399 229.000 C 270.750 230.980,269.220 232.797,269.000 233.038 C 268.780 233.279,267.165 235.079,265.410 237.038 C 257.216 246.187,239.758 263.309,233.200 268.627 C 232.430 269.251,230.971 270.491,229.957 271.381 C 226.991 273.987,224.338 276.189,222.198 277.822 C 221.099 278.660,218.580 280.627,216.600 282.193 C 214.620 283.759,212.108 285.661,211.018 286.420 C 209.928 287.179,208.758 288.013,208.418 288.274 C 198.966 295.524,186.484 303.066,179.800 305.566 C 178.480 306.060,177.087 306.630,176.705 306.832 C 176.323 307.034,175.659 307.200,175.229 307.200 C 174.799 307.200,174.336 307.380,174.200 307.600 C 173.894 308.095,172.400 308.132,172.400 307.644 C 172.400 307.448,181.715 298.031,193.100 286.717 C 237.324 242.768,276.767 202.936,277.980 201.000 C 281.838 194.844,281.746 186.675,277.752 180.600 C 274.586 175.784,220.447 122.548,217.188 121.046 C 213.672 119.425,210.083 118.844,206.441 119.306 M230.480 154.842 C 242.865 157.425,249.074 170.566,243.395 182.175 C 242.642 183.713,240.638 186.137,236.970 189.944 L 231.640 195.476 233.251 197.038 C 236.287 199.979,237.630 198.147,218.142 217.649 C 208.496 227.302,200.428 235.200,200.213 235.200 C 199.758 235.200,165.731 201.333,165.172 200.324 C 164.806 199.663,198.812 165.194,200.131 164.889 C 200.395 164.828,201.411 165.593,202.389 166.589 C 204.699 168.942,204.140 169.190,210.371 163.057 C 218.340 155.214,223.046 153.292,230.480 154.842 M291.206 157.071 C 291.215 157.536,291.673 158.105,292.600 158.800 C 293.362 159.371,293.371 159.362,292.800 158.602 C 291.853 157.342,291.199 156.714,291.206 157.071 M224.200 167.858 C 223.540 168.202,220.885 170.577,218.300 173.136 L 213.600 177.787 217.894 182.094 L 222.187 186.401 226.909 181.700 C 229.506 179.115,231.893 176.477,232.215 175.839 C 234.649 171.005,228.983 165.363,224.200 167.858 M77.100 169.414 C 76.101 170.750,76.231 171.123,77.246 169.833 C 77.711 169.242,78.026 168.695,77.946 168.618 C 77.866 168.541,77.485 168.900,77.100 169.414 M173.899 226.099 C 195.515 247.714,213.200 265.589,213.200 265.822 C 213.200 266.055,211.216 268.201,208.792 270.590 L 204.384 274.934 203.151 273.767 C 190.667 261.945,125.294 195.773,125.580 195.248 C 126.070 194.345,133.808 186.800,134.243 186.800 C 134.439 186.800,152.284 204.485,173.899 226.099 M150.844 234.408 C 165.086 237.109,170.907 254.885,161.037 265.534 C 155.236 271.793,145.779 264.286,151.109 257.654 C 154.250 253.745,153.696 249.486,149.800 247.600 C 146.323 245.917,144.945 246.550,138.757 252.677 L 134.114 257.274 135.957 259.002 C 140.903 263.638,156.400 279.090,156.400 279.385 C 156.400 279.570,150.140 285.977,142.490 293.624 L 128.579 307.527 130.036 307.964 C 130.837 308.204,131.931 308.400,132.466 308.400 C 133.002 308.400,133.611 308.562,133.820 308.759 C 134.029 308.956,135.010 309.223,136.000 309.351 C 136.990 309.480,139.510 309.809,141.600 310.083 C 148.376 310.971,158.156 310.606,165.600 309.186 C 169.857 308.374,170.400 308.316,170.400 308.668 C 170.400 309.945,139.664 339.520,137.200 340.613 C 131.899 342.966,124.466 342.417,119.401 339.299 C 117.206 337.948,62.690 283.491,61.039 281.000 C 56.538 274.209,56.891 265.229,61.906 258.900 C 63.769 256.550,63.040 256.046,74.859 267.859 L 85.524 278.518 102.787 261.359 C 112.282 251.922,120.295 244.145,120.592 244.077 C 121.205 243.938,124.800 247.369,124.800 248.093 C 124.800 248.352,127.369 246.017,130.509 242.904 C 138.673 234.810,143.134 232.946,150.844 234.408 M290.666 253.300 C 290.665 253.575,290.335 254.146,289.933 254.570 C 289.287 255.248,289.200 255.260,289.200 254.670 C 289.200 254.301,289.380 254.000,289.600 254.000 C 289.820 254.000,290.000 253.730,290.000 253.400 C 290.000 253.070,290.150 252.800,290.333 252.800 C 290.517 252.800,290.666 253.025,290.666 253.300 M250.906 259.903 C 256.428 260.850,256.811 269.540,251.449 272.215 C 248.443 273.715,242.800 271.374,242.800 268.627 C 242.800 268.308,242.620 267.936,242.400 267.800 C 240.579 266.675,244.129 260.012,246.559 259.994 C 247.022 259.991,247.670 259.812,248.000 259.598 C 248.330 259.384,248.870 259.322,249.200 259.461 C 249.530 259.600,250.298 259.799,250.906 259.903 M229.453 282.252 C 235.891 285.307,233.679 294.800,226.530 294.800 C 224.307 294.800,221.836 293.231,220.771 291.144 C 217.994 285.700,223.923 279.628,229.453 282.252 M45.626 303.078 C 46.162 303.781,46.855 304.366,47.167 304.378 C 47.478 304.390,47.657 304.355,47.565 304.300 C 47.472 304.245,46.778 303.660,46.024 303.000 L 44.651 301.800 45.626 303.078 M207.769 304.561 C 213.746 308.063,211.411 316.800,204.498 316.800 C 197.611 316.800,195.587 307.495,201.800 304.398 C 203.921 303.341,205.774 303.391,207.769 304.561 M47.673 305.300 C 49.015 306.565,49.781 306.955,48.830 305.888 C 48.297 305.290,47.699 304.800,47.502 304.800 C 47.304 304.800,47.381 305.025,47.673 305.300 M64.593 320.793 C 65.448 321.669,66.058 322.475,65.949 322.584 C 65.840 322.694,64.959 321.977,63.992 320.992 C 63.025 320.006,62.414 319.200,62.636 319.200 C 62.857 319.200,63.737 319.917,64.593 320.793 M97.363 353.612 C 98.662 354.930,99.647 356.086,99.552 356.181 C 99.457 356.276,98.222 355.194,96.808 353.777 C 95.393 352.360,94.408 351.204,94.618 351.208 C 94.828 351.213,96.063 352.295,97.363 353.612 M114.196 370.396 C 114.826 371.054,115.252 371.681,115.143 371.790 C 115.034 371.899,114.337 371.361,113.594 370.594 C 112.851 369.827,112.425 369.200,112.647 369.200 C 112.869 369.200,113.566 369.738,114.196 370.396 " stroke="none" fill="#4fa3df" fill-rule="evenodd"></path><path id="path2" d="M349.700 70.276 C 350.085 70.376,350.715 70.376,351.100 70.276 C 351.485 70.175,351.170 70.093,350.400 70.093 C 349.630 70.093,349.315 70.175,349.700 70.276 M346.487 71.500 C 345.530 72.435,345.514 72.481,346.381 71.806 C 348.088 70.476,348.169 70.400,347.886 70.400 C 347.736 70.400,347.106 70.895,346.487 71.500 M358.400 75.800 C 360.923 78.330,363.077 80.400,363.187 80.400 C 363.297 80.400,361.323 78.330,358.800 75.800 C 356.277 73.270,354.123 71.200,354.013 71.200 C 353.903 71.200,355.877 73.270,358.400 75.800 M202.200 79.583 C 201.760 79.781,200.736 79.956,199.924 79.972 C 199.112 79.987,198.336 80.180,198.200 80.400 C 198.064 80.620,197.513 80.800,196.976 80.800 C 196.439 80.800,196.000 80.980,196.000 81.200 C 196.000 81.420,195.640 81.600,195.200 81.600 C 194.760 81.600,194.400 81.780,194.400 82.000 C 194.400 82.220,194.040 82.400,193.600 82.400 C 193.160 82.400,192.800 82.580,192.800 82.800 C 192.800 83.020,192.440 83.200,192.000 83.200 C 191.560 83.200,191.200 83.380,191.200 83.600 C 191.200 83.820,190.840 84.000,190.400 84.000 C 189.960 84.000,189.600 84.180,189.600 84.400 C 189.600 84.620,189.240 84.800,188.800 84.800 C 188.360 84.800,188.000 84.980,188.000 85.200 C 188.000 85.420,187.640 85.600,187.200 85.600 C 186.760 85.600,186.400 85.780,186.400 86.000 C 186.400 86.220,186.040 86.400,185.600 86.400 C 185.160 86.400,184.800 86.580,184.800 86.800 C 184.800 87.020,184.440 87.200,184.000 87.200 C 183.560 87.200,183.200 87.380,183.200 87.600 C 183.200 87.820,182.840 88.000,182.400 88.000 C 181.960 88.000,181.600 88.180,181.600 88.400 C 181.600 88.620,181.240 88.800,180.800 88.800 C 180.360 88.800,180.000 88.946,180.000 89.125 C 180.000 89.304,179.370 89.698,178.600 90.000 C 177.830 90.302,177.200 90.696,177.200 90.875 C 177.200 91.054,176.840 91.200,176.400 91.200 C 175.960 91.200,175.600 91.380,175.600 91.600 C 175.600 91.820,175.403 92.000,175.162 92.000 C 174.921 92.000,174.201 92.372,173.562 92.827 C 172.923 93.282,172.400 93.556,172.400 93.435 C 172.400 93.199,168.989 95.005,168.000 95.765 C 167.452 96.185,165.757 97.136,163.049 98.541 C 162.479 98.837,162.129 99.196,162.273 99.339 C 162.416 99.483,162.143 99.600,161.667 99.600 C 161.190 99.600,160.800 99.780,160.800 100.000 C 160.800 100.220,160.564 100.400,160.275 100.400 C 159.987 100.400,159.364 100.760,158.892 101.200 C 158.420 101.640,157.880 102.000,157.692 102.000 C 157.504 102.000,157.002 102.315,156.575 102.700 C 156.149 103.085,155.260 103.670,154.600 104.000 C 153.940 104.330,153.051 104.915,152.625 105.300 C 152.198 105.685,151.613 106.000,151.325 106.000 C 151.036 106.000,150.800 106.180,150.800 106.400 C 150.800 106.620,150.530 106.800,150.200 106.800 C 149.870 106.800,149.600 106.980,149.600 107.200 C 149.600 107.420,149.408 107.600,149.173 107.600 C 148.939 107.600,148.157 108.050,147.436 108.600 C 146.714 109.150,145.994 109.600,145.834 109.600 C 145.674 109.600,145.292 109.825,144.985 110.100 C 143.861 111.108,143.371 111.456,142.000 112.220 C 141.230 112.649,140.309 113.315,139.953 113.700 C 139.597 114.085,139.129 114.400,138.912 114.400 C 138.696 114.400,137.984 114.895,137.332 115.500 C 136.679 116.105,135.898 116.656,135.598 116.725 C 135.297 116.794,134.748 117.199,134.378 117.625 C 134.009 118.051,133.502 118.400,133.253 118.400 C 133.004 118.400,132.800 118.580,132.800 118.800 C 132.800 119.020,132.596 119.200,132.347 119.200 C 132.098 119.200,131.603 119.524,131.247 119.919 C 130.891 120.314,129.970 121.077,129.200 121.613 C 127.551 122.762,126.745 123.411,125.118 124.900 C 124.456 125.505,123.782 126.000,123.619 126.000 C 123.456 126.000,122.926 126.344,122.442 126.764 C 121.958 127.184,120.814 128.129,119.900 128.864 C 118.987 129.599,117.691 130.666,117.020 131.236 C 116.349 131.805,115.372 132.615,114.849 133.036 C 114.326 133.456,112.906 134.700,111.694 135.800 C 110.483 136.900,109.111 138.066,108.646 138.392 C 108.181 138.718,106.585 140.194,105.100 141.673 C 103.615 143.152,102.400 144.287,102.400 144.197 C 102.400 143.361,80.526 165.547,77.506 169.447 C 75.971 171.428,75.851 171.568,73.700 173.865 C 72.545 175.098,71.600 176.383,71.600 176.720 C 71.600 177.058,71.490 177.223,71.356 177.089 C 71.138 176.872,70.359 177.677,68.400 180.145 C 68.070 180.560,67.433 181.283,66.985 181.750 C 66.537 182.218,65.584 183.455,64.866 184.500 C 64.149 185.545,63.402 186.400,63.208 186.400 C 63.013 186.400,62.754 186.715,62.631 187.100 C 62.509 187.485,62.002 188.250,61.504 188.800 C 61.007 189.350,60.101 190.535,59.492 191.434 C 58.882 192.332,58.027 193.449,57.592 193.917 C 57.156 194.384,56.800 194.954,56.800 195.183 C 56.800 195.412,56.659 195.600,56.486 195.600 C 56.314 195.600,55.879 196.095,55.521 196.700 C 55.163 197.305,54.404 198.340,53.835 199.000 C 53.266 199.660,52.801 200.385,52.800 200.612 C 52.800 200.838,52.440 201.283,52.000 201.600 C 51.560 201.917,51.200 202.497,51.200 202.888 C 51.200 203.280,51.059 203.600,50.886 203.600 C 50.714 203.600,50.257 204.133,49.872 204.785 C 49.487 205.437,48.915 206.228,48.600 206.543 C 48.286 206.857,47.977 207.359,47.914 207.657 C 47.851 207.956,47.530 208.470,47.200 208.801 C 46.463 209.538,44.800 211.886,44.800 212.188 C 44.800 212.309,44.170 213.305,43.400 214.400 C 42.630 215.495,42.000 216.664,42.000 216.996 C 42.000 217.328,41.820 217.600,41.600 217.600 C 41.380 217.600,41.200 217.870,41.200 218.200 C 41.200 218.530,41.020 218.800,40.800 218.800 C 40.580 218.800,40.400 219.055,40.400 219.367 C 40.400 219.678,40.265 219.993,40.100 220.067 C 39.724 220.234,38.425 222.364,38.129 223.300 C 38.007 223.685,37.748 224.000,37.553 224.000 C 37.359 224.000,37.200 224.294,37.200 224.653 C 37.200 225.012,36.884 225.597,36.497 225.953 C 36.111 226.309,35.530 227.140,35.206 227.800 C 34.883 228.460,34.207 229.675,33.704 230.500 C 32.971 231.703,32.910 232.000,33.395 232.000 C 33.728 232.000,34.000 231.717,34.000 231.371 C 34.000 230.710,34.917 229.600,35.464 229.600 C 35.640 229.600,41.949 235.754,49.482 243.277 C 57.016 250.799,63.268 256.874,63.376 256.777 C 64.698 255.584,124.800 195.377,124.800 195.246 C 124.800 195.147,126.825 193.087,129.300 190.669 C 131.775 188.251,148.201 171.911,165.802 154.356 C 197.265 122.976,197.854 122.415,200.842 121.035 C 206.290 118.518,211.712 118.521,217.188 121.046 C 220.447 122.548,274.586 175.784,277.752 180.600 C 281.746 186.675,281.838 194.844,277.980 201.000 C 276.767 202.936,237.324 242.768,193.100 286.717 C 181.715 298.031,172.400 307.448,172.400 307.644 C 172.400 308.132,173.894 308.095,174.200 307.600 C 174.336 307.380,174.799 307.200,175.229 307.200 C 175.659 307.200,176.323 307.034,176.705 306.832 C 177.087 306.630,178.480 306.060,179.800 305.566 C 186.484 303.066,198.966 295.524,208.418 288.274 C 208.758 288.013,209.928 287.179,211.018 286.420 C 212.108 285.661,214.620 283.759,216.600 282.193 C 218.580 280.627,221.099 278.660,222.198 277.822 C 224.338 276.189,226.991 273.987,229.957 271.381 C 230.971 270.491,232.430 269.251,233.200 268.627 C 239.758 263.309,257.216 246.187,265.410 237.038 C 267.165 235.079,268.780 233.279,269.000 233.038 C 269.220 232.797,270.750 230.980,272.399 229.000 C 274.049 227.020,275.493 225.310,275.610 225.200 C 275.726 225.090,276.446 224.190,277.210 223.200 C 277.975 222.210,278.988 220.950,279.462 220.400 C 280.786 218.864,284.893 213.440,288.094 209.000 C 289.680 206.800,291.097 204.910,291.243 204.800 C 291.635 204.505,304.000 185.682,304.000 185.381 C 304.000 185.239,304.339 184.646,304.753 184.062 C 305.645 182.803,307.352 179.921,308.283 178.100 C 309.063 176.575,309.185 176.546,310.400 177.600 C 311.421 178.485,312.000 178.622,312.000 177.976 C 312.000 177.743,311.853 177.644,311.673 177.755 C 311.493 177.866,311.088 177.582,310.773 177.124 C 310.190 176.275,295.278 161.224,292.773 158.956 C 292.018 158.272,291.135 157.327,290.811 156.855 C 290.487 156.383,289.857 155.887,289.411 155.752 C 288.300 155.416,244.403 111.555,244.401 110.780 C 244.401 110.439,244.625 109.908,244.900 109.599 C 245.326 109.121,245.295 109.118,244.688 109.578 C 243.993 110.105,242.169 109.058,241.645 107.831 C 241.527 107.554,232.494 98.533,225.493 91.699 C 225.325 91.535,223.412 89.580,221.243 87.355 C 219.073 85.131,216.736 83.062,216.049 82.758 C 215.362 82.454,214.800 82.097,214.800 81.966 C 214.800 81.835,214.035 81.487,213.100 81.192 C 212.165 80.897,211.220 80.531,211.000 80.379 C 210.624 80.118,208.269 79.752,204.600 79.383 C 203.720 79.295,202.640 79.385,202.200 79.583 M359.988 84.212 C 358.134 86.076,356.727 87.600,356.860 87.600 C 357.237 87.600,363.713 81.179,363.525 80.992 C 363.433 80.900,361.841 82.349,359.988 84.212 M322.501 98.600 C 322.505 99.480,322.587 99.793,322.683 99.295 C 322.779 98.798,322.775 98.078,322.675 97.695 C 322.575 97.313,322.496 97.720,322.501 98.600 M327.793 106.700 C 330.209 109.175,332.511 111.200,332.908 111.200 C 333.572 111.200,337.408 107.674,337.090 107.356 C 337.013 107.280,336.159 108.023,335.192 109.008 C 332.833 111.412,332.843 111.415,327.807 106.500 L 323.400 102.200 327.793 106.700 M301.775 116.100 L 300.600 117.400 301.998 116.200 C 302.767 115.540,303.472 114.955,303.565 114.900 C 303.657 114.845,303.557 114.800,303.342 114.800 C 303.126 114.800,302.421 115.385,301.775 116.100 M314.300 120.006 C 316.775 122.540,318.800 124.787,318.800 124.999 C 318.800 125.212,316.958 127.234,314.707 129.493 C 312.456 131.752,310.740 133.600,310.893 133.600 C 311.408 133.600,319.200 125.634,319.200 125.107 C 319.200 124.821,317.085 122.520,314.500 119.993 L 309.800 115.400 314.300 120.006 M137.463 146.221 C 142.755 150.258,139.238 158.383,132.654 157.330 C 128.512 156.668,126.340 151.305,128.735 147.650 C 130.441 145.046,134.954 144.307,137.463 146.221 M225.091 154.689 C 225.801 154.777,227.061 154.779,227.891 154.692 C 228.721 154.605,228.140 154.533,226.600 154.531 C 225.060 154.529,224.381 154.600,225.091 154.689 M221.400 155.200 L 220.600 155.544 221.400 155.544 C 221.840 155.544,222.560 155.389,223.000 155.200 L 223.800 154.856 223.000 154.856 C 222.560 154.856,221.840 155.011,221.400 155.200 M232.537 155.768 C 240.267 158.521,244.555 164.356,245.201 173.000 L 245.471 176.600 245.535 173.538 C 245.717 164.930,239.128 156.426,231.200 155.038 C 230.430 154.903,231.032 155.232,232.537 155.768 M216.556 157.440 C 215.028 158.461,204.304 168.800,204.773 168.800 C 204.905 168.800,207.170 166.633,209.806 163.984 C 212.443 161.336,215.455 158.617,216.500 157.943 C 218.192 156.851,218.705 156.400,218.256 156.400 C 218.177 156.400,217.412 156.868,216.556 157.440 M115.211 168.100 C 120.474 171.664,117.557 180.195,111.315 179.492 C 105.497 178.836,103.551 171.348,108.359 168.114 C 110.225 166.859,113.369 166.853,115.211 168.100 M223.400 167.959 C 222.740 168.375,220.220 170.759,217.800 173.258 L 213.400 177.800 218.200 173.142 C 220.840 170.580,223.540 168.202,224.200 167.858 C 224.860 167.514,225.220 167.225,225.000 167.218 C 224.780 167.210,224.060 167.543,223.400 167.959 M228.433 167.321 C 228.525 167.388,229.140 167.758,229.800 168.145 L 231.000 168.847 230.056 168.024 C 229.536 167.571,228.921 167.200,228.689 167.200 C 228.457 167.200,228.342 167.254,228.433 167.321 M231.203 168.890 C 231.201 169.050,231.559 169.770,231.999 170.490 C 232.438 171.211,232.796 171.620,232.796 171.400 C 232.795 171.180,232.437 170.460,232.000 169.800 C 231.563 169.140,231.204 168.731,231.203 168.890 M232.156 175.843 C 232.011 176.259,229.712 178.842,227.046 181.583 C 224.381 184.323,222.628 186.213,223.152 185.783 C 226.559 182.980,233.100 175.767,232.646 175.313 C 232.521 175.188,232.300 175.426,232.156 175.843 M244.586 178.100 C 243.883 181.390,242.216 183.801,236.840 189.298 C 233.883 192.322,231.560 194.894,231.679 195.013 C 232.222 195.555,242.354 184.322,243.519 181.886 C 244.662 179.497,245.481 176.800,245.064 176.800 C 244.954 176.800,244.739 177.385,244.586 178.100 M312.800 179.545 C 312.800 179.755,313.592 180.741,314.560 181.737 C 316.190 183.415,316.800 183.668,316.800 182.667 C 316.800 182.447,316.705 182.362,316.589 182.478 C 316.472 182.594,315.572 181.896,314.589 180.926 C 313.605 179.956,312.800 179.335,312.800 179.545 M316.807 184.225 C 316.803 184.678,317.160 185.436,317.600 185.908 C 318.040 186.380,318.400 187.134,318.400 187.583 C 318.400 188.032,318.580 188.400,318.800 188.400 C 319.480 188.400,319.235 187.483,318.000 185.400 C 317.174 184.007,316.812 183.650,316.807 184.225 M318.954 189.375 C 318.660 190.142,319.027 191.200,319.587 191.200 C 320.119 191.200,320.127 189.326,319.597 188.998 C 319.376 188.861,319.086 189.031,318.954 189.375 M92.831 190.110 C 95.881 192.165,96.816 195.441,95.181 198.346 C 91.957 204.074,83.606 201.920,83.601 195.359 C 83.598 190.518,88.934 187.483,92.831 190.110 M319.951 193.076 C 319.769 194.294,319.744 197.495,319.913 197.944 C 320.293 198.946,320.709 197.544,320.701 195.291 C 320.695 193.564,320.129 191.893,319.951 193.076 M319.041 200.236 C 318.748 201.000,319.108 201.704,319.628 201.383 C 320.104 201.089,320.116 199.600,319.643 199.600 C 319.446 199.600,319.176 199.886,319.041 200.236 M318.400 203.200 C 318.400 203.640,318.542 204.000,318.715 204.000 C 318.888 204.000,319.057 203.640,319.090 203.200 C 319.123 202.760,318.981 202.400,318.775 202.400 C 318.569 202.400,318.400 202.760,318.400 203.200 M317.300 205.483 C 316.696 206.784,316.671 207.200,317.200 207.200 C 317.420 207.200,317.600 206.840,317.600 206.400 C 317.600 205.960,317.780 205.600,318.000 205.600 C 318.220 205.600,318.400 205.330,318.400 205.000 C 318.400 204.059,317.849 204.301,317.300 205.483 M314.400 211.400 C 314.400 211.730,314.580 212.000,314.800 212.000 C 315.020 212.000,315.200 211.730,315.200 211.400 C 315.200 211.070,315.020 210.800,314.800 210.800 C 314.580 210.800,314.400 211.070,314.400 211.400 M313.600 213.000 C 313.600 213.330,313.780 213.600,314.000 213.600 C 314.220 213.600,314.400 213.330,314.400 213.000 C 314.400 212.670,314.220 212.400,314.000 212.400 C 313.780 212.400,313.600 212.670,313.600 213.000 M310.802 218.596 C 310.499 219.368,310.104 220.000,309.925 220.000 C 309.746 220.000,309.600 220.270,309.600 220.600 C 309.600 220.930,309.780 221.200,310.000 221.200 C 310.220 221.200,310.400 220.930,310.400 220.600 C 310.400 220.270,310.580 220.000,310.800 220.000 C 311.020 220.000,311.200 219.655,311.200 219.233 C 311.200 218.812,311.425 218.384,311.700 218.283 C 312.054 218.153,312.077 217.968,311.776 217.646 C 311.468 217.317,311.201 217.577,310.802 218.596 M308.800 222.200 C 308.800 222.530,308.620 222.800,308.400 222.800 C 308.180 222.800,308.000 223.160,308.000 223.600 C 308.000 224.040,307.820 224.400,307.600 224.400 C 307.380 224.400,307.200 224.692,307.200 225.049 C 307.200 226.009,308.255 225.033,308.568 223.784 C 308.704 223.243,308.992 222.800,309.208 222.800 C 309.423 222.800,309.600 222.530,309.600 222.200 C 309.600 221.870,309.420 221.600,309.200 221.600 C 308.980 221.600,308.800 221.870,308.800 222.200 M305.867 227.467 C 305.425 227.908,305.566 228.400,306.133 228.400 C 306.427 228.400,306.667 228.130,306.667 227.800 C 306.667 227.167,306.313 227.020,305.867 227.467 M304.643 229.772 C 304.509 230.307,304.108 231.035,303.752 231.391 C 303.396 231.747,303.229 232.162,303.380 232.313 C 303.698 232.631,305.220 230.757,304.971 230.353 C 304.879 230.205,305.074 229.981,305.402 229.854 C 306.156 229.565,306.186 228.800,305.443 228.800 C 305.137 228.800,304.777 229.237,304.643 229.772 M302.310 233.877 C 302.038 234.495,301.638 235.125,301.420 235.278 C 301.202 235.431,301.168 235.701,301.344 235.878 C 301.729 236.262,302.866 234.830,302.564 234.341 C 302.448 234.153,302.633 234.000,302.976 234.000 C 303.674 234.000,303.814 233.379,303.202 233.001 C 302.983 232.866,302.581 233.260,302.310 233.877 M145.900 234.289 C 146.615 234.378,147.785 234.378,148.500 234.289 C 149.215 234.201,148.630 234.128,147.200 234.128 C 145.770 234.128,145.185 234.201,145.900 234.289 M141.600 234.800 C 140.805 235.314,141.804 235.314,143.000 234.800 L 143.800 234.456 143.000 234.434 C 142.560 234.422,141.930 234.587,141.600 234.800 M151.400 234.800 C 151.840 234.989,152.470 235.144,152.800 235.144 C 153.178 235.144,153.104 235.017,152.600 234.800 C 152.160 234.611,151.530 234.456,151.200 234.456 C 150.822 234.456,150.896 234.583,151.400 234.800 M136.778 237.155 C 135.800 237.790,132.750 240.622,130.000 243.449 L 125.000 248.587 130.400 243.363 C 133.370 240.489,136.475 237.732,137.300 237.236 C 138.600 236.455,139.107 236.000,138.678 236.000 C 138.611 236.000,137.756 236.520,136.778 237.155 M155.600 236.137 C 155.600 236.223,156.365 236.798,157.300 237.414 C 159.458 238.836,161.164 240.542,162.586 242.700 C 163.914 244.715,164.287 244.916,163.355 243.112 C 162.192 240.864,155.600 234.934,155.600 236.137 M29.846 237.100 C 29.711 237.485,29.495 238.025,29.366 238.300 C 29.233 238.585,29.400 238.800,29.754 238.800 C 30.140 238.800,30.288 238.574,30.146 238.203 C 30.015 237.863,30.192 237.501,30.556 237.361 C 30.908 237.227,31.096 236.955,30.974 236.758 C 30.621 236.187,30.114 236.341,29.846 237.100 M299.281 239.218 C 298.972 239.713,298.946 240.000,299.209 240.000 C 299.438 240.000,299.732 239.722,299.862 239.383 C 300.222 238.445,299.833 238.334,299.281 239.218 M298.016 241.275 C 297.567 241.757,297.200 242.372,297.200 242.642 C 297.200 242.912,296.975 243.214,296.700 243.312 C 296.425 243.410,296.326 243.627,296.481 243.793 C 296.819 244.157,298.000 243.055,298.000 242.375 C 298.000 242.111,298.388 241.558,298.861 241.147 C 299.335 240.736,299.522 240.400,299.277 240.400 C 299.032 240.400,298.464 240.794,298.016 241.275 M27.843 241.367 C 27.976 241.715,28.261 242.000,28.476 242.000 C 29.002 242.000,28.673 241.091,28.075 240.892 C 27.782 240.794,27.693 240.977,27.843 241.367 M26.270 243.761 C 26.045 244.349,26.303 244.800,26.867 244.800 C 27.050 244.800,27.200 244.440,27.200 244.000 C 27.200 243.083,26.591 242.926,26.270 243.761 M295.600 245.000 C 295.600 245.330,295.420 245.600,295.200 245.600 C 294.980 245.600,294.800 245.960,294.800 246.400 C 294.800 246.840,294.991 247.200,295.224 247.200 C 295.457 247.200,295.545 247.035,295.420 246.832 C 295.295 246.630,295.464 246.193,295.796 245.861 C 296.485 245.172,296.593 244.400,296.000 244.400 C 295.780 244.400,295.600 244.670,295.600 245.000 M25.464 245.929 C 24.712 246.760,24.591 247.600,25.224 247.600 C 25.457 247.600,25.519 247.393,25.362 247.139 C 25.206 246.886,25.407 246.438,25.810 246.143 C 26.212 245.849,26.449 245.515,26.335 245.402 C 26.221 245.288,25.830 245.525,25.464 245.929 M139.243 251.900 L 134.173 257.000 138.786 252.542 C 141.324 250.090,143.940 247.802,144.600 247.458 C 145.474 247.002,145.598 246.828,145.057 246.816 C 144.624 246.807,142.197 248.929,139.243 251.900 M149.824 247.604 C 150.791 248.083,151.798 249.013,152.315 249.904 C 152.848 250.824,153.185 251.130,153.191 250.700 C 153.204 249.689,150.174 246.800,149.100 246.800 C 148.407 246.801,148.573 246.985,149.824 247.604 M164.856 247.200 C 164.856 247.530,165.011 248.160,165.200 248.600 C 165.417 249.104,165.544 249.178,165.544 248.800 C 165.544 248.470,165.389 247.840,165.200 247.400 C 164.983 246.896,164.856 246.822,164.856 247.200 M24.000 248.600 C 24.000 248.930,24.180 249.200,24.400 249.200 C 24.620 249.200,24.800 248.930,24.800 248.600 C 24.800 248.270,24.620 248.000,24.400 248.000 C 24.180 248.000,24.000 248.270,24.000 248.600 M293.200 248.576 C 293.200 248.919,293.020 249.200,292.800 249.200 C 292.580 249.200,292.400 249.470,292.400 249.800 C 292.400 250.130,292.220 250.400,292.000 250.400 C 291.780 250.400,291.600 250.670,291.600 251.000 C 291.600 251.330,291.420 251.600,291.200 251.600 C 290.980 251.600,290.800 251.870,290.800 252.200 C 290.800 252.530,290.620 252.800,290.400 252.800 C 290.180 252.800,290.000 253.070,290.000 253.400 C 290.000 253.730,289.820 254.000,289.600 254.000 C 289.380 254.000,289.200 254.270,289.200 254.600 C 289.200 254.930,289.020 255.200,288.800 255.200 C 288.580 255.200,288.400 255.393,288.400 255.629 C 288.400 255.864,288.130 256.327,287.800 256.657 C 287.083 257.374,287.021 258.000,287.667 258.000 C 287.923 258.000,288.019 257.886,287.880 257.747 C 287.741 257.608,288.073 257.143,288.617 256.715 C 289.162 256.286,289.522 255.798,289.418 255.629 C 289.313 255.459,289.588 254.934,290.029 254.461 C 290.470 253.987,290.689 253.594,290.516 253.587 C 290.342 253.580,290.470 253.355,290.800 253.087 C 291.806 252.270,293.980 248.435,293.577 248.186 C 293.370 248.058,293.200 248.233,293.200 248.576 M165.734 252.800 C 165.734 254.450,165.805 255.125,165.891 254.300 C 165.978 253.475,165.978 252.125,165.891 251.300 C 165.805 250.475,165.734 251.150,165.734 252.800 M153.293 252.800 C 153.293 253.570,153.375 253.885,153.476 253.500 C 153.576 253.115,153.576 252.485,153.476 252.100 C 153.375 251.715,153.293 252.030,153.293 252.800 M21.489 254.182 C 20.687 255.865,20.665 256.000,21.200 256.000 C 21.420 256.000,21.600 255.676,21.600 255.280 C 21.600 254.884,21.800 254.360,22.045 254.115 C 22.290 253.870,22.420 253.460,22.334 253.203 C 22.249 252.946,21.868 253.387,21.489 254.182 M150.965 257.811 C 150.373 258.587,149.977 259.311,150.086 259.419 C 150.194 259.528,150.762 258.893,151.347 258.008 C 152.660 256.024,152.422 255.901,150.965 257.811 M165.000 257.600 C 164.850 258.073,164.817 258.550,164.927 258.660 C 165.037 258.770,165.250 258.473,165.400 258.000 C 165.550 257.527,165.583 257.050,165.473 256.940 C 165.363 256.830,165.150 257.127,165.000 257.600 M19.357 258.588 C 19.502 259.575,20.000 259.790,20.000 258.867 C 20.000 258.390,19.836 258.000,19.635 258.000 C 19.435 258.000,19.310 258.265,19.357 258.588 M286.323 259.100 C 285.105 260.519,285.114 260.965,286.338 259.825 C 287.032 259.179,287.600 258.594,287.600 258.525 C 287.600 258.152,286.845 258.492,286.323 259.100 M163.511 261.416 C 162.912 262.617,162.500 263.600,162.594 263.600 C 162.932 263.600,164.867 260.003,164.735 259.621 C 164.661 259.408,164.110 260.215,163.511 261.416 M248.000 259.598 C 247.670 259.812,247.022 259.991,246.559 259.994 C 244.129 260.012,240.579 266.675,242.400 267.800 C 242.620 267.936,242.800 268.308,242.800 268.627 C 242.800 271.374,248.443 273.715,251.449 272.215 C 256.811 269.540,256.428 260.850,250.906 259.903 C 250.298 259.799,249.530 259.600,249.200 259.461 C 248.870 259.322,248.330 259.384,248.000 259.598 M18.704 260.800 C 18.339 261.724,18.477 262.883,18.901 262.459 C 19.102 262.258,19.194 261.667,19.104 261.146 C 18.987 260.469,18.873 260.371,18.704 260.800 M149.693 261.600 C 149.693 262.370,149.775 262.685,149.876 262.300 C 149.976 261.915,149.976 261.285,149.876 260.900 C 149.775 260.515,149.693 260.830,149.693 261.600 M252.558 261.700 C 257.217 265.760,253.536 272.978,247.394 271.825 C 243.109 271.021,241.578 265.222,244.800 262.000 C 247.021 259.779,250.212 259.655,252.558 261.700 M284.072 262.203 C 283.592 262.755,283.206 263.430,283.213 263.703 C 283.225 264.202,284.125 263.208,284.843 261.900 C 285.385 260.915,285.092 261.030,284.072 262.203 M150.001 263.869 C 149.997 265.210,153.469 268.022,155.080 267.982 C 155.476 267.973,155.123 267.723,154.296 267.428 C 152.461 266.773,151.692 266.162,150.737 264.600 C 150.333 263.940,150.002 263.611,150.001 263.869 M160.581 265.700 L 159.000 267.400 160.700 265.819 C 162.281 264.348,162.584 264.000,162.281 264.000 C 162.216 264.000,161.451 264.765,160.581 265.700 M281.992 265.010 C 281.714 265.345,281.597 265.731,281.734 265.867 C 281.870 266.003,282.094 265.820,282.232 265.460 C 282.371 265.099,282.673 264.921,282.904 265.064 C 283.149 265.216,283.205 265.131,283.038 264.862 C 282.671 264.268,282.599 264.278,281.992 265.010 M280.589 266.915 C 280.363 267.182,279.742 268.030,279.208 268.800 C 278.675 269.570,277.914 270.491,277.519 270.847 C 276.501 271.763,276.562 272.555,277.600 271.907 C 278.040 271.632,278.400 271.226,278.401 271.004 C 278.401 270.782,278.951 269.970,279.622 269.200 C 281.048 267.565,281.759 266.394,281.314 266.415 C 281.141 266.424,280.815 266.649,280.589 266.915 M18.406 270.076 C 18.409 270.584,18.587 271.270,18.800 271.600 C 19.095 272.057,19.189 271.895,19.194 270.924 C 19.197 270.222,19.020 269.536,18.800 269.400 C 18.577 269.262,18.403 269.561,18.406 270.076 M19.200 273.376 C 19.200 273.693,19.380 274.064,19.600 274.200 C 19.820 274.336,20.000 274.077,20.000 273.624 C 20.000 273.171,19.820 272.800,19.600 272.800 C 19.380 272.800,19.200 273.059,19.200 273.376 M274.460 274.651 C 273.943 275.202,273.617 275.750,273.736 275.869 C 273.952 276.085,276.000 274.230,276.000 273.818 C 276.000 273.347,275.356 273.695,274.460 274.651 M20.000 275.357 C 20.000 275.664,20.281 276.022,20.625 276.154 C 20.969 276.286,21.138 276.577,21.000 276.800 C 20.700 277.285,21.919 278.614,22.307 278.226 C 22.456 278.078,22.388 277.831,22.156 277.678 C 21.925 277.525,21.481 276.815,21.170 276.100 C 20.585 274.755,20.000 274.384,20.000 275.357 M272.335 277.576 C 271.338 278.665,271.257 279.200,272.090 279.200 C 272.287 279.200,272.336 279.020,272.200 278.800 C 272.064 278.580,272.098 278.394,272.276 278.387 C 272.454 278.381,272.923 277.931,273.319 277.387 C 274.308 276.028,273.636 276.157,272.335 277.576 M23.200 280.467 C 23.200 280.723,23.309 280.824,23.442 280.691 C 23.575 280.558,24.414 281.293,25.306 282.324 C 27.059 284.353,27.988 285.167,28.572 285.187 C 28.776 285.194,27.756 284.030,26.304 282.600 C 23.596 279.931,23.200 279.659,23.200 280.467 M224.200 282.195 C 219.125 284.578,218.576 290.692,223.163 293.728 C 226.083 295.660,229.580 295.009,231.992 292.084 C 236.108 287.089,230.077 279.435,224.200 282.195 M268.006 282.994 C 266.148 284.911,266.630 285.035,268.548 283.134 C 269.400 282.290,269.930 281.600,269.727 281.600 C 269.523 281.600,268.749 282.227,268.006 282.994 M229.333 282.998 C 232.209 284.200,233.487 287.885,232.023 290.755 C 229.341 296.012,221.597 294.762,220.963 288.970 C 220.446 284.242,224.827 281.115,229.333 282.998 M29.900 286.806 C 30.615 287.457,31.200 288.165,31.200 288.380 C 31.200 288.770,32.465 289.600,33.059 289.600 C 33.230 289.600,32.483 288.700,31.400 287.600 C 30.317 286.500,29.243 285.605,29.015 285.612 C 28.787 285.618,29.185 286.156,29.900 286.806 M263.800 287.753 C 263.360 288.219,262.776 289.140,262.503 289.800 L 262.006 291.000 262.703 290.020 C 263.086 289.481,263.803 288.636,264.297 288.141 C 264.790 287.647,265.060 287.167,264.897 287.074 C 264.733 286.981,264.240 287.287,263.800 287.753 M34.030 291.043 C 37.357 294.621,43.674 300.800,44.006 300.800 C 44.223 300.800,44.409 301.025,44.421 301.300 C 44.432 301.575,45.171 302.385,46.064 303.100 C 46.956 303.815,47.597 304.400,47.487 304.400 C 47.377 304.400,50.087 307.190,53.509 310.601 C 56.931 314.011,59.814 316.720,59.914 316.619 C 60.138 316.396,33.824 290.000,33.378 290.000 C 33.203 290.000,33.497 290.469,34.030 291.043 M260.060 292.268 C 259.319 293.069,259.809 293.448,260.584 292.673 C 260.926 292.331,261.070 291.968,260.903 291.867 C 260.736 291.767,260.357 291.947,260.060 292.268 M258.460 293.868 C 257.719 294.669,258.209 295.048,258.984 294.273 C 259.326 293.931,259.470 293.568,259.303 293.467 C 259.136 293.367,258.757 293.547,258.460 293.868 M256.700 295.687 C 255.760 296.863,255.801 297.551,256.747 296.461 C 257.158 295.988,257.708 295.600,257.971 295.600 C 258.233 295.600,258.336 295.420,258.200 295.200 C 257.830 294.602,257.475 294.717,256.700 295.687 M250.896 302.395 C 250.171 303.555,250.289 303.711,251.200 302.800 C 252.048 301.952,252.193 301.600,251.696 301.600 C 251.529 301.600,251.169 301.958,250.896 302.395 M201.800 304.398 C 197.536 306.523,196.779 311.600,200.214 315.035 C 205.492 320.313,213.978 313.652,210.304 307.115 C 208.543 303.981,204.944 302.831,201.800 304.398 M208.647 306.046 C 213.506 310.755,207.978 318.650,201.968 315.584 C 197.280 313.192,197.954 306.063,203.000 304.673 C 204.821 304.171,207.347 304.785,208.647 306.046 M245.987 307.212 C 245.274 307.878,244.800 308.533,244.933 308.667 C 245.146 308.879,247.600 306.571,247.600 306.158 C 247.600 305.810,247.227 306.054,245.987 307.212 M60.800 317.772 C 60.800 318.097,67.360 324.373,67.527 324.207 C 67.735 323.999,61.511 317.601,61.100 317.600 C 60.935 317.600,60.800 317.677,60.800 317.772 M227.476 324.174 C 227.019 324.521,226.908 324.820,227.176 324.985 C 227.409 325.129,227.600 325.046,227.600 324.800 C 227.600 324.554,227.761 324.452,227.958 324.574 C 228.155 324.696,228.419 324.526,228.546 324.198 C 228.829 323.460,228.430 323.451,227.476 324.174 M68.685 325.448 C 68.446 325.688,76.413 333.600,76.894 333.600 C 77.088 333.600,77.136 333.780,77.000 334.000 C 76.864 334.220,77.067 334.400,77.450 334.400 C 77.917 334.400,77.359 333.641,75.760 332.100 C 74.448 330.835,72.362 328.778,71.125 327.529 C 69.887 326.280,68.790 325.344,68.685 325.448 M225.300 326.210 C 224.805 326.739,224.400 327.282,224.400 327.416 C 224.400 327.761,226.751 325.866,226.778 325.500 C 226.819 324.947,226.208 325.241,225.300 326.210 M222.400 328.733 C 222.400 328.990,222.207 329.200,221.971 329.200 C 221.404 329.200,220.376 330.243,220.662 330.529 C 220.785 330.652,221.353 330.320,221.924 329.790 C 222.494 329.261,222.835 328.702,222.681 328.547 C 222.526 328.393,222.400 328.477,222.400 328.733 M79.868 336.777 C 80.565 337.412,81.030 338.037,80.901 338.166 C 80.772 338.295,80.977 338.400,81.357 338.400 C 81.737 338.400,81.948 338.561,81.826 338.758 C 81.630 339.075,82.435 339.600,83.118 339.600 C 83.256 339.600,82.483 338.700,81.400 337.600 C 80.317 336.500,79.243 335.605,79.015 335.612 C 78.787 335.618,79.170 336.143,79.868 336.777 M213.030 336.452 C 212.607 336.863,212.449 337.200,212.681 337.200 C 213.143 337.200,214.209 336.065,213.957 335.842 C 213.871 335.766,213.454 336.040,213.030 336.452 M209.199 339.201 C 208.881 339.642,208.296 340.106,207.898 340.232 C 207.500 340.359,206.738 340.898,206.205 341.431 C 205.672 341.964,205.012 342.400,204.738 342.400 C 204.346 342.400,204.348 342.506,204.748 342.900 C 205.156 343.301,205.402 343.222,205.993 342.500 C 206.397 342.005,206.935 341.600,207.188 341.600 C 207.440 341.600,207.536 341.420,207.400 341.200 C 207.264 340.980,207.388 340.800,207.676 340.800 C 208.228 340.799,210.400 339.087,210.400 338.653 C 210.400 338.133,209.757 338.427,209.199 339.201 M84.400 341.122 C 84.400 341.621,93.610 350.870,93.958 350.720 C 94.113 350.654,92.025 348.386,89.319 345.679 C 86.614 342.973,84.400 340.922,84.400 341.122 M202.400 344.400 C 202.400 344.620,202.670 344.800,203.000 344.800 C 203.330 344.800,203.600 344.620,203.600 344.400 C 203.600 344.180,203.330 344.000,203.000 344.000 C 202.670 344.000,202.400 344.180,202.400 344.400 M199.906 346.152 C 199.525 346.442,199.319 346.786,199.449 346.916 C 199.729 347.196,201.200 346.345,201.200 345.904 C 201.200 345.457,200.694 345.554,199.906 346.152 M197.660 347.842 C 197.362 348.178,197.199 348.532,197.295 348.629 C 197.392 348.726,197.798 348.444,198.198 348.002 C 198.597 347.561,198.761 347.207,198.562 347.215 C 198.363 347.224,197.957 347.505,197.660 347.842 M195.030 349.652 C 194.393 350.271,194.369 350.400,194.887 350.400 C 195.232 350.400,195.628 350.104,195.767 349.743 C 196.123 348.814,195.918 348.789,195.030 349.652 M192.900 350.998 C 192.157 351.842,192.294 352.073,193.200 351.507 C 193.640 351.232,194.000 350.871,194.000 350.704 C 194.000 350.227,193.449 350.375,192.900 350.998 M96.818 353.834 C 100.698 357.793,100.928 358.006,101.113 357.820 C 101.343 357.590,95.053 351.200,94.596 351.200 C 94.398 351.200,95.398 352.385,96.818 353.834 M190.576 352.587 C 190.089 352.956,189.997 353.179,190.329 353.187 C 190.619 353.194,191.127 352.930,191.457 352.600 C 192.228 351.829,191.591 351.820,190.576 352.587 M185.600 355.800 C 185.326 356.130,184.882 356.400,184.613 356.400 C 184.344 356.400,183.798 356.760,183.400 357.200 C 182.514 358.179,182.868 358.226,184.314 357.320 C 185.662 356.476,186.957 355.200,186.465 355.200 C 186.263 355.200,185.874 355.470,185.600 355.800 M101.465 358.268 C 101.357 358.377,103.181 360.333,105.519 362.615 C 107.857 364.897,109.844 366.690,109.934 366.599 C 110.025 366.509,108.201 364.553,105.881 362.252 C 103.561 359.952,101.574 358.159,101.465 358.268 M181.600 358.376 C 181.600 358.609,181.330 358.800,181.000 358.800 C 180.670 358.800,180.400 358.980,180.400 359.200 C 180.400 359.783,181.168 359.689,181.832 359.026 C 182.191 358.666,182.255 358.358,182.003 358.202 C 181.781 358.065,181.600 358.143,181.600 358.376 M177.600 360.800 C 177.600 361.020,177.319 361.200,176.976 361.200 C 176.633 361.200,176.462 361.376,176.595 361.592 C 176.747 361.839,177.127 361.803,177.619 361.496 C 178.456 360.973,178.655 360.400,178.000 360.400 C 177.780 360.400,177.600 360.580,177.600 360.800 M173.600 363.200 C 173.600 363.420,173.330 363.600,173.000 363.600 C 172.670 363.600,172.400 363.780,172.400 364.000 C 172.400 364.539,172.856 364.484,173.700 363.843 C 174.479 363.252,174.609 362.800,174.000 362.800 C 173.780 362.800,173.600 362.980,173.600 363.200 M110.800 367.778 C 110.800 368.111,115.748 372.800,116.098 372.800 C 116.290 372.800,116.336 372.980,116.200 373.200 C 116.064 373.420,116.143 373.600,116.376 373.600 C 117.170 373.600,116.801 373.073,114.100 370.343 C 111.693 367.910,110.800 367.216,110.800 367.778 M157.684 372.215 C 157.258 372.698,157.275 372.800,157.784 372.800 C 158.123 372.800,158.400 372.633,158.400 372.429 C 158.400 372.225,158.715 371.976,159.100 371.876 C 159.685 371.723,159.668 371.688,159.000 371.662 C 158.560 371.644,157.968 371.894,157.684 372.215 M118.400 375.429 C 118.400 375.676,119.000 376.283,120.102 377.149 C 121.127 377.955,120.977 376.996,119.925 376.016 C 119.074 375.223,118.400 374.964,118.400 375.429 M121.600 377.829 C 121.600 378.482,122.885 379.249,123.510 378.968 C 124.108 378.700,124.080 378.638,123.300 378.502 C 122.805 378.415,122.400 378.177,122.400 377.972 C 122.400 377.767,122.220 377.600,122.000 377.600 C 121.780 377.600,121.600 377.703,121.600 377.829 M145.920 378.080 C 146.293 378.453,146.507 378.453,146.880 378.080 C 147.253 377.707,147.147 377.600,146.400 377.600 C 145.653 377.600,145.547 377.707,145.920 378.080 M144.200 378.800 C 144.336 379.020,144.707 379.200,145.024 379.200 C 145.341 379.200,145.600 379.020,145.600 378.800 C 145.600 378.580,145.229 378.400,144.776 378.400 C 144.323 378.400,144.064 378.580,144.200 378.800 M124.000 379.600 C 124.000 379.820,124.349 380.000,124.776 380.000 C 125.203 380.000,125.664 380.180,125.800 380.400 C 125.936 380.620,126.307 380.800,126.624 380.800 C 126.941 380.800,127.200 380.620,127.200 380.400 C 127.200 380.180,126.840 380.000,126.400 380.000 C 125.960 380.000,125.600 379.820,125.600 379.600 C 125.600 379.380,125.240 379.200,124.800 379.200 C 124.360 379.200,124.000 379.380,124.000 379.600 M142.400 379.600 C 142.400 379.820,142.040 380.000,141.600 380.000 C 141.160 380.000,140.800 380.180,140.800 380.400 C 140.800 381.006,141.443 380.884,142.890 380.001 C 144.050 379.294,144.097 379.203,143.300 379.201 C 142.805 379.201,142.400 379.380,142.400 379.600 M128.200 381.200 C 128.336 381.420,128.887 381.600,129.424 381.600 C 129.961 381.600,130.400 381.420,130.400 381.200 C 130.400 380.980,129.849 380.800,129.176 380.800 C 128.463 380.800,128.056 380.967,128.200 381.200 M137.396 381.194 C 137.678 381.650,139.600 381.579,139.600 381.113 C 139.600 380.941,139.049 380.800,138.376 380.800 C 137.675 380.800,137.257 380.968,137.396 381.194 " stroke="none" fill="#84d3f3" fill-rule="evenodd"></path><path id="path3" d="M182.299 182.234 C 167.924 196.539,164.865 199.770,165.173 200.324 C 165.731 201.332,199.758 235.200,200.211 235.199 C 201.097 235.196,235.685 200.080,235.342 199.530 C 234.727 198.544,200.537 164.800,200.164 164.810 C 199.964 164.815,191.925 172.656,182.299 182.234 M102.964 261.650 C 93.414 271.187,85.600 279.140,85.600 279.324 C 85.600 279.773,120.202 314.400,120.651 314.400 C 120.845 314.400,128.879 306.523,138.505 296.895 L 156.007 279.390 138.600 261.995 C 129.027 252.428,120.999 244.535,120.761 244.455 C 120.523 244.375,112.514 252.113,102.964 261.650 " stroke="none" fill="#ef9528" fill-rule="evenodd"></path><path id="path4" d="M233.600 99.400 C 234.346 100.170,235.047 100.800,235.157 100.800 C 235.267 100.800,234.746 100.170,234.000 99.400 C 233.254 98.630,232.553 98.000,232.443 98.000 C 232.333 98.000,232.854 98.630,233.600 99.400 M129.910 190.700 C 127.722 192.845,125.773 194.891,125.580 195.248 C 125.294 195.773,190.667 261.945,203.151 273.767 L 204.384 274.934 208.792 270.590 C 211.216 268.201,213.200 266.055,213.200 265.822 C 213.200 265.313,134.752 186.800,134.243 186.800 C 134.048 186.800,132.098 188.555,129.910 190.700 M102.863 261.270 L 85.525 278.520 74.860 267.860 C 63.040 256.046,63.769 256.550,61.906 258.900 C 56.891 265.229,56.538 274.209,61.039 281.000 C 62.690 283.491,117.206 337.948,119.401 339.299 C 124.466 342.417,131.899 342.966,137.200 340.613 C 139.664 339.520,170.400 309.945,170.400 308.668 C 170.400 308.316,169.857 308.374,165.600 309.186 C 158.156 310.606,148.376 310.971,141.600 310.083 C 139.510 309.809,136.990 309.480,136.000 309.351 C 135.010 309.223,134.029 308.956,133.820 308.759 C 133.611 308.562,133.002 308.400,132.466 308.400 C 131.931 308.400,130.837 308.204,130.036 307.964 L 128.579 307.527 142.490 293.624 C 150.140 285.977,156.400 279.570,156.400 279.385 C 156.400 279.081,140.824 263.581,136.125 259.209 C 135.066 258.223,139.107 262.361,145.104 268.403 L 156.008 279.389 138.505 296.895 C 128.879 306.523,120.845 314.400,120.651 314.400 C 120.202 314.400,85.600 279.773,85.600 279.324 C 85.600 278.866,120.146 244.400,120.605 244.400 C 120.807 244.400,121.834 245.248,122.886 246.285 C 123.939 247.322,124.800 248.046,124.800 247.895 C 124.800 247.407,121.195 244.000,120.689 244.010 C 120.420 244.016,112.398 251.782,102.863 261.270 " stroke="none" fill="#2c74bc" fill-rule="evenodd"></path></g></svg>