<svg id="svg" version="1.1" xmlns="http://www.w3.org/2000/svg" xmlns:xlink="http://www.w3.org/1999/xlink" width="400" height="400" viewBox="0, 0, 400,400"><g id="svgg"><path id="path0" d="M60.400 146.773 C 60.400 147.090,57.803 149.730,45.559 161.858 C 41.423 165.955,34.000 173.658,34.000 173.853 C 34.000 173.974,35.890 175.943,38.200 178.228 C 40.510 180.513,42.400 182.566,42.400 182.791 C 42.400 183.016,42.670 183.200,43.000 183.200 C 43.330 183.200,43.600 183.376,43.600 183.591 C 43.600 183.807,44.590 184.973,45.800 186.183 C 47.858 188.240,48.780 190.400,47.600 190.400 C 47.380 190.400,47.200 190.745,47.200 191.167 C 47.200 191.588,47.050 191.993,46.867 192.067 C 46.395 192.256,44.000 196.732,44.000 197.425 C 44.000 197.741,43.820 198.000,43.600 198.000 C 43.380 198.000,43.200 198.349,43.200 198.776 C 43.200 199.203,43.015 199.667,42.789 199.807 C 42.564 199.946,42.412 200.272,42.452 200.530 C 42.532 201.035,42.168 202.176,41.571 203.295 C 41.367 203.677,41.200 204.442,41.200 204.995 C 41.200 205.548,41.020 206.000,40.800 206.000 C 40.580 206.000,40.400 206.540,40.400 207.200 C 40.400 207.860,40.220 208.400,40.000 208.400 C 39.780 208.400,39.600 209.101,39.600 209.957 C 39.600 212.047,39.861 212.000,28.367 212.000 L 18.400 212.000 18.400 231.200 L 18.400 250.400 28.429 250.400 C 39.421 250.400,39.600 250.438,39.600 252.748 C 39.600 253.411,39.780 254.064,40.000 254.200 C 40.220 254.336,40.400 254.876,40.400 255.400 C 40.400 255.924,40.580 256.464,40.800 256.600 C 41.020 256.736,41.200 257.199,41.200 257.629 C 41.200 258.059,41.369 258.723,41.576 259.105 C 42.000 259.890,42.565 262.045,42.466 262.500 C 42.430 262.665,42.580 262.800,42.800 262.800 C 43.020 262.800,43.200 263.160,43.200 263.600 C 43.200 264.040,43.380 264.400,43.600 264.400 C 43.820 264.400,44.006 264.715,44.013 265.100 C 44.028 265.974,46.894 271.759,47.629 272.400 C 48.388 273.062,48.293 274.072,47.394 274.899 C 46.855 275.394,45.286 276.939,43.907 278.331 C 32.732 289.614,33.304 288.816,35.258 290.400 C 35.936 290.950,37.956 292.903,39.746 294.740 C 47.716 302.920,55.377 310.400,55.786 310.400 C 55.904 310.400,56.000 309.797,56.000 309.060 C 56.000 306.395,59.169 300.542,60.849 300.103 C 61.262 299.995,61.600 299.767,61.600 299.597 C 61.600 299.206,64.495 298.005,66.600 297.523 C 69.214 296.924,71.685 296.386,73.600 296.000 C 74.590 295.800,76.300 295.441,77.400 295.202 C 78.500 294.964,80.480 294.592,81.800 294.378 C 83.953 294.028,87.139 293.381,91.800 292.349 C 92.680 292.155,94.300 291.808,95.400 291.580 C 96.500 291.352,98.120 291.001,99.000 290.800 C 99.880 290.599,101.590 290.231,102.800 289.982 C 106.264 289.270,108.900 288.698,113.700 287.617 C 114.635 287.407,116.390 287.031,117.600 286.782 C 121.064 286.070,123.700 285.498,128.500 284.417 C 129.435 284.207,131.190 283.831,132.400 283.582 C 135.782 282.886,140.550 281.855,142.800 281.332 C 143.772 281.106,149.200 271.084,149.200 269.516 C 149.200 267.672,144.515 264.731,143.599 266.001 C 143.283 266.440,142.793 266.800,142.512 266.800 C 142.230 266.800,142.000 266.980,142.000 267.200 C 142.000 267.420,141.680 267.600,141.288 267.600 C 140.897 267.600,140.317 267.960,140.000 268.400 C 139.683 268.840,139.103 269.200,138.712 269.200 C 138.320 269.200,138.000 269.380,138.000 269.600 C 138.000 269.820,137.640 270.000,137.200 270.000 C 136.760 270.000,136.400 270.180,136.400 270.400 C 136.400 270.620,135.860 270.800,135.200 270.800 C 134.540 270.800,134.000 270.980,134.000 271.200 C 134.000 271.420,133.640 271.600,133.200 271.600 C 132.760 271.600,132.400 271.780,132.400 272.000 C 132.400 272.220,131.770 272.400,131.000 272.400 C 130.230 272.400,129.600 272.580,129.600 272.800 C 129.600 273.020,128.880 273.200,128.000 273.200 C 127.120 273.200,126.400 273.380,126.400 273.600 C 126.400 273.853,123.600 274.000,118.800 274.000 C 114.000 274.000,111.200 273.853,111.200 273.600 C 111.200 273.380,110.480 273.200,109.600 273.200 C 108.720 273.200,108.000 273.020,108.000 272.800 C 108.000 272.580,107.370 272.400,106.600 272.400 C 105.830 272.400,105.200 272.220,105.200 272.000 C 105.200 271.780,104.851 271.600,104.424 271.600 C 103.997 271.600,103.536 271.420,103.400 271.200 C 103.264 270.980,102.713 270.800,102.176 270.800 C 101.639 270.800,101.200 270.620,101.200 270.400 C 101.200 270.180,100.840 270.000,100.400 270.000 C 99.960 270.000,99.600 269.820,99.600 269.600 C 99.600 269.380,99.280 269.200,98.888 269.200 C 98.497 269.200,97.917 268.840,97.600 268.400 C 97.283 267.960,96.703 267.600,96.312 267.600 C 95.920 267.600,95.600 267.450,95.600 267.268 C 95.600 267.085,95.105 266.680,94.500 266.368 C 93.895 266.055,92.923 265.305,92.340 264.700 C 91.756 264.095,91.175 263.600,91.049 263.600 C 90.700 263.600,86.400 259.365,86.400 259.021 C 86.400 258.856,85.905 258.244,85.300 257.660 C 84.695 257.077,83.945 256.105,83.632 255.500 C 83.320 254.895,82.915 254.400,82.732 254.400 C 82.550 254.400,82.400 254.080,82.400 253.688 C 82.400 253.297,82.040 252.717,81.600 252.400 C 81.160 252.083,80.800 251.503,80.800 251.112 C 80.800 250.720,80.620 250.400,80.400 250.400 C 80.180 250.400,80.000 250.040,80.000 249.600 C 80.000 249.160,79.820 248.800,79.600 248.800 C 79.380 248.800,79.200 248.361,79.200 247.824 C 79.200 247.287,79.020 246.736,78.800 246.600 C 78.580 246.464,78.400 246.003,78.400 245.576 C 78.400 245.149,78.220 244.800,78.000 244.800 C 77.780 244.800,77.600 244.170,77.600 243.400 C 77.600 242.630,77.420 242.000,77.200 242.000 C 76.980 242.000,76.800 241.295,76.800 240.433 C 76.800 239.572,76.618 238.806,76.396 238.732 C 75.839 238.546,75.828 224.012,76.384 223.456 C 76.613 223.227,76.800 222.356,76.800 221.520 C 76.800 220.684,76.980 220.000,77.200 220.000 C 77.420 220.000,77.600 219.460,77.600 218.800 C 77.600 218.140,77.780 217.600,78.000 217.600 C 78.220 217.600,78.400 217.251,78.400 216.824 C 78.400 216.397,78.580 215.936,78.800 215.800 C 79.020 215.664,79.200 215.113,79.200 214.576 C 79.200 214.039,79.380 213.600,79.600 213.600 C 79.820 213.600,80.000 213.240,80.000 212.800 C 80.000 212.360,80.180 212.000,80.400 212.000 C 80.620 212.000,80.800 211.655,80.800 211.233 C 80.800 210.812,80.967 210.407,81.170 210.333 C 81.374 210.260,81.599 209.930,81.670 209.600 C 81.742 209.270,82.115 208.765,82.500 208.477 C 82.885 208.190,83.200 207.757,83.200 207.515 C 83.200 207.273,83.920 206.369,84.800 205.507 C 85.680 204.644,86.400 203.768,86.400 203.561 C 86.400 203.147,90.629 198.800,91.031 198.800 C 91.167 198.800,91.783 198.260,92.400 197.600 C 93.017 196.940,93.769 196.400,94.072 196.400 C 94.375 196.400,94.883 196.040,95.200 195.600 C 95.517 195.160,96.057 194.800,96.400 194.800 C 96.743 194.800,97.283 194.440,97.600 194.000 C 97.917 193.560,98.478 193.200,98.846 193.200 C 99.966 193.200,100.000 192.580,99.994 172.067 C 99.988 153.548,99.776 149.429,98.936 151.500 C 98.825 151.775,98.118 152.000,97.367 152.000 C 96.615 152.000,96.000 152.180,96.000 152.400 C 96.000 152.620,95.471 152.800,94.824 152.800 C 94.177 152.800,93.536 152.980,93.400 153.200 C 93.264 153.420,92.713 153.600,92.176 153.600 C 91.639 153.600,91.200 153.780,91.200 154.000 C 91.200 154.220,90.840 154.400,90.400 154.400 C 89.960 154.400,89.600 154.580,89.600 154.800 C 89.600 155.020,89.060 155.200,88.400 155.200 C 87.740 155.200,87.200 155.380,87.200 155.600 C 87.200 155.820,86.840 156.000,86.400 156.000 C 85.960 156.000,85.600 156.180,85.600 156.400 C 85.600 156.620,85.060 156.800,84.400 156.800 C 83.740 156.800,83.200 156.980,83.200 157.200 C 83.200 157.420,82.840 157.600,82.400 157.600 C 81.960 157.600,81.600 157.780,81.600 158.000 C 81.600 158.220,81.330 158.400,81.000 158.400 C 80.670 158.400,80.400 158.559,80.400 158.753 C 80.400 159.097,78.904 159.730,78.300 159.643 C 78.135 159.619,78.000 159.780,78.000 160.000 C 78.000 160.220,77.640 160.400,77.200 160.400 C 76.760 160.400,76.400 160.587,76.400 160.816 C 76.400 161.045,73.075 157.895,69.011 153.816 C 62.424 147.205,60.400 145.550,60.400 146.773 M171.449 150.916 C 168.136 154.613,168.029 166.909,171.200 179.600 C 171.447 180.590,171.749 181.897,171.871 182.505 C 171.993 183.113,172.251 183.708,172.446 183.829 C 172.641 183.949,172.800 184.399,172.800 184.829 C 172.800 185.259,172.959 185.923,173.153 186.305 C 173.348 186.687,173.697 187.450,173.930 188.000 C 181.263 205.316,193.024 217.512,209.680 225.075 C 212.253 226.244,214.718 227.200,215.156 227.200 C 215.594 227.200,216.064 227.380,216.200 227.600 C 216.336 227.820,217.067 228.000,217.824 228.000 L 219.200 228.000 219.200 220.000 L 219.200 212.000 209.080 212.000 C 198.048 212.000,198.000 211.990,198.000 209.720 C 198.000 208.994,197.820 208.400,197.600 208.400 C 197.380 208.400,197.200 207.860,197.200 207.200 C 197.200 206.540,197.020 206.000,196.800 206.000 C 196.580 206.000,196.400 205.460,196.400 204.800 C 196.400 204.140,196.220 203.600,196.000 203.600 C 195.780 203.600,195.600 203.161,195.600 202.624 C 195.600 202.087,195.420 201.536,195.200 201.400 C 194.980 201.264,194.800 200.803,194.800 200.376 C 194.800 199.949,194.620 199.600,194.400 199.600 C 194.180 199.600,194.000 199.240,194.000 198.800 C 194.000 198.360,193.820 198.000,193.600 198.000 C 193.380 198.000,193.200 197.668,193.200 197.263 C 193.200 196.451,190.406 190.680,189.910 190.467 C 189.276 190.194,189.630 188.339,190.500 187.374 C 190.995 186.826,193.425 184.314,195.900 181.793 C 198.375 179.271,200.400 176.981,200.400 176.702 C 200.400 175.972,173.912 149.597,173.198 149.616 C 172.869 149.624,172.082 150.209,171.449 150.916 M146.400 306.435 C 143.327 306.709,141.228 307.151,137.267 308.357 C 122.922 312.727,112.048 328.835,112.427 345.153 C 112.486 347.709,112.391 350.127,112.214 350.527 C 112.023 350.960,112.077 351.437,112.347 351.707 C 112.596 351.956,112.800 352.743,112.800 353.456 C 112.800 354.169,112.980 354.864,113.200 355.000 C 113.420 355.136,113.600 355.687,113.600 356.224 C 113.600 356.761,113.780 357.200,114.000 357.200 C 114.220 357.200,114.400 357.472,114.400 357.805 C 114.400 358.138,114.560 358.723,114.756 359.105 C 114.952 359.487,115.520 360.655,116.019 361.700 C 116.518 362.745,117.077 363.600,117.263 363.600 C 117.448 363.600,117.600 363.920,117.600 364.312 C 117.600 364.703,117.960 365.283,118.400 365.600 C 118.840 365.917,119.200 366.390,119.200 366.652 C 119.200 367.313,125.516 373.673,127.100 374.607 C 127.815 375.028,128.400 375.514,128.400 375.686 C 128.400 375.859,128.760 376.000,129.200 376.000 C 129.640 376.000,130.000 376.180,130.000 376.400 C 130.000 376.620,130.270 376.800,130.600 376.800 C 130.930 376.800,131.200 376.980,131.200 377.200 C 131.200 377.420,131.560 377.600,132.000 377.600 C 132.440 377.600,132.800 377.780,132.800 378.000 C 132.800 378.220,133.149 378.400,133.576 378.400 C 134.003 378.400,134.464 378.580,134.600 378.800 C 134.736 379.020,135.197 379.200,135.624 379.200 C 136.051 379.200,136.400 379.380,136.400 379.600 C 136.400 379.820,136.940 380.000,137.600 380.000 C 138.260 380.000,138.800 380.180,138.800 380.400 C 138.800 380.620,139.520 380.800,140.400 380.800 C 141.280 380.800,142.000 380.980,142.000 381.200 C 142.000 381.453,144.933 381.600,150.000 381.600 C 155.067 381.600,158.000 381.453,158.000 381.200 C 158.000 380.980,158.720 380.800,159.600 380.800 C 160.480 380.800,161.200 380.620,161.200 380.400 C 161.200 380.180,161.740 380.000,162.400 380.000 C 163.060 380.000,163.600 379.820,163.600 379.600 C 163.600 379.380,163.872 379.200,164.205 379.200 C 164.538 379.200,165.123 379.032,165.505 378.826 C 165.887 378.621,166.785 378.217,167.500 377.929 C 168.215 377.640,168.800 377.269,168.800 377.102 C 168.800 376.936,169.070 376.800,169.400 376.800 C 169.730 376.800,170.000 376.620,170.000 376.400 C 170.000 376.180,170.360 376.000,170.800 376.000 C 171.240 376.000,171.600 375.859,171.600 375.686 C 171.600 375.514,172.185 375.034,172.900 374.621 C 174.435 373.734,180.800 367.300,180.800 366.636 C 180.800 366.383,181.160 365.917,181.600 365.600 C 182.040 365.283,182.400 364.703,182.400 364.312 C 182.400 363.920,182.561 363.600,182.758 363.600 C 183.192 363.600,185.600 358.706,185.600 357.825 C 185.600 357.481,185.780 357.200,186.000 357.200 C 186.220 357.200,186.400 356.761,186.400 356.224 C 186.400 355.687,186.580 355.136,186.800 355.000 C 187.020 354.864,187.200 354.169,187.200 353.456 C 187.200 352.743,187.404 351.956,187.653 351.707 C 187.917 351.443,187.977 350.950,187.797 350.527 C 187.627 350.127,187.528 347.633,187.577 344.985 C 187.942 325.450,172.884 307.874,154.677 306.582 C 152.874 306.455,151.040 306.301,150.600 306.241 C 150.160 306.181,148.270 306.268,146.400 306.435 M306.600 306.661 C 302.205 307.333,297.778 309.022,292.000 312.233 C 286.275 315.413,279.133 324.733,276.754 332.125 C 274.543 338.996,274.166 350.780,275.997 355.800 C 277.290 359.345,279.294 363.600,279.671 363.600 C 279.852 363.600,280.000 363.920,280.000 364.312 C 280.000 364.703,280.360 365.283,280.800 365.600 C 281.240 365.917,281.600 366.403,281.600 366.679 C 281.600 367.448,288.586 374.214,289.974 374.789 C 290.648 375.069,291.200 375.455,291.200 375.649 C 291.200 375.842,291.470 376.000,291.800 376.000 C 292.130 376.000,292.400 376.180,292.400 376.400 C 292.400 376.620,292.670 376.800,293.000 376.800 C 293.330 376.800,293.600 376.980,293.600 377.200 C 293.600 377.420,293.865 377.600,294.188 377.600 C 294.511 377.600,295.417 377.960,296.200 378.400 C 296.983 378.840,297.889 379.200,298.212 379.200 C 298.535 379.200,298.800 379.380,298.800 379.600 C 298.800 379.820,299.340 380.000,300.000 380.000 C 300.660 380.000,301.200 380.180,301.200 380.400 C 301.200 380.620,301.920 380.800,302.800 380.800 C 303.680 380.800,304.400 380.980,304.400 381.200 C 304.400 381.453,307.325 381.600,312.376 381.600 C 317.263 381.600,320.449 381.445,320.600 381.200 C 320.736 380.980,321.467 380.800,322.224 380.800 C 322.981 380.800,323.600 380.620,323.600 380.400 C 323.600 380.180,324.140 380.000,324.800 380.000 C 325.460 380.000,326.000 379.820,326.000 379.600 C 326.000 379.380,326.349 379.200,326.776 379.200 C 327.203 379.200,327.664 379.020,327.800 378.800 C 327.936 378.580,328.487 378.400,329.024 378.400 C 329.561 378.400,330.000 378.220,330.000 378.000 C 330.000 377.780,330.236 377.600,330.525 377.600 C 330.813 377.600,331.436 377.240,331.908 376.800 C 332.380 376.360,333.044 376.000,333.383 376.000 C 333.722 376.000,334.000 375.861,334.000 375.691 C 334.000 375.521,334.608 375.055,335.351 374.654 C 337.474 373.511,343.200 367.690,343.200 366.675 C 343.200 366.401,343.560 365.917,344.000 365.600 C 344.440 365.283,344.800 364.703,344.800 364.312 C 344.800 363.920,344.950 363.600,345.133 363.600 C 345.595 363.600,348.000 358.856,348.000 357.944 C 348.000 357.535,348.180 357.200,348.400 357.200 C 348.620 357.200,348.800 356.761,348.800 356.224 C 348.800 355.687,348.980 355.136,349.200 355.000 C 349.420 354.864,349.600 354.133,349.600 353.376 C 349.600 352.619,349.780 352.000,350.000 352.000 C 350.419 352.000,350.560 350.693,350.182 350.315 C 350.062 350.195,349.914 347.150,349.853 343.548 C 349.461 320.323,329.364 303.184,306.600 306.661 M155.318 332.338 C 165.005 336.877,164.834 350.885,155.038 355.366 C 149.281 357.999,141.448 355.280,138.846 349.746 C 138.549 349.116,138.148 348.287,137.953 347.905 C 137.759 347.523,137.600 345.676,137.600 343.800 C 137.600 341.924,137.759 340.077,137.953 339.695 C 138.148 339.313,138.543 338.497,138.831 337.881 C 140.105 335.162,142.758 333.023,146.800 331.456 C 148.211 330.909,153.420 331.448,155.318 332.338 M317.339 332.156 C 330.068 337.785,326.215 356.363,312.312 356.394 C 299.669 356.422,295.104 337.598,306.554 332.648 C 307.239 332.351,308.250 331.916,308.800 331.681 C 310.689 330.874,314.979 331.113,317.339 332.156 " stroke="none" fill="#596169" fill-rule="evenodd"></path><path id="path1" d="M211.693 81.600 C 211.693 82.370,211.775 82.685,211.876 82.300 C 211.976 81.915,211.976 81.285,211.876 80.900 C 211.775 80.515,211.693 80.830,211.693 81.600 M208.444 95.200 C 208.276 98.638,205.004 102.475,186.932 120.434 C 171.336 135.931,167.050 139.600,164.539 139.600 C 163.952 139.600,164.689 140.563,167.373 143.302 C 169.368 145.338,171.148 146.939,171.330 146.860 C 171.747 146.678,173.632 148.424,173.409 148.786 C 173.199 149.126,200.888 176.845,201.163 176.570 C 201.476 176.258,253.200 228.124,253.200 228.750 C 253.200 229.174,253.588 229.240,254.877 229.034 C 257.275 228.651,260.400 227.574,260.400 227.130 C 260.400 226.923,260.582 226.865,260.804 227.002 C 261.418 227.382,262.850 226.805,262.540 226.303 C 262.366 226.021,262.507 225.955,262.934 226.119 C 263.928 226.501,274.404 221.337,273.820 220.754 C 273.718 220.651,274.001 220.540,274.449 220.506 C 275.507 220.427,276.463 219.625,276.134 219.093 C 275.992 218.864,276.067 218.794,276.299 218.938 C 277.171 219.477,287.475 210.769,286.957 209.931 C 286.838 209.738,286.979 209.630,287.270 209.690 C 287.562 209.751,287.755 209.575,287.700 209.300 C 287.645 209.025,287.825 208.845,288.100 208.900 C 288.375 208.955,288.551 208.762,288.490 208.470 C 288.430 208.179,288.543 208.041,288.742 208.164 C 289.228 208.465,292.049 204.802,291.729 204.285 C 291.589 204.059,291.672 203.997,291.913 204.146 C 292.721 204.646,297.846 196.457,300.554 190.340 C 301.283 188.691,301.443 186.797,300.799 187.441 C 300.530 187.710,298.108 185.543,293.480 180.894 L 286.562 173.944 284.781 175.602 C 283.801 176.514,282.371 177.742,281.603 178.330 C 280.834 178.919,279.791 179.805,279.285 180.300 C 278.778 180.795,278.219 181.200,278.043 181.200 C 277.867 181.200,277.290 181.577,276.761 182.038 C 274.354 184.135,266.099 188.345,261.200 189.974 C 259.770 190.449,258.287 191.009,257.905 191.219 C 257.523 191.429,256.704 191.600,256.085 191.600 C 255.466 191.600,254.741 191.819,254.473 192.087 C 254.020 192.540,197.900 137.149,196.787 135.149 C 196.499 134.633,197.734 133.174,202.777 128.072 C 206.271 124.538,209.719 120.781,210.439 119.723 C 211.158 118.665,211.868 117.710,212.015 117.600 C 213.055 116.823,216.800 106.995,216.800 105.044 C 216.800 104.517,215.927 103.310,214.593 101.993 C 213.379 100.794,212.473 99.585,212.580 99.307 C 212.687 99.028,212.615 98.800,212.420 98.800 C 211.826 98.800,208.900 95.798,208.690 94.973 C 208.533 94.357,208.483 94.404,208.444 95.200 M143.505 143.083 C 144.002 143.179,144.722 143.175,145.105 143.075 C 145.487 142.975,145.080 142.896,144.200 142.901 C 143.320 142.905,143.007 142.987,143.505 143.083 M150.700 143.082 C 151.195 143.178,152.005 143.178,152.500 143.082 C 152.995 142.987,152.590 142.909,151.600 142.909 C 150.610 142.909,150.205 142.987,150.700 143.082 M239.800 281.223 C 166.105 281.393,141.329 281.567,139.900 281.925 C 137.931 282.417,136.157 282.809,132.400 283.582 C 131.190 283.831,129.435 284.207,128.500 284.417 C 127.565 284.628,126.035 284.972,125.100 285.183 C 124.165 285.393,122.410 285.769,121.200 286.018 C 118.612 286.550,116.290 287.047,113.800 287.600 C 112.810 287.820,111.190 288.180,110.200 288.400 C 107.710 288.953,105.388 289.450,102.800 289.982 C 101.590 290.231,99.880 290.599,99.000 290.800 C 98.120 291.001,96.500 291.352,95.400 291.580 C 94.300 291.808,92.680 292.157,91.800 292.355 C 87.146 293.400,81.814 294.401,80.871 294.406 C 80.282 294.409,79.530 294.600,79.200 294.830 C 78.754 295.141,78.933 295.183,79.900 294.992 L 81.200 294.736 81.200 304.753 C 81.200 316.156,80.918 317.590,78.027 320.874 C 74.994 324.320,73.281 324.800,64.025 324.800 L 56.000 324.800 56.000 337.603 L 56.000 350.405 84.300 350.303 L 112.600 350.200 112.460 345.353 C 112.027 330.432,119.364 317.700,132.467 310.633 C 135.922 308.770,136.628 308.491,140.800 307.348 C 164.456 300.866,188.154 320.047,187.546 345.185 L 187.425 350.200 231.212 350.200 L 275.000 350.200 274.868 345.800 C 274.467 332.434,281.918 317.835,292.000 312.233 C 309.171 302.691,326.504 304.767,339.506 317.922 C 346.761 325.262,349.667 332.473,349.853 343.600 L 349.964 350.200 365.782 350.305 L 381.600 350.409 381.600 334.605 L 381.600 318.800 374.395 318.800 C 369.374 318.800,366.918 318.648,366.295 318.300 C 362.721 316.302,361.463 312.757,363.227 309.654 C 364.888 306.734,365.287 306.615,373.900 306.476 L 381.600 306.352 381.600 302.576 C 381.600 299.067,381.544 298.800,380.800 298.800 C 380.360 298.800,380.000 298.620,380.000 298.400 C 380.000 298.180,379.651 298.000,379.224 298.000 C 378.797 298.000,378.336 297.820,378.200 297.600 C 378.064 297.380,377.513 297.200,376.976 297.200 C 376.439 297.200,376.000 297.064,376.000 296.898 C 376.000 296.731,375.415 296.360,374.700 296.071 C 373.985 295.783,373.087 295.379,372.705 295.174 C 372.323 294.968,371.738 294.800,371.405 294.800 C 371.072 294.800,370.800 294.620,370.800 294.400 C 370.800 294.180,370.564 294.000,370.275 294.000 C 369.986 294.000,369.041 293.661,368.175 293.247 C 367.309 292.833,366.017 292.369,365.305 292.216 C 364.592 292.063,363.906 291.772,363.781 291.569 C 363.655 291.366,363.203 291.200,362.776 291.200 C 362.349 291.200,362.000 291.020,362.000 290.800 C 362.000 290.580,361.460 290.400,360.800 290.400 C 360.140 290.400,359.599 290.265,359.597 290.100 C 359.593 289.741,357.656 288.800,356.920 288.800 C 356.634 288.800,356.400 288.620,356.400 288.400 C 356.400 288.180,355.950 288.000,355.400 288.000 C 354.850 288.000,354.400 287.820,354.400 287.600 C 354.400 287.380,354.040 287.200,353.600 287.200 C 353.160 287.200,352.800 287.020,352.800 286.800 C 352.800 286.580,352.440 286.400,352.000 286.400 C 351.560 286.400,351.200 286.220,351.200 286.000 C 351.200 285.780,350.660 285.600,350.000 285.600 C 349.340 285.600,348.800 285.420,348.800 285.200 C 348.800 284.980,348.440 284.800,348.000 284.800 C 347.560 284.800,347.200 284.620,347.200 284.400 C 347.200 284.180,346.840 284.000,346.400 284.000 C 345.960 284.000,345.600 283.820,345.600 283.600 C 345.600 283.380,345.060 283.200,344.400 283.200 C 343.740 283.200,343.200 283.020,343.200 282.800 C 343.200 282.580,342.840 282.400,342.400 282.400 C 341.960 282.400,341.600 282.220,341.600 282.000 C 341.600 281.780,341.240 281.600,340.800 281.600 C 340.360 281.600,340.000 281.420,340.000 281.200 C 340.000 280.980,339.505 280.844,338.900 280.898 C 338.295 280.953,293.700 281.099,239.800 281.223 M75.600 295.600 C 74.836 296.094,75.658 296.094,77.200 295.600 L 78.200 295.280 77.200 295.246 C 76.650 295.227,75.930 295.387,75.600 295.600 M71.600 296.400 C 70.836 296.894,71.658 296.894,73.200 296.400 L 74.200 296.080 73.200 296.046 C 72.650 296.027,71.930 296.187,71.600 296.400 M68.000 297.200 C 67.236 297.694,68.058 297.694,69.600 297.200 L 70.600 296.880 69.600 296.846 C 69.050 296.827,68.330 296.987,68.000 297.200 M64.800 298.018 C 64.362 298.315,64.524 298.352,65.400 298.156 C 66.871 297.827,67.190 297.598,66.167 297.606 C 65.745 297.609,65.130 297.795,64.800 298.018 M62.500 298.888 C 62.005 299.127,61.600 299.479,61.600 299.670 C 61.600 299.946,62.822 299.352,63.967 298.521 C 64.366 298.231,63.320 298.493,62.500 298.888 M59.944 300.700 C 58.462 302.490,58.366 302.878,59.717 301.622 C 60.533 300.863,61.200 300.188,61.200 300.122 C 61.200 299.749,60.444 300.097,59.944 300.700 M233.920 300.562 C 237.221 302.280,238.496 306.115,236.773 309.146 C 235.065 312.148,234.866 312.200,225.000 312.200 C 216.824 312.200,216.124 312.143,215.127 311.400 C 211.219 308.486,211.713 303.003,216.103 300.575 C 217.465 299.821,232.476 299.811,233.920 300.562 M57.018 305.018 C 56.641 305.814,56.433 306.566,56.556 306.690 C 56.680 306.813,56.889 306.574,57.020 306.157 C 57.151 305.741,57.438 305.067,57.657 304.661 C 57.876 304.255,57.977 303.843,57.880 303.747 C 57.784 303.650,57.396 304.222,57.018 305.018 M56.101 308.600 C 56.105 309.480,56.187 309.793,56.283 309.295 C 56.379 308.798,56.375 308.078,56.275 307.695 C 56.175 307.313,56.096 307.720,56.101 308.600 " stroke="none" fill="#e46a43" fill-rule="evenodd"></path><path id="path2" d="M206.000 39.029 C 206.000 53.977,205.951 54.400,204.229 54.400 C 203.225 54.400,203.471 55.119,205.617 58.465 C 212.328 68.926,213.873 82.450,209.532 92.733 C 208.517 95.136,208.581 95.452,210.433 97.231 C 212.036 98.772,215.200 99.547,215.200 98.400 C 215.200 98.180,215.740 98.000,216.400 98.000 C 217.060 98.000,217.600 97.820,217.600 97.600 C 217.600 97.380,218.230 97.200,219.000 97.200 C 219.770 97.200,220.400 97.020,220.400 96.800 C 220.400 96.580,221.120 96.400,222.000 96.400 C 222.880 96.400,223.600 96.220,223.600 96.000 C 223.600 95.780,224.500 95.600,225.600 95.600 C 226.700 95.600,227.600 95.420,227.600 95.200 C 227.600 94.957,229.373 94.800,232.120 94.800 C 235.187 94.800,236.810 94.639,237.170 94.300 C 237.594 93.900,237.737 93.900,237.883 94.300 C 238.015 94.660,239.344 94.800,242.633 94.800 C 245.411 94.800,247.200 94.957,247.200 95.200 C 247.200 95.420,248.089 95.600,249.176 95.600 C 250.263 95.600,251.264 95.780,251.400 96.000 C 251.536 96.220,252.267 96.400,253.024 96.400 C 253.781 96.400,254.400 96.580,254.400 96.800 C 254.400 97.020,255.120 97.200,256.000 97.200 C 256.880 97.200,257.600 97.380,257.600 97.600 C 257.600 97.820,258.039 98.000,258.576 98.000 C 259.113 98.000,259.664 98.180,259.800 98.400 C 259.936 98.620,260.487 98.800,261.024 98.800 C 261.561 98.800,262.000 98.980,262.000 99.200 C 262.000 99.420,262.360 99.600,262.800 99.600 C 263.240 99.600,263.600 99.780,263.600 100.000 C 263.600 100.220,263.872 100.400,264.204 100.400 C 264.847 100.400,268.463 101.981,268.800 102.410 C 268.910 102.550,269.585 102.919,270.300 103.230 C 271.015 103.541,271.600 103.931,271.600 104.098 C 271.600 104.264,271.920 104.400,272.312 104.400 C 272.703 104.400,273.283 104.760,273.600 105.200 C 273.917 105.640,274.497 106.000,274.888 106.000 C 275.280 106.000,275.600 106.141,275.600 106.314 C 275.600 106.486,276.095 106.927,276.700 107.294 C 277.305 107.660,278.323 108.419,278.962 108.980 C 279.601 109.541,280.271 110.000,280.449 110.000 C 280.893 110.000,289.600 118.685,289.600 119.128 C 289.600 119.322,290.095 120.006,290.700 120.647 C 291.914 121.933,293.864 124.798,293.905 125.355 C 293.920 125.551,294.091 125.821,294.285 125.955 C 294.828 126.331,296.337 128.585,296.476 129.228 C 296.544 129.543,296.711 129.890,296.846 130.000 C 297.310 130.377,298.800 133.568,298.800 134.184 C 298.800 134.523,298.980 134.800,299.200 134.800 C 299.420 134.800,299.600 135.160,299.600 135.600 C 299.600 136.040,299.780 136.400,300.000 136.400 C 300.220 136.400,300.400 136.672,300.400 137.005 C 300.400 137.338,300.580 137.968,300.800 138.405 C 301.020 138.842,301.380 139.558,301.600 139.995 C 301.820 140.432,302.000 141.137,302.000 141.561 C 302.000 141.986,302.172 142.393,302.382 142.467 C 302.593 142.540,302.810 143.275,302.864 144.100 C 302.919 144.925,303.107 145.600,303.282 145.600 C 303.457 145.600,303.600 146.320,303.600 147.200 C 303.600 148.080,303.780 148.800,304.000 148.800 C 304.220 148.800,304.400 149.700,304.400 150.800 C 304.400 151.900,304.580 152.800,304.800 152.800 C 305.056 152.800,305.200 156.333,305.200 162.600 C 305.200 168.867,305.056 172.400,304.800 172.400 C 304.580 172.400,304.400 173.289,304.400 174.376 C 304.400 175.463,304.220 176.464,304.000 176.600 C 303.780 176.736,303.600 177.456,303.600 178.200 C 303.600 178.944,303.420 179.664,303.200 179.800 C 302.980 179.936,302.800 180.577,302.800 181.224 C 302.800 181.871,302.620 182.400,302.400 182.400 C 302.180 182.400,302.000 182.940,302.000 183.600 C 302.000 184.260,301.820 184.800,301.600 184.800 C 301.380 184.800,301.200 185.718,301.200 186.840 C 301.200 189.325,299.937 192.348,296.453 198.200 C 292.042 205.610,277.729 220.400,274.970 220.400 C 274.846 220.400,273.992 220.907,273.072 221.527 C 267.120 225.539,255.183 229.782,252.604 228.802 C 251.776 228.487,251.374 228.479,251.275 228.775 C 251.197 229.009,250.248 229.200,249.167 229.200 C 248.085 229.200,247.200 229.380,247.200 229.600 C 247.200 229.844,245.389 230.000,242.567 230.000 C 239.038 230.000,237.973 230.119,238.100 230.500 C 238.232 230.895,246.706 231.021,278.320 231.102 C 317.688 231.202,318.381 231.217,318.795 231.991 C 319.027 232.424,321.385 238.588,324.035 245.689 C 330.658 263.434,330.882 264.000,331.263 264.000 C 331.448 264.000,331.600 264.360,331.600 264.800 C 331.600 265.240,331.780 265.600,332.000 265.600 C 332.490 265.600,332.503 265.347,332.054 264.474 C 331.783 263.946,332.305 263.237,334.462 261.200 C 335.977 259.770,338.158 257.653,339.308 256.496 C 350.017 245.727,354.598 241.189,355.960 240.000 C 358.475 237.804,358.331 237.487,352.017 231.285 C 338.597 218.103,336.883 216.306,337.519 216.094 C 337.784 216.005,338.000 215.588,338.000 215.167 C 338.000 214.745,338.180 214.400,338.400 214.400 C 338.620 214.400,338.800 214.040,338.800 213.600 C 338.800 213.160,338.980 212.800,339.200 212.800 C 339.420 212.800,339.600 212.440,339.600 212.000 C 339.600 211.560,339.736 211.200,339.902 211.200 C 340.231 211.200,341.131 208.855,341.475 207.100 C 341.594 206.495,341.850 206.000,342.045 206.000 C 342.240 206.000,342.400 205.640,342.400 205.200 C 342.400 204.760,342.580 204.400,342.800 204.400 C 343.020 204.400,343.200 203.860,343.200 203.200 C 343.200 202.540,343.380 202.000,343.600 202.000 C 343.820 202.000,344.000 201.460,344.000 200.800 C 344.000 200.140,344.180 199.600,344.400 199.600 C 344.620 199.600,344.800 199.060,344.800 198.400 C 344.800 197.740,344.980 197.200,345.200 197.200 C 345.420 197.200,345.600 196.737,345.600 196.171 C 345.600 193.993,345.553 194.000,360.971 194.000 L 375.200 194.000 375.200 162.400 L 375.200 130.800 360.971 130.800 C 345.794 130.800,345.600 130.775,345.600 128.852 C 345.600 128.409,345.420 127.936,345.200 127.800 C 344.980 127.664,344.800 127.113,344.800 126.576 C 344.800 126.039,344.620 125.600,344.400 125.600 C 344.180 125.600,344.000 125.060,344.000 124.400 C 344.000 123.740,343.820 123.200,343.600 123.200 C 343.380 123.200,343.200 122.660,343.200 122.000 C 343.200 121.340,343.020 120.800,342.800 120.800 C 342.580 120.800,342.400 120.440,342.400 120.000 C 342.400 119.560,342.220 119.200,342.000 119.200 C 341.780 119.200,341.600 118.748,341.600 118.195 C 341.600 117.158,338.891 111.104,338.321 110.867 C 338.144 110.793,338.000 110.388,338.000 109.967 C 338.000 109.545,337.820 109.200,337.600 109.200 C 336.594 109.200,337.836 107.813,347.400 98.250 C 353.010 92.641,357.600 87.772,357.600 87.428 C 357.600 87.085,354.855 84.107,351.500 80.810 C 343.164 72.617,342.405 71.858,335.582 64.894 C 332.292 61.536,329.600 58.902,329.600 59.041 C 329.600 59.180,328.205 57.810,326.500 55.997 C 320.031 49.118,313.148 42.400,312.570 42.400 C 312.239 42.400,307.402 46.975,301.822 52.566 L 291.676 62.732 287.338 60.580 C 284.952 59.396,282.606 58.421,282.124 58.414 C 281.642 58.406,281.136 58.220,281.000 58.000 C 280.864 57.780,280.403 57.600,279.976 57.600 C 279.549 57.600,279.200 57.420,279.200 57.200 C 279.200 56.980,278.660 56.800,278.000 56.800 C 277.340 56.800,276.800 56.620,276.800 56.400 C 276.800 56.180,276.350 56.000,275.800 56.000 C 275.250 56.000,274.800 55.820,274.800 55.600 C 274.800 55.380,274.260 55.200,273.600 55.200 C 272.940 55.200,272.400 55.020,272.400 54.800 C 272.400 54.580,271.937 54.400,271.371 54.400 C 269.193 54.400,269.200 54.447,269.200 39.029 L 269.200 24.800 237.600 24.800 L 206.000 24.800 206.000 39.029 M136.500 67.780 C 128.799 75.498,124.000 80.602,124.000 81.075 C 124.000 82.246,140.118 97.989,142.572 99.215 C 145.263 100.559,150.473 100.580,153.225 99.259 C 155.651 98.094,167.247 86.438,168.205 84.200 C 169.294 81.658,169.187 76.325,167.997 73.800 C 166.797 71.254,151.051 55.182,149.800 55.225 C 149.304 55.243,144.256 60.007,136.500 67.780 M99.712 162.380 L 99.800 193.998 113.929 193.999 C 129.238 194.000,129.200 193.995,129.200 196.171 C 129.200 196.737,129.380 197.200,129.600 197.200 C 129.820 197.200,130.000 197.740,130.000 198.400 C 130.000 199.060,130.180 199.600,130.400 199.600 C 130.620 199.600,130.800 200.140,130.800 200.800 C 130.800 201.460,130.980 202.000,131.200 202.000 C 131.420 202.000,131.600 202.439,131.600 202.976 C 131.600 203.513,131.780 204.064,132.000 204.200 C 132.220 204.336,132.400 204.797,132.400 205.224 C 132.400 205.651,132.580 206.000,132.800 206.000 C 133.020 206.000,133.200 206.349,133.200 206.776 C 133.200 207.203,133.380 207.664,133.600 207.800 C 133.820 207.936,134.000 208.397,134.000 208.824 C 134.000 209.251,134.180 209.600,134.400 209.600 C 134.620 209.600,134.800 209.960,134.800 210.400 C 134.800 210.840,134.980 211.200,135.200 211.200 C 135.420 211.200,135.600 211.560,135.600 212.000 C 135.600 212.440,135.780 212.800,136.000 212.800 C 136.220 212.800,136.400 213.160,136.400 213.600 C 136.400 214.040,136.580 214.400,136.800 214.400 C 137.020 214.400,137.200 214.745,137.200 215.167 C 137.200 215.588,137.412 216.004,137.671 216.090 C 137.930 216.177,133.520 220.862,127.871 226.502 C 116.471 237.884,116.593 237.693,119.249 240.000 C 120.135 240.770,121.972 242.538,123.330 243.930 C 125.728 246.386,135.839 256.481,140.096 260.669 C 141.253 261.808,142.650 263.281,143.200 263.945 C 143.750 264.608,144.650 265.263,145.200 265.402 C 145.750 265.540,146.961 266.395,147.892 267.301 C 148.822 268.208,149.658 268.871,149.749 268.775 C 149.840 268.679,153.999 260.410,158.992 250.400 C 163.985 240.390,168.256 231.975,168.484 231.700 C 168.809 231.307,176.089 231.200,202.416 231.200 C 220.851 231.200,236.218 231.091,236.565 230.958 C 238.097 230.370,236.410 230.000,232.200 230.000 C 229.596 230.000,227.541 229.829,227.400 229.600 C 227.264 229.380,226.364 229.200,225.400 229.200 C 224.436 229.200,223.536 229.020,223.400 228.800 C 223.264 228.580,222.612 228.400,221.950 228.400 C 221.289 228.400,220.410 228.220,219.998 227.999 C 219.497 227.731,219.166 227.731,219.001 227.999 C 218.680 228.518,216.921 228.519,216.600 228.000 C 216.464 227.780,216.001 227.600,215.571 227.600 C 215.141 227.600,214.477 227.441,214.095 227.247 C 213.713 227.052,212.950 226.714,212.400 226.494 C 185.357 215.692,167.885 189.203,168.935 160.600 C 169.137 155.087,169.670 152.000,170.419 152.000 C 170.628 152.000,170.800 151.291,170.800 150.424 C 170.800 149.557,170.979 148.736,171.199 148.601 C 171.897 148.169,170.594 146.335,167.232 143.013 L 164.006 139.825 162.103 140.558 C 148.159 145.931,133.147 143.138,122.207 133.137 L 119.871 131.000 109.747 130.881 L 99.624 130.762 99.712 162.380 M146.120 331.965 C 142.768 333.108,138.440 337.212,138.410 339.276 C 138.404 339.648,138.220 340.064,138.000 340.200 C 137.506 340.505,137.467 346.550,137.953 347.505 C 138.148 347.887,138.551 348.719,138.849 349.352 C 142.818 357.786,155.528 358.444,160.485 350.472 C 166.653 340.552,157.087 328.226,146.120 331.965 M309.400 331.662 C 295.278 336.352,297.775 356.030,312.487 355.991 C 326.390 355.954,329.700 336.936,316.653 332.054 C 314.242 331.152,311.397 330.998,309.400 331.662 " stroke="none" fill="#dce4e4" fill-rule="evenodd"></path><path id="path3" d="M202.547 231.102 C 176.295 231.182,168.804 231.314,168.482 231.702 C 168.255 231.976,163.985 240.390,158.992 250.400 C 153.999 260.410,149.840 268.679,149.749 268.775 C 149.658 268.871,148.732 268.151,147.692 267.175 L 145.800 265.400 147.500 267.215 C 149.643 269.504,149.681 269.166,146.600 275.260 C 145.170 278.088,144.000 280.582,144.000 280.802 C 144.000 281.665,337.767 281.117,337.933 280.253 C 338.022 279.788,337.911 279.608,337.638 279.776 C 337.364 279.946,337.200 279.664,337.200 279.024 C 337.200 278.461,337.020 278.000,336.800 278.000 C 336.580 278.000,336.400 277.449,336.400 276.776 C 336.400 276.063,336.233 275.656,336.000 275.800 C 335.773 275.940,335.600 275.604,335.600 275.024 C 335.600 274.461,335.420 274.000,335.200 274.000 C 334.980 274.000,334.800 273.460,334.800 272.800 C 334.800 272.140,334.620 271.600,334.400 271.600 C 334.180 271.600,334.000 271.049,334.000 270.376 C 334.000 269.663,333.833 269.256,333.600 269.400 C 333.373 269.540,333.200 269.204,333.200 268.624 C 333.200 268.061,333.020 267.600,332.800 267.600 C 332.580 267.600,332.400 267.150,332.400 266.600 C 332.400 266.050,332.220 265.600,332.000 265.600 C 331.780 265.600,331.600 265.240,331.600 264.800 C 331.600 264.360,331.448 264.000,331.263 264.000 C 330.880 264.000,330.640 263.391,323.962 245.489 C 321.272 238.277,318.875 232.115,318.636 231.795 C 318.158 231.156,273.141 230.888,202.547 231.102 M140.975 334.900 L 139.800 336.200 141.100 335.025 C 142.312 333.930,142.584 333.600,142.275 333.600 C 142.206 333.600,141.621 334.185,140.975 334.900 M321.200 335.000 C 321.946 335.770,322.647 336.400,322.757 336.400 C 322.867 336.400,322.346 335.770,321.600 335.000 C 320.854 334.230,320.153 333.600,320.043 333.600 C 319.933 333.600,320.454 334.230,321.200 335.000 M324.924 343.800 C 324.926 345.120,325.001 345.612,325.090 344.893 C 325.179 344.174,325.177 343.094,325.086 342.493 C 324.995 341.892,324.922 342.480,324.924 343.800 M321.178 352.700 L 319.800 354.200 321.300 352.822 C 322.125 352.063,322.800 351.388,322.800 351.322 C 322.800 351.016,322.462 351.304,321.178 352.700 M148.300 356.293 C 149.235 356.377,150.765 356.377,151.700 356.293 C 152.635 356.209,151.870 356.140,150.000 356.140 C 148.130 356.140,147.365 356.209,148.300 356.293 M310.700 356.293 C 311.635 356.377,313.165 356.377,314.100 356.293 C 315.035 356.209,314.270 356.140,312.400 356.140 C 310.530 356.140,309.765 356.209,310.700 356.293 " stroke="none" fill="#68c1ef" fill-rule="evenodd"></path><path id="path4" d="M150.200 18.800 C 150.064 19.020,149.434 19.200,148.800 19.200 C 148.166 19.200,147.536 19.380,147.400 19.600 C 147.264 19.820,146.803 20.000,146.376 20.000 C 145.949 20.000,145.600 20.180,145.600 20.400 C 145.600 20.620,145.240 20.800,144.800 20.800 C 144.360 20.800,144.000 20.980,144.000 21.200 C 144.000 21.420,143.770 21.600,143.488 21.600 C 143.207 21.600,142.717 21.960,142.400 22.400 C 142.083 22.840,141.599 23.200,141.325 23.200 C 140.402 23.200,129.185 34.029,129.223 34.883 C 129.236 35.168,130.688 36.750,132.449 38.400 C 135.895 41.628,139.933 45.653,145.527 51.437 C 147.462 53.438,149.491 55.186,150.037 55.323 C 151.624 55.722,166.850 71.390,167.992 73.800 C 169.298 76.557,169.326 81.738,168.049 84.425 C 166.906 86.832,155.257 98.435,153.000 99.414 C 150.383 100.550,145.042 100.448,142.572 99.215 C 140.250 98.055,124.000 82.254,124.000 81.155 C 124.000 80.473,104.184 60.400,103.510 60.400 C 102.967 60.400,92.000 71.606,92.000 72.160 C 92.000 72.429,91.675 72.998,91.278 73.425 C 90.880 73.851,90.297 74.785,89.980 75.500 C 89.664 76.215,89.269 76.800,89.102 76.800 C 88.936 76.800,88.800 77.160,88.800 77.600 C 88.800 78.040,88.620 78.400,88.400 78.400 C 88.180 78.400,88.000 79.019,88.000 79.776 C 88.000 80.533,87.820 81.264,87.600 81.400 C 87.360 81.549,87.200 84.271,87.200 88.224 C 87.200 92.341,87.350 94.800,87.600 94.800 C 87.820 94.800,88.000 95.340,88.000 96.000 C 88.000 96.660,88.180 97.200,88.400 97.200 C 88.620 97.200,88.800 97.560,88.800 98.000 C 88.800 98.440,88.980 98.800,89.200 98.800 C 89.420 98.800,89.600 99.160,89.600 99.600 C 89.600 100.040,89.780 100.400,90.000 100.400 C 90.220 100.400,90.400 100.760,90.400 101.200 C 90.400 101.640,90.580 102.000,90.800 102.000 C 91.020 102.000,91.200 102.282,91.200 102.628 C 91.200 103.315,118.485 130.800,119.168 130.800 C 119.399 130.800,120.717 131.748,122.095 132.906 C 125.633 135.880,127.869 137.600,128.196 137.600 C 128.350 137.600,128.954 137.931,129.538 138.336 C 137.053 143.548,152.274 144.508,162.074 140.388 C 163.105 139.955,164.260 139.600,164.641 139.600 C 168.054 139.600,202.642 106.433,206.771 99.200 C 208.039 96.979,208.395 96.168,208.398 95.496 C 208.399 95.108,208.736 94.028,209.148 93.096 C 209.559 92.163,210.111 90.590,210.375 89.600 C 210.638 88.610,211.040 87.197,211.268 86.460 C 213.374 79.629,210.820 66.728,205.780 58.748 C 204.581 56.849,203.600 55.003,203.600 54.647 C 203.600 53.883,173.476 23.664,171.885 22.832 C 171.288 22.520,170.800 22.115,170.800 21.932 C 170.800 21.750,170.440 21.600,170.000 21.600 C 169.560 21.600,169.200 21.420,169.200 21.200 C 169.200 20.980,168.840 20.800,168.400 20.800 C 167.960 20.800,167.600 20.620,167.600 20.400 C 167.600 20.180,167.240 20.000,166.800 20.000 C 166.360 20.000,166.000 19.820,166.000 19.600 C 166.000 19.380,165.471 19.200,164.824 19.200 C 164.177 19.200,163.536 19.020,163.400 18.800 C 163.252 18.561,160.604 18.400,156.800 18.400 C 152.996 18.400,150.348 18.561,150.200 18.800 M212.575 99.240 C 212.425 99.484,213.304 100.691,214.552 101.951 C 215.858 103.272,216.800 104.578,216.800 105.069 C 216.800 106.999,213.046 116.830,212.015 117.600 C 211.868 117.710,211.158 118.665,210.439 119.723 C 209.719 120.781,206.271 124.538,202.777 128.072 C 197.734 133.174,196.499 134.633,196.787 135.149 C 197.900 137.149,254.020 192.540,254.473 192.087 C 254.741 191.819,255.466 191.600,256.085 191.600 C 256.704 191.600,257.523 191.429,257.905 191.219 C 258.287 191.009,259.770 190.449,261.200 189.974 C 266.099 188.345,274.354 184.135,276.761 182.038 C 277.290 181.577,277.867 181.200,278.043 181.200 C 278.219 181.200,278.778 180.795,279.285 180.300 C 279.791 179.805,280.834 178.919,281.603 178.330 C 282.371 177.742,283.801 176.514,284.781 175.602 L 286.562 173.944 293.489 180.903 C 298.762 186.200,300.517 187.741,300.837 187.356 C 301.196 186.923,213.822 98.800,213.033 98.800 C 212.931 98.800,212.725 98.998,212.575 99.240 M171.200 147.339 C 171.200 148.369,172.799 149.849,173.204 149.193 C 173.452 148.793,173.299 148.331,172.712 147.706 C 171.748 146.680,171.200 146.547,171.200 147.339 M200.837 176.771 C 200.414 177.037,206.648 183.500,226.102 202.962 C 248.781 225.651,253.200 229.815,253.200 228.499 C 253.200 227.646,201.365 176.440,200.837 176.771 M77.600 295.456 C 76.170 295.778,72.617 296.566,69.705 297.208 C 62.622 298.768,59.324 300.743,57.757 304.360 C 57.414 305.152,56.933 306.160,56.689 306.600 C 56.418 307.088,56.178 310.795,56.074 316.100 L 55.903 324.800 63.977 324.800 C 74.755 324.800,78.035 323.230,80.387 316.944 C 81.386 314.273,81.662 294.767,80.700 294.835 C 80.425 294.855,79.030 295.134,77.600 295.456 M216.103 300.575 C 211.713 303.003,211.219 308.486,215.127 311.400 C 216.124 312.143,216.824 312.200,225.000 312.200 C 234.866 312.200,235.065 312.148,236.773 309.146 C 238.496 306.115,237.221 302.280,233.920 300.562 C 232.476 299.811,217.465 299.821,216.103 300.575 M366.387 306.728 C 362.169 308.598,361.131 314.147,364.465 317.000 C 366.463 318.710,366.961 318.800,374.395 318.800 L 381.600 318.800 381.600 312.600 L 381.600 306.400 374.300 306.428 C 370.285 306.444,366.724 306.579,366.387 306.728 " stroke="none" fill="#fbba05" fill-rule="evenodd"></path></g></svg>