<?xml version="1.0" standalone="no"?>
<!DOCTYPE svg PUBLIC "-//W3C//DTD SVG 20010904//EN"
 "http://www.w3.org/TR/2001/REC-SVG-20010904/DTD/svg10.dtd">
<svg version="1.0" xmlns="http://www.w3.org/2000/svg"
 width="512.000000pt" height="512.000000pt" viewBox="0 0 512.000000 512.000000"
 preserveAspectRatio="xMidYMid meet">
<metadata>
Created by potrace 1.16, written by Peter Selinger 2001-2019
</metadata>
<g transform="translate(0.000000,512.000000) scale(0.100000,-0.100000)"
fill="#000000" stroke="none">
<path d="M2190 3175 c-21 -23 -23 -33 -23 -137 0 -247 91 -458 271 -630 102
-98 213 -163 340 -202 22 -7 22 -6 22 93 l0 101 -132 0 -133 0 -24 78 c-27 84
-25 80 -69 167 l-31 60 77 78 77 77 -170 170 c-93 94 -172 170 -176 170 -3 0
-16 -11 -29 -25z"/>
<path d="M1190 3147 c-36 -13 -75 -29 -87 -36 l-23 -12 0 -300 0 -299 55 54
c29 30 74 67 100 81 l45 27 0 254 c0 197 -3 254 -12 254 -7 0 -42 -11 -78 -23z"/>
<path d="M519 2446 l-11 -46 -134 0 -134 0 0 -240 0 -240 134 0 134 0 6 -30
c8 -42 52 -154 86 -221 l29 -55 -94 -94 -95 -95 137 -137 138 -138 7 35 c18
82 60 111 210 144 54 12 100 21 103 21 3 0 5 -61 5 -136 0 -120 -2 -141 -21
-174 -35 -62 -79 -80 -198 -80 l-101 0 0 -160 0 -160 359 0 360 0 17 -61 c42
-151 182 -286 339 -328 65 -18 205 -13 274 8 153 47 278 180 320 339 l12 42
559 0 559 0 17 -61 c42 -151 182 -286 339 -328 65 -18 205 -13 274 8 153 47
278 180 320 339 l12 42 199 0 200 0 0 159 0 159 -92 7 c-132 9 -241 24 -330
44 -66 16 -84 25 -130 66 -29 27 -87 64 -128 84 l-75 35 -178 4 c-158 4 -185
2 -246 -17 -90 -27 -183 -91 -240 -164 l-46 -59 -395 5 c-423 6 -472 10 -635
62 -47 15 -108 42 -137 61 -29 18 -74 44 -99 58 -102 55 -218 187 -279 319
l-31 65 36 73 37 72 -24 23 -23 23 -53 -33 c-109 -70 -263 -97 -396 -71 -65
12 -174 57 -213 88 -44 33 -133 127 -154 162 -26 41 -62 136 -74 191 -5 25
-20 40 -82 79 -86 55 -240 198 -304 283 -24 31 -46 61 -50 66 -5 5 -13 -12
-20 -38z m1481 -1587 c109 -61 105 -231 -6 -284 -48 -23 -130 -17 -171 13 -92
65 -80 226 19 275 46 23 113 21 158 -4z m2080 0 c109 -61 105 -231 -6 -284
-48 -23 -130 -17 -171 13 -92 65 -80 226 19 275 46 23 113 21 158 -4z"/>
</g>
</svg>
