<svg id="svg" version="1.1" xmlns="http://www.w3.org/2000/svg" xmlns:xlink="http://www.w3.org/1999/xlink" width="400" height="400" viewBox="0, 0, 400,400"><g id="svgg"><path id="path0" d="M234.600 106.879 C 231.518 107.222,229.515 107.550,224.800 108.484 C 222.847 108.870,221.311 109.245,217.000 110.387 C 209.352 112.413,191.467 121.164,189.200 123.989 C 189.090 124.126,188.370 124.677,187.600 125.214 C 182.981 128.431,173.341 137.678,170.922 141.212 C 170.551 141.755,170.134 142.290,169.998 142.400 C 169.590 142.728,164.554 150.087,163.701 151.600 C 163.268 152.370,162.442 153.810,161.865 154.800 C 160.508 157.133,157.794 162.808,156.749 165.500 C 156.557 165.995,156.232 166.805,156.026 167.300 C 153.571 173.213,151.660 182.000,152.830 182.000 C 153.041 182.000,154.516 182.787,156.107 183.748 C 158.510 185.200,174.212 194.201,180.800 197.903 C 181.790 198.459,184.310 199.902,186.400 201.109 C 188.490 202.316,191.010 203.758,192.000 204.315 C 199.353 208.446,205.078 211.742,205.500 212.088 C 205.890 212.407,206.000 211.986,206.000 210.177 C 206.000 208.901,206.178 207.304,206.396 206.628 C 208.690 199.504,209.610 197.107,211.702 192.800 C 213.038 190.050,214.642 187.048,215.266 186.128 C 215.890 185.208,216.400 184.336,216.400 184.189 C 216.400 183.633,223.465 173.591,227.228 168.800 C 231.749 163.043,231.642 163.167,237.200 157.207 C 239.510 154.730,241.866 152.185,242.436 151.551 C 243.791 150.045,243.592 149.964,246.735 153.300 C 253.522 160.501,259.478 167.802,266.223 177.186 C 272.306 185.650,277.464 195.781,279.976 204.200 C 282.150 211.488,281.089 222.343,277.515 229.371 C 274.001 236.283,264.594 245.215,258.345 247.573 C 257.605 247.852,256.640 248.222,256.200 248.395 C 255.254 248.766,252.932 249.392,250.323 249.978 C 247.547 250.602,240.234 250.490,236.800 249.771 C 235.150 249.425,233.303 249.045,232.695 248.925 C 232.087 248.806,231.492 248.549,231.371 248.354 C 231.251 248.159,230.822 248.000,230.417 248.000 C 229.595 248.000,223.796 245.076,223.200 244.360 C 223.090 244.228,222.802 244.048,222.561 243.960 C 220.573 243.236,212.400 234.938,212.400 233.644 C 212.400 233.400,212.220 233.200,212.000 233.200 C 211.780 233.200,211.600 232.945,211.600 232.633 C 211.600 232.322,211.465 232.007,211.300 231.933 C 210.813 231.717,208.400 226.752,208.400 225.967 C 208.400 225.571,208.220 225.136,208.000 225.000 C 207.780 224.864,207.600 224.349,207.600 223.856 C 207.600 223.363,207.433 222.789,207.229 222.580 C 207.024 222.371,206.783 221.570,206.693 220.800 C 206.602 220.030,206.499 234.357,206.464 252.637 L 206.400 285.874 209.100 286.904 C 210.585 287.470,212.520 288.165,213.400 288.448 C 214.280 288.732,215.171 289.107,215.380 289.282 C 215.589 289.457,216.253 289.600,216.856 289.600 C 217.459 289.600,218.064 289.780,218.200 290.000 C 218.336 290.220,218.966 290.400,219.600 290.400 C 220.234 290.400,220.852 290.561,220.974 290.758 C 221.095 290.955,221.871 291.217,222.697 291.342 C 223.524 291.467,225.280 291.762,226.600 291.998 C 232.753 293.097,235.995 293.352,243.800 293.352 C 251.605 293.352,254.847 293.097,261.000 291.998 C 262.320 291.762,264.076 291.467,264.903 291.342 C 265.729 291.217,266.505 290.955,266.626 290.758 C 266.748 290.561,267.366 290.400,268.000 290.400 C 268.634 290.400,269.264 290.220,269.400 290.000 C 269.536 289.780,270.166 289.600,270.800 289.600 C 271.434 289.600,272.064 289.420,272.200 289.200 C 272.336 288.980,272.851 288.800,273.344 288.800 C 273.837 288.800,274.411 288.657,274.620 288.482 C 274.829 288.307,275.720 287.921,276.600 287.625 C 279.286 286.721,290.335 281.559,291.400 280.710 C 291.620 280.535,293.240 279.470,295.000 278.344 C 296.760 277.218,298.290 276.176,298.400 276.029 C 298.510 275.882,299.230 275.323,300.000 274.786 C 308.500 268.867,321.470 254.159,324.680 246.800 C 324.824 246.470,325.053 246.110,325.188 246.000 C 326.442 244.982,332.167 231.515,333.606 226.200 C 333.785 225.540,334.198 224.010,334.524 222.800 C 337.235 212.742,337.964 194.682,336.065 184.600 C 334.783 177.792,332.636 169.785,331.587 167.905 C 331.374 167.523,331.200 167.034,331.200 166.817 C 331.200 166.601,330.734 165.383,330.165 164.112 C 322.868 147.814,315.437 138.004,301.596 126.400 C 291.048 117.557,273.300 109.886,258.200 107.646 C 249.364 106.335,241.731 106.087,234.600 106.879 M150.517 208.857 C 150.641 209.376,150.854 210.700,150.990 211.800 C 151.521 216.089,152.699 222.138,153.637 225.400 C 154.169 227.249,155.615 231.707,155.973 232.600 C 156.678 234.362,157.311 235.835,157.647 236.495 C 157.841 236.877,158.000 237.534,158.000 237.954 C 158.000 238.581,158.527 238.832,160.900 239.340 C 162.495 239.682,167.580 240.780,172.200 241.781 C 176.821 242.781,180.736 243.600,180.900 243.600 C 181.065 243.600,181.199 239.415,181.197 234.300 L 181.195 225.000 180.097 224.376 C 179.494 224.033,177.740 223.063,176.200 222.220 C 174.660 221.377,168.630 218.038,162.800 214.799 C 148.810 207.028,150.246 207.723,150.517 208.857 " stroke="none" fill="#e2eaea" fill-rule="evenodd"></path><path id="path1" d="M24.270 156.663 C 24.122 156.812,24.000 158.433,24.000 160.267 C 24.000 162.222,23.835 163.600,23.600 163.600 C 23.360 163.600,23.200 165.200,23.200 167.600 C 23.200 170.000,23.040 171.600,22.800 171.600 C 22.561 171.600,22.400 173.133,22.400 175.400 C 22.400 177.667,22.239 179.200,22.000 179.200 C 21.760 179.200,21.600 180.800,21.600 183.200 C 21.600 185.600,21.440 187.200,21.200 187.200 C 20.961 187.200,20.800 188.733,20.800 191.000 C 20.800 193.267,20.639 194.800,20.400 194.800 C 20.160 194.800,20.000 196.400,20.000 198.800 C 20.000 201.200,19.840 202.800,19.600 202.800 C 19.362 202.800,19.200 204.325,19.200 206.576 C 19.200 208.663,19.021 210.463,18.800 210.600 C 18.536 210.763,18.400 237.537,18.400 289.624 C 18.400 341.875,18.535 368.400,18.800 368.400 C 19.020 368.400,19.200 368.940,19.200 369.600 C 19.200 370.260,19.380 370.800,19.600 370.800 C 19.820 370.800,20.000 371.160,20.000 371.600 C 20.000 372.040,20.180 372.400,20.400 372.400 C 20.620 372.400,20.800 372.670,20.800 373.000 C 20.800 373.330,20.980 373.600,21.200 373.600 C 21.420 373.600,21.600 373.870,21.600 374.200 C 21.600 374.530,21.776 374.800,21.992 374.800 C 22.207 374.800,23.357 375.790,24.548 377.000 C 25.739 378.210,26.913 379.200,27.157 379.200 C 27.401 379.200,27.600 379.380,27.600 379.600 C 27.600 379.820,27.960 380.000,28.400 380.000 C 28.840 380.000,29.200 380.180,29.200 380.400 C 29.200 380.620,29.740 380.800,30.400 380.800 C 31.060 380.800,31.600 380.980,31.600 381.200 C 31.600 381.934,191.863 381.734,192.145 381.000 C 192.271 380.670,192.705 380.400,193.109 380.400 C 195.857 380.400,202.731 374.664,204.416 370.965 C 206.503 366.383,206.391 371.030,206.396 288.996 L 206.400 212.592 205.500 212.028 C 204.695 211.523,196.726 206.970,192.000 204.315 C 191.010 203.758,188.490 202.316,186.400 201.109 C 184.310 199.902,181.790 198.459,180.800 197.903 C 174.510 194.368,156.979 184.318,156.626 184.046 C 156.392 183.864,154.940 183.034,153.400 182.200 C 151.149 180.982,140.005 174.656,132.400 170.280 C 131.630 169.837,130.640 169.271,130.200 169.022 C 125.953 166.622,124.800 165.851,124.800 165.415 C 124.800 164.889,121.931 162.800,121.209 162.800 C 120.984 162.800,120.800 162.620,120.800 162.400 C 120.800 162.180,119.900 162.000,118.800 162.000 C 117.700 162.000,116.800 162.180,116.800 162.400 C 116.800 162.620,116.440 162.800,116.000 162.800 C 115.560 162.800,115.200 162.980,115.200 163.200 C 115.200 163.420,114.964 163.600,114.675 163.600 C 114.387 163.600,113.764 163.960,113.292 164.400 C 112.820 164.840,112.156 165.200,111.817 165.200 C 111.478 165.200,111.200 165.346,111.200 165.525 C 111.200 165.704,110.570 166.098,109.800 166.400 C 109.030 166.702,108.400 167.074,108.400 167.226 C 108.400 167.378,107.860 167.727,107.200 168.000 C 106.540 168.273,106.000 168.655,106.000 168.849 C 106.000 169.042,105.640 169.200,105.200 169.200 C 104.760 169.200,104.400 169.380,104.400 169.600 C 104.400 169.820,104.040 170.000,103.600 170.000 C 103.160 170.000,102.800 170.180,102.800 170.400 C 102.800 170.620,102.480 170.800,102.088 170.800 C 101.697 170.800,101.117 171.160,100.800 171.600 C 100.483 172.040,99.903 172.400,99.512 172.400 C 99.120 172.400,98.800 172.580,98.800 172.800 C 98.800 173.020,98.440 173.200,98.000 173.200 C 97.560 173.200,97.200 173.380,97.200 173.600 C 97.200 173.820,96.840 174.000,96.400 174.000 C 95.960 174.000,95.598 174.135,95.595 174.300 C 95.593 174.465,94.828 174.957,93.895 175.394 C 92.963 175.831,92.110 176.285,92.000 176.404 C 91.890 176.522,90.945 177.065,89.900 177.609 C 88.855 178.153,88.000 178.734,88.000 178.899 C 88.000 179.065,87.640 179.200,87.200 179.200 C 86.760 179.200,86.400 179.380,86.400 179.600 C 86.400 179.820,86.055 180.000,85.633 180.000 C 85.212 180.000,84.807 180.135,84.733 180.300 C 84.566 180.676,82.436 181.975,81.500 182.271 C 81.115 182.393,80.800 182.652,80.800 182.847 C 80.800 183.041,80.440 183.200,80.000 183.200 C 79.560 183.200,79.200 183.336,79.200 183.502 C 79.200 183.669,78.615 184.064,77.900 184.380 C 77.185 184.697,76.251 185.280,75.825 185.678 C 75.398 186.075,74.813 186.400,74.525 186.400 C 74.236 186.400,74.000 186.580,74.000 186.800 C 74.000 187.020,73.640 187.200,73.200 187.200 C 72.760 187.200,72.400 187.380,72.400 187.600 C 72.400 187.820,72.040 188.000,71.600 188.000 C 71.160 188.000,70.800 188.180,70.800 188.400 C 70.800 188.620,70.620 188.800,70.400 188.800 C 70.180 188.800,70.000 188.440,70.000 188.000 C 70.000 187.560,69.820 187.200,69.600 187.200 C 69.380 187.200,69.200 186.300,69.200 185.200 C 69.200 184.100,69.020 183.200,68.800 183.200 C 68.580 183.200,68.400 182.300,68.400 181.200 C 68.400 180.100,68.220 179.200,68.000 179.200 C 67.780 179.200,67.600 178.390,67.600 177.400 C 67.600 176.410,67.420 175.600,67.200 175.600 C 66.980 175.600,66.800 174.700,66.800 173.600 C 66.800 172.500,66.620 171.600,66.400 171.600 C 66.180 171.600,66.000 170.700,66.000 169.600 C 66.000 168.500,65.820 167.600,65.600 167.600 C 65.380 167.600,65.200 166.700,65.200 165.600 C 65.200 164.500,65.020 163.600,64.800 163.600 C 64.580 163.600,64.400 162.700,64.400 161.600 C 64.400 160.500,64.231 159.600,64.024 159.600 C 63.817 159.600,63.592 158.925,63.524 158.100 L 63.400 156.600 43.970 156.496 C 33.284 156.439,24.419 156.514,24.270 156.663 M128.567 195.749 C 130.345 196.711,132.520 197.907,133.400 198.406 C 134.280 198.905,135.765 199.738,136.700 200.257 C 137.635 200.775,139.165 201.625,140.100 202.143 C 141.035 202.662,142.430 203.444,143.200 203.880 C 145.411 205.133,173.094 220.517,176.200 222.219 C 177.740 223.062,179.494 224.033,180.097 224.376 L 181.195 225.000 181.197 234.300 C 181.199 239.415,181.059 243.600,180.886 243.600 C 180.714 243.600,177.789 242.986,174.386 242.236 C 170.984 241.486,166.850 240.591,165.200 240.249 C 163.550 239.906,160.490 239.254,158.400 238.800 C 156.310 238.346,153.700 237.801,152.600 237.589 C 151.500 237.376,149.880 237.041,149.000 236.844 C 148.120 236.647,145.510 236.087,143.200 235.600 C 140.890 235.113,138.370 234.576,137.600 234.407 C 130.040 232.749,128.006 232.320,126.800 232.127 C 126.030 232.004,125.216 231.700,124.992 231.451 C 124.197 230.572,122.793 230.000,121.429 230.000 C 120.669 230.000,119.936 229.820,119.800 229.600 C 119.664 229.380,118.753 229.200,117.776 229.200 C 116.799 229.200,116.000 229.038,116.000 228.840 C 116.000 228.642,115.235 228.378,114.300 228.253 C 109.784 227.648,108.973 227.492,108.620 227.159 C 108.411 226.962,107.644 226.800,106.915 226.800 C 106.186 226.800,105.277 226.636,104.895 226.436 C 103.956 225.943,97.366 224.794,95.500 224.797 L 94.000 224.800 94.000 218.800 C 94.000 213.067,94.036 212.800,94.800 212.800 C 95.240 212.800,95.600 212.620,95.600 212.400 C 95.600 212.180,95.920 212.000,96.312 212.000 C 96.703 212.000,97.283 211.640,97.600 211.200 C 97.917 210.760,98.497 210.400,98.888 210.400 C 99.280 210.400,99.600 210.220,99.600 210.000 C 99.600 209.780,99.960 209.600,100.400 209.600 C 100.840 209.600,101.200 209.432,101.200 209.227 C 101.200 209.022,101.605 208.727,102.100 208.572 C 102.595 208.417,103.720 207.815,104.600 207.233 C 105.480 206.651,106.692 205.927,107.293 205.624 C 107.895 205.320,108.742 204.741,109.177 204.336 C 109.611 203.931,110.244 203.600,110.583 203.600 C 110.922 203.600,111.200 203.420,111.200 203.200 C 111.200 202.980,111.436 202.800,111.725 202.800 C 112.013 202.800,112.636 202.440,113.108 202.000 C 113.580 201.560,114.244 201.200,114.583 201.200 C 114.922 201.200,115.200 201.020,115.200 200.800 C 115.200 200.580,115.436 200.400,115.725 200.400 C 116.013 200.400,116.636 200.040,117.108 199.600 C 117.580 199.160,118.244 198.800,118.583 198.800 C 118.922 198.800,119.200 198.620,119.200 198.400 C 119.200 198.180,119.436 198.000,119.725 198.000 C 120.013 198.000,120.636 197.640,121.108 197.200 C 121.580 196.760,122.244 196.400,122.583 196.400 C 122.922 196.400,123.200 196.220,123.200 196.000 C 123.200 195.780,123.458 195.600,123.773 195.600 C 124.088 195.600,124.460 195.240,124.600 194.800 C 124.933 193.752,124.831 193.728,128.567 195.749 M89.954 250.372 C 90.749 250.576,92.390 250.937,93.600 251.173 C 94.810 251.409,97.240 251.895,99.000 252.253 C 102.564 252.977,104.360 253.330,107.600 253.941 C 108.810 254.169,110.610 254.525,111.600 254.731 C 113.475 255.122,137.778 259.966,148.200 262.026 C 151.500 262.678,154.920 263.375,155.800 263.574 C 156.680 263.773,158.480 264.137,159.800 264.382 C 161.120 264.627,162.920 264.987,163.800 265.182 C 164.680 265.376,166.390 265.730,167.600 265.969 C 168.810 266.207,171.240 266.694,173.000 267.051 C 174.760 267.408,177.010 267.843,178.000 268.017 C 178.990 268.191,180.115 268.458,180.500 268.610 C 181.161 268.870,181.200 271.341,181.200 312.644 L 181.200 356.402 112.500 356.301 L 43.800 356.200 43.698 315.721 L 43.596 275.241 45.370 274.021 C 46.346 273.349,47.250 272.800,47.379 272.800 C 47.509 272.800,48.800 272.080,50.248 271.200 C 51.697 270.320,52.945 269.600,53.023 269.600 C 53.101 269.600,54.118 269.035,55.282 268.344 C 56.447 267.653,57.985 266.753,58.700 266.344 C 59.415 265.935,60.675 265.213,61.500 264.740 C 62.325 264.267,64.080 263.297,65.400 262.585 C 66.720 261.873,70.653 259.650,74.140 257.645 C 77.627 255.640,80.525 254.000,80.579 254.000 C 80.633 254.000,82.190 253.100,84.039 252.000 C 87.659 249.847,87.780 249.813,89.954 250.372 " stroke="none" fill="#f9ca0c" fill-rule="evenodd"></path><path id="path2" d="M120.006 18.700 C 120.003 18.975,119.595 19.203,119.100 19.206 C 118.372 19.211,118.315 19.286,118.800 19.600 C 119.266 19.901,119.149 19.989,118.276 19.994 C 117.630 19.997,117.258 20.170,117.400 20.400 C 117.536 20.620,117.361 20.800,117.011 20.800 C 116.661 20.800,116.211 21.205,116.012 21.700 C 115.803 22.222,115.637 22.348,115.619 22.000 C 115.592 21.480,115.539 21.478,115.220 21.981 C 115.018 22.300,114.944 22.710,115.056 22.891 C 115.168 23.072,115.111 23.194,114.930 23.163 C 113.928 22.989,113.599 23.318,113.594 24.500 C 113.589 25.486,113.494 25.655,113.200 25.200 C 112.885 24.712,112.811 24.764,112.806 25.476 C 112.803 25.958,112.620 26.464,112.400 26.600 C 112.175 26.739,112.000 28.663,112.000 31.000 C 112.000 33.337,112.175 35.261,112.400 35.400 C 112.620 35.536,112.800 36.099,112.800 36.652 C 112.800 37.748,113.717 38.931,114.217 38.481 C 114.388 38.326,114.412 38.404,114.270 38.653 C 113.894 39.310,115.511 41.209,116.215 40.939 C 116.587 40.796,116.800 40.962,116.800 41.395 C 116.800 41.769,117.160 42.169,117.600 42.284 C 118.040 42.399,118.400 42.652,118.400 42.847 C 118.400 43.041,118.730 43.200,119.133 43.200 C 119.537 43.200,119.960 43.294,120.075 43.408 C 120.377 43.710,373.223 43.646,374.334 43.343 C 375.032 43.153,375.133 43.004,374.734 42.751 C 374.341 42.502,374.414 42.411,375.012 42.406 C 375.458 42.403,376.083 42.040,376.400 41.600 C 377.004 40.761,377.856 40.462,377.362 41.262 C 377.184 41.550,377.252 41.615,377.545 41.434 C 377.802 41.275,377.943 41.022,377.858 40.872 C 377.772 40.723,378.050 40.242,378.475 39.805 C 379.246 39.011,379.247 39.011,378.960 39.805 C 378.555 40.924,378.968 40.462,379.957 38.688 C 380.421 37.856,380.800 36.911,380.800 36.588 C 380.800 36.265,380.980 36.000,381.200 36.000 C 381.422 36.000,381.600 34.933,381.600 33.600 L 381.600 31.200 258.415 31.200 C 136.045 31.200,135.216 31.195,133.083 30.397 C 129.444 29.035,125.234 24.017,125.198 21.000 C 125.173 18.792,124.804 18.400,122.753 18.400 C 121.461 18.400,120.798 18.569,120.794 18.900 C 120.790 19.233,120.658 19.200,120.400 18.800 C 120.142 18.400,120.010 18.367,120.006 18.700 M191.612 63.033 C 188.352 64.447,187.402 66.369,187.715 70.920 C 188.534 82.823,195.809 92.915,206.896 97.531 C 213.192 100.152,207.933 100.000,292.426 100.000 L 369.200 100.000 369.200 81.200 L 369.200 62.400 281.100 62.416 C 203.559 62.429,192.834 62.503,191.612 63.033 M236.500 106.287 C 237.105 106.378,238.095 106.378,238.700 106.287 C 239.305 106.195,238.810 106.120,237.600 106.120 C 236.390 106.120,235.895 106.195,236.500 106.287 M248.900 106.287 C 249.505 106.378,250.495 106.378,251.100 106.287 C 251.705 106.195,251.210 106.120,250.000 106.120 C 248.790 106.120,248.295 106.195,248.900 106.287 M120.032 118.700 C 120.014 118.975,119.595 119.203,119.100 119.206 C 118.372 119.211,118.315 119.286,118.800 119.600 C 119.266 119.901,119.149 119.989,118.276 119.994 C 117.630 119.997,117.258 120.170,117.400 120.400 C 117.536 120.620,117.361 120.800,117.011 120.800 C 116.661 120.800,116.211 121.205,116.012 121.700 C 115.803 122.222,115.637 122.348,115.619 122.000 C 115.592 121.480,115.539 121.478,115.220 121.981 C 115.018 122.300,114.944 122.710,115.056 122.891 C 115.168 123.072,115.111 123.194,114.930 123.163 C 113.928 122.989,113.599 123.318,113.594 124.500 C 113.589 125.486,113.494 125.655,113.200 125.200 C 112.885 124.712,112.811 124.764,112.806 125.476 C 112.803 125.958,112.620 126.464,112.400 126.600 C 112.175 126.739,112.000 128.663,112.000 131.000 C 112.000 133.337,112.175 135.261,112.400 135.400 C 112.620 135.536,112.800 136.099,112.800 136.652 C 112.800 137.748,113.717 138.931,114.217 138.481 C 114.388 138.326,114.412 138.404,114.270 138.653 C 113.894 139.310,115.511 141.209,116.215 140.939 C 116.587 140.796,116.800 140.962,116.800 141.395 C 116.800 141.769,117.160 142.169,117.600 142.284 C 118.040 142.399,118.400 142.652,118.400 142.847 C 118.400 143.041,118.730 143.200,119.133 143.200 C 119.537 143.200,119.986 143.319,120.132 143.465 C 120.452 143.786,168.399 143.895,168.400 143.575 C 168.400 143.452,168.721 143.002,169.114 142.575 C 169.507 142.149,170.092 141.422,170.414 140.960 C 172.579 137.855,181.583 128.975,185.582 126.000 C 186.322 125.450,187.155 124.775,187.435 124.500 C 187.714 124.225,188.121 124.000,188.338 124.000 C 188.555 124.000,188.793 123.851,188.867 123.670 C 189.046 123.224,195.029 119.223,195.682 119.111 C 195.967 119.063,179.280 118.928,158.600 118.811 C 137.685 118.694,120.888 118.753,120.748 118.945 C 120.610 119.135,120.399 119.045,120.280 118.745 C 120.126 118.358,120.054 118.345,120.032 118.700 M292.800 119.685 C 293.570 120.170,294.637 120.805,295.171 121.096 C 301.400 124.496,315.192 137.619,319.494 144.240 C 319.824 144.749,319.956 144.802,319.894 144.400 C 319.811 143.872,323.030 143.791,346.600 143.728 C 372.252 143.658,375.963 143.530,374.734 142.751 C 374.341 142.502,374.414 142.411,375.012 142.406 C 375.458 142.403,376.083 142.040,376.400 141.600 C 377.004 140.761,377.856 140.462,377.362 141.262 C 377.184 141.550,377.252 141.615,377.545 141.434 C 377.802 141.275,377.943 141.022,377.858 140.872 C 377.772 140.723,378.050 140.242,378.475 139.805 C 379.246 139.011,379.247 139.011,378.960 139.805 C 378.555 140.924,378.968 140.462,379.957 138.688 C 380.421 137.856,380.800 136.911,380.800 136.588 C 380.800 136.265,380.980 136.000,381.200 136.000 C 381.422 136.000,381.600 134.937,381.600 133.610 L 381.600 131.220 359.900 131.110 L 338.200 131.000 336.282 130.020 C 332.523 128.099,329.751 124.395,329.314 120.706 L 329.089 118.800 310.244 118.801 L 291.400 118.803 292.800 119.685 M31.200 131.740 C 31.200 135.484,34.524 140.500,38.273 142.416 L 40.200 143.400 54.700 143.514 L 69.200 143.628 69.200 137.214 L 69.200 130.800 50.200 130.800 L 31.200 130.800 31.200 131.740 M359.400 162.960 C 355.562 164.173,352.894 166.474,351.235 170.000 L 350.200 172.200 350.084 199.200 C 349.961 227.833,349.985 228.265,351.853 231.264 C 354.715 235.859,358.368 237.600,365.146 237.600 L 369.200 237.600 369.200 200.000 L 369.200 162.400 365.100 162.427 C 362.845 162.441,360.280 162.681,359.400 162.960 M317.578 258.477 C 315.113 261.992,306.423 270.647,301.994 274.000 C 301.268 274.550,300.477 275.191,300.237 275.425 C 299.435 276.206,292.438 280.799,291.915 280.888 C 291.632 280.936,309.850 281.071,332.400 281.188 C 354.950 281.305,373.460 281.265,373.533 281.100 C 373.607 280.935,374.057 280.797,374.533 280.794 C 375.240 280.789,375.289 280.716,374.800 280.400 C 374.345 280.106,374.514 280.011,375.500 280.006 C 376.413 280.002,376.800 279.813,376.800 279.371 C 376.800 278.468,377.873 277.451,378.136 278.104 C 378.247 278.377,378.351 278.216,378.368 277.747 C 378.387 277.246,378.731 276.807,379.200 276.684 C 379.761 276.537,380.002 276.135,380.006 275.337 C 380.011 274.456,380.100 274.335,380.400 274.800 C 380.714 275.285,380.789 275.228,380.794 274.500 C 380.797 274.005,380.980 273.600,381.200 273.600 C 381.422 273.600,381.600 272.533,381.600 271.200 L 381.600 268.800 360.615 268.800 C 340.132 268.800,339.575 268.779,337.335 267.941 C 333.161 266.380,329.917 262.424,329.336 258.187 L 329.092 256.408 348.846 256.276 C 365.310 256.167,364.484 256.150,343.888 256.173 L 319.176 256.200 317.578 258.477 M56.000 268.318 C 50.830 271.273,46.060 274.001,45.400 274.380 L 44.200 275.069 44.098 315.534 L 43.996 356.000 112.598 356.000 L 181.200 356.000 181.200 346.800 L 181.200 337.600 169.327 337.600 C 151.176 337.600,143.687 336.532,130.200 332.022 C 123.836 329.894,122.800 329.485,122.800 329.099 C 122.800 328.921,121.984 329.230,120.986 329.787 C 119.988 330.344,118.829 330.800,118.409 330.800 C 117.990 330.800,117.536 330.980,117.400 331.200 C 116.762 332.232,106.511 331.445,105.341 330.274 C 105.190 330.123,104.814 330.000,104.505 330.000 C 101.896 330.000,94.400 321.700,94.400 318.811 C 94.400 318.391,94.220 317.936,94.000 317.800 C 93.779 317.663,93.600 315.860,93.600 313.769 L 93.600 309.985 91.300 307.684 C 82.460 298.839,73.747 285.540,69.626 274.600 C 69.129 273.280,68.566 271.840,68.375 271.400 C 68.184 270.960,67.651 269.340,67.190 267.800 C 66.730 266.260,66.139 264.538,65.877 263.972 L 65.400 262.945 56.000 268.318 M234.300 293.882 C 234.795 293.978,235.605 293.978,236.100 293.882 C 236.595 293.787,236.190 293.709,235.200 293.709 C 234.210 293.709,233.805 293.787,234.300 293.882 M251.100 293.882 C 251.595 293.978,252.405 293.978,252.900 293.882 C 253.395 293.787,252.990 293.709,252.000 293.709 C 251.010 293.709,250.605 293.787,251.100 293.882 M235.158 300.532 C 225.701 304.777,234.283 326.938,248.069 333.873 C 255.770 337.748,253.116 337.600,314.933 337.600 L 369.200 337.600 369.200 318.800 L 369.200 300.000 302.700 300.032 C 252.886 300.057,235.939 300.182,235.158 300.532 M71.683 306.500 C 78.471 310.390,74.958 320.444,67.313 319.010 C 62.514 318.110,60.587 311.247,64.175 307.831 C 66.118 305.980,69.676 305.350,71.683 306.500 M155.505 306.283 C 156.002 306.379,156.722 306.375,157.105 306.275 C 157.487 306.175,157.080 306.096,156.200 306.101 C 155.320 306.105,155.007 306.187,155.505 306.283 M162.501 312.600 C 162.505 313.480,162.587 313.793,162.683 313.295 C 162.779 312.798,162.775 312.078,162.675 311.695 C 162.575 311.313,162.496 311.720,162.501 312.600 M131.293 313.200 C 131.293 313.970,131.375 314.285,131.476 313.900 C 131.576 313.515,131.576 312.885,131.476 312.500 C 131.375 312.115,131.293 312.430,131.293 313.200 M211.500 356.299 L 206.400 356.424 206.400 361.593 C 206.400 366.928,206.325 367.284,204.326 371.426 C 202.267 375.692,196.183 380.800,193.159 380.800 C 192.742 380.800,192.400 380.980,192.400 381.200 C 192.400 381.465,222.867 381.600,283.000 381.600 C 343.133 381.600,373.600 381.465,373.600 381.200 C 373.600 380.980,374.005 380.797,374.500 380.794 C 375.228 380.789,375.285 380.714,374.800 380.400 C 374.345 380.106,374.514 380.011,375.500 380.006 C 376.413 380.002,376.800 379.813,376.800 379.371 C 376.800 378.468,377.873 377.451,378.136 378.104 C 378.247 378.377,378.351 378.216,378.368 377.747 C 378.387 377.246,378.731 376.807,379.200 376.684 C 379.761 376.537,380.002 376.135,380.006 375.337 C 380.011 374.456,380.100 374.335,380.400 374.800 C 380.714 375.285,380.789 375.228,380.794 374.500 C 380.797 374.005,380.980 373.600,381.200 373.600 C 381.422 373.600,381.600 372.533,381.600 371.200 L 381.600 368.800 304.546 368.800 C 222.986 368.800,225.853 368.865,222.736 366.940 C 219.240 364.780,215.327 358.113,216.731 356.709 C 216.900 356.540,251.229 356.356,293.019 356.300 L 369.000 356.198 292.800 356.186 C 250.890 356.179,214.305 356.230,211.500 356.299 " stroke="none" fill="#54b4eb" fill-rule="evenodd"></path><path id="path3" d="M125.039 20.100 C 125.693 24.570,129.072 28.896,133.083 30.397 C 135.216 31.195,136.045 31.200,258.415 31.200 L 381.600 31.200 381.600 29.238 C 381.600 27.425,380.321 24.031,379.500 23.667 C 379.335 23.593,379.200 23.348,379.200 23.121 C 379.200 22.548,376.360 20.000,375.722 20.000 C 375.435 20.000,375.200 19.820,375.200 19.600 C 375.200 19.380,374.851 19.200,374.424 19.200 C 373.997 19.200,373.536 19.020,373.400 18.800 C 373.236 18.535,331.328 18.400,248.972 18.400 L 124.791 18.400 125.039 20.100 M378.351 39.900 C 378.007 40.285,377.337 40.865,376.862 41.188 C 376.388 41.512,376.000 41.933,376.000 42.124 C 376.000 42.539,378.463 40.537,378.920 39.750 C 379.360 38.993,379.102 39.061,378.351 39.900 M241.715 106.296 C 242.988 106.376,244.968 106.375,246.115 106.294 C 247.262 106.214,246.220 106.149,243.800 106.150 C 241.380 106.151,240.442 106.216,241.715 106.296 M232.800 106.661 C 232.030 106.733,230.500 106.959,229.400 107.162 C 228.300 107.364,226.230 107.742,224.800 108.002 C 223.370 108.261,221.750 108.616,221.200 108.790 C 220.650 108.965,219.390 109.332,218.400 109.607 C 216.876 110.030,215.464 110.471,211.243 111.838 C 210.936 111.938,210.769 112.102,210.871 112.204 C 210.973 112.306,212.124 112.009,213.428 111.543 C 214.733 111.077,216.340 110.555,217.000 110.383 C 217.660 110.210,219.190 109.811,220.400 109.494 C 221.610 109.178,223.680 108.705,225.000 108.443 C 226.320 108.182,228.168 107.795,229.106 107.584 C 230.044 107.373,231.574 107.187,232.506 107.170 C 233.438 107.154,235.010 106.997,236.000 106.820 L 237.800 106.500 236.000 106.514 C 235.010 106.522,233.570 106.588,232.800 106.661 M252.600 106.826 C 259.194 107.724,263.289 108.472,267.200 109.494 C 268.410 109.811,269.940 110.210,270.600 110.383 C 271.260 110.555,272.867 111.077,274.172 111.543 C 275.476 112.009,276.627 112.306,276.729 112.204 C 276.831 112.102,276.664 111.938,276.357 111.838 C 269.569 109.639,268.882 109.435,265.600 108.642 C 261.521 107.658,256.490 106.859,253.000 106.643 L 249.800 106.445 252.600 106.826 M208.053 113.053 C 207.313 113.376,206.792 113.725,206.895 113.828 C 206.999 113.932,207.875 113.666,208.842 113.237 C 209.809 112.808,210.330 112.458,210.000 112.461 C 209.670 112.463,208.794 112.730,208.053 113.053 M278.000 112.893 C 278.550 113.134,281.430 114.508,284.400 115.946 C 290.921 119.103,290.706 119.009,290.200 118.490 C 289.298 117.567,278.417 112.376,277.490 112.427 C 277.220 112.442,277.450 112.651,278.000 112.893 M199.963 116.946 C 194.499 119.697,189.170 122.927,188.867 123.672 C 188.793 123.853,188.555 124.000,188.338 124.000 C 188.121 124.000,187.714 124.225,187.435 124.500 C 187.155 124.775,186.322 125.450,185.582 126.000 C 181.566 128.987,172.500 137.935,170.423 140.960 C 170.106 141.422,169.733 141.890,169.594 142.000 C 169.456 142.110,168.478 143.550,167.422 145.200 C 166.365 146.850,165.343 148.260,165.150 148.333 C 164.958 148.407,164.800 148.649,164.800 148.872 C 164.800 149.094,164.461 149.754,164.047 150.338 C 161.345 154.149,155.530 166.185,156.757 165.426 C 157.001 165.276,157.200 164.910,157.200 164.614 C 157.200 164.318,157.543 163.384,157.961 162.538 C 158.380 161.692,159.194 160.010,159.770 158.800 C 160.346 157.590,161.289 155.790,161.865 154.800 C 162.442 153.810,163.268 152.370,163.701 151.600 C 164.554 150.087,169.590 142.728,169.998 142.400 C 170.134 142.290,170.551 141.755,170.922 141.212 C 173.341 137.678,182.981 128.431,187.600 125.214 C 188.370 124.677,189.090 124.126,189.200 123.989 C 190.044 122.937,197.001 118.848,203.400 115.644 C 205.160 114.763,206.420 114.034,206.200 114.025 C 205.980 114.016,203.174 115.330,199.963 116.946 M349.245 118.700 L 329.089 118.807 329.315 120.710 C 329.751 124.395,332.524 128.100,336.282 130.020 L 338.200 131.000 359.900 131.110 L 381.600 131.220 381.600 129.248 C 381.600 127.425,380.323 124.033,379.500 123.667 C 379.335 123.593,379.200 123.348,379.200 123.121 C 379.200 122.548,376.360 120.000,375.722 120.000 C 375.435 120.000,375.200 119.820,375.200 119.600 C 375.200 119.380,374.851 119.200,374.424 119.200 C 373.997 119.200,373.536 119.020,373.400 118.800 C 373.264 118.580,372.308 118.443,371.276 118.496 C 370.244 118.549,360.330 118.641,349.245 118.700 M290.954 119.126 C 291.065 119.305,291.930 119.852,292.878 120.341 C 304.814 126.508,320.342 143.596,327.463 158.400 C 328.574 160.710,329.874 163.410,330.351 164.400 C 330.829 165.390,331.104 165.750,330.963 165.200 C 329.656 160.102,320.794 145.243,315.219 138.800 C 309.605 132.312,299.707 123.572,295.171 121.096 C 294.637 120.805,293.570 120.170,292.800 119.685 C 291.364 118.781,290.597 118.548,290.954 119.126 M378.351 139.900 C 378.007 140.285,377.337 140.865,376.862 141.188 C 376.388 141.512,376.000 141.933,376.000 142.124 C 376.000 142.539,378.463 140.537,378.920 139.750 C 379.360 138.993,379.102 139.061,378.351 139.900 M242.400 151.573 C 241.850 152.214,240.332 153.877,239.027 155.269 C 233.282 161.395,232.523 162.261,234.178 160.796 C 235.045 160.028,236.485 158.590,237.377 157.600 C 244.355 149.853,243.312 149.957,249.061 156.429 C 255.116 163.245,255.083 163.207,256.515 165.088 C 257.222 166.016,257.952 166.781,258.137 166.788 C 258.680 166.808,251.839 158.715,246.735 153.300 C 243.607 149.980,243.726 150.028,242.400 151.573 M258.807 167.798 C 259.133 168.238,259.619 168.829,259.886 169.113 C 260.153 169.397,260.687 170.163,261.072 170.815 C 261.457 171.467,261.925 172.000,262.111 172.000 C 262.542 172.000,260.136 168.632,259.040 167.702 C 258.237 167.020,258.230 167.022,258.807 167.798 M155.000 168.800 C 154.850 169.273,154.817 169.750,154.927 169.860 C 155.037 169.970,155.250 169.673,155.400 169.200 C 155.550 168.727,155.583 168.250,155.473 168.140 C 155.363 168.030,155.150 168.327,155.000 168.800 M332.012 168.800 C 332.012 169.130,332.187 169.670,332.400 170.000 C 332.745 170.533,332.788 170.533,332.788 170.000 C 332.788 169.670,332.613 169.130,332.400 168.800 C 332.055 168.267,332.012 168.267,332.012 168.800 M154.200 171.200 C 154.050 171.673,154.017 172.150,154.127 172.260 C 154.237 172.370,154.450 172.073,154.600 171.600 C 154.750 171.127,154.783 170.650,154.673 170.540 C 154.563 170.430,154.350 170.727,154.200 171.200 M332.812 171.200 C 332.812 171.530,332.987 172.070,333.200 172.400 C 333.545 172.933,333.588 172.933,333.588 172.400 C 333.588 172.070,333.413 171.530,333.200 171.200 C 332.855 170.667,332.812 170.667,332.812 171.200 M263.780 174.416 C 267.378 179.400,271.829 186.371,272.264 187.700 C 272.390 188.085,272.657 188.400,272.857 188.400 C 273.745 188.400,264.143 173.430,262.672 172.521 C 262.415 172.362,262.913 173.215,263.780 174.416 M153.473 173.753 C 153.323 174.145,153.211 174.766,153.225 175.133 C 153.242 175.575,153.381 175.474,153.637 174.834 C 153.849 174.303,153.961 173.682,153.885 173.454 C 153.809 173.227,153.624 173.361,153.473 173.753 M333.634 174.000 C 333.646 174.330,333.811 174.960,334.000 175.400 L 334.344 176.200 334.366 175.400 C 334.378 174.960,334.213 174.330,334.000 174.000 C 333.655 173.467,333.615 173.467,333.634 174.000 M152.649 176.615 C 152.512 176.973,152.416 177.656,152.436 178.133 C 152.462 178.747,152.585 178.608,152.859 177.656 C 153.257 176.272,153.094 175.458,152.649 176.615 M334.446 176.800 C 334.465 177.130,334.624 177.850,334.800 178.400 L 335.120 179.400 335.154 178.400 C 335.173 177.850,335.013 177.130,334.800 176.800 C 334.455 176.267,334.416 176.267,334.446 176.800 M151.693 180.155 C 151.395 180.811,151.368 181.200,151.621 181.200 C 152.108 181.200,152.535 180.206,152.323 179.568 C 152.239 179.316,151.955 179.580,151.693 180.155 M335.275 180.200 C 335.286 180.640,335.432 181.540,335.600 182.200 L 335.905 183.400 335.925 182.200 C 335.935 181.540,335.789 180.640,335.600 180.200 L 335.256 179.400 335.275 180.200 M336.259 185.800 C 336.393 186.900,336.569 187.875,336.651 187.967 C 336.964 188.317,336.726 185.361,336.380 184.600 C 336.135 184.061,336.095 184.454,336.259 185.800 M273.267 189.100 C 274.346 191.528,276.114 194.819,276.261 194.672 C 276.485 194.448,273.696 188.800,273.362 188.800 C 273.236 188.800,273.193 188.935,273.267 189.100 M337.000 200.000 C 337.000 206.004,337.125 210.215,337.277 209.358 C 337.429 208.501,337.554 204.290,337.554 200.000 C 337.554 195.710,337.429 191.499,337.277 190.642 C 337.125 189.785,337.000 193.996,337.000 200.000 M278.812 201.600 C 278.812 201.930,278.987 202.470,279.200 202.800 C 279.545 203.333,279.588 203.333,279.588 202.800 C 279.588 202.470,279.413 201.930,279.200 201.600 C 278.855 201.067,278.812 201.067,278.812 201.600 M279.634 204.400 C 279.646 204.730,279.811 205.360,280.000 205.800 L 280.344 206.600 280.366 205.800 C 280.378 205.360,280.213 204.730,280.000 204.400 C 279.655 203.867,279.615 203.867,279.634 204.400 M206.124 209.400 C 206.126 210.720,206.201 211.212,206.290 210.493 C 206.379 209.774,206.377 208.694,206.286 208.093 C 206.195 207.492,206.122 208.080,206.124 209.400 M280.581 212.818 C 280.571 215.998,280.689 218.150,280.842 217.600 C 281.188 216.358,281.195 209.817,280.852 208.218 C 280.713 207.569,280.591 209.639,280.581 212.818 M150.228 209.600 C 151.325 217.594,151.794 220.328,152.128 220.661 C 152.528 221.062,152.465 220.298,151.832 217.083 C 151.519 215.497,151.143 213.136,150.995 211.835 C 150.847 210.534,150.559 209.094,150.354 208.635 C 150.091 208.045,150.054 208.328,150.228 209.600 M336.246 213.947 C 336.089 215.127,336.046 216.179,336.150 216.283 C 336.417 216.550,336.922 212.964,336.707 212.325 C 336.611 212.036,336.403 212.766,336.246 213.947 M335.454 218.354 C 335.300 219.318,335.258 220.191,335.361 220.294 C 335.630 220.563,336.115 217.745,335.907 217.122 C 335.812 216.836,335.608 217.390,335.454 218.354 M334.629 222.229 C 334.481 222.815,334.451 223.384,334.561 223.494 C 334.671 223.604,334.881 223.215,335.029 222.629 C 335.176 222.042,335.206 221.473,335.096 221.363 C 334.986 221.253,334.776 221.642,334.629 222.229 M152.434 222.200 C 152.422 222.640,152.587 223.270,152.800 223.600 C 153.314 224.395,153.314 223.396,152.800 222.200 L 152.456 221.400 152.434 222.200 M333.873 224.953 C 333.723 225.345,333.611 225.966,333.625 226.333 C 333.642 226.775,333.781 226.674,334.037 226.034 C 334.249 225.503,334.361 224.882,334.285 224.654 C 334.209 224.427,334.024 224.561,333.873 224.953 M153.212 225.200 C 153.212 225.530,153.387 226.070,153.600 226.400 C 153.945 226.933,153.988 226.933,153.988 226.400 C 153.988 226.070,153.813 225.530,153.600 225.200 C 153.255 224.667,153.212 224.667,153.212 225.200 M333.000 228.000 C 332.850 228.473,332.817 228.950,332.927 229.060 C 333.037 229.170,333.250 228.873,333.400 228.400 C 333.550 227.927,333.583 227.450,333.473 227.340 C 333.363 227.230,333.150 227.527,333.000 228.000 M154.012 228.000 C 154.012 228.330,154.187 228.870,154.400 229.200 C 154.745 229.733,154.788 229.733,154.788 229.200 C 154.788 228.870,154.613 228.330,154.400 228.000 C 154.055 227.467,154.012 227.467,154.012 228.000 M332.200 230.400 C 332.050 230.873,332.017 231.350,332.127 231.460 C 332.237 231.570,332.450 231.273,332.600 230.800 C 332.750 230.327,332.783 229.850,332.673 229.740 C 332.563 229.630,332.350 229.927,332.200 230.400 M154.812 230.400 C 154.812 230.730,154.987 231.270,155.200 231.600 C 155.545 232.133,155.588 232.133,155.588 231.600 C 155.588 231.270,155.413 230.730,155.200 230.400 C 154.855 229.867,154.812 229.867,154.812 230.400 M330.267 235.667 C 329.905 236.588,329.674 237.407,329.754 237.488 C 329.834 237.568,330.200 236.883,330.567 235.967 C 330.933 235.050,331.164 234.231,331.079 234.146 C 330.994 234.061,330.629 234.745,330.267 235.667 M156.400 234.492 C 156.400 234.568,156.754 235.614,157.186 236.815 C 157.777 238.461,157.975 238.734,157.986 237.924 C 157.994 237.332,157.820 236.736,157.600 236.600 C 157.380 236.464,157.200 236.014,157.200 235.600 C 157.200 235.186,157.020 234.736,156.800 234.600 C 156.580 234.464,156.400 234.415,156.400 234.492 M327.355 241.900 C 326.299 244.045,325.324 245.890,325.188 246.000 C 325.053 246.110,324.824 246.470,324.680 246.800 C 321.470 254.159,308.500 268.867,300.000 274.786 C 299.230 275.323,298.510 275.882,298.400 276.029 C 298.062 276.481,291.919 280.400,291.549 280.400 C 291.357 280.400,291.200 280.574,291.200 280.787 C 291.200 281.487,298.395 277.218,300.237 275.425 C 300.477 275.191,301.268 274.550,301.994 274.000 C 312.341 266.167,324.179 251.037,328.986 239.500 C 330.149 236.709,329.286 237.979,327.355 241.900 M225.600 245.783 C 225.600 245.963,228.002 247.200,228.350 247.200 C 228.697 247.200,227.094 246.167,226.300 245.879 C 225.915 245.739,225.600 245.696,225.600 245.783 M259.693 246.580 C 258.398 247.295,258.191 247.580,259.147 247.330 C 259.602 247.211,260.182 246.863,260.436 246.557 C 260.975 245.907,260.907 245.909,259.693 246.580 M83.702 252.385 C 81.449 253.689,78.659 255.281,77.502 255.924 C 76.346 256.566,73.780 258.035,71.800 259.187 C 69.820 260.339,67.030 261.860,65.600 262.567 C 64.170 263.274,62.280 264.274,61.400 264.789 C 60.520 265.304,59.440 265.929,59.000 266.178 C 55.390 268.218,53.600 269.302,53.600 269.448 C 53.600 269.685,54.994 268.941,60.668 265.679 L 65.536 262.880 65.937 263.940 C 66.157 264.523,66.718 266.260,67.183 267.800 C 67.647 269.340,68.184 270.960,68.375 271.400 C 68.566 271.840,69.129 273.280,69.626 274.600 C 73.707 285.433,82.168 298.396,91.121 307.531 C 93.325 309.780,94.346 309.769,94.387 307.495 C 94.394 307.107,94.559 306.477,94.753 306.095 C 94.948 305.713,95.329 304.860,95.600 304.200 C 98.242 297.773,110.227 282.053,112.520 282.006 C 114.727 281.962,129.600 302.987,129.600 306.151 C 129.600 306.482,129.780 306.864,130.000 307.000 C 130.220 307.136,130.400 307.655,130.400 308.152 C 130.400 308.650,130.685 309.894,131.033 310.916 C 132.478 315.156,130.179 321.557,125.594 326.061 C 121.882 329.707,121.397 329.079,130.200 332.022 C 136.386 334.091,136.727 334.189,141.000 335.139 C 149.807 337.095,155.616 337.600,169.327 337.600 L 181.200 337.600 181.200 303.264 L 181.200 268.927 178.900 268.444 C 177.635 268.177,175.790 267.781,174.800 267.561 C 173.810 267.342,162.110 264.988,148.800 262.331 C 119.794 256.539,121.773 256.929,119.800 256.614 C 118.920 256.474,117.570 256.204,116.800 256.016 C 115.449 255.685,114.129 255.413,109.000 254.406 C 107.680 254.147,105.880 253.784,105.000 253.600 C 103.023 253.186,100.452 252.675,93.956 251.405 C 91.183 250.862,88.663 250.327,88.356 250.216 C 88.050 250.105,85.956 251.081,83.702 252.385 M241.300 250.297 C 242.785 250.374,245.215 250.374,246.700 250.297 C 248.185 250.220,246.970 250.157,244.000 250.157 C 241.030 250.157,239.815 250.220,241.300 250.297 M349.046 256.300 L 329.092 256.408 329.336 258.187 C 329.917 262.424,333.161 266.380,337.335 267.941 C 339.575 268.779,340.132 268.800,360.615 268.800 L 381.600 268.800 381.600 266.624 C 381.600 265.427,381.420 264.336,381.200 264.200 C 380.980 264.064,380.800 263.603,380.800 263.176 C 380.800 262.749,380.620 262.400,380.400 262.400 C 380.180 262.400,380.000 262.130,380.000 261.800 C 380.000 261.470,379.820 261.200,379.600 261.200 C 379.380 261.200,379.200 260.973,379.200 260.695 C 379.200 260.417,378.720 259.832,378.134 259.395 C 377.548 258.958,376.841 258.375,376.563 258.100 C 376.285 257.825,375.864 257.600,375.629 257.600 C 375.393 257.600,375.200 257.420,375.200 257.200 C 375.200 256.980,374.840 256.800,374.400 256.800 C 373.960 256.800,373.600 256.620,373.600 256.400 C 373.600 256.169,372.631 256.041,371.300 256.096 C 370.035 256.149,360.021 256.241,349.046 256.300 M51.600 270.433 L 50.600 271.248 51.900 270.614 C 52.615 270.265,53.200 269.894,53.200 269.790 C 53.200 269.392,52.563 269.648,51.600 270.433 M49.100 271.829 C 47.605 272.640,47.696 272.978,49.200 272.200 C 49.860 271.859,50.400 271.494,50.400 271.390 C 50.400 271.132,50.357 271.147,49.100 271.829 M46.000 273.600 C 45.450 274.030,45.180 274.382,45.400 274.382 C 45.620 274.382,46.250 274.030,46.800 273.600 C 47.350 273.170,47.620 272.818,47.400 272.818 C 47.180 272.818,46.550 273.170,46.000 273.600 M44.047 274.943 C 43.718 275.340,43.624 286.355,43.698 315.843 L 43.800 356.200 112.500 356.202 L 181.200 356.203 112.600 356.101 L 44.000 355.998 44.000 315.679 C 44.000 284.853,44.113 275.247,44.480 274.880 C 44.744 274.616,44.856 274.400,44.729 274.400 C 44.602 274.400,44.295 274.644,44.047 274.943 M377.300 278.223 C 376.711 278.863,376.662 279.200,377.157 279.200 C 377.498 279.200,378.137 277.996,377.909 277.783 C 377.849 277.727,377.575 277.925,377.300 278.223 M285.400 283.785 C 282.073 285.406,278.293 287.056,276.600 287.625 C 275.720 287.921,274.829 288.307,274.620 288.482 C 274.411 288.657,273.837 288.800,273.344 288.800 C 272.851 288.800,272.336 288.980,272.200 289.200 C 272.064 289.420,271.434 289.600,270.800 289.600 C 270.166 289.600,269.536 289.780,269.400 290.000 C 269.264 290.220,268.634 290.400,268.000 290.400 C 267.366 290.400,266.748 290.561,266.626 290.758 C 266.505 290.955,265.729 291.217,264.903 291.342 C 264.076 291.467,262.320 291.762,261.000 291.998 C 259.680 292.233,257.192 292.584,255.470 292.776 C 253.749 292.968,252.219 293.250,252.070 293.402 C 251.746 293.735,256.597 293.314,259.400 292.766 C 260.500 292.552,262.390 292.184,263.600 291.950 C 264.810 291.715,266.213 291.361,266.719 291.162 C 267.224 290.963,267.992 290.800,268.424 290.800 C 268.857 290.800,269.523 290.638,269.905 290.439 C 270.287 290.240,271.410 289.860,272.400 289.593 C 273.390 289.327,274.650 288.925,275.200 288.701 C 275.750 288.477,276.560 288.161,277.000 288.000 C 280.545 286.702,288.529 282.752,287.500 282.805 C 287.445 282.808,286.500 283.249,285.400 283.785 M206.600 286.400 C 206.736 286.620,207.109 286.800,207.429 286.800 C 207.749 286.800,208.323 286.959,208.705 287.153 C 210.487 288.060,214.130 289.326,218.000 290.385 C 218.990 290.656,220.113 291.040,220.495 291.239 C 220.877 291.438,221.615 291.600,222.135 291.600 C 222.655 291.600,223.602 291.759,224.240 291.954 C 226.882 292.759,236.039 293.939,235.530 293.408 C 235.381 293.253,233.851 292.968,232.130 292.776 C 230.408 292.584,227.920 292.233,226.600 291.998 C 225.280 291.762,223.524 291.467,222.697 291.342 C 221.871 291.217,221.095 290.955,220.974 290.758 C 220.852 290.561,220.234 290.400,219.600 290.400 C 218.966 290.400,218.336 290.220,218.200 290.000 C 218.064 289.780,217.511 289.600,216.971 289.600 C 216.431 289.600,215.677 289.426,215.295 289.213 C 214.913 289.000,213.790 288.566,212.800 288.249 C 211.810 287.932,210.048 287.296,208.885 286.836 C 206.482 285.886,206.256 285.843,206.600 286.400 M240.100 293.898 C 242.025 293.971,245.175 293.971,247.100 293.898 C 249.025 293.825,247.450 293.765,243.600 293.765 C 239.750 293.765,238.175 293.825,240.100 293.898 M159.038 306.762 C 161.840 308.034,163.460 311.775,162.387 314.493 C 159.729 321.224,150.007 319.800,150.001 312.680 C 149.998 307.685,154.532 304.715,159.038 306.762 M293.019 356.300 C 251.229 356.356,216.900 356.540,216.731 356.709 C 215.327 358.113,219.240 364.780,222.736 366.940 C 225.853 368.865,222.986 368.800,304.546 368.800 L 381.600 368.800 381.600 366.624 C 381.600 365.427,381.420 364.336,381.200 364.200 C 380.980 364.064,380.800 363.603,380.800 363.176 C 380.800 362.749,380.620 362.400,380.400 362.400 C 380.180 362.400,380.000 362.130,380.000 361.800 C 380.000 361.470,379.820 361.200,379.600 361.200 C 379.380 361.200,379.200 360.973,379.200 360.695 C 379.200 360.417,378.720 359.832,378.134 359.395 C 377.548 358.958,376.841 358.375,376.563 358.100 C 376.285 357.825,375.864 357.600,375.629 357.600 C 375.393 357.600,375.200 357.420,375.200 357.200 C 375.200 356.980,374.840 356.800,374.400 356.800 C 373.960 356.800,373.600 356.620,373.600 356.400 C 373.600 356.168,372.633 356.042,371.300 356.099 C 370.035 356.153,334.809 356.244,293.019 356.300 M201.408 375.100 C 199.235 377.552,199.332 377.975,201.523 375.601 C 202.564 374.471,204.121 372.400,203.927 372.400 C 203.857 372.400,202.724 373.615,201.408 375.100 M198.216 377.974 C 197.927 378.441,194.070 380.300,193.033 380.473 C 192.611 380.543,192.220 380.830,192.163 381.110 C 192.106 381.390,192.151 381.436,192.263 381.210 C 192.375 380.985,192.786 380.800,193.177 380.800 C 194.065 380.800,198.800 378.386,198.800 377.933 C 198.800 377.489,198.503 377.510,198.216 377.974 M377.300 378.223 C 376.711 378.863,376.662 379.200,377.157 379.200 C 377.498 379.200,378.137 377.996,377.909 377.783 C 377.849 377.727,377.575 377.925,377.300 378.223 " stroke="none" fill="#84d4f3" fill-rule="evenodd"></path><path id="path4" d="M125.067 43.866 C 124.920 44.013,124.800 60.933,124.800 81.467 L 124.800 118.800 160.372 118.800 L 195.944 118.800 200.085 116.700 C 202.363 115.545,205.031 114.271,206.013 113.869 C 208.892 112.691,209.549 112.421,210.500 112.026 C 210.995 111.821,212.120 111.424,213.000 111.145 C 213.880 110.865,214.771 110.493,214.980 110.318 C 215.189 110.143,215.853 110.000,216.456 110.000 C 217.059 110.000,217.664 109.820,217.800 109.600 C 217.936 109.380,218.566 109.200,219.200 109.200 C 219.834 109.200,220.452 109.039,220.574 108.842 C 220.695 108.645,221.471 108.385,222.297 108.263 C 223.124 108.141,224.790 107.851,226.000 107.619 C 236.293 105.647,251.307 105.647,261.600 107.619 C 262.810 107.851,264.476 108.141,265.303 108.263 C 266.129 108.385,266.905 108.645,267.026 108.842 C 267.148 109.039,267.766 109.200,268.400 109.200 C 269.034 109.200,269.664 109.380,269.800 109.600 C 269.936 109.820,270.566 110.000,271.200 110.000 C 271.834 110.000,272.464 110.180,272.600 110.400 C 272.736 110.620,273.199 110.800,273.629 110.800 C 274.059 110.800,274.723 110.959,275.105 111.153 C 275.487 111.348,276.250 111.684,276.800 111.900 C 280.813 113.478,282.992 114.460,287.297 116.632 L 291.595 118.800 329.765 118.800 C 350.758 118.800,368.219 118.691,368.567 118.557 C 369.119 118.346,369.200 117.138,369.200 109.157 L 369.200 100.000 292.426 100.000 C 207.933 100.000,213.192 100.152,206.896 97.531 C 195.809 92.915,188.534 82.823,187.715 70.920 C 187.399 66.325,188.365 64.409,191.702 63.015 C 193.012 62.468,202.889 62.400,281.195 62.400 L 369.215 62.400 369.107 53.100 L 369.000 43.800 247.167 43.699 C 180.159 43.644,125.214 43.719,125.067 43.866 M18.400 143.700 L 18.400 156.600 43.800 156.600 L 69.200 156.600 69.200 150.114 L 69.200 143.628 54.700 143.514 L 40.200 143.400 38.273 142.416 C 34.524 140.500,31.200 135.484,31.200 131.740 L 31.200 130.800 24.800 130.800 L 18.400 130.800 18.400 143.700 M125.067 143.867 C 124.920 144.013,124.800 149.036,124.800 155.028 L 124.800 165.924 127.100 167.247 C 128.365 167.975,129.760 168.774,130.200 169.022 C 130.640 169.271,131.630 169.837,132.400 170.280 C 143.765 176.819,150.855 180.800,151.136 180.800 C 151.328 180.800,151.784 179.585,152.149 178.100 C 153.051 174.432,154.388 169.951,154.834 169.105 C 155.035 168.723,155.200 168.226,155.200 168.001 C 155.200 167.776,155.578 166.738,156.040 165.696 C 156.502 164.653,157.023 163.440,157.197 163.000 C 158.862 158.805,162.502 152.155,165.618 147.615 C 166.896 145.753,167.854 144.088,167.747 143.915 C 167.512 143.534,125.446 143.487,125.067 143.867 M319.844 143.928 C 319.731 144.112,320.343 145.239,321.206 146.431 C 322.068 147.624,322.780 148.791,322.787 149.025 C 322.794 149.258,323.115 149.798,323.500 150.225 C 324.882 151.757,329.511 160.893,331.548 166.110 C 333.436 170.945,335.684 179.074,336.384 183.600 C 336.639 185.250,337.017 187.575,337.224 188.767 C 337.715 191.594,337.711 208.976,337.219 211.469 C 337.010 212.531,336.630 214.750,336.375 216.400 C 335.394 222.744,332.616 231.913,329.709 238.400 C 328.078 242.039,326.651 244.988,326.419 245.200 C 326.170 245.428,325.295 246.923,324.546 248.400 C 324.267 248.950,323.049 250.840,321.839 252.599 C 320.629 254.359,319.765 255.909,319.919 256.044 C 320.074 256.178,331.225 256.200,344.700 256.092 L 369.200 255.895 369.200 246.748 L 369.200 237.600 365.146 237.600 C 358.368 237.600,354.715 235.859,351.853 231.264 C 349.985 228.265,349.961 227.833,350.084 199.200 L 350.200 172.200 351.235 170.000 C 353.668 164.829,357.427 162.695,364.507 162.467 L 369.215 162.315 369.107 153.058 L 369.000 143.800 344.526 143.697 C 331.065 143.640,319.958 143.744,319.844 143.928 M240.146 154.639 C 238.416 156.553,236.033 159.037,234.850 160.159 C 232.858 162.051,229.917 165.568,224.951 172.000 C 222.987 174.544,216.400 184.209,216.400 184.547 C 216.400 184.641,215.649 185.952,214.731 187.459 C 213.274 189.853,212.517 191.377,209.782 197.434 C 205.677 206.526,205.146 215.864,208.214 225.003 C 208.772 226.666,209.610 228.696,210.076 229.514 C 210.542 230.331,211.291 231.679,211.741 232.510 C 212.191 233.340,212.838 234.333,213.179 234.716 C 213.521 235.099,214.648 236.421,215.685 237.652 C 220.386 243.239,227.065 247.035,236.646 249.565 C 238.779 250.128,248.822 250.128,250.954 249.565 C 257.390 247.863,258.818 247.315,261.472 245.527 C 262.392 244.907,263.260 244.400,263.402 244.400 C 263.902 244.400,268.429 240.725,270.458 238.674 C 274.955 234.125,277.930 229.002,279.907 222.400 C 280.812 219.378,280.774 208.540,279.847 205.200 C 279.511 203.990,279.123 202.550,278.985 202.000 C 278.846 201.450,278.568 200.595,278.367 200.100 C 278.165 199.605,277.841 198.795,277.647 198.300 C 277.119 196.951,273.054 188.630,272.811 188.400 C 272.695 188.290,272.358 187.770,272.062 187.245 C 271.767 186.720,271.209 185.730,270.823 185.045 C 269.367 182.465,262.690 172.597,261.994 172.000 C 261.866 171.890,261.323 171.170,260.786 170.400 C 259.847 169.051,259.047 168.017,258.198 167.055 C 257.977 166.805,256.988 165.610,256.001 164.400 C 255.013 163.190,253.559 161.480,252.769 160.600 C 251.979 159.720,249.803 157.290,247.933 155.200 C 243.669 150.432,243.931 150.451,240.146 154.639 M124.896 212.893 L 125.000 231.787 126.400 232.031 C 127.590 232.239,132.082 233.191,137.600 234.406 C 138.370 234.575,140.890 235.113,143.200 235.600 C 145.510 236.087,148.120 236.648,149.000 236.845 C 155.669 238.343,157.771 238.619,157.511 237.962 C 157.389 237.653,156.803 236.140,156.208 234.600 C 155.613 233.060,154.976 231.440,154.793 231.000 C 153.759 228.521,152.224 222.525,151.260 217.200 C 150.171 211.183,150.000 210.059,150.000 208.910 C 150.000 207.793,149.730 207.519,147.300 206.165 C 145.815 205.338,143.970 204.307,143.200 203.874 C 142.430 203.441,141.035 202.662,140.100 202.143 C 139.165 201.625,137.635 200.775,136.700 200.257 C 135.765 199.738,134.280 198.905,133.400 198.406 C 129.890 196.416,125.319 194.000,125.063 194.000 C 124.914 194.000,124.839 202.502,124.896 212.893 M286.600 283.738 C 283.960 285.092,280.990 286.526,280.000 286.924 C 279.010 287.322,277.887 287.817,277.505 288.024 C 277.123 288.231,276.459 288.400,276.029 288.400 C 275.599 288.400,275.136 288.580,275.000 288.800 C 274.864 289.020,274.324 289.200,273.800 289.200 C 273.276 289.200,272.736 289.380,272.600 289.600 C 272.464 289.820,271.924 290.000,271.400 290.000 C 270.876 290.000,270.336 290.180,270.200 290.400 C 270.064 290.620,269.434 290.800,268.800 290.800 C 268.166 290.800,267.536 290.980,267.400 291.200 C 267.264 291.420,266.479 291.600,265.656 291.600 C 264.833 291.600,263.989 291.762,263.780 291.959 C 263.571 292.156,262.680 292.420,261.800 292.545 C 260.920 292.670,258.760 292.996,257.000 293.268 C 252.966 293.893,234.447 293.905,230.600 293.286 C 229.060 293.038,226.810 292.638,225.600 292.397 C 224.390 292.156,222.724 291.859,221.897 291.737 C 221.071 291.615,220.295 291.355,220.174 291.158 C 220.052 290.961,219.434 290.800,218.800 290.800 C 218.166 290.800,217.536 290.620,217.400 290.400 C 217.264 290.180,216.711 290.000,216.171 290.000 C 215.631 290.000,214.832 289.820,214.395 289.600 C 213.958 289.380,213.242 289.020,212.805 288.800 C 212.368 288.580,211.736 288.400,211.400 288.400 C 211.064 288.400,210.432 288.220,209.995 288.000 C 209.558 287.780,208.842 287.420,208.405 287.200 C 206.273 286.126,206.400 283.938,206.400 321.663 L 206.400 356.526 213.900 356.264 C 218.025 356.120,254.655 356.002,295.300 356.001 L 369.200 356.000 369.200 346.800 L 369.200 337.600 314.933 337.600 C 253.116 337.600,255.770 337.748,248.069 333.873 C 234.325 326.959,225.624 304.543,235.141 300.567 C 236.293 300.085,246.493 300.000,302.856 300.000 L 369.215 300.000 369.107 290.700 L 369.000 281.400 330.200 281.338 L 291.400 281.276 286.600 283.738 M108.782 285.506 C 103.468 290.938,99.866 295.896,96.790 302.012 C 95.046 305.481,94.844 305.955,94.055 308.428 C 93.493 310.191,93.450 317.460,94.000 317.800 C 94.220 317.936,94.400 318.391,94.400 318.811 C 94.400 321.700,101.896 330.000,104.505 330.000 C 104.814 330.000,105.190 330.123,105.341 330.274 C 106.511 331.445,116.762 332.232,117.400 331.200 C 117.536 330.980,117.992 330.800,118.413 330.800 C 120.417 330.800,126.009 326.381,128.215 323.054 C 131.377 318.286,132.128 311.389,129.953 307.105 C 129.759 306.723,129.600 306.217,129.600 305.980 C 129.600 303.376,121.434 291.317,114.796 284.120 C 112.360 281.479,112.828 281.371,108.782 285.506 M65.824 306.524 C 59.145 310.622,62.663 320.435,70.300 319.009 C 75.052 318.122,76.982 311.222,73.427 307.831 C 71.494 305.988,67.747 305.343,65.824 306.524 M152.896 307.175 C 147.597 310.500,150.025 318.803,156.294 318.799 C 164.288 318.792,164.691 306.947,156.713 306.498 C 154.706 306.385,153.937 306.521,152.896 307.175 " stroke="none" fill="#4c94d3" fill-rule="evenodd"></path></g></svg>