<svg id="svg" version="1.1" xmlns="http://www.w3.org/2000/svg" xmlns:xlink="http://www.w3.org/1999/xlink" width="400" height="400" viewBox="0, 0, 400,400"><g id="svgg"><path id="path0" d="M160.087 82.017 C 159.585 82.219,157.708 83.512,155.917 84.892 C 147.443 91.417,138.559 97.978,138.185 97.988 C 137.957 97.995,135.763 95.949,133.309 93.441 C 130.856 90.934,128.270 88.594,127.563 88.241 C 122.581 85.756,117.022 91.367,119.562 96.316 C 120.483 98.112,133.455 110.984,135.060 111.694 C 136.053 112.134,135.338 112.225,129.527 112.400 C 123.566 112.579,122.735 112.689,121.727 113.437 C 118.094 116.134,117.772 120.588,120.994 123.600 L 122.064 124.600 136.714 124.714 C 154.101 124.850,154.735 124.697,155.989 120.040 C 157.338 115.030,154.086 112.730,145.200 112.410 C 141.040 112.260,139.263 112.068,139.800 111.827 C 141.089 111.247,165.694 92.741,166.894 91.447 C 171.099 86.918,165.882 79.691,160.087 82.017 M237.699 156.300 L 237.800 218.600 256.300 218.704 L 274.800 218.808 274.800 156.404 L 274.800 94.000 256.199 94.000 L 237.597 94.000 237.699 156.300 M125.200 156.139 L 125.200 168.800 137.600 168.800 L 150.000 168.800 150.000 156.400 L 150.000 144.000 142.463 144.000 C 138.317 144.000,132.737 143.882,130.063 143.739 L 125.200 143.477 125.200 156.139 M125.200 206.200 L 125.200 218.800 137.600 218.800 L 150.000 218.800 150.000 206.462 L 150.000 194.124 144.537 193.862 C 141.532 193.718,135.952 193.600,132.137 193.600 L 125.200 193.600 125.200 206.200 M125.200 271.945 L 125.200 281.091 127.700 281.585 C 129.075 281.857,130.740 282.224,131.400 282.401 C 132.060 282.577,133.996 282.945,135.701 283.218 C 141.035 284.071,141.168 283.675,132.675 292.205 L 125.200 299.712 125.200 315.456 L 125.200 331.200 151.600 331.200 L 178.000 331.200 178.000 323.395 C 178.000 319.102,178.159 315.277,178.353 314.895 C 178.548 314.513,178.953 313.660,179.253 313.000 C 180.262 310.787,183.636 307.794,186.209 306.831 C 188.511 305.970,188.999 305.944,200.396 306.070 C 213.784 306.218,214.751 306.424,218.278 309.881 C 219.770 311.343,220.245 312.135,221.544 315.319 C 221.829 316.017,222.000 319.212,222.000 323.819 L 222.000 331.200 248.400 331.200 L 274.800 331.200 274.800 315.504 L 274.800 299.808 267.312 292.312 C 258.931 283.923,259.069 284.275,263.832 283.383 C 267.746 282.651,270.206 282.141,272.800 281.524 L 274.800 281.049 274.800 271.924 L 274.800 262.800 262.642 262.800 L 250.485 262.800 251.610 266.300 C 254.420 275.035,255.644 278.651,256.008 279.295 C 257.089 281.208,257.253 281.182,243.700 281.294 L 231.000 281.400 230.880 284.160 C 230.813 285.721,230.943 287.103,231.180 287.340 C 231.411 287.571,231.600 288.264,231.600 288.880 C 231.600 289.496,231.741 290.000,231.913 290.000 C 232.085 290.000,232.459 290.792,232.745 291.759 C 233.030 292.726,233.610 293.889,234.032 294.342 C 234.454 294.796,234.800 295.372,234.800 295.623 C 234.800 295.874,235.295 296.556,235.900 297.140 C 238.695 299.834,240.924 299.600,212.450 299.600 L 186.802 299.600 185.801 297.525 C 185.250 296.384,184.800 295.214,184.800 294.925 C 184.800 294.636,184.620 294.400,184.400 294.400 C 184.180 294.400,184.000 293.961,184.000 293.424 C 184.000 292.887,183.820 292.336,183.600 292.200 C 183.380 292.064,183.200 291.344,183.200 290.600 C 183.200 289.856,183.020 289.136,182.800 289.000 C 182.580 288.864,182.400 287.710,182.400 286.436 C 182.400 285.162,182.212 283.581,181.983 282.923 L 181.566 281.727 171.918 281.464 C 166.612 281.319,158.070 281.200,152.935 281.200 C 145.731 281.200,143.601 281.086,143.606 280.700 C 143.614 280.036,144.579 277.288,144.926 276.941 C 145.077 276.790,145.200 276.334,145.200 275.928 C 145.200 275.522,145.358 274.877,145.551 274.495 C 145.744 274.113,146.116 273.080,146.377 272.200 C 146.639 271.320,146.997 270.240,147.174 269.800 C 147.778 268.296,149.200 263.696,149.200 263.247 C 149.200 262.927,145.782 262.800,137.200 262.800 L 125.200 262.800 125.200 271.945 " stroke="none" fill="#de9833" fill-rule="evenodd"></path><path id="path1" d="M93.600 18.800 C 93.270 19.013,92.595 19.191,92.100 19.194 C 91.605 19.197,91.200 19.380,91.200 19.600 C 91.200 19.820,90.660 20.000,90.000 20.000 C 89.340 20.000,88.800 20.138,88.800 20.306 C 88.800 20.474,88.095 20.917,87.234 21.290 C 86.373 21.663,85.211 22.425,84.652 22.984 C 84.094 23.543,83.438 24.000,83.195 24.000 C 82.952 24.000,82.864 24.180,83.000 24.400 C 83.136 24.620,82.954 24.800,82.595 24.800 C 82.236 24.800,81.673 25.070,81.343 25.400 C 81.013 25.730,80.854 26.000,80.991 26.000 C 81.127 26.000,80.600 26.658,79.819 27.461 C 79.039 28.265,78.400 29.137,78.400 29.399 C 78.400 29.662,78.039 30.203,77.598 30.602 C 77.156 31.002,76.887 31.420,76.999 31.532 C 77.111 31.644,76.961 32.111,76.665 32.568 C 76.369 33.026,75.980 33.940,75.801 34.600 C 75.622 35.260,75.381 36.070,75.266 36.400 C 75.152 36.730,74.991 39.925,74.910 43.500 L 74.763 50.000 76.224 50.000 C 79.786 50.000,84.724 53.613,86.545 57.551 L 87.400 59.400 87.600 209.400 L 87.800 359.400 88.719 361.320 C 90.424 364.883,93.012 367.043,97.160 368.366 C 98.120 368.673,124.816 368.800,188.068 368.800 L 277.618 368.800 280.115 369.933 C 284.155 371.764,287.600 376.589,287.600 380.415 L 287.600 381.600 296.776 381.600 C 302.463 381.600,306.047 381.448,306.200 381.200 C 306.336 380.980,306.977 380.800,307.624 380.800 C 308.271 380.800,308.800 380.620,308.800 380.400 C 308.800 380.180,309.143 380.000,309.562 380.000 C 310.469 380.000,313.600 378.392,313.600 377.926 C 313.600 377.747,313.870 377.600,314.200 377.600 C 314.529 377.600,315.541 376.880,316.448 376.000 C 317.355 375.120,318.375 374.400,318.715 374.400 C 319.055 374.400,319.220 374.286,319.081 374.147 C 318.942 374.008,319.632 372.954,320.614 371.804 C 321.596 370.654,322.400 369.508,322.400 369.257 C 322.400 369.006,322.580 368.800,322.800 368.800 C 323.020 368.800,323.200 368.528,323.200 368.195 C 323.200 367.862,323.367 367.277,323.571 366.895 C 324.029 366.036,324.479 364.853,324.747 363.800 C 325.248 361.838,325.002 35.067,324.500 34.900 C 324.225 34.808,324.000 34.394,324.000 33.979 C 324.000 33.298,323.634 32.516,321.938 29.578 C 321.642 29.066,320.905 28.216,320.300 27.688 C 319.695 27.161,319.200 26.552,319.200 26.336 C 319.200 25.793,318.158 24.800,317.589 24.800 C 317.332 24.800,316.617 24.260,316.000 23.600 C 315.383 22.940,314.631 22.400,314.328 22.400 C 314.025 22.400,313.517 22.040,313.200 21.600 C 312.883 21.160,312.303 20.800,311.912 20.800 C 311.520 20.800,311.200 20.620,311.200 20.400 C 311.200 20.180,310.660 20.000,310.000 20.000 C 309.340 20.000,308.800 19.820,308.800 19.600 C 308.800 19.380,308.249 19.200,307.576 19.200 C 306.863 19.200,306.456 19.033,306.600 18.800 C 306.936 18.257,94.441 18.257,93.600 18.800 M103.054 37.967 C 109.777 42.067,105.540 52.364,98.108 49.984 C 91.088 47.736,92.647 37.203,100.000 37.203 C 101.068 37.203,102.310 37.514,103.054 37.967 M127.651 37.765 C 132.684 39.873,132.905 47.031,128.014 49.500 C 124.664 51.190,121.043 50.072,119.321 46.816 C 116.384 41.263,121.843 35.332,127.651 37.765 M291.505 43.953 C 291.887 44.148,292.719 44.551,293.352 44.849 C 295.437 45.830,297.936 48.390,299.078 50.714 L 300.200 53.000 300.317 198.800 C 300.404 306.470,300.316 345.180,299.981 346.816 C 299.265 350.308,294.685 355.555,292.324 355.590 C 291.952 355.596,291.536 355.780,291.400 356.000 C 291.084 356.511,109.498 356.557,108.495 356.047 C 108.113 355.852,107.281 355.449,106.648 355.151 C 104.637 354.205,102.102 351.661,101.034 349.517 L 100.000 347.443 100.000 212.508 L 100.000 77.573 100.982 75.635 C 104.298 69.092,105.783 68.641,124.800 68.399 C 140.313 68.201,140.634 68.181,142.464 67.272 C 147.079 64.979,150.000 59.854,150.000 54.048 C 150.000 50.994,153.304 46.422,156.648 44.849 C 157.281 44.551,158.070 44.159,158.400 43.977 C 159.216 43.528,290.623 43.505,291.505 43.953 M187.200 306.790 C 186.870 306.979,185.896 307.441,185.036 307.816 C 179.944 310.038,178.400 313.712,178.400 323.611 L 178.400 331.200 199.960 331.200 L 221.521 331.200 221.671 324.100 C 221.894 313.591,220.504 310.336,214.600 307.538 L 212.200 306.401 200.000 306.424 C 193.290 306.437,187.530 306.601,187.200 306.790 " stroke="none" fill="#dbdfde" fill-rule="evenodd"></path><path id="path2" d="M98.452 38.680 C 94.764 39.411,93.412 44.692,96.200 47.480 C 99.654 50.934,105.200 48.608,105.200 43.704 C 105.200 40.097,102.279 37.922,98.452 38.680 M123.497 38.735 C 117.862 40.087,118.939 48.834,124.750 48.922 C 128.195 48.974,130.039 47.301,130.141 44.033 C 130.262 40.129,127.354 37.810,123.497 38.735 M157.393 44.959 C 153.216 46.860,150.380 50.992,150.091 55.600 C 149.661 62.430,146.709 66.334,140.440 68.360 C 139.557 68.646,134.025 68.802,124.640 68.806 C 113.731 68.811,109.830 68.941,108.685 69.340 C 105.169 70.564,101.713 74.044,100.527 77.553 C 100.090 78.845,100.014 102.692,100.098 213.061 L 100.200 347.000 101.131 348.946 C 102.348 351.491,104.802 353.856,107.573 355.155 L 109.800 356.200 200.200 356.200 L 290.600 356.200 292.800 355.049 C 295.600 353.584,297.713 351.377,298.992 348.579 L 300.000 346.376 300.000 200.000 L 300.000 53.624 298.966 51.362 C 297.674 48.539,295.301 46.178,292.518 44.947 L 290.377 44.000 224.889 44.023 L 159.400 44.046 157.393 44.959 M165.904 81.998 C 167.833 83.174,168.797 85.015,168.799 87.526 C 168.801 91.196,169.334 90.663,154.800 101.525 C 148.530 106.211,143.130 110.264,142.800 110.531 C 142.470 110.799,141.755 111.329,141.211 111.709 C 140.255 112.377,140.430 112.400,146.373 112.400 C 152.352 112.400,152.562 112.429,153.863 113.421 C 157.744 116.381,157.227 122.431,152.896 124.749 C 152.313 125.060,147.469 125.200,137.233 125.200 L 122.414 125.200 120.643 123.500 C 117.939 120.905,117.664 117.611,119.908 114.684 C 121.515 112.587,122.229 112.400,128.642 112.400 L 134.446 112.400 127.723 105.689 C 118.477 96.460,118.800 96.893,118.800 93.717 C 118.800 89.865,121.009 87.600,124.767 87.600 C 128.030 87.600,128.635 87.972,133.767 93.145 L 138.133 97.547 139.967 96.292 C 140.975 95.602,141.996 94.849,142.237 94.619 C 142.477 94.389,143.272 93.750,144.004 93.200 C 144.736 92.650,146.646 91.210,148.250 90.000 C 159.585 81.446,159.915 81.241,162.400 81.221 C 163.916 81.209,165.005 81.450,165.904 81.998 M275.200 156.200 L 275.200 218.800 256.200 218.800 L 237.200 218.800 237.200 156.200 L 237.200 93.600 256.200 93.600 L 275.200 93.600 275.200 156.200 M209.232 113.216 C 213.700 115.496,213.546 122.173,208.974 124.406 C 206.839 125.448,175.168 125.648,172.749 124.635 C 167.896 122.602,167.420 115.886,171.943 113.263 C 174.178 111.968,206.704 111.927,209.232 113.216 M150.306 156.173 C 150.388 165.805,150.300 168.617,149.906 168.867 C 149.293 169.256,138.340 169.295,130.500 168.936 L 124.800 168.676 124.800 156.132 L 124.800 143.589 137.500 143.694 L 150.200 143.800 150.306 156.173 M207.522 156.421 C 213.037 157.603,214.314 165.069,209.504 168.002 C 207.609 169.157,173.772 169.192,171.800 168.041 C 166.796 165.119,168.191 157.496,173.934 156.377 C 176.327 155.912,205.322 155.949,207.522 156.421 M150.200 206.200 L 150.200 218.600 137.500 218.706 L 124.800 218.811 124.800 206.200 L 124.800 193.589 137.500 193.694 L 150.200 193.800 150.200 206.200 M207.522 206.421 C 213.037 207.603,214.314 215.069,209.504 218.002 C 208.255 218.763,207.457 218.797,190.692 218.799 L 173.184 218.800 171.603 217.802 C 166.787 214.762,168.273 207.480,173.934 206.377 C 176.327 205.912,205.322 205.949,207.522 206.421 M246.800 253.200 L 249.803 262.200 262.501 262.306 L 275.200 262.411 275.200 271.782 C 275.200 282.083,275.341 281.543,272.515 282.076 C 271.572 282.254,269.945 282.580,268.900 282.800 C 267.855 283.020,266.100 283.374,265.000 283.587 C 260.906 284.379,260.400 284.494,260.400 284.633 C 260.400 284.711,263.732 288.111,267.805 292.189 L 275.209 299.602 275.105 315.468 L 275.000 331.335 200.000 331.335 L 125.000 331.335 124.895 315.477 L 124.791 299.620 132.195 292.178 C 136.268 288.085,139.600 284.681,139.600 284.615 C 139.600 284.464,137.968 284.056,135.600 283.615 C 134.610 283.431,132.720 283.066,131.400 282.803 C 130.080 282.541,128.273 282.197,127.385 282.039 C 124.677 281.559,124.800 282.047,124.800 271.776 L 124.800 262.400 137.367 262.400 C 147.046 262.400,149.980 262.515,150.135 262.900 C 150.246 263.175,150.351 262.916,150.368 262.324 C 150.386 261.732,150.580 261.136,150.800 261.000 C 151.020 260.864,151.200 260.401,151.200 259.971 C 151.200 259.541,151.361 258.877,151.557 258.495 C 151.753 258.113,152.408 256.180,153.013 254.200 C 153.617 252.220,154.249 250.240,154.416 249.800 C 154.583 249.360,154.917 248.415,155.160 247.700 C 155.402 246.985,155.802 245.859,156.049 245.198 L 156.499 243.996 200.148 244.098 L 243.797 244.200 246.800 253.200 " stroke="none" fill="#3880c4" fill-rule="evenodd"></path><path id="path3" d="M96.946 37.967 C 90.523 41.884,93.922 51.408,101.308 50.188 C 108.824 48.946,107.641 37.203,100.000 37.203 C 98.932 37.203,97.690 37.514,96.946 37.967 M122.358 37.732 C 117.403 39.956,117.180 46.939,121.984 49.479 C 128.486 52.917,134.709 44.810,129.824 39.265 C 128.173 37.392,124.705 36.680,122.358 37.732 M103.861 40.110 C 105.880 41.947,105.851 45.429,103.800 47.480 C 100.346 50.934,94.800 48.608,94.800 43.704 C 94.800 38.909,100.190 36.770,103.861 40.110 M128.192 39.432 C 131.072 41.319,130.765 46.767,127.684 48.452 C 125.875 49.440,122.883 49.037,121.406 47.606 C 116.766 43.108,122.769 35.878,128.192 39.432 M192.532 43.900 C 210.534 43.958,239.874 43.958,257.732 43.900 C 275.589 43.842,260.860 43.795,225.000 43.795 C 189.140 43.795,174.529 43.842,192.532 43.900 M74.900 206.500 C 74.956 292.575,75.124 363.393,75.273 363.874 C 75.422 364.355,75.743 365.120,75.986 365.574 C 76.229 366.028,76.335 366.400,76.220 366.400 C 76.039 366.400,76.507 367.335,78.251 370.450 C 78.996 371.782,82.115 375.200,82.585 375.200 C 82.826 375.200,83.283 375.560,83.600 376.000 C 83.917 376.440,84.417 376.800,84.712 376.800 C 85.006 376.800,85.136 376.980,85.000 377.200 C 84.864 377.420,85.084 377.600,85.488 377.600 C 85.893 377.600,86.483 377.960,86.800 378.400 C 87.117 378.840,87.697 379.200,88.088 379.200 C 88.480 379.200,88.800 379.380,88.800 379.600 C 88.800 379.820,89.340 380.000,90.000 380.000 C 90.660 380.000,91.200 380.180,91.200 380.400 C 91.200 380.620,91.639 380.800,92.176 380.800 C 92.713 380.800,93.264 380.980,93.400 381.200 C 93.564 381.465,126.404 381.600,190.624 381.600 L 287.600 381.600 287.600 380.415 C 287.600 376.589,284.155 371.764,280.115 369.933 L 277.618 368.800 188.068 368.800 C 124.816 368.800,98.120 368.673,97.160 368.366 C 93.012 367.043,90.424 364.883,88.719 361.320 L 87.800 359.400 87.600 209.400 L 87.400 59.400 86.545 57.551 C 84.728 53.621,79.787 50.000,76.242 50.000 L 74.798 50.000 74.900 206.500 M158.127 82.719 C 155.373 84.687,151.814 87.310,148.250 90.000 C 146.646 91.210,144.736 92.650,144.004 93.200 C 143.272 93.750,142.477 94.389,142.237 94.619 C 141.996 94.849,140.975 95.602,139.967 96.292 L 138.133 97.547 133.767 93.145 C 129.676 89.022,127.418 87.249,126.907 87.759 C 126.787 87.879,127.142 88.150,127.696 88.360 C 128.249 88.571,130.791 90.871,133.344 93.471 C 137.735 97.944,138.034 98.170,138.862 97.654 C 139.835 97.046,150.153 89.331,155.929 84.892 C 159.837 81.887,161.319 81.308,163.872 81.787 C 168.034 82.568,169.824 88.291,166.894 91.447 C 165.607 92.834,140.971 111.322,139.800 111.780 C 139.272 111.987,139.174 112.158,139.513 112.284 C 139.999 112.465,141.234 111.816,142.726 110.596 C 143.097 110.293,148.530 106.211,154.800 101.525 C 169.334 90.663,168.801 91.196,168.799 87.526 C 168.794 81.814,163.030 79.217,158.127 82.719 M120.547 89.347 C 119.586 90.308,118.807 91.433,118.816 91.847 C 118.828 92.407,118.994 92.293,119.466 91.400 C 120.384 89.663,121.232 88.794,122.597 88.194 C 123.458 87.815,123.586 87.656,123.047 87.633 C 122.633 87.615,121.508 88.386,120.547 89.347 M237.200 156.200 C 237.200 190.630,237.335 218.800,237.500 218.800 C 237.665 218.800,237.754 190.720,237.698 156.400 L 237.595 94.000 256.196 94.000 L 274.798 94.000 274.900 156.500 L 275.003 219.000 275.101 156.300 L 275.200 93.600 256.200 93.600 L 237.200 93.600 237.200 156.200 M118.818 95.669 C 118.781 97.040,133.865 112.400,135.247 112.400 C 135.687 112.400,135.936 112.220,135.800 112.000 C 135.664 111.780,135.286 111.600,134.959 111.600 C 134.133 111.600,120.486 98.115,119.577 96.400 C 119.154 95.601,118.828 95.287,118.818 95.669 M121.800 112.863 C 120.875 113.336,119.325 115.181,118.945 116.260 C 118.802 116.667,119.120 116.374,119.652 115.610 C 120.184 114.845,121.226 113.810,121.969 113.310 C 123.344 112.382,123.246 112.124,121.800 112.863 M151.800 112.881 C 153.442 113.452,155.417 115.398,155.910 116.931 C 156.140 117.646,156.336 117.886,156.359 117.480 C 156.469 115.550,153.447 112.370,151.562 112.432 C 150.680 112.461,150.700 112.498,151.800 112.881 M118.509 118.800 C 118.509 119.790,118.587 120.195,118.682 119.700 C 118.778 119.205,118.778 118.395,118.682 117.900 C 118.587 117.405,118.509 117.810,118.509 118.800 M156.030 119.800 C 155.978 121.052,154.535 123.129,153.104 124.010 C 151.851 124.781,151.217 124.809,136.938 124.706 C 128.764 124.648,122.159 124.735,122.262 124.900 C 122.585 125.422,151.936 125.263,152.926 124.733 C 155.017 123.617,156.800 120.836,156.271 119.517 C 156.152 119.222,156.049 119.343,156.030 119.800 M118.812 121.106 C 118.805 121.384,119.385 122.202,120.100 122.924 C 120.815 123.646,121.019 123.779,120.554 123.219 C 120.088 122.658,119.508 121.840,119.266 121.400 C 119.023 120.960,118.819 120.828,118.812 121.106 M124.978 156.200 C 124.979 163.240,125.033 166.064,125.099 162.475 C 125.166 158.886,125.166 153.126,125.099 149.675 C 125.033 146.224,124.978 149.160,124.978 156.200 M140.894 143.896 L 149.989 144.015 150.103 156.407 L 150.217 168.800 150.209 156.300 L 150.200 143.800 141.000 143.789 L 131.800 143.778 140.894 143.896 M136.478 169.098 C 138.831 169.169,142.791 169.169,145.278 169.099 C 147.765 169.029,145.840 168.971,141.000 168.970 C 136.160 168.970,134.125 169.028,136.478 169.098 M124.978 206.200 C 124.979 213.240,125.033 216.064,125.099 212.475 C 125.166 208.886,125.166 203.126,125.099 199.675 C 125.033 196.224,124.978 199.160,124.978 206.200 M146.494 193.892 L 149.988 194.030 150.103 206.115 L 150.217 218.200 150.209 206.000 L 150.200 193.800 146.600 193.778 L 143.000 193.755 146.494 193.892 M124.800 271.786 C 124.800 282.176,124.771 282.067,127.474 281.952 C 128.404 281.912,128.305 281.833,126.900 281.495 L 125.200 281.086 125.200 271.943 L 125.200 262.800 137.200 262.800 C 145.782 262.800,149.200 262.927,149.200 263.247 C 149.200 263.696,147.778 268.296,147.174 269.800 C 146.997 270.240,146.639 271.320,146.377 272.200 C 146.116 273.080,145.744 274.113,145.551 274.495 C 145.358 274.877,145.200 275.522,145.200 275.928 C 145.200 276.334,145.077 276.790,144.926 276.941 C 144.558 277.308,143.614 280.054,143.606 280.776 C 143.602 281.185,143.771 281.127,144.187 280.576 C 144.510 280.149,144.780 279.406,144.787 278.924 C 144.794 278.442,144.980 277.936,145.200 277.800 C 145.420 277.664,145.600 277.124,145.600 276.600 C 145.600 276.076,145.780 275.536,146.000 275.400 C 146.220 275.264,146.400 274.724,146.400 274.200 C 146.400 273.676,146.580 273.136,146.800 273.000 C 147.020 272.864,147.200 272.324,147.200 271.800 C 147.200 271.276,147.380 270.736,147.600 270.600 C 147.820 270.464,148.000 269.924,148.000 269.400 C 148.000 268.876,148.180 268.336,148.400 268.200 C 148.620 268.064,148.800 267.549,148.800 267.056 C 148.800 266.563,148.958 265.989,149.151 265.780 C 149.345 265.571,149.623 264.725,149.770 263.900 L 150.036 262.400 137.418 262.400 L 124.800 262.400 124.800 271.786 M250.000 262.886 C 250.000 263.683,255.626 280.567,256.029 280.980 C 256.531 281.494,256.515 280.192,256.008 279.295 C 255.644 278.651,254.420 275.035,251.610 266.300 L 250.485 262.800 262.642 262.800 L 274.800 262.800 274.800 271.955 L 274.800 281.111 273.300 281.429 C 272.160 281.671,272.011 281.784,272.679 281.899 C 275.137 282.322,275.200 282.070,275.200 271.786 L 275.200 262.400 262.600 262.400 C 252.980 262.400,250.000 262.515,250.000 262.886 M175.064 281.499 L 181.529 281.619 181.964 282.869 C 182.204 283.557,182.400 285.162,182.400 286.436 C 182.400 287.710,182.580 288.864,182.800 289.000 C 183.020 289.136,183.200 289.856,183.200 290.600 C 183.200 291.344,183.380 292.064,183.600 292.200 C 183.820 292.336,184.000 292.887,184.000 293.424 C 184.000 293.961,184.180 294.400,184.400 294.400 C 184.620 294.400,184.800 294.636,184.800 294.925 C 184.800 295.214,185.250 296.384,185.801 297.525 L 186.802 299.600 212.450 299.600 C 240.924 299.600,238.695 299.834,235.900 297.140 C 235.295 296.556,234.800 295.874,234.800 295.623 C 234.800 295.372,234.454 294.796,234.032 294.342 C 233.610 293.889,233.030 292.726,232.745 291.759 C 232.459 290.792,232.085 290.000,231.913 290.000 C 231.741 290.000,231.600 289.496,231.600 288.880 C 231.600 288.264,231.404 287.564,231.165 287.325 C 230.906 287.066,230.785 285.742,230.865 284.044 L 231.000 281.198 199.800 281.288 C 182.640 281.338,171.509 281.433,175.064 281.499 M129.400 282.400 C 129.840 282.589,130.650 282.744,131.200 282.744 C 132.112 282.744,132.129 282.713,131.400 282.400 C 130.960 282.211,130.150 282.056,129.600 282.056 C 128.688 282.056,128.671 282.087,129.400 282.400 M269.000 282.400 C 268.267 282.715,268.284 282.746,269.200 282.766 C 269.750 282.778,270.470 282.613,270.800 282.400 C 271.587 281.891,270.184 281.891,269.000 282.400 M133.400 283.200 C 133.840 283.389,134.830 283.535,135.600 283.525 L 137.000 283.505 135.800 283.200 C 134.003 282.743,132.336 282.743,133.400 283.200 M263.231 283.421 C 259.173 284.301,259.057 284.048,267.312 292.312 L 274.800 299.808 274.800 315.498 L 274.800 331.189 262.200 331.303 L 249.600 331.417 262.300 331.409 L 275.000 331.400 275.105 315.501 L 275.209 299.602 267.805 292.189 C 263.732 288.111,260.400 284.711,260.400 284.633 C 260.400 284.477,261.846 284.167,265.137 283.616 C 266.313 283.420,267.378 283.156,267.504 283.029 C 267.881 282.652,265.967 282.827,263.231 283.421 M137.600 284.000 C 137.930 284.213,138.515 284.391,138.900 284.394 C 139.863 284.402,139.778 284.745,138.579 285.688 C 138.017 286.130,137.646 286.579,137.753 286.686 C 137.860 286.793,138.454 286.404,139.074 285.821 C 140.319 284.649,139.723 283.592,137.824 283.606 C 137.145 283.611,137.106 283.681,137.600 284.000 M135.463 288.800 C 134.875 289.460,134.543 290.000,134.725 290.000 C 135.141 290.000,136.917 287.984,136.696 287.763 C 136.606 287.673,136.051 288.140,135.463 288.800 M128.463 295.859 C 127.287 297.069,126.398 298.131,126.486 298.219 C 126.574 298.307,127.710 297.304,129.010 295.990 C 130.311 294.675,131.201 293.613,130.987 293.630 C 130.774 293.646,129.638 294.650,128.463 295.859 M124.993 315.200 L 125.000 331.400 137.700 331.409 L 150.400 331.417 137.805 331.303 L 125.209 331.189 125.098 315.094 L 124.986 299.000 124.993 315.200 M193.500 306.299 C 196.635 306.367,201.765 306.367,204.900 306.299 C 208.035 306.232,205.470 306.176,199.200 306.176 C 192.930 306.176,190.365 306.232,193.500 306.299 M184.883 307.434 C 182.739 308.502,180.195 311.037,179.249 313.048 C 178.951 313.681,178.548 314.513,178.353 314.895 C 178.159 315.277,178.038 319.147,178.084 323.495 L 178.167 331.400 178.384 323.400 C 178.624 314.497,178.937 313.245,181.642 310.342 C 183.056 308.825,185.614 307.200,186.589 307.200 C 186.899 307.200,187.264 307.020,187.400 306.800 C 187.799 306.154,187.094 306.332,184.883 307.434 M221.762 325.000 C 221.762 328.520,221.824 329.906,221.898 328.081 C 221.972 326.256,221.972 323.376,221.897 321.681 C 221.822 319.986,221.761 321.480,221.762 325.000 M135.315 356.296 C 136.588 356.376,138.568 356.375,139.715 356.294 C 140.862 356.214,139.820 356.149,137.400 356.150 C 134.980 356.151,134.042 356.216,135.315 356.296 M260.515 356.296 C 261.788 356.376,263.768 356.375,264.915 356.294 C 266.062 356.214,265.020 356.149,262.600 356.150 C 260.180 356.151,259.242 356.216,260.515 356.296 " stroke="none" fill="#939c9c" fill-rule="evenodd"></path><path id="path4" d="M153.080 47.565 C 152.302 48.425,151.466 49.550,151.221 50.065 C 150.803 50.944,150.819 50.941,151.488 50.004 C 151.880 49.456,152.806 48.331,153.547 47.504 C 154.287 46.677,154.803 46.000,154.693 46.000 C 154.583 46.000,153.857 46.704,153.080 47.565 M296.400 47.400 C 297.146 48.170,297.847 48.800,297.957 48.800 C 298.067 48.800,297.546 48.170,296.800 47.400 C 296.054 46.630,295.353 46.000,295.243 46.000 C 295.133 46.000,295.654 46.630,296.400 47.400 M300.198 200.000 C 300.198 280.410,300.244 313.305,300.300 273.100 C 300.356 232.895,300.356 167.105,300.300 126.900 C 300.244 86.695,300.198 119.590,300.198 200.000 M149.450 57.650 C 149.117 59.317,149.440 59.640,149.800 58.000 C 149.952 57.309,149.993 56.659,149.891 56.558 C 149.789 56.456,149.591 56.947,149.450 57.650 M124.600 68.400 L 109.800 68.615 124.400 68.679 C 132.430 68.715,139.360 68.589,139.800 68.400 C 140.240 68.211,140.330 68.085,140.000 68.121 C 139.670 68.156,132.740 68.282,124.600 68.400 M107.289 69.465 C 106.568 69.820,106.042 70.175,106.121 70.254 C 106.199 70.333,106.969 70.045,107.832 69.614 C 108.694 69.184,109.220 68.829,109.000 68.825 C 108.780 68.821,108.010 69.109,107.289 69.465 M171.943 113.263 C 167.420 115.886,167.896 122.602,172.749 124.635 C 175.168 125.648,206.839 125.448,208.974 124.406 C 213.546 122.173,213.700 115.496,209.232 113.216 C 206.704 111.927,174.178 111.968,171.943 113.263 M173.934 156.377 C 168.191 157.496,166.796 165.119,171.800 168.041 C 173.772 169.192,207.609 169.157,209.504 168.002 C 214.314 165.069,213.037 157.603,207.522 156.421 C 205.322 155.949,176.327 155.912,173.934 156.377 M173.934 206.377 C 168.273 207.480,166.787 214.762,171.603 217.802 L 173.184 218.800 190.692 218.799 C 207.457 218.797,208.255 218.763,209.504 218.002 C 214.314 215.069,213.037 207.603,207.522 206.421 C 205.322 205.949,176.327 205.912,173.934 206.377 M156.049 245.198 C 155.802 245.859,155.402 246.985,155.160 247.700 C 154.917 248.415,154.583 249.360,154.416 249.800 C 154.249 250.240,153.617 252.220,153.013 254.200 C 152.408 256.180,151.753 258.113,151.557 258.495 C 151.361 258.877,151.200 259.541,151.200 259.971 C 151.200 260.401,151.020 260.864,150.800 261.000 C 150.580 261.136,150.400 261.676,150.400 262.200 C 150.400 262.724,150.220 263.264,150.000 263.400 C 149.780 263.536,149.600 264.076,149.600 264.600 C 149.600 265.124,149.420 265.664,149.200 265.800 C 148.980 265.936,148.800 266.476,148.800 267.000 C 148.800 267.524,148.620 268.064,148.400 268.200 C 148.180 268.336,148.000 268.876,148.000 269.400 C 148.000 269.924,147.820 270.464,147.600 270.600 C 147.380 270.736,147.200 271.276,147.200 271.800 C 147.200 272.324,147.020 272.864,146.800 273.000 C 146.580 273.136,146.400 273.676,146.400 274.200 C 146.400 274.724,146.220 275.264,146.000 275.400 C 145.780 275.536,145.600 276.076,145.600 276.600 C 145.600 277.124,145.420 277.664,145.200 277.800 C 144.980 277.936,144.800 278.476,144.800 279.000 C 144.800 279.524,144.620 280.064,144.400 280.200 C 144.180 280.336,144.000 280.617,144.000 280.824 C 144.000 281.057,165.253 281.200,199.941 281.200 L 255.882 281.200 252.925 272.100 C 251.299 267.095,248.580 258.770,246.883 253.600 L 243.798 244.200 200.148 244.098 L 156.499 243.996 156.049 245.198 M298.686 349.510 L 297.973 351.000 298.777 350.000 C 299.220 349.450,299.586 348.775,299.591 348.500 C 299.605 347.733,299.460 347.895,298.686 349.510 M101.476 350.312 C 101.867 351.034,102.812 352.204,103.577 352.912 L 104.966 354.200 103.583 352.596 C 102.822 351.714,101.877 350.544,101.483 349.996 C 100.791 349.035,100.790 349.046,101.476 350.312 M296.378 352.700 L 295.000 354.200 296.500 352.822 C 297.896 351.538,298.184 351.200,297.878 351.200 C 297.812 351.200,297.137 351.875,296.378 352.700 " stroke="none" fill="#84d3f4" fill-rule="evenodd"></path></g></svg>