<svg id="svg" version="1.1" xmlns="http://www.w3.org/2000/svg" xmlns:xlink="http://www.w3.org/1999/xlink" width="400" height="400" viewBox="0, 0, 400,400"><g id="svgg"><path id="path0" d="M194.000 118.800 L 194.000 156.412 206.300 156.306 L 218.600 156.200 218.600 118.800 L 218.600 81.400 206.300 81.294 L 194.000 81.188 194.000 118.800 M294.200 81.870 C 290.481 82.336,284.795 83.818,281.344 85.221 C 275.802 87.474,275.200 87.756,275.200 88.098 C 275.200 88.264,275.007 88.400,274.772 88.400 C 274.378 88.400,271.247 90.404,270.114 91.381 C 269.847 91.611,268.587 92.697,267.314 93.794 C 265.402 95.442,263.227 97.732,260.181 101.308 C 259.219 102.438,257.200 105.574,257.200 105.939 C 257.200 106.156,257.064 106.393,256.898 106.467 C 256.513 106.637,254.335 111.132,253.247 114.000 C 248.121 127.518,250.012 146.079,257.675 157.472 C 258.294 158.392,258.800 159.322,258.800 159.539 C 258.800 159.756,258.936 159.993,259.103 160.067 C 259.270 160.140,260.023 161.010,260.778 162.000 C 265.431 168.106,274.626 174.927,281.800 177.595 C 282.240 177.759,283.050 178.077,283.600 178.301 C 285.253 178.975,289.731 180.098,293.424 180.763 C 296.507 181.319,303.696 181.327,306.469 180.779 C 312.593 179.568,314.776 179.017,316.095 178.351 C 316.477 178.158,317.064 178.000,317.400 178.000 C 317.736 178.000,318.323 177.843,318.705 177.650 C 319.087 177.458,320.165 176.918,321.100 176.450 C 324.651 174.674,326.224 173.777,326.975 173.100 C 327.402 172.715,327.972 172.400,328.242 172.400 C 328.512 172.400,328.793 172.259,328.867 172.087 C 328.940 171.914,330.080 170.946,331.400 169.935 C 333.985 167.955,337.512 164.376,339.417 161.800 C 340.068 160.920,340.735 160.140,340.900 160.067 C 341.065 159.993,341.200 159.751,341.200 159.528 C 341.200 159.306,341.539 158.646,341.954 158.062 C 343.301 156.164,344.724 153.400,345.810 150.571 C 346.395 149.047,347.016 147.440,347.191 147.000 C 348.507 143.686,350.384 132.545,349.788 131.581 C 349.643 131.346,340.034 131.200,324.776 131.200 L 300.000 131.200 300.000 106.400 L 300.000 81.600 297.700 81.660 C 296.435 81.693,294.860 81.788,294.200 81.870 M144.000 125.206 L 144.000 156.412 156.300 156.306 L 168.600 156.200 168.702 125.100 L 168.805 94.000 156.402 94.000 L 144.000 94.000 144.000 125.206 M94.000 131.162 L 94.000 155.923 98.100 156.186 C 100.355 156.331,105.890 156.393,110.400 156.325 L 118.600 156.200 118.703 131.300 L 118.806 106.400 106.403 106.400 L 94.000 106.400 94.000 131.162 M50.100 131.494 L 44.000 131.621 44.000 143.810 L 44.000 156.000 56.406 156.000 L 68.812 156.000 68.706 143.700 L 68.600 131.400 62.400 131.384 C 58.990 131.375,53.455 131.425,50.100 131.494 M83.400 220.043 C 81.200 220.684,78.680 221.407,77.800 221.650 C 76.920 221.894,75.750 222.231,75.200 222.400 C 74.650 222.569,73.390 222.926,72.400 223.193 C 71.410 223.460,70.287 223.840,69.905 224.039 C 69.523 224.238,68.767 224.400,68.224 224.400 C 67.682 224.400,66.824 224.561,66.319 224.758 C 65.813 224.955,64.590 225.340,63.600 225.612 C 61.616 226.159,59.535 226.752,58.000 227.209 C 57.450 227.373,56.190 227.731,55.200 228.005 C 50.127 229.410,46.649 231.788,45.373 234.725 C 45.021 235.536,44.568 236.513,44.366 236.895 C 44.163 237.280,44.000 244.439,44.000 252.995 L 44.000 268.400 59.600 268.400 L 75.200 268.400 75.200 267.064 C 75.200 259.620,85.760 253.977,92.922 257.593 C 96.442 259.371,100.000 264.408,100.000 267.615 C 100.000 268.389,100.486 268.400,134.400 268.400 L 168.800 268.400 168.806 267.500 C 168.820 265.341,170.544 261.964,172.667 259.934 C 179.857 253.059,192.143 256.974,193.456 266.557 L 193.709 268.400 209.254 268.400 L 224.800 268.400 224.800 254.975 L 224.800 241.550 223.752 239.409 C 222.075 235.984,217.492 232.597,204.400 225.107 C 203.630 224.667,202.522 223.967,201.938 223.553 C 201.354 223.139,200.634 222.796,200.338 222.791 C 200.042 222.786,199.350 222.430,198.800 222.000 C 198.250 221.570,197.671 221.214,197.514 221.209 C 197.357 221.204,196.376 220.660,195.336 220.000 L 193.443 218.800 140.422 218.839 L 87.400 218.878 83.400 220.043 M250.000 268.800 L 250.000 281.200 262.400 281.200 L 274.800 281.200 274.800 268.800 L 274.800 256.400 262.400 256.400 L 250.000 256.400 250.000 268.800 " stroke="none" fill="#e37d31" fill-rule="evenodd"></path><path id="path1" d="M300.000 106.161 L 300.000 131.200 325.000 131.200 L 350.000 131.200 350.000 128.006 C 350.000 125.067,349.842 123.992,348.732 119.400 C 347.759 115.373,347.527 114.727,345.359 110.008 C 340.866 100.233,332.323 91.412,322.600 86.509 C 319.344 84.867,316.944 83.860,315.200 83.406 C 314.650 83.263,313.570 82.963,312.800 82.740 C 310.151 81.971,307.392 81.545,303.700 81.334 L 300.000 81.123 300.000 106.161 M110.018 181.794 C 109.258 182.069,108.566 182.503,108.480 182.760 C 108.214 183.557,115.704 195.964,118.602 199.527 C 118.902 199.897,120.522 201.910,122.199 204.000 C 125.293 207.854,129.559 212.431,133.726 216.367 L 136.019 218.534 164.945 218.717 L 193.870 218.900 189.028 204.350 C 183.751 188.492,182.956 186.596,180.754 184.606 C 179.398 183.381,178.557 182.910,175.481 181.656 C 173.809 180.975,111.927 181.105,110.018 181.794 M250.000 218.806 L 250.000 231.211 262.500 231.106 L 275.000 231.000 275.106 218.700 L 275.212 206.400 262.606 206.400 L 250.000 206.400 250.000 218.806 M257.400 308.005 C 254.980 308.840,249.760 310.543,245.800 311.791 C 241.840 313.039,237.070 314.564,235.200 315.180 C 233.330 315.795,229.910 316.887,227.600 317.605 C 225.290 318.324,220.790 319.761,217.600 320.800 C 214.410 321.838,208.830 323.629,205.200 324.780 C 201.570 325.930,195.630 327.827,192.000 328.996 C 188.370 330.166,181.890 332.240,177.600 333.606 C 173.310 334.973,167.730 336.763,165.200 337.584 C 162.670 338.406,158.710 339.671,156.400 340.395 C 154.090 341.119,151.210 342.034,150.000 342.428 C 148.790 342.821,144.020 344.345,139.400 345.812 C 134.780 347.280,128.930 349.156,126.400 349.980 C 123.870 350.804,119.910 352.067,117.600 352.787 C 115.290 353.507,113.040 354.234,112.600 354.402 C 111.889 354.675,111.059 354.914,107.700 355.813 C 107.113 355.970,106.800 355.877,106.800 355.547 C 106.800 355.153,106.693 355.147,106.320 355.520 C 105.963 355.877,101.858 356.000,90.320 356.000 C 80.240 356.000,74.800 356.140,74.800 356.400 C 74.800 356.620,74.260 356.800,73.600 356.800 C 72.940 356.800,72.400 356.980,72.400 357.200 C 72.400 357.420,71.860 357.600,71.200 357.600 C 70.540 357.600,70.000 357.780,70.000 358.000 C 70.000 358.220,69.662 358.400,69.249 358.400 C 68.836 358.400,68.274 358.670,68.000 359.000 C 67.726 359.330,67.257 359.600,66.958 359.600 C 65.210 359.600,58.400 367.368,58.400 369.362 C 58.400 369.713,58.220 370.000,58.000 370.000 C 57.780 370.000,57.600 370.540,57.600 371.200 C 57.600 371.860,57.420 372.400,57.200 372.400 C 56.980 372.400,56.800 372.940,56.800 373.600 C 56.800 374.260,56.620 374.800,56.400 374.800 C 56.165 374.800,56.000 376.200,56.000 378.200 L 56.000 381.600 200.000 381.600 L 344.000 381.600 344.000 378.200 C 344.000 376.200,343.835 374.800,343.600 374.800 C 343.380 374.800,343.200 374.260,343.200 373.600 C 343.200 372.940,343.020 372.400,342.800 372.400 C 342.580 372.400,342.400 371.860,342.400 371.200 C 342.400 370.540,342.220 370.000,342.000 370.000 C 341.780 370.000,341.600 369.653,341.600 369.229 C 341.600 368.804,341.330 368.187,341.000 367.857 C 340.670 367.527,340.400 367.067,340.400 366.834 C 340.400 366.053,333.817 359.808,332.200 359.056 C 331.320 358.646,330.287 358.151,329.905 357.956 C 329.523 357.760,328.848 357.600,328.405 357.600 C 327.962 357.600,327.600 357.420,327.600 357.200 C 327.600 356.980,327.060 356.800,326.400 356.800 C 325.740 356.800,325.200 356.620,325.200 356.400 C 325.200 356.140,319.733 356.000,309.600 356.000 C 300.903 356.000,294.000 355.844,294.000 355.649 C 294.000 355.455,293.460 355.073,292.800 354.800 C 292.140 354.527,291.600 354.145,291.600 353.951 C 291.600 353.758,291.330 353.600,291.000 353.600 C 290.670 353.600,290.400 353.450,290.400 353.268 C 290.400 353.085,289.905 352.680,289.300 352.368 C 288.695 352.055,287.851 351.485,287.425 351.100 C 286.998 350.715,286.505 350.400,286.329 350.400 C 286.023 350.400,284.911 349.569,283.784 348.500 C 283.494 348.225,283.136 348.000,282.987 348.000 C 282.839 348.000,281.476 346.771,279.958 345.269 C 278.441 343.766,277.200 342.609,277.200 342.697 C 277.200 342.785,276.930 342.587,276.600 342.257 C 276.270 341.927,276.000 341.414,276.000 341.117 C 276.000 340.820,275.650 340.324,275.221 340.015 C 274.793 339.707,274.534 339.307,274.645 339.127 C 274.756 338.947,274.556 338.800,274.200 338.800 C 273.844 338.800,273.664 338.620,273.800 338.400 C 273.936 338.180,273.846 338.000,273.600 338.000 C 273.354 338.000,273.261 337.825,273.393 337.612 C 273.525 337.398,273.175 336.826,272.616 336.339 C 272.057 335.853,271.596 335.263,271.591 335.028 C 271.586 334.793,271.230 334.150,270.800 333.600 C 270.370 333.050,270.014 332.285,270.009 331.900 C 270.004 331.515,269.820 331.200,269.600 331.200 C 269.380 331.200,269.200 330.948,269.200 330.641 C 269.200 330.333,268.660 329.055,268.000 327.800 C 267.340 326.545,266.800 325.177,266.800 324.759 C 266.800 324.342,266.620 324.000,266.400 324.000 C 266.180 324.000,266.000 323.460,266.000 322.800 C 266.000 322.140,265.820 321.600,265.600 321.600 C 265.380 321.600,265.200 320.981,265.200 320.224 C 265.200 319.467,265.020 318.736,264.800 318.600 C 264.580 318.464,264.400 317.769,264.400 317.056 C 264.400 316.343,264.229 315.589,264.021 315.380 C 263.812 315.171,263.610 313.166,263.572 310.924 C 263.481 305.599,263.860 305.778,257.400 308.005 " stroke="none" fill="#dee6e6" fill-rule="evenodd"></path><path id="path2" d="M93.600 81.000 L 93.600 106.000 106.200 106.000 L 118.800 106.000 118.800 131.200 L 118.800 156.400 108.247 156.400 L 97.693 156.400 98.613 159.500 C 100.766 166.759,103.355 173.547,106.045 178.984 C 106.912 180.736,107.532 182.401,107.423 182.684 C 107.314 182.968,107.474 183.200,107.779 183.200 C 108.084 183.200,108.400 183.001,108.481 182.758 C 108.966 181.302,110.976 181.212,143.081 181.206 C 165.359 181.202,174.684 181.330,175.481 181.651 C 182.350 184.417,182.606 184.843,188.960 204.085 L 193.677 218.369 196.938 220.285 C 198.732 221.338,200.739 222.520,201.400 222.911 C 202.060 223.302,202.915 223.728,203.300 223.858 C 203.685 223.987,204.000 224.252,204.000 224.447 C 204.000 224.641,204.193 224.800,204.428 224.800 C 204.663 224.800,205.641 225.340,206.600 226.000 C 207.559 226.660,208.459 227.200,208.600 227.200 C 208.741 227.200,209.641 227.740,210.600 228.400 C 211.559 229.060,212.459 229.600,212.600 229.600 C 212.741 229.600,213.641 230.140,214.600 230.800 C 215.559 231.460,216.457 232.000,216.594 232.000 C 217.084 232.000,221.414 235.141,222.162 236.039 C 224.492 238.837,225.200 241.073,225.200 245.641 L 225.200 250.000 303.400 250.000 L 381.600 250.000 381.600 168.224 C 381.600 114.137,381.465 86.364,381.200 86.200 C 380.980 86.064,380.800 85.344,380.800 84.600 C 380.800 83.856,380.620 83.136,380.400 83.000 C 380.180 82.864,380.000 82.223,380.000 81.576 C 380.000 80.929,379.820 80.400,379.600 80.400 C 379.380 80.400,379.200 80.135,379.200 79.812 C 379.200 79.489,378.840 78.583,378.400 77.800 C 377.960 77.017,377.600 76.145,377.600 75.863 C 377.600 75.581,377.240 74.964,376.800 74.492 C 376.360 74.020,376.000 73.371,376.000 73.050 C 376.000 72.729,375.855 72.407,375.677 72.333 C 375.499 72.260,374.800 71.390,374.124 70.400 C 372.520 68.050,369.397 64.906,367.172 63.401 C 366.197 62.742,365.307 62.079,365.193 61.929 C 364.790 61.394,358.610 58.400,357.911 58.400 C 357.520 58.400,357.200 58.220,357.200 58.000 C 357.200 57.780,356.660 57.600,356.000 57.600 C 355.340 57.600,354.800 57.420,354.800 57.200 C 354.800 56.980,354.091 56.800,353.224 56.800 C 352.357 56.800,351.536 56.620,351.400 56.400 C 351.236 56.135,307.796 56.000,222.376 56.000 L 93.600 56.000 93.600 81.000 M218.800 118.800 L 218.800 156.400 206.200 156.400 L 193.600 156.400 193.600 118.800 L 193.600 81.200 206.200 81.200 L 218.800 81.200 218.800 118.800 M309.400 81.922 C 310.500 82.148,312.030 82.516,312.800 82.740 C 313.570 82.963,314.650 83.263,315.200 83.406 C 315.750 83.550,316.605 83.832,317.100 84.033 C 317.595 84.235,318.495 84.602,319.100 84.849 C 330.217 89.389,340.340 99.088,345.359 110.008 C 347.759 115.231,348.199 116.597,349.616 123.223 C 350.396 126.872,349.917 139.439,348.847 143.398 C 344.259 160.371,333.850 171.945,317.000 178.807 C 316.560 178.987,315.750 179.250,315.200 179.394 C 314.650 179.537,313.570 179.823,312.800 180.031 C 303.044 182.655,290.103 181.892,281.749 178.199 C 265.560 171.044,255.545 159.786,251.147 143.800 C 249.593 138.153,249.574 125.596,251.110 119.373 C 255.658 100.941,270.467 86.258,288.400 82.400 C 289.610 82.140,291.140 81.776,291.800 81.592 C 293.395 81.147,306.862 81.399,309.400 81.922 M168.800 125.000 L 168.800 156.400 156.200 156.400 L 143.600 156.400 143.600 125.000 L 143.600 93.600 156.200 93.600 L 168.800 93.600 168.800 125.000 M104.860 184.651 C 104.343 185.202,103.996 185.729,104.089 185.822 C 104.182 185.915,104.774 185.454,105.404 184.796 C 106.034 184.138,106.381 183.611,106.175 183.624 C 105.969 183.638,105.377 184.100,104.860 184.651 M275.106 218.700 L 275.000 231.000 262.500 231.106 L 250.000 231.211 250.000 218.806 L 250.000 206.400 262.606 206.400 L 275.212 206.400 275.106 218.700 M346.320 219.362 C 350.920 221.755,351.182 227.358,346.831 230.290 L 345.482 231.200 322.002 231.200 C 296.415 231.200,297.044 231.253,295.211 228.923 C 292.741 225.782,293.821 220.960,297.341 219.417 C 299.226 218.591,344.740 218.540,346.320 219.362 M25.964 292.333 C 26.180 292.736,26.670 293.321,27.053 293.633 C 27.669 294.135,27.661 294.050,26.988 292.900 C 26.200 291.552,25.271 291.038,25.964 292.333 " stroke="none" fill="#83d3f3" fill-rule="evenodd"></path><path id="path3" d="M48.200 56.400 C 48.064 56.620,47.243 56.800,46.376 56.800 C 45.509 56.800,44.799 56.935,44.797 57.100 C 44.795 57.265,44.345 57.608,43.796 57.863 C 43.042 58.213,42.864 58.213,43.068 57.863 C 43.216 57.608,42.977 57.715,42.536 58.101 C 42.096 58.486,41.613 58.679,41.463 58.530 C 41.140 58.206,36.400 60.400,36.400 60.874 C 36.400 61.053,36.117 61.200,35.771 61.200 C 35.026 61.200,33.931 62.197,34.286 62.552 C 34.422 62.689,34.171 62.800,33.728 62.800 C 32.882 62.800,27.949 67.315,27.491 68.508 C 27.345 68.889,26.904 69.213,26.513 69.228 C 25.889 69.253,25.900 69.299,26.600 69.600 C 27.356 69.925,27.349 69.945,26.476 69.972 C 25.968 69.987,25.664 70.180,25.800 70.400 C 25.936 70.620,25.846 70.800,25.600 70.800 C 25.354 70.800,25.244 70.947,25.355 71.127 C 25.466 71.307,25.207 71.707,24.779 72.015 C 24.329 72.340,24.000 73.046,24.000 73.688 C 24.000 74.533,23.808 74.800,23.200 74.800 C 22.667 74.800,22.400 75.067,22.400 75.600 C 22.400 76.040,22.220 76.400,22.000 76.400 C 21.780 76.400,21.600 76.760,21.600 77.200 C 21.600 77.640,21.420 78.000,21.200 78.000 C 20.980 78.000,20.800 78.450,20.800 79.000 C 20.800 79.550,20.620 80.000,20.400 80.000 C 20.180 80.000,20.000 80.540,20.000 81.200 C 20.000 81.860,19.856 82.400,19.679 82.400 C 19.503 82.400,19.340 83.069,19.316 83.888 C 19.293 84.706,19.078 85.441,18.837 85.521 C 18.523 85.626,18.402 112.492,18.406 181.333 C 18.410 243.244,18.549 276.788,18.800 276.400 C 19.088 275.954,19.189 276.184,19.194 277.300 C 19.198 278.227,19.391 278.802,19.700 278.806 C 20.039 278.810,20.007 278.949,19.600 279.237 C 19.148 279.556,19.124 279.711,19.500 279.864 C 19.775 279.975,20.000 280.592,20.000 281.233 C 20.000 281.875,20.180 282.400,20.400 282.400 C 20.620 282.400,20.800 282.735,20.800 283.144 C 20.800 284.056,23.205 288.800,23.667 288.800 C 23.850 288.800,24.000 289.068,24.000 289.395 C 24.000 290.111,25.211 291.600,25.793 291.600 C 26.402 291.600,27.272 293.160,26.952 293.678 C 26.785 293.948,26.858 294.011,27.138 293.838 C 27.392 293.681,27.600 293.752,27.600 293.995 C 27.600 294.595,29.454 296.412,29.758 296.109 C 29.891 295.976,30.000 296.090,30.000 296.362 C 30.000 297.166,31.094 298.095,31.336 297.496 C 31.447 297.223,31.554 297.450,31.575 298.000 C 31.605 298.797,31.691 298.878,32.000 298.400 C 32.314 297.913,32.389 297.968,32.394 298.687 C 32.398 299.308,32.579 299.506,32.997 299.346 C 33.337 299.215,33.699 299.392,33.839 299.758 C 33.975 300.111,34.426 300.400,34.843 300.400 C 35.259 300.400,35.600 300.580,35.600 300.800 C 35.600 301.020,36.005 301.214,36.500 301.232 C 36.995 301.249,37.177 301.353,36.904 301.464 C 36.365 301.681,37.197 302.800,37.896 302.800 C 38.091 302.800,38.995 303.160,39.906 303.600 C 40.816 304.040,41.840 304.400,42.181 304.400 C 42.521 304.400,42.800 304.580,42.800 304.800 C 42.800 305.020,43.565 305.203,44.500 305.206 C 45.745 305.211,46.039 305.316,45.600 305.600 C 45.145 305.894,45.315 305.989,46.305 305.994 C 47.023 305.997,47.923 306.194,48.305 306.431 C 48.801 306.739,79.534 306.767,155.600 306.529 C 214.230 306.345,262.400 306.332,262.645 306.501 C 263.328 306.970,351.513 306.864,351.804 306.393 C 351.938 306.177,352.656 306.000,353.400 306.000 C 354.144 306.000,354.864 305.820,355.000 305.600 C 355.136 305.380,355.599 305.200,356.029 305.200 C 356.727 305.200,358.267 304.533,358.800 304.000 C 358.910 303.890,359.450 303.736,360.000 303.659 C 360.550 303.581,361.090 303.388,361.200 303.230 C 361.310 303.071,361.715 302.825,362.100 302.683 C 362.485 302.541,362.803 302.104,362.806 301.713 C 362.811 301.106,362.870 301.089,363.200 301.600 C 363.458 302.000,363.590 302.033,363.594 301.700 C 363.597 301.425,363.920 301.200,364.312 301.200 C 364.703 301.200,365.283 300.840,365.600 300.400 C 365.917 299.960,366.420 299.600,366.717 299.600 C 367.484 299.600,368.399 298.587,368.406 297.729 C 368.410 297.270,368.521 297.169,368.706 297.456 C 368.919 297.786,369.142 297.758,369.516 297.356 C 369.937 296.902,369.937 296.798,369.516 296.791 C 369.232 296.786,369.579 296.497,370.286 296.148 C 370.993 295.799,371.533 295.398,371.486 295.257 C 371.439 295.116,371.503 295.000,371.629 295.000 C 372.116 295.000,373.200 293.624,373.200 293.005 C 373.200 292.646,373.372 292.459,373.582 292.589 C 373.793 292.719,374.284 292.325,374.673 291.713 C 375.063 291.101,375.566 290.468,375.791 290.306 C 376.050 290.120,376.016 290.010,375.697 290.006 C 375.420 290.003,375.735 289.433,376.397 288.741 C 377.058 288.048,377.600 287.238,377.600 286.941 C 377.600 286.643,377.774 286.400,377.987 286.400 C 378.201 286.400,378.282 286.159,378.169 285.864 C 378.056 285.569,378.242 285.097,378.582 284.815 C 378.922 284.533,379.200 283.874,379.200 283.351 C 379.200 282.828,379.380 282.400,379.600 282.400 C 379.820 282.400,380.000 281.860,380.000 281.200 C 380.000 280.540,380.143 280.000,380.318 280.000 C 380.493 280.000,380.681 279.325,380.736 278.500 C 380.790 277.675,380.994 276.944,381.188 276.876 C 381.383 276.808,381.561 270.733,381.584 263.376 L 381.626 250.000 303.413 250.000 L 225.200 250.000 225.200 259.395 L 225.200 268.791 209.505 268.895 L 193.810 269.000 193.548 270.827 C 191.578 284.609,171.224 284.498,168.867 270.692 L 168.578 269.000 134.400 269.000 L 100.222 269.000 99.938 270.662 C 97.583 284.457,78.247 284.772,75.180 271.065 L 74.673 268.800 59.136 268.800 L 43.600 268.800 43.600 252.995 C 43.600 244.302,43.759 236.877,43.953 236.495 C 44.148 236.113,44.553 235.260,44.853 234.600 C 45.558 233.054,48.654 229.958,50.200 229.253 C 50.860 228.953,51.713 228.548,52.095 228.353 C 52.477 228.159,53.231 228.000,53.771 228.000 C 54.311 228.000,54.864 227.820,55.000 227.600 C 55.136 227.380,55.766 227.200,56.400 227.200 C 57.034 227.200,57.664 227.020,57.800 226.800 C 57.936 226.580,58.566 226.400,59.200 226.400 C 59.834 226.400,60.464 226.220,60.600 226.000 C 60.736 225.780,61.366 225.600,62.000 225.600 C 62.634 225.600,63.264 225.420,63.400 225.200 C 63.536 224.980,64.166 224.800,64.800 224.800 C 65.434 224.800,66.064 224.620,66.200 224.400 C 66.336 224.180,66.966 224.000,67.600 224.000 C 68.234 224.000,68.864 223.820,69.000 223.600 C 69.136 223.380,69.629 223.200,70.095 223.200 C 70.996 223.200,73.339 222.535,74.495 221.951 C 74.877 221.758,75.554 221.600,76.000 221.600 C 76.446 221.600,77.123 221.434,77.505 221.232 C 77.887 221.029,80.000 220.387,82.200 219.803 C 84.400 219.220,86.515 218.653,86.900 218.544 C 87.285 218.435,87.600 218.088,87.600 217.773 C 87.600 217.458,87.780 217.200,88.000 217.200 C 88.220 217.200,88.400 216.840,88.400 216.400 C 88.400 215.960,88.535 215.599,88.700 215.597 C 89.051 215.593,90.000 213.663,90.000 212.954 C 90.000 212.686,90.141 212.407,90.313 212.333 C 90.693 212.171,94.622 204.308,94.507 203.938 C 94.462 203.794,94.690 203.457,95.013 203.189 C 95.336 202.921,95.600 202.508,95.600 202.271 C 95.600 201.667,100.105 192.630,100.487 192.467 C 100.659 192.393,100.800 191.988,100.800 191.567 C 100.800 191.145,100.980 190.800,101.200 190.800 C 101.420 190.800,101.600 190.440,101.600 190.000 C 101.600 189.560,101.780 189.200,102.000 189.200 C 102.220 189.200,102.400 188.840,102.400 188.400 C 102.400 187.960,102.550 187.600,102.732 187.600 C 102.915 187.600,103.320 187.105,103.632 186.500 C 104.294 185.218,105.800 183.600,106.333 183.600 C 107.750 183.600,107.681 182.330,106.088 179.085 C 103.296 173.399,100.570 166.126,98.035 157.600 C 97.774 156.724,97.480 156.585,95.669 156.479 L 93.600 156.358 93.600 106.179 L 93.600 56.000 71.024 56.000 C 56.404 56.000,48.360 56.141,48.200 56.400 M69.018 131.629 C 69.164 131.865,69.151 137.535,68.990 144.229 L 68.696 156.400 56.148 156.400 L 43.600 156.400 43.600 143.800 L 43.600 131.200 56.176 131.200 C 64.700 131.200,68.838 131.338,69.018 131.629 M297.341 219.417 C 293.821 220.960,292.741 225.782,295.211 228.923 C 297.044 231.253,296.415 231.200,322.002 231.200 L 345.482 231.200 346.831 230.290 C 351.182 227.358,350.920 221.755,346.320 219.362 C 344.740 218.540,299.226 218.591,297.341 219.417 M275.106 268.700 L 275.000 281.400 262.627 281.506 C 252.995 281.588,250.183 281.500,249.933 281.106 C 249.563 280.522,249.478 257.584,249.843 256.633 C 250.057 256.074,251.562 256.000,262.648 256.000 L 275.211 256.000 275.106 268.700 " stroke="none" fill="#54b4eb" fill-rule="evenodd"></path><path id="path4" d="M193.792 118.800 C 193.792 139.590,193.841 148.095,193.900 137.700 C 193.959 127.305,193.959 110.295,193.900 99.900 C 193.841 89.505,193.792 98.010,193.792 118.800 M291.800 81.604 C 291.140 81.782,289.610 82.140,288.400 82.400 C 272.981 85.717,260.240 96.640,253.173 112.600 C 248.958 122.119,248.825 138.740,252.880 149.200 C 257.972 162.332,267.496 171.900,281.749 178.199 C 290.103 181.892,303.044 182.655,312.800 180.031 C 313.570 179.823,314.650 179.537,315.200 179.394 C 316.247 179.121,316.770 178.922,319.400 177.797 C 336.379 170.534,349.007 153.502,349.797 136.800 L 349.958 133.400 349.442 137.000 C 349.158 138.980,348.798 141.140,348.643 141.800 C 348.129 143.982,347.513 146.188,347.191 147.000 C 347.016 147.440,346.395 149.047,345.810 150.571 C 344.724 153.400,343.301 156.164,341.954 158.062 C 341.539 158.646,341.200 159.306,341.200 159.528 C 341.200 159.751,341.065 159.993,340.900 160.067 C 340.735 160.140,340.068 160.920,339.417 161.800 C 337.512 164.376,333.985 167.955,331.400 169.935 C 330.080 170.946,328.940 171.914,328.867 172.087 C 328.793 172.259,328.512 172.400,328.242 172.400 C 327.972 172.400,327.402 172.715,326.975 173.100 C 326.224 173.777,324.651 174.674,321.100 176.450 C 320.165 176.918,319.087 177.458,318.705 177.650 C 318.323 177.843,317.736 178.000,317.400 178.000 C 317.064 178.000,316.477 178.158,316.095 178.351 C 314.776 179.017,312.593 179.568,306.469 180.779 C 302.242 181.615,294.855 181.260,289.500 179.963 C 284.151 178.668,283.109 178.300,278.200 175.968 C 272.142 173.091,264.654 167.087,260.778 162.000 C 260.023 161.010,259.270 160.140,259.103 160.067 C 258.936 159.993,258.800 159.756,258.800 159.539 C 258.800 159.322,258.294 158.392,257.675 157.472 C 250.012 146.079,248.121 127.518,253.247 114.000 C 254.335 111.132,256.513 106.637,256.898 106.467 C 257.064 106.393,257.200 106.156,257.200 105.939 C 257.200 105.574,259.219 102.438,260.181 101.308 C 263.227 97.732,265.402 95.442,267.314 93.794 C 268.587 92.697,269.847 91.611,270.114 91.381 C 271.247 90.404,274.378 88.400,274.772 88.400 C 275.007 88.400,275.200 88.264,275.200 88.098 C 275.200 87.756,275.802 87.474,281.344 85.221 C 285.751 83.430,291.204 82.152,296.600 81.646 L 300.200 81.308 296.600 81.295 C 294.620 81.288,292.460 81.427,291.800 81.604 M143.698 125.100 L 143.795 156.600 143.900 125.306 L 144.005 94.011 156.502 93.900 L 169.000 93.788 156.300 93.694 L 143.600 93.600 143.698 125.100 M93.600 131.200 L 93.600 156.400 95.900 156.326 L 98.200 156.252 96.100 156.105 L 94.000 155.958 94.000 131.185 L 94.000 106.411 106.500 106.300 L 119.000 106.188 106.300 106.094 L 93.600 106.000 93.600 131.200 M43.600 143.800 L 43.600 156.400 56.300 156.306 L 69.000 156.212 56.500 156.100 L 44.000 155.989 44.000 143.805 L 44.000 131.621 50.100 131.499 L 56.200 131.378 49.900 131.289 L 43.600 131.200 43.600 143.800 M68.799 137.519 L 68.997 143.800 69.110 137.831 C 69.172 134.548,69.082 131.722,68.911 131.550 C 68.740 131.378,68.689 134.064,68.799 137.519 M105.134 185.100 C 103.649 186.638,101.832 189.937,95.607 202.400 C 86.531 220.571,88.342 218.138,82.779 219.629 C 80.261 220.303,77.887 221.023,77.505 221.228 C 77.123 221.432,76.446 221.600,76.000 221.600 C 75.554 221.600,74.877 221.758,74.495 221.951 C 73.339 222.535,70.996 223.200,70.095 223.200 C 69.629 223.200,69.136 223.380,69.000 223.600 C 68.864 223.820,68.234 224.000,67.600 224.000 C 66.966 224.000,66.336 224.180,66.200 224.400 C 66.064 224.620,65.434 224.800,64.800 224.800 C 64.166 224.800,63.536 224.980,63.400 225.200 C 63.264 225.420,62.634 225.600,62.000 225.600 C 61.366 225.600,60.736 225.780,60.600 226.000 C 60.464 226.220,59.834 226.400,59.200 226.400 C 58.566 226.400,57.936 226.580,57.800 226.800 C 57.664 227.020,57.034 227.200,56.400 227.200 C 55.766 227.200,55.136 227.380,55.000 227.600 C 54.864 227.820,54.311 228.000,53.771 228.000 C 53.231 228.000,52.477 228.159,52.095 228.353 C 51.713 228.548,50.860 228.953,50.200 229.253 C 48.654 229.958,45.558 233.054,44.853 234.600 C 44.553 235.260,44.148 236.113,43.953 236.495 C 43.759 236.877,43.600 244.302,43.600 252.995 L 43.600 268.800 59.136 268.800 L 74.673 268.800 75.180 271.065 C 78.247 284.772,97.583 284.457,99.938 270.662 L 100.222 269.000 134.400 269.000 L 168.578 269.000 168.867 270.692 C 171.224 284.498,191.578 284.609,193.548 270.827 L 193.810 269.000 209.505 268.895 L 225.200 268.791 225.200 255.036 L 225.200 241.281 224.062 239.117 C 222.475 236.100,218.173 232.000,216.594 232.000 C 216.457 232.000,215.559 231.460,214.600 230.800 C 213.641 230.140,212.741 229.600,212.600 229.600 C 212.459 229.600,211.559 229.060,210.600 228.400 C 209.641 227.740,208.741 227.200,208.600 227.200 C 208.459 227.200,207.559 226.660,206.600 226.000 C 205.641 225.340,204.663 224.800,204.428 224.800 C 204.193 224.800,204.000 224.641,204.000 224.447 C 204.000 224.252,203.685 223.990,203.300 223.864 C 202.607 223.637,201.114 222.793,196.748 220.159 C 193.969 218.483,192.721 218.342,195.336 220.000 C 196.376 220.660,197.357 221.204,197.514 221.209 C 197.671 221.214,198.250 221.570,198.800 222.000 C 199.350 222.430,200.042 222.786,200.338 222.791 C 200.634 222.796,201.354 223.139,201.938 223.553 C 202.522 223.967,203.630 224.667,204.400 225.107 C 217.492 232.597,222.075 235.984,223.752 239.409 L 224.800 241.550 224.800 254.975 L 224.800 268.400 209.254 268.400 L 193.709 268.400 193.456 266.557 C 192.143 256.974,179.857 253.059,172.667 259.934 C 170.544 261.964,168.820 265.341,168.806 267.500 L 168.800 268.400 134.400 268.400 C 100.486 268.400,100.000 268.389,100.000 267.615 C 100.000 264.408,96.442 259.371,92.922 257.593 C 85.760 253.977,75.200 259.620,75.200 267.064 L 75.200 268.400 59.600 268.400 L 44.000 268.400 44.000 252.995 C 44.000 244.439,44.163 237.280,44.366 236.895 C 44.568 236.513,45.021 235.536,45.373 234.725 C 46.649 231.788,50.127 229.410,55.200 228.005 C 56.190 227.731,57.450 227.369,58.000 227.200 C 58.550 227.031,59.810 226.668,60.800 226.392 C 64.508 225.361,65.424 225.089,66.319 224.749 C 66.824 224.557,67.682 224.400,68.224 224.400 C 68.767 224.400,69.523 224.238,69.905 224.039 C 70.287 223.840,71.410 223.460,72.400 223.193 C 73.390 222.926,74.650 222.569,75.200 222.400 C 75.750 222.231,76.920 221.894,77.800 221.652 C 78.680 221.409,81.317 220.668,83.660 220.005 L 87.919 218.800 112.460 218.772 C 125.957 218.756,136.671 218.614,136.269 218.456 C 135.867 218.297,133.454 216.105,130.907 213.584 C 127.019 209.735,124.767 207.163,118.598 199.527 C 117.246 197.854,112.320 190.254,110.413 186.900 C 107.956 182.578,107.667 182.479,105.134 185.100 M138.691 218.689 C 139.401 218.777,140.661 218.779,141.491 218.692 C 142.321 218.605,141.740 218.533,140.200 218.531 C 138.660 218.529,137.981 218.600,138.691 218.689 M145.511 218.693 C 146.451 218.778,147.891 218.777,148.711 218.691 C 149.530 218.605,148.760 218.536,147.000 218.537 C 145.240 218.539,144.570 218.609,145.511 218.693 M262.300 256.300 L 274.800 256.411 274.800 268.800 L 274.800 281.189 262.400 281.303 L 250.000 281.417 262.500 281.409 L 275.000 281.400 275.106 268.700 L 275.211 256.000 262.506 256.094 L 249.800 256.188 262.300 256.300 M249.778 268.800 C 249.778 275.510,249.832 278.255,249.899 274.900 C 249.966 271.545,249.966 266.055,249.899 262.700 C 249.832 259.345,249.778 262.090,249.778 268.800 M136.880 306.880 C 136.576 307.184,136.400 308.713,136.400 311.047 C 136.400 313.074,136.230 314.793,136.022 314.867 C 135.814 314.940,135.602 315.945,135.551 317.100 C 135.499 318.255,135.309 319.200,135.129 319.200 C 134.948 319.200,134.800 319.740,134.800 320.400 C 134.800 321.060,134.620 321.600,134.400 321.600 C 134.180 321.600,134.000 322.140,134.000 322.800 C 134.000 323.460,133.820 324.000,133.600 324.000 C 133.380 324.000,133.200 324.525,133.200 325.167 C 133.200 325.808,133.063 326.393,132.895 326.467 C 132.728 326.540,131.794 328.220,130.820 330.200 C 129.847 332.180,128.904 333.860,128.725 333.933 C 128.546 334.007,128.400 334.246,128.400 334.466 C 128.400 334.947,125.543 339.345,125.108 339.533 C 124.939 339.607,124.800 339.932,124.800 340.257 C 124.800 340.601,124.608 340.728,124.338 340.562 C 124.073 340.398,123.984 340.451,124.130 340.687 C 124.269 340.912,124.027 341.508,123.592 342.010 C 123.156 342.512,122.800 342.797,122.800 342.644 C 122.800 342.491,121.368 343.813,119.617 345.583 C 117.867 347.352,116.196 348.800,115.905 348.800 C 115.615 348.800,115.117 349.160,114.800 349.600 C 114.483 350.040,114.021 350.400,113.774 350.400 C 113.526 350.400,112.998 350.760,112.600 351.200 C 112.202 351.640,111.634 352.000,111.338 352.000 C 111.042 352.000,110.800 352.180,110.800 352.400 C 110.800 352.620,110.530 352.800,110.200 352.800 C 109.870 352.800,109.600 352.980,109.600 353.200 C 109.600 353.420,109.330 353.600,109.000 353.600 C 108.670 353.600,108.400 353.780,108.400 354.000 C 108.400 354.220,108.040 354.400,107.600 354.400 C 107.058 354.400,106.800 354.667,106.800 355.227 C 106.800 355.889,106.979 356.006,107.700 355.813 C 111.059 354.914,111.889 354.675,112.600 354.402 C 113.040 354.234,115.290 353.507,117.600 352.787 C 119.910 352.067,123.870 350.804,126.400 349.980 C 128.930 349.156,134.780 347.280,139.400 345.812 C 144.020 344.345,148.790 342.821,150.000 342.428 C 151.210 342.034,154.090 341.119,156.400 340.395 C 158.710 339.671,162.670 338.406,165.200 337.584 C 167.730 336.763,173.310 334.973,177.600 333.606 C 181.890 332.240,188.370 330.166,192.000 328.996 C 195.630 327.827,201.570 325.930,205.200 324.780 C 208.830 323.629,214.410 321.838,217.600 320.800 C 220.790 319.761,225.290 318.324,227.600 317.605 C 229.910 316.887,233.330 315.795,235.200 315.180 C 237.070 314.564,241.840 313.038,245.800 311.789 C 254.991 308.891,261.348 306.786,261.564 306.569 C 261.657 306.476,233.749 306.400,199.547 306.400 C 151.713 306.400,137.249 306.511,136.880 306.880 " stroke="none" fill="#949c9c" fill-rule="evenodd"></path></g></svg>